<svg xmlns="http://www.w3.org/2000/svg" fill="none" viewBox="0 0 14 14" id="Check-Circle--Streamline-Flex.svg"><desc>Check Circle Streamline Icon: https://streamlinehq.com</desc><g id="Check-Circle--Streamline-Flex.svg"><path id="Subtract" fill="currentcolor" fill-rule="evenodd" d="M2.02145 2.02145C3.20296 0.839932 4.90797 0.25 7 0.25c2.09203 0 3.797 0.589932 4.9786 1.77145C13.1601 3.20296 13.75 4.90797 13.75 7c0 2.09203 -0.5899 3.797 -1.7714 4.9786C10.797 13.1601 9.09203 13.75 7 13.75c-2.09203 0 -3.79704 -0.5899 -4.97855 -1.7714C0.839932 10.797 0.25 9.09203 0.25 7c0 -2.09203 0.589932 -3.79704 1.77145 -4.97855Zm7.89848 2.94147c0.25567 -0.23192 0.27487 -0.62718 0.04298 -0.88284 -0.23191 -0.25566 -0.62717 -0.27491 -0.88283 -0.04299 -0.83075 0.7536 -1.45479 1.43087 -1.98155 2.25307 -0.38363 0.59877 -0.70658 1.26028 -1.0228 2.06201L4.94869 7.18991c-0.2403 -0.2478 -0.63598 -0.25389 -0.88378 -0.01359 -0.2478 0.24029 -0.25389 0.63597 -0.0136 0.88378l1.81818 1.875c0.15096 0.1557 0.37183 0.222 0.58357 0.1752 0.21173 -0.0468 0.38409 -0.20002 0.45538 -0.40482 0.42024 -1.20716 0.79331 -2.03972 1.2426 -2.741 0.44682 -0.69741 0.98591 -1.2913 1.76889 -2.00156Z" clip-rule="evenodd" stroke-width="1"></path></g></svg>