<svg xmlns="http://www.w3.org/2000/svg" fill="none" viewBox="0 0 14 14" height="14" width="14"><g id="delete-2--remove-bold-add-button-buttons-delete-cross-x-mathematics-multiply-math"><path id="Union" fill="currentcolor" fill-rule="evenodd" d="M12.063 0.701c-0.971 -0.553 -2.174 -0.28 -2.932 0.428l-0.496 0.464 -0.002 0.001c-0.423 0.395 -0.852 0.795 -1.284 1.202a0.51 0.51 0 0 1 -0.698 0c-0.432 -0.407 -0.862 -0.808 -1.284 -1.202l-0.001 -0.001 -0.002 -0.002 -0.495 -0.462C4.11 0.42 2.908 0.149 1.937 0.7a3.31 3.31 0 0 0 -0.71 0.526 3.296 3.296 0 0 0 -0.526 0.71c-0.553 0.971 -0.28 2.174 0.428 2.932 0.154 0.165 0.31 0.33 0.465 0.498 0.395 0.422 0.795 0.851 1.202 1.284a0.51 0.51 0 0 1 0 0.698c-0.407 0.432 -0.807 0.861 -1.201 1.284l-0.002 0c-0.155 0.168 -0.31 0.334 -0.464 0.498 -0.709 0.76 -0.98 1.962 -0.429 2.933 0.139 0.244 0.308 0.491 0.526 0.71 0.219 0.218 0.465 0.387 0.71 0.526 0.971 0.553 2.174 0.28 2.932 -0.428l0.498 -0.466c0.423 -0.394 0.852 -0.794 1.284 -1.201a0.51 0.51 0 0 1 0.698 0c0.432 0.407 0.862 0.807 1.284 1.202l0.002 0.002 0.496 0.463c0.758 0.708 1.961 0.98 2.932 0.428 0.244 -0.139 0.491 -0.308 0.71 -0.526 0.218 -0.219 0.387 -0.466 0.526 -0.71 0.553 -0.971 0.28 -2.174 -0.428 -2.932 -0.154 -0.165 -0.31 -0.33 -0.465 -0.498 -0.395 -0.422 -0.795 -0.851 -1.202 -1.284a0.51 0.51 0 0 1 0 -0.698c0.407 -0.432 0.808 -0.862 1.202 -1.284l0.002 -0.002 0.463 -0.496c0.708 -0.758 0.98 -1.961 0.428 -2.932a3.294 3.294 0 0 0 -0.526 -0.71 3.297 3.297 0 0 0 -0.71 -0.526Z" clip-rule="evenodd" stroke-width="1"></path></g></svg>