<svg xmlns="http://www.w3.org/2000/svg" fill="none" viewBox="0 0 14 14" height="14" width="14"><g id="delete-square--button-remove-buttons-add-square-delete-cross-x-mathematics-multiply-math"><path id="Subtract" fill="currentcolor" fill-rule="evenodd" d="M3.63 0.226a30.065 30.065 0 0 1 6.74 0 3.882 3.882 0 0 1 3.416 3.426C13.9 4.722 14 5.846 14 7s-0.1 2.278 -0.214 3.348a3.882 3.882 0 0 1 -3.416 3.426 30.064 30.064 0 0 1 -6.74 0 3.882 3.882 0 0 1 -3.416 -3.426C0.1 9.278 0 8.154 0 7s0.1 -2.278 0.214 -3.348A3.882 3.882 0 0 1 3.63 0.226Zm6.065 9.468a0.625 0.625 0 0 1 -0.884 0L7 7.884l-1.81 1.81a0.625 0.625 0 1 1 -0.885 -0.884L6.116 7l-1.81 -1.81a0.625 0.625 0 0 1 0.884 -0.884L7 6.116l1.81 -1.81a0.625 0.625 0 0 1 0.885 0.884L7.885 7l1.81 1.81a0.625 0.625 0 0 1 0 0.884Z" clip-rule="evenodd" stroke-width="1"></path></g></svg>