<svg xmlns="http://www.w3.org/2000/svg" width="35.352" height="35.149" viewBox="0 0 35.352 35.149"><defs><style>.a{fill-rule:evenodd;}</style></defs><path class="a" d="M17.691,0A17.841,17.841,0,0,0,0,18.02,17.99,17.99,0,0,0,12.1,35.114c.879.179,1.2-.388,1.2-.865,0-.418-.029-1.85-.029-3.342C8.347,31.982,7.322,28.76,7.322,28.76A4.59,4.59,0,0,0,5.36,26.135c-1.611-1.1.117-1.1.117-1.1A3.714,3.714,0,0,1,8.2,26.88a3.724,3.724,0,0,0,5.155,1.492,3.856,3.856,0,0,1,1.113-2.416c-3.925-.418-8.054-1.969-8.054-8.891A7.1,7.1,0,0,1,8.23,12.232a6.622,6.622,0,0,1,.176-4.774s1.494-.477,4.862,1.85a16.686,16.686,0,0,1,8.845,0c3.368-2.327,4.862-1.85,4.862-1.85a6.621,6.621,0,0,1,.176,4.774,6.962,6.962,0,0,1,1.816,4.833c0,6.922-4.13,8.443-8.084,8.891a4.305,4.305,0,0,1,1.2,3.341c0,2.416-.029,4.356-.029,4.952,0,.477.322,1.045,1.2.866a17.991,17.991,0,0,0,12.1-17.095A17.817,17.817,0,0,0,17.691,0Z"/></svg>