<svg xmlns="http://www.w3.org/2000/svg" fill="none" viewBox="0 0 14 14" height="14" width="14"><g id="hamburger-menu-square--navigation-parallel-hamburger-buttonmenu-square"><path id="Subtract" fill="currentcolor" fill-rule="evenodd" d="M3.657 0.475C4.731 0.355 5.852 0.25 7 0.25c1.148 0 2.269 0.105 3.343 0.225a3.632 3.632 0 0 1 3.194 3.203c0.115 1.069 0.213 2.182 0.213 3.322 0 1.14 -0.098 2.253 -0.213 3.322a3.632 3.632 0 0 1 -3.194 3.203c-1.074 0.12 -2.195 0.225 -3.343 0.225 -1.148 0 -2.269 -0.105 -3.343 -0.225a3.632 3.632 0 0 1 -3.194 -3.203C0.348 9.253 0.25 8.14 0.25 7c0 -1.14 0.098 -2.253 0.213 -3.322A3.632 3.632 0 0 1 3.657 0.475Zm0.63 2.876a0.625 0.625 0 1 0 0 1.25h5.3a0.625 0.625 0 1 0 0 -1.25h-5.3Zm0 3.024a0.625 0.625 0 1 0 0 1.25h5.3a0.625 0.625 0 1 0 0 -1.25h-5.3Zm0 3.024a0.625 0.625 0 1 0 0 1.25h5.3a0.625 0.625 0 1 0 0 -1.25h-5.3Z" clip-rule="evenodd" stroke-width="1"></path></g></svg>