<svg xmlns="http://www.w3.org/2000/svg" width="35.611" height="35.614" viewBox="0 0 35.611 35.614"><g transform="translate(0 0)"><path d="M21.886,7.251c4.755,0,5.317.018,7.2.1a9.856,9.856,0,0,1,3.306.613,5.891,5.891,0,0,1,3.382,3.382,9.856,9.856,0,0,1,.613,3.306c.086,1.878.1,2.441.1,7.2s-.018,5.317-.1,7.2a9.856,9.856,0,0,1-.613,3.306,5.9,5.9,0,0,1-3.379,3.379,9.856,9.856,0,0,1-3.306.613c-1.877.086-2.441.1-7.2.1s-5.318-.018-7.2-.1a9.856,9.856,0,0,1-3.306-.613A5.891,5.891,0,0,1,8,32.35a9.856,9.856,0,0,1-.613-3.306c-.086-1.878-.1-2.441-.1-7.2s.018-5.317.1-7.2A9.856,9.856,0,0,1,8,11.347a5.891,5.891,0,0,1,3.382-3.382,9.856,9.856,0,0,1,3.306-.613c1.878-.086,2.441-.1,7.2-.1m0-3.208c-4.836,0-5.442.02-7.342.107a13.067,13.067,0,0,0-4.323.83,9.1,9.1,0,0,0-5.209,5.209,13.07,13.07,0,0,0-.827,4.322c-.086,1.895-.107,2.5-.107,7.34s.02,5.442.107,7.342a13.056,13.056,0,0,0,.827,4.321,9.108,9.108,0,0,0,5.209,5.208,13.05,13.05,0,0,0,4.322.828c1.895.086,2.506.107,7.342.107s5.442-.021,7.341-.107a13.026,13.026,0,0,0,4.319-.828,9.1,9.1,0,0,0,5.208-5.208,13.05,13.05,0,0,0,.828-4.322c.086-1.895.107-2.506.107-7.342s-.02-5.442-.107-7.342a13.026,13.026,0,0,0-.828-4.319,9.108,9.108,0,0,0-5.208-5.209,13.07,13.07,0,0,0-4.322-.827c-1.895-.086-2.5-.107-7.34-.107Z" transform="translate(-4.08 -4.04)"/><path d="M134.95,126.64a8.31,8.31,0,1,0,8.31,8.31,8.31,8.31,0,0,0-8.31-8.31Zm0,13.707a5.4,5.4,0,1,1,5.4-5.4A5.4,5.4,0,0,1,134.95,140.347Z" transform="translate(-117.145 -117.142)"/><circle cx="2.342" cy="2.342" r="2.342" transform="translate(24.844 6.086)"/></g></svg>