<svg xmlns="http://www.w3.org/2000/svg" width="35.614" height="36" viewBox="0 0 35.614 36"><defs><style>.a{fill-rule:evenodd;}</style></defs><path class="a" d="M17.807,0A17.9,17.9,0,0,0,0,18,17.9,17.9,0,0,0,17.807,36,17.9,17.9,0,0,0,35.614,18,17.9,17.9,0,0,0,17.807,0m8.254,12.241c-.268,2.846-1.428,9.753-2.017,12.941-.25,1.349-.741,1.8-1.217,1.845-1.034.1-1.819-.691-2.821-1.354-1.567-1.038-2.453-1.685-3.974-2.7-1.758-1.171-.618-1.815.384-2.867.262-.275,4.818-4.464,4.907-4.844a.371.371,0,0,0-.083-.318.406.406,0,0,0-.369-.036q-.236.054-7.511,5.018a3.358,3.358,0,0,1-1.931.721,12.593,12.593,0,0,1-2.768-.662c-1.115-.366-2-.56-1.924-1.182q.06-.486,1.325-.994,7.787-3.429,10.385-4.522c4.945-2.079,5.973-2.44,6.643-2.452a1.162,1.162,0,0,1,.69.209.761.761,0,0,1,.253.487,3.209,3.209,0,0,1,.03.709"/></svg>