<svg xmlns="http://www.w3.org/2000/svg" width="38.442" height="31.62" viewBox="0 0 38.442 31.62"><g transform="translate(0 0)"><path d="M87.176,130.02c14.506,0,22.444-12.169,22.444-22.7,0-.342,0-.685-.015-1.027a16.175,16.175,0,0,0,3.938-4.139,15.846,15.846,0,0,1-4.538,1.26,8.012,8.012,0,0,0,3.477-4.419,15.582,15.582,0,0,1-5.015,1.93,7.832,7.832,0,0,0-5.753-2.521,7.944,7.944,0,0,0-7.892,7.983,8.917,8.917,0,0,0,.2,1.821,22.316,22.316,0,0,1-16.26-8.341,8.073,8.073,0,0,0,2.446,10.659,7.909,7.909,0,0,1-3.569-1v.109a7.974,7.974,0,0,0,6.322,7.827,7.846,7.846,0,0,1-3.553.14,7.9,7.9,0,0,0,7.369,5.54,15.707,15.707,0,0,1-9.8,3.423,15.012,15.012,0,0,1-1.877-.109,22.252,22.252,0,0,0,12.076,3.563" transform="translate(-75.1 -98.4)"/></g></svg>