<svg xmlns="http://www.w3.org/2000/svg" fill="none" viewBox="0 0 14 14" id="Warning-Triangle--Streamline-Flex.svg"><desc>Warning Triangle Streamline Icon: https://streamlinehq.com</desc><g id="Warning-Triangle--Streamline-Flex.svg"><path id="Subtract" fill="currentcolor" fill-rule="evenodd" d="M4.75509 2.29875c0.91451 -1.867113 3.57582 -1.867112 4.49032 0l3.94889 8.06235c0.089 0.1817 0.2069 0.445 0.226 0.7285 0.0219 0.3239 -0.0869 0.6592 -0.405 0.9127 -0.2754 0.2195 -0.6486 0.3865 -1.0557 0.518 -0.4144 0.1339 -0.8992 0.2421 -1.4241 0.3273 -1.05023 0.1703 -2.29667 0.254 -3.53525 0.254 -1.23858 0 -2.48502 -0.0837 -3.53524 -0.254 -0.52494 -0.0852 -1.0097 -0.1934 -1.42411 -0.3273 -0.40712 -0.1315 -0.78032 -0.2985 -1.055728 -0.518 -0.316811 -0.2525 -0.42757 -0.5859 -0.405889 -0.9111 0.018912 -0.2836 0.137391 -0.5473 0.226889 -0.7301L4.75509 2.29875ZM7 3.17593c0.41421 0 0.75 0.33579 0.75 0.75v3.23971c0 0.41421 -0.33579 0.75 -0.75 0.75s-0.75 -0.33579 -0.75 -0.75V3.92593c0 -0.41421 0.33579 -0.75 0.75 -0.75Zm0 5.56153c0.41421 0 0.75 0.33578 0.75 0.75v0.58664c0 0.4142 -0.33579 0.75 -0.75 0.75s-0.75 -0.3358 -0.75 -0.75v-0.58664c0 -0.41422 0.33579 -0.75 0.75 -0.75Z" clip-rule="evenodd" stroke-width="1"></path></g></svg>