<?xml version="1.0" standalone="no"?>
<!DOCTYPE svg PUBLIC "-//W3C//DTD SVG 20010904//EN"
 "http://www.w3.org/TR/2001/REC-SVG-20010904/DTD/svg10.dtd">
<svg version="1.0" xmlns="http://www.w3.org/2000/svg"
 width="700.000000pt" height="700.000000pt" viewBox="0 0 700.000000 700.000000"
 preserveAspectRatio="xMidYMid meet">
<metadata>
Created by potrace 1.14, written by Peter Selinger 2001-2017
</metadata>
<g transform="translate(0.000000,700.000000) scale(0.100000,-0.100000)"
fill="#000000" stroke="none">
<path d="M3161 6969 c-17 -17 -31 -34 -31 -39 0 -4 -15 -41 -34 -82 -19 -40
-98 -214 -176 -387 -78 -172 -157 -347 -176 -388 -19 -41 -34 -76 -34 -77 0
-2 -9 -25 -21 -51 l-21 -48 -22 25 c-11 14 -53 61 -93 104 -39 43 -81 90 -92
103 -11 13 -53 60 -93 104 -40 44 -95 105 -123 136 -168 188 -227 228 -340
235 -149 9 -296 -80 -345 -210 -6 -16 -56 -209 -111 -429 -55 -220 -101 -400
-102 -401 -1 -1 -20 -4 -42 -7 -62 -9 -190 -54 -291 -103 -490 -238 -764 -779
-669 -1320 45 -250 167 -478 358 -665 l98 -96 -206 -822 c-113 -452 -205 -823
-205 -826 0 -3 56 -5 124 -5 l124 0 8 33 c4 17 9 37 10 42 1 6 28 111 59 235
31 124 58 232 60 240 2 8 11 44 20 80 10 36 18 70 18 77 0 7 3 10 7 8 4 -2 6
-164 6 -360 l-1 -355 230 1 c129 0 221 4 210 8 -69 29 -105 113 -100 237 4
127 47 192 131 202 64 7 107 -17 136 -77 19 -39 23 -62 23 -146 0 -88 -3 -105
-25 -145 -15 -28 -39 -52 -60 -62 -34 -18 -31 -18 187 -18 250 0 224 -9 243
88 11 62 14 209 5 267 -34 211 -162 346 -340 359 -123 8 -222 -45 -278 -149
-15 -28 -16 -16 -17 213 l0 242 -27 1 c-16 0 -75 0 -133 0 -58 1 -108 3 -112
5 -4 3 -1 22 7 44 8 22 12 40 10 40 -2 0 2 18 10 40 8 22 14 41 13 43 -3 5 74
304 81 316 6 9 16 9 47 -5 65 -28 77 -32 145 -53 123 -37 228 -49 379 -46 319
7 605 130 835 360 111 111 207 252 268 395 21 50 57 163 63 196 2 16 9 54 16
84 15 78 17 292 2 377 -28 157 -81 307 -155 434 -196 337 -558 570 -940 605
l-76 6 89 357 c49 196 93 366 99 377 12 23 43 43 74 48 32 5 71 -13 101 -47
15 -18 69 -77 119 -132 50 -55 106 -118 125 -139 19 -21 40 -44 46 -50 12 -13
296 -327 335 -371 51 -57 233 -260 313 -350 45 -49 99 -109 121 -134 22 -25
47 -52 55 -61 21 -23 161 -178 180 -200 29 -33 165 -184 185 -205 11 -12 54
-59 95 -106 41 -46 77 -86 80 -89 3 -3 41 -45 85 -95 68 -78 108 -122 175
-195 8 -9 51 -56 95 -106 44 -49 82 -91 85 -94 3 -3 44 -48 90 -100 99 -112
135 -151 174 -194 74 -81 107 -117 176 -196 41 -46 84 -94 95 -106 11 -11 49
-53 85 -94 36 -40 76 -85 90 -100 23 -25 135 -150 170 -190 8 -9 47 -53 86
-96 40 -43 81 -90 92 -104 l20 -25 39 22 c123 70 274 -16 258 -147 -1 -14 -3
-30 -4 -36 -1 -14 -56 -74 -67 -74 -5 0 -37 30 -69 67 -33 38 -80 90 -106 117
l-45 48 -17 -26 c-62 -94 14 -227 131 -229 26 -1 59 2 73 6 31 8 41 0 139
-113 107 -122 99 -118 102 -53 l3 56 153 0 c84 0 156 -4 160 -8 4 -4 8 -37 8
-73 2 -112 2 -111 25 -67 40 77 116 135 196 152 54 11 156 5 202 -13 61 -23
125 -75 157 -129 46 -79 54 -132 54 -357 l0 -208 39 0 c54 0 101 44 101 93 0
23 -90 262 -246 659 -135 342 -266 675 -291 738 -25 63 -92 233 -149 377 -57
144 -104 265 -104 269 0 3 -7 20 -15 37 -12 28 -293 737 -569 1442 -48 121
-91 229 -96 240 -5 11 -36 92 -70 180 -73 189 -98 221 -163 212 -22 -3 -48
-14 -58 -24 -10 -10 -128 -171 -264 -358 -135 -187 -249 -341 -253 -342 -4 -2
-16 12 -27 31 -11 19 -195 313 -410 655 -214 342 -399 636 -410 655 -144 241
-243 387 -272 401 -47 23 -78 19 -112 -16z m-1579 -1832 c26 -7 49 -15 52 -17
2 -3 -6 -47 -20 -99 -13 -51 -24 -99 -24 -106 0 -7 13 -15 29 -18 16 -3 39 -9
52 -12 23 -6 25 -2 49 100 16 68 29 105 38 105 21 0 106 -22 115 -30 4 -4 -4
-53 -18 -110 -14 -57 -22 -106 -18 -110 4 -4 27 -14 51 -23 55 -22 114 -59
147 -94 109 -113 74 -315 -64 -378 l-41 -18 38 -23 c21 -13 52 -42 68 -65 27
-39 29 -49 29 -128 0 -73 -5 -94 -28 -143 -34 -70 -103 -133 -166 -152 -41
-13 -148 -14 -266 -4 -28 3 -30 1 -51 -77 -12 -44 -25 -93 -28 -108 -7 -31
-10 -31 -107 -6 l-36 9 27 108 c15 59 26 108 25 110 -2 2 -26 9 -54 17 -55 14
-53 16 -65 -45 -8 -37 -39 -154 -42 -159 -3 -3 -124 26 -130 31 -1 2 9 51 24
110 14 59 24 110 20 113 -3 3 -62 19 -132 36 -69 17 -126 35 -126 39 0 5 14
40 31 78 23 50 36 69 48 67 9 -2 35 -8 57 -14 51 -14 69 -8 83 27 5 15 42 159
82 320 85 344 85 336 -6 367 -33 12 -65 23 -72 25 -8 4 -7 20 4 65 8 33 18 63
21 67 4 4 66 -8 139 -26 l132 -32 10 40 c44 192 39 185 123 163z"/>
<path d="M1541 4703 c-6 -21 -22 -81 -35 -135 l-23 -96 26 -6 c145 -32 200
-35 253 -13 43 18 66 50 72 98 5 43 -13 78 -57 112 -33 25 -126 60 -192 73
-32 6 -34 4 -44 -33z"/>
<path d="M1441 4302 c-42 -159 -61 -247 -57 -257 2 -7 19 -15 38 -18 18 -3 56
-11 83 -17 80 -18 176 -15 219 5 46 22 78 82 69 130 -16 82 -93 132 -268 175
-27 6 -56 14 -62 16 -7 2 -17 -13 -22 -34z"/>
<path d="M2033 2828 c-39 -10 -100 -68 -109 -103 -4 -14 -4 -45 -1 -67 19
-139 215 -182 299 -66 32 46 32 130 0 174 -42 56 -117 81 -189 62z"/>
<path d="M2511 2650 l-64 -5 -1 -110 -1 -110 -52 -1 c-29 -1 -56 -2 -60 -3 -5
0 -8 -54 -8 -118 0 -133 -1 -130 76 -128 l47 1 0 -200 c1 -111 1 -213 1 -228
l1 -28 187 0 c180 0 186 1 170 18 -15 16 -17 47 -17 229 l0 210 76 -2 c56 -1
77 2 81 12 3 7 6 63 7 123 1 125 7 117 -96 115 l-68 -2 0 113 0 114 -62 1
c-35 0 -83 1 -108 2 -25 1 -74 0 -109 -3z"/>
<path d="M3415 2432 c-53 -5 -139 -33 -185 -59 -64 -36 -148 -126 -177 -189
-56 -123 -64 -320 -18 -431 l14 -33 199 0 200 0 -33 33 c-40 40 -58 97 -60
195 -2 119 38 203 106 224 80 23 146 -17 169 -102 11 -40 11 -40 63 -41 81 -1
261 2 263 4 1 1 -2 27 -6 59 -29 204 -191 334 -427 341 -43 1 -91 1 -108 -1z"/>
<path d="M4415 2428 c-106 -20 -131 -29 -195 -71 -91 -60 -155 -153 -185 -266
-20 -77 -14 -257 10 -323 l17 -48 194 0 195 0 -30 38 c-40 50 -55 115 -49 220
8 140 55 207 144 207 33 0 49 -6 73 -29 88 -84 87 -334 -1 -416 l-22 -20 199
2 199 3 18 58 c35 116 28 263 -20 381 -49 123 -171 225 -308 257 -61 13 -186
18 -239 7z"/>
<path d="M1919 2420 c-5 -23 -2 -693 3 -696 10 -6 319 -6 326 0 10 11 7 696
-3 697 -33 4 -325 3 -326 -1z"/>
<path d="M5100 2073 l0 -352 118 -3 c64 -2 141 -1 171 2 l54 5 1 343 c1 189
-1 347 -4 351 -3 3 -80 6 -172 6 l-168 0 0 -352z"/>
<path d="M5571 2013 l0 -293 47 -1 c63 0 171 0 390 0 l182 1 0 162 c0 142 -3
167 -20 203 -25 51 -57 70 -120 69 -91 -1 -133 -49 -134 -155 l-1 -69 -40 43
c-22 24 -76 83 -120 132 -44 49 -103 114 -132 145 l-52 55 0 -292z m394 -158
c17 -39 9 -78 -21 -106 -13 -12 -25 -21 -25 -18 -1 2 -3 46 -4 96 -1 91 -1 92
18 75 11 -9 25 -31 32 -47z"/>
<path d="M3639 1868 c0 -2 -2 -14 -5 -27 -8 -43 -34 -86 -62 -103 -26 -17 -20
-17 165 -18 l192 0 10 38 c5 20 11 53 13 72 l3 35 -157 3 c-87 1 -158 1 -159
0z"/>
<path d="M1919 1578 c-1 -2 -2 -277 -3 -612 -1 -445 2 -610 10 -613 16 -6 324
-9 325 -3 0 3 1 280 2 615 l1 610 -167 3 c-92 1 -167 1 -168 0z"/>
<path d="M1290 1279 c-104 -11 -201 -56 -263 -121 -23 -23 -64 -113 -73 -156
l-6 -32 155 0 155 0 6 25 c18 73 170 80 197 8 15 -40 -2 -70 -48 -82 -39 -10
-74 -15 -173 -26 -62 -7 -152 -31 -190 -50 -85 -44 -133 -131 -132 -244 0 -92
19 -141 74 -193 53 -50 122 -72 228 -72 119 0 190 33 246 114 l24 35 0 -68 0
-67 33 -1 c17 0 87 -1 155 -2 l123 -2 -3 355 c-3 344 -4 356 -25 396 -72 134
-267 208 -483 183z m178 -594 c-3 -55 -8 -69 -33 -95 -38 -39 -92 -54 -145
-40 -44 12 -60 33 -60 78 0 38 46 79 98 87 20 4 57 13 82 20 25 7 49 13 54 14
4 1 6 -28 4 -64z"/>
<path d="M2915 1280 c-82 -18 -161 -79 -190 -145 l-13 -30 -2 45 c-2 25 -2 62
-1 83 1 29 -3 37 -16 38 -79 3 -303 0 -310 -4 -4 -3 -8 -288 -8 -634 l0 -628
168 -3 167 -2 0 252 c1 237 2 251 17 223 89 -170 347 -187 489 -33 39 42 90
135 100 182 34 153 19 357 -33 461 -70 139 -233 224 -368 195z m1 -272 c95
-65 103 -303 13 -387 -32 -30 -89 -36 -135 -14 -114 53 -124 327 -15 400 43
29 95 30 137 1z"/>
<path d="M3818 1285 c-2 -1 -32 -5 -68 -8 -223 -20 -355 -148 -334 -324 8 -64
26 -104 66 -144 58 -58 161 -97 303 -114 53 -6 142 -30 162 -42 11 -8 16 -26
14 -54 -2 -24 -60 -46 -115 -43 -53 2 -93 25 -113 65 -12 24 -13 24 -177 24
l-165 1 5 -31 c3 -16 18 -54 32 -84 67 -136 250 -212 477 -198 244 16 400 146
396 329 -3 139 -96 209 -336 252 -16 3 -59 11 -95 17 -72 13 -119 33 -121 52
-5 51 26 77 93 77 61 0 102 -20 120 -60 l13 -30 152 0 153 0 -6 37 c-23 146
-147 247 -330 269 -71 8 -123 12 -126 9z"/>
</g>
</svg>
