<?xml version="1.0" standalone="no"?>
<!DOCTYPE svg PUBLIC "-//W3C//DTD SVG 20010904//EN"
 "http://www.w3.org/TR/2001/REC-SVG-20010904/DTD/svg10.dtd">
<svg version="1.0" xmlns="http://www.w3.org/2000/svg"
 width="1660.000000pt" height="305.000000pt" viewBox="0 0 1660.000000 305.000000"
 preserveAspectRatio="xMidYMid meet">

<g transform="translate(0.000000,305.000000) scale(0.100000,-0.100000)"
fill="#000000" stroke="none">
<path d="M11745 3015 c-121 -20 -251 -58 -361 -106 -274 -120 -528 -369 -661
-648 -258 -541 -198 -1259 143 -1711 263 -349 645 -531 1114 -531 406 0 729
128 996 395 163 163 261 321 338 545 120 347 120 787 0 1133 -168 481 -528
803 -1019 910 -122 26 -422 33 -550 13z m422 -665 c129 -31 215 -79 308 -174
63 -63 90 -100 122 -166 68 -140 103 -303 103 -485 0 -526 -274 -847 -720
-846 -247 0 -432 90 -560 274 -149 211 -195 566 -116 880 73 287 259 474 527
526 84 17 248 12 336 -9z"/>
<path d="M100 1520 l0 -1460 653 0 c667 0 762 4 904 40 178 46 296 111 414
229 71 71 94 102 133 181 67 135 90 253 83 425 -3 73 -12 156 -21 190 -39 144
-131 287 -232 366 l-54 42 68 71 c148 156 213 350 199 595 -20 357 -215 610
-560 726 -155 52 -208 55 -924 55 l-663 0 0 -1460z m1269 829 c70 -15 136 -59
163 -111 19 -36 23 -58 23 -138 0 -119 -25 -178 -97 -226 -67 -45 -136 -54
-426 -54 l-252 0 0 270 0 270 270 0 c152 0 291 -5 319 -11z m83 -1157 c68 -27
122 -84 139 -144 6 -24 9 -77 7 -118 -7 -118 -50 -183 -147 -222 -53 -21 -74
-23 -363 -26 l-308 -4 0 272 0 272 308 -4 c291 -3 310 -5 364 -26z"/>
<path d="M3190 1608 c-272 -755 -509 -1412 -527 -1460 l-31 -88 353 0 352 0
26 73 c14 39 113 320 220 622 106 303 243 691 303 862 60 172 111 313 114 313
3 0 55 -143 116 -318 62 -174 210 -595 329 -934 l218 -618 354 0 c194 0 353 2
353 4 0 3 -232 647 -516 1433 -284 785 -521 1440 -526 1456 l-10 27 -316 0
-317 0 -495 -1372z"/>
<path d="M5920 1520 l0 -1460 340 0 340 0 0 1460 0 1460 -340 0 -340 0 0
-1460z"/>
<path d="M7450 1520 l0 -1460 335 0 335 0 2 847 3 847 563 -847 562 -847 310
0 310 0 0 1460 0 1460 -335 0 -335 0 -2 -840 -3 -839 -555 839 -555 839 -317
1 -318 0 0 -1460z"/>
<path d="M14145 2250 l485 -730 -488 -717 c-268 -395 -491 -724 -495 -730 -7
-10 74 -13 392 -13 l401 0 300 450 301 451 101 -168 c55 -92 187 -295 291
-450 l191 -283 398 0 c219 0 398 2 398 5 0 3 -214 332 -475 730 -261 399 -475
727 -475 729 0 2 190 294 421 648 232 354 446 680 475 726 l54 82 -398 0 -398
0 -279 -441 c-154 -242 -283 -443 -286 -445 -4 -2 -47 61 -96 141 -48 80 -179
280 -291 445 l-203 300 -404 0 -404 0 484 -730z"/>
</g>
</svg>
