<svg xmlns="http://www.w3.org/2000/svg" viewBox="0 0 428.92 89.68"><defs><style>.cls-1{fill:#339;}.cls-2,.cls-3,.cls-4{fill:#0078c0;}.cls-3,.cls-4{stroke:#0078c0;}.cls-3{stroke-miterlimit:10;}.cls-4{stroke-miterlimit:2.61;}</style></defs><title>Element 4</title><g id="Ebene_2" data-name="Ebene 2"><g id="Ebene_1-2" data-name="Ebene 1"><g id="Wirtschaftsraum_Thun" data-name="Wirtschaftsraum Thun"><path class="cls-1" d="M21.91,53.61H17.78L15.12,41.47c-.63-2.94-1-5.5-1.22-7h-.21c-.18,1.23-.7,4.34-1.23,6.83L9.87,53.61H5.71L0,29.42H3.64L6.3,41.85c.74,3.5,1,6.13,1.3,7.63h.21c.31-2.06.77-4.76,1.33-7.31l2.8-12.75h3.88l2.77,12.82c.59,2.69,1.15,6.09,1.26,7.14h.21c.21-1.37.87-5.29,1.4-7.74L24,29.42h3.5Z"/><path class="cls-1" d="M32.48,32.93a2.27,2.27,0,0,1-2.24-2.31,2.3,2.3,0,1,1,4.59,0A2.34,2.34,0,0,1,32.48,32.93ZM30.84,53.54V36.11l3.32-.52V53.54Z"/><path class="cls-1" d="M48.23,38.84a2.72,2.72,0,0,0-.91-.17,3.67,3.67,0,0,0-3.64,3.57v11.3H40.46V40.66a11.18,11.18,0,0,0-.66-4.37l3.11-.81a7.18,7.18,0,0,1,.6,2.7v.31c1.4-2,2.9-3,4.76-3a3.3,3.3,0,0,1,1.08.17Z"/><path class="cls-1" d="M59.81,38.28H56.35V48.85c0,2.17.53,2.84,2.28,2.84a3.93,3.93,0,0,0,1.64-.35l.39,2a7,7,0,0,1-3.19.73,5,5,0,0,1-3.08-.94c-.7-.63-1.19-1.09-1.19-3.5V38.28H51.1V36h2.1a36.94,36.94,0,0,1,.21-4.48l3.32-.78c-.13,1.27-.31,3.47-.31,5.26h4.27Z"/><path class="cls-1" d="M69.69,54a13.35,13.35,0,0,1-6.55-1.85l1.16-2.31a12,12,0,0,0,5.63,1.75c1.93,0,3.26-1.12,3.26-2.84,0-1.5-.91-2.38-2.94-2.76l-2.14-.42c-2.76-.56-4.27-2.28-4.27-4.87,0-3.22,2.56-5.46,6.34-5.46a11.18,11.18,0,0,1,5.53,1.44L74.62,39a9.53,9.53,0,0,0-4.3-1.26c-1.86,0-3,1.05-3,2.63,0,1.26.63,2,2.49,2.38l2.27.52c3.22.74,4.55,2.59,4.55,4.9C76.58,51.65,73.78,54,69.69,54Z"/><path class="cls-1" d="M87.75,53.89a6.44,6.44,0,0,1-5.64-2.62,10.59,10.59,0,0,1-1.68-6.34c0-4,1.26-6.23,2.94-7.73a6.85,6.85,0,0,1,9.31.07L91,39.47a4.28,4.28,0,0,0-3.08-1.36A3.38,3.38,0,0,0,84.84,40,12.51,12.51,0,0,0,84,45.35c0,2.45.49,4.06,1.4,5a3.39,3.39,0,0,0,2.52,1,4.9,4.9,0,0,0,3.64-1.82l1.58,2A6.92,6.92,0,0,1,87.75,53.89Z"/><path class="cls-1" d="M107.94,53.54v-12a3.89,3.89,0,0,0-.59-2.45,2.82,2.82,0,0,0-1.93-.66,6.72,6.72,0,0,0-4.65,2.55v12.6H97.51V32.23a15.64,15.64,0,0,0-.38-3.68l3.25-.67a17.69,17.69,0,0,1,.39,4.07v3.92c0,.63,0,1.43-.11,2.34a11.77,11.77,0,0,1,1.86-1.43,6.76,6.76,0,0,1,3.81-1.19c2.07,0,3.89,1,4.41,2.62a7.14,7.14,0,0,1,.35,2.84V53.54Z"/><path class="cls-1" d="M128.8,54.28a4,4,0,0,1-2.34-2.52,6.11,6.11,0,0,1-5,2.31c-3.5,0-5.68-1.79-5.68-5.15,0-4.06,3.26-6.23,8.93-6.23.42,0,.77,0,1.23,0V41.57c0-2.06-.28-3.46-2.73-3.46a9.69,9.69,0,0,0-5.39,2l-1.47-2.31a13.78,13.78,0,0,1,7.35-2.31c2.55,0,4.41,1,5.07,2.8a8,8,0,0,1,.35,3.08c0,1.26-.14,4-.14,6.51s.07,3.4,1.44,4.24Zm-4-9.42c-2.42,0-3.89.46-4.59,1.26a3.41,3.41,0,0,0-.91,2.56c0,1.92,1,3,2.77,3a4.35,4.35,0,0,0,3.67-2.31l.11-4.48C125.41,44.9,125.13,44.86,124.85,44.86Z"/><path class="cls-1" d="M152.36,38.28h-3.47V48.85c0,2.17.53,2.84,2.28,2.84a3.93,3.93,0,0,0,1.64-.35l.39,2A7,7,0,0,1,150,54a4.88,4.88,0,0,1-3-.87c-.74-.67-1.3-1.12-1.3-3.57V38.28h-7.1V53.54h-3.26V38.28H133.7V36h1.72c-.07-.35-.07-2.52-.07-2.8a5.05,5.05,0,0,1,2-4.38,5.3,5.3,0,0,1,3.18-.84,7.16,7.16,0,0,1,3.82,1L143.22,31a5,5,0,0,0-2.27-.67c-1.47,0-2.35,1-2.35,2.8V36h7.14a39.08,39.08,0,0,1,.21-4.48l3.33-.78C149.14,32,149,34.22,149,36h4.27Z"/><path class="cls-1" d="M162.23,54a13.35,13.35,0,0,1-6.55-1.85l1.16-2.31a12,12,0,0,0,5.63,1.75c1.93,0,3.26-1.12,3.26-2.84,0-1.5-.91-2.38-2.94-2.76l-2.14-.42c-2.76-.56-4.27-2.28-4.27-4.87,0-3.22,2.56-5.46,6.34-5.46a11.18,11.18,0,0,1,5.53,1.44L167.16,39a9.53,9.53,0,0,0-4.3-1.26c-1.86,0-3.05,1.05-3.05,2.63,0,1.26.63,2,2.49,2.38l2.27.52c3.22.74,4.55,2.59,4.55,4.9C169.12,51.65,166.32,54,162.23,54Z"/><path class="cls-1" d="M181.62,38.84a2.77,2.77,0,0,0-.91-.17,3.67,3.67,0,0,0-3.64,3.57v11.3h-3.22V40.66a11.15,11.15,0,0,0-.67-4.37l3.12-.81a7.38,7.38,0,0,1,.59,2.7v.31c1.4-2,2.91-3,4.76-3a3.37,3.37,0,0,1,1.09.17Z"/><path class="cls-1" d="M197.47,54.28a4,4,0,0,1-2.34-2.52,6.11,6.11,0,0,1-5,2.31c-3.5,0-5.68-1.79-5.68-5.15,0-4.06,3.26-6.23,8.93-6.23.42,0,.77,0,1.23,0V41.57c0-2.06-.28-3.46-2.73-3.46a9.69,9.69,0,0,0-5.39,2l-1.47-2.31a13.78,13.78,0,0,1,7.35-2.31c2.55,0,4.41,1,5.07,2.8a8,8,0,0,1,.35,3.08c0,1.26-.14,4-.14,6.51s.07,3.4,1.44,4.24Zm-3.95-9.42c-2.42,0-3.89.46-4.59,1.26a3.41,3.41,0,0,0-.91,2.56c0,1.92,1,3,2.77,3a4.35,4.35,0,0,0,3.67-2.31l.11-4.48C194.08,44.9,193.8,44.86,193.52,44.86Z"/><path class="cls-1" d="M216,54.14a4.14,4.14,0,0,1-1.64-2.52A6.46,6.46,0,0,1,209,54.14a4.93,4.93,0,0,1-4.72-2.63,7.38,7.38,0,0,1-.42-2.94V36.11l3.18-.63V47.7c0,1.78.18,2.48.81,3.08a3.19,3.19,0,0,0,2,.77,4.85,4.85,0,0,0,4-2.77V36.18l3.18-.63v13.2c0,1.78.39,3,1.09,3.64Z"/><path class="cls-1" d="M241.75,53.54V41c0-2-.63-2.7-2.1-2.7s-2.77,1-4.1,2.38V53.54H232.4V41.05c0-2-.56-2.7-2.17-2.7a6.07,6.07,0,0,0-4,2V53.54H223V40.66a9.52,9.52,0,0,0-.63-4.37l3-.74A5,5,0,0,1,226,38a7.18,7.18,0,0,1,4.94-2.48,4.54,4.54,0,0,1,4.17,2.76c1.75-1.85,3.57-2.76,5.35-2.76,2.73,0,4.48,1.71,4.48,4.93V53.54Z"/><path class="cls-1" d="M272.37,32.23H266.1V53.54h-3.32V32.23h-6.27V29.42h16.21Z"/><path class="cls-1" d="M285.77,53.54v-12a3.89,3.89,0,0,0-.59-2.45,2.79,2.79,0,0,0-1.92-.66,6.72,6.72,0,0,0-4.66,2.55v12.6h-3.26V32.23a15.64,15.64,0,0,0-.38-3.68l3.25-.67A17.69,17.69,0,0,1,278.6,32v3.92c0,.63,0,1.43-.11,2.34a11.77,11.77,0,0,1,1.86-1.43,6.79,6.79,0,0,1,3.82-1.19,4.5,4.5,0,0,1,4.41,2.62,7.14,7.14,0,0,1,.35,2.84V53.54Z"/><path class="cls-1" d="M307.13,54.14a4.15,4.15,0,0,1-1.65-2.52,6.46,6.46,0,0,1-5.29,2.52,4.93,4.93,0,0,1-4.72-2.63,7.38,7.38,0,0,1-.42-2.94V36.11l3.18-.63V47.7c0,1.78.18,2.48.81,3.08a3.19,3.19,0,0,0,2,.77,4.83,4.83,0,0,0,4-2.77V36.18l3.19-.63v13.2c0,1.78.38,3,1.08,3.64Z"/><path class="cls-1" d="M324.06,53.54V41.71c0-1.57-.14-2.13-.56-2.69a2.15,2.15,0,0,0-1.78-.7,7.08,7.08,0,0,0-4.34,2.24v13h-3.19v-13a9.6,9.6,0,0,0-.66-4.17l3-.84a5.57,5.57,0,0,1,.6,2.7,15.52,15.52,0,0,1,2.27-1.72,6.56,6.56,0,0,1,3.26-.87,4.38,4.38,0,0,1,4.13,2.48,5.51,5.51,0,0,1,.42,2.21V53.54Z"/></g><g id="die_region" data-name="die region"><path class="cls-2" d="M220.12,84.48a5,5,0,0,1-.25-1.29,4.59,4.59,0,0,1-3.55,1.51c-3.52,0-5.58-2.64-5.58-7,0-3,1-5.25,2.89-6.46a4.74,4.74,0,0,1,2.69-.8,4.12,4.12,0,0,1,3.36,1.6c0-.39-.06-1.49-.06-2.42V64.27l2.53.42V79.86a16.15,16.15,0,0,0,.39,4.62Zm-.53-10.69a3.52,3.52,0,0,0-2.91-1.29,2.69,2.69,0,0,0-2.39,1.4,7.29,7.29,0,0,0-.72,3.79c0,2.67.33,3.41,1.08,4.18a2.56,2.56,0,0,0,2,.72,3.24,3.24,0,0,0,2.91-1.6Z"/><path class="cls-2" d="M228.4,68.29a1.79,1.79,0,0,1-1.76-1.82,1.8,1.8,0,1,1,3.6,0A1.84,1.84,0,0,1,228.4,68.29Zm-1.3,16.19V70.79l2.62-.41v14.1Z"/><path class="cls-2" d="M236.67,78.13v.33a5.21,5.21,0,0,0,.58,2.75,3.59,3.59,0,0,0,3.16,1.62,4.9,4.9,0,0,0,3.38-1.32l1,1.52A7.05,7.05,0,0,1,240,84.79c-3.82,0-6.16-2.78-6.16-7.29a7.53,7.53,0,0,1,1.65-5.33,5.12,5.12,0,0,1,4.15-1.9,5,5,0,0,1,3.74,1.48c1.21,1.24,1.65,2.78,1.68,5.94v.44Zm4.9-5a2.47,2.47,0,0,0-2-1c-1.93,0-2.89,1.57-2.89,4.07h5.72A5,5,0,0,0,241.57,73.15Z"/><path class="cls-2" d="M263.2,72.94a1.91,1.91,0,0,0-.71-.14,2.88,2.88,0,0,0-2.86,2.8v8.88H257.1V74.36a8.75,8.75,0,0,0-.53-3.43L259,70.3a5.63,5.63,0,0,1,.47,2.11v.25c1.1-1.6,2.28-2.39,3.74-2.39a2.32,2.32,0,0,1,.85.14Z"/><path class="cls-2" d="M268.35,78.13v.33a5.22,5.22,0,0,0,.57,2.75,3.59,3.59,0,0,0,3.16,1.62,4.91,4.91,0,0,0,3.39-1.32l1,1.52a7.05,7.05,0,0,1-4.76,1.76c-3.82,0-6.16-2.78-6.16-7.29a7.53,7.53,0,0,1,1.65-5.33,5.12,5.12,0,0,1,4.15-1.9,5,5,0,0,1,3.74,1.48c1.21,1.24,1.65,2.78,1.68,5.94v.44Zm4.89-5a2.47,2.47,0,0,0-2-1c-1.93,0-2.89,1.57-2.89,4.07h5.72A5,5,0,0,0,273.24,73.15Z"/><path class="cls-2" d="M290.7,72.66a3.33,3.33,0,0,1-1.18-.22,3.88,3.88,0,0,1,1,2.53c0,2-1.35,4.26-4.95,4.26-.85.28-2.17.91-2.17,1.51,0,.42.33.69,1,.69h2.11c3.52,0,5,1.65,5,3.8,0,3-2.45,4.45-5.8,4.45-3.85,0-6.05-1.35-6.05-3.63a4,4,0,0,1,.25-1.4l2.47-.14a2.66,2.66,0,0,0-.25,1c0,1.43,1.19,2.2,3.33,2.2s3.38-.91,3.38-2.37S287.73,83.3,285,83.3c-1,0-2.06-.08-2.59-.14-1.21-.13-1.92-.82-1.92-1.84,0-1.29,1.13-1.84,2.69-2.42a4,4,0,0,1-3.24-4c0-2.77,2.12-4.62,5.28-4.62a6.64,6.64,0,0,1,2.14.31,7.73,7.73,0,0,0,2.07.43,3.76,3.76,0,0,0,2.25-.79L293,71.83A3.38,3.38,0,0,1,290.7,72.66Zm-5.53-.36c-1.62,0-2.5.88-2.5,2.64a2.52,2.52,0,1,0,5,0C287.7,73.13,286.91,72.3,285.17,72.3Z"/><path class="cls-2" d="M296.75,68.29A1.79,1.79,0,0,1,295,66.47a1.8,1.8,0,1,1,3.6,0A1.84,1.84,0,0,1,296.75,68.29Zm-1.29,16.19V70.79l2.61-.41v14.1Z"/><path class="cls-2" d="M308,84.87c-3.69,0-6-2.81-6-7.29s2.28-7.26,5.91-7.26c4.07,0,6,3.25,6,7.4C314,82.09,311.68,84.87,308,84.87ZM308,72.27c-2.2,0-3.11,1.57-3.11,5,0,4.2,1.08,5.61,3.22,5.61,1.93,0,3.11-1.49,3.11-5.09C311.19,73.57,310,72.27,308,72.27Z"/><path class="cls-2" d="M324.76,84.48V75.19c0-1.24-.11-1.68-.44-2.12a1.69,1.69,0,0,0-1.4-.55,5.57,5.57,0,0,0-3.41,1.76v10.2H317V74.23a7.56,7.56,0,0,0-.52-3.27l2.39-.66a4.35,4.35,0,0,1,.47,2.11,12.88,12.88,0,0,1,1.78-1.35,5.2,5.2,0,0,1,2.56-.68,3.46,3.46,0,0,1,3.25,2,4.48,4.48,0,0,1,.33,1.73V84.48Z"/></g><g id="Visual"><circle class="cls-3" cx="378.37" cy="54.56" r="8.61"/><line class="cls-4" x1="356.09" y1="59.94" x2="378.37" y2="54.56"/><circle class="cls-3" cx="362.88" cy="79.09" r="5.41"/><line class="cls-4" x1="362.88" y1="79.09" x2="378.37" y2="54.56"/><circle class="cls-3" cx="384.62" cy="80.64" r="3.78"/><line class="cls-4" x1="384.62" y1="80.64" x2="378.37" y2="54.56"/><circle class="cls-3" cx="416.92" cy="78.11" r="5.95"/><line class="cls-4" x1="416.92" y1="78.11" x2="378.23" y2="54.78"/><circle class="cls-3" cx="420.47" cy="45.31" r="6.49"/><line class="cls-4" x1="420.47" y1="45.31" x2="378.23" y2="54.78"/><line class="cls-4" x1="409.79" y1="5.86" x2="378.37" y2="54.56"/><circle class="cls-3" cx="367.78" cy="10" r="7.57"/><line class="cls-4" x1="367.78" y1="10" x2="378.37" y2="54.78"/><circle class="cls-3" cx="342.03" cy="32.7" r="5.41"/><line class="cls-4" x1="342.03" y1="32.7" x2="378.32" y2="54.56"/><circle class="cls-3" cx="410" cy="5.91" r="5.41"/><circle class="cls-3" cx="420.85" cy="45.38" r="7.57"/><circle class="cls-3" cx="352.19" cy="60.98" r="3.78"/></g></g></g></svg>