<?xml version="1.0" encoding="UTF-8" standalone="no"?>
<svg
   xmlns:dc="http://purl.org/dc/elements/1.1/"
   xmlns:cc="http://creativecommons.org/ns#"
   xmlns:rdf="http://www.w3.org/1999/02/22-rdf-syntax-ns#"
   xmlns:svg="http://www.w3.org/2000/svg"
   xmlns="http://www.w3.org/2000/svg"
   version="1.1"
   id="svg2"
   width="499.99997"
   viewBox="0 0 499.99997 134.15797"
   height="134.15797">
  <metadata
     id="metadata10">
    <rdf:RDF>
      <cc:Work
         rdf:about="">
        <dc:format>image/svg+xml</dc:format>
        <dc:type
           rdf:resource="http://purl.org/dc/dcmitype/StillImage" />
        <dc:title></dc:title>
      </cc:Work>
    </rdf:RDF>
  </metadata>
  <defs
     id="defs8" />
  <path
     style="fill:#a98e5c;fill-opacity:1;fill-rule:evenodd"
     id="path4"
     d="m 433.22233,48.196968 -11.41177,0 0,16.389616 11.41177,0 0,47.075296 c 0,14.78375 8.84099,22.4961 25.39432,22.4961 5.46901,0 11.25154,-1.12515 19.61181,-4.01641 l 0.80467,-15.9089 c -4.18013,1.60586 -7.87258,2.57078 -10.93105,2.57078 -9.3217,0 -12.37669,-2.89126 -12.37669,-14.78026 l 0,-37.436606 22.50307,0 0,-16.389616 -22.50307,0 0,-18.63644 -22.50306,1.281908 z m -37.9208,48.36069 c 0,15.428182 -9.54116,21.214192 -19.08232,21.214192 -9.37048,0 -13.11866,-5.14505 -13.11866,-10.12638 0,-7.22815 6.13435,-11.087812 25.55804,-11.087812 z m 0.34137,-13.81535 c -17.37891,0 -29.47692,0.801193 -38.50601,3.856176 -9.37048,3.211738 -17.89099,11.084327 -17.89099,23.137056 0,13.17439 9.71185,24.42244 29.81831,24.42244 14.99623,0 23.17188,-5.94276 29.13554,-18.63644 l 0.34138,0 c -0.85344,3.21174 -1.19482,6.10648 -1.19482,11.56504 l 0,5.14505 29.98899,0 0,-16.39658 -10.05322,0 c 0.34137,-11.889 0.84996,-23.457528 0.84996,-37.272878 0,-24.422444 -15.15996,-32.298517 -39.01461,-32.298517 -15.84968,0 -29.8183,5.625766 -35.61127,8.677265 l 0,21.370946 20.44783,0 0,-11.24805 c 4.08608,-1.44563 11.41177,-2.410545 14.81858,-2.410545 11.24805,0 16.87033,3.37546 16.87033,16.06914 z m -146.97706,33.092742 -8.20003,0 0,16.3931 40.34876,0 0,-16.3931 -9.64915,0 0,-27.954658 c 0,-12.69368 5.94973,-22.33586 19.61181,-22.33586 8.51702,0 14.62699,4.180136 14.62699,15.745179 l 0,34.545339 -9.16147,0 0,16.3931 41.3102,0 0,-16.3931 -9.64218,0 0,-36.785195 c 0,-20.085554 -9.16147,-32.779233 -29.09375,-32.779233 -14.63047,0 -24.91361,8.19655 -29.09375,19.280877 l -0.32396,0 c 1.28888,-6.102999 1.28888,-11.565043 1.28888,-17.351048 l -32.95341,0 0,16.389617 10.93106,0 z M 175.52739,91.576329 c 0,-15.264463 5.94973,-26.996712 19.77205,-26.996712 13.8258,0 19.77204,9.001227 19.77204,26.996712 0,15.104221 -5.94624,24.258721 -19.77204,24.258721 -13.82232,0 -19.77205,-9.1545 -19.77205,-24.258721 z M 151.0945,91.09213 c 0,28.5991 17.3615,43.06237 44.20494,43.06237 26.84344,0 44.20494,-17.99549 44.20494,-43.06237 0,-29.243535 -15.91587,-44.828475 -44.20494,-44.828475 -27.4844,0 -44.20494,20.726507 -44.20494,44.831958 z m -38.41545,41.1395 40.34876,0 0,-16.39658 -9.64566,0 0,-36.785195 c 0,-20.085554 -9.16147,-32.779233 -29.09375,-32.779233 -14.78723,0 -24.112416,7.231635 -28.12883,18.9604 l -0.323961,0 c -2.250306,-12.533441 -10.927572,-18.9604 -24.753372,-18.9604 -13.982555,0 -24.432895,6.747436 -29.093746,18.9604 l -0.320477,0 C 32.953405,59.4485 32.953405,53.982973 32.953405,48.196968 l -32.953405,0 0,16.3931 10.931056,0 0,51.244982 -9.1614651,0 0,16.3931 41.3101941,0 0,-16.3931 -9.645664,0 0,-27.954658 c 0,-12.69368 5.949727,-22.33586 17.842214,-22.33586 8.52051,0 14.630476,4.180136 14.630476,15.745179 l 0,34.545339 -8.200034,0 0,16.3931 40.34528,0 0,-16.3931 -9.642181,0 0,-27.954658 c 0,-13.498356 6.911158,-22.33586 17.842214,-22.33586 8.51703,0 14.62699,4.180136 14.62699,15.745179 l 0,34.545339 -8.20003,0 z m 387.04576,-79.210089 0,-7.168933 -1.65116,0 0,2.351327 -9.70139,0 0,1.832293 2.41402,4.322957 1.4944,-0.975365 -1.31326,-2.076134 c -0.1463,-0.222941 -0.29261,-0.397113 -0.45285,-0.602637 l 7.55908,0 0,2.316492 z m 0,12.470739 0,-9.070895 -1.84623,0 0,4.423978 c 0,0.376212 0.0453,0.842994 0.094,1.236623 l -0.0348,0 c -2.17019,-2.901711 -4.26374,-5.301806 -6.55236,-5.301806 -2.43145,0 -3.29186,2.246823 -3.29186,4.0826 0,3.622784 2.46628,4.563315 3.76212,4.563315 l 0,-2.403578 c -1.06942,-0.118437 -1.91241,-0.822094 -1.91241,-2.055234 0,-0.703656 0.39015,-1.682505 1.5571,-1.682505 2.25379,0 5.81039,4.908177 6.66732,6.210986 z m -0.0488,10.415506 c 0.27868,-0.870862 0.32396,-1.574518 0.32396,-2.46628 0,-4.120918 -2.72406,-6.092549 -6.52101,-6.092549 -3.68201,0 -5.38541,2.0204 -5.38541,4.685236 0,3.034082 2.22244,4.201037 4.08957,4.201037 2.35132,0 3.53221,-1.783525 3.53221,-3.601884 0,-1.166955 -0.37273,-2.093551 -1.09729,-2.797208 l 0.0279,-0.03483 c 1.70689,0.222941 3.70291,1.097286 3.70291,3.776056 0,0.633987 -0.18114,1.42473 -0.43892,2.177154 z m -7.67403,-1.933313 c -0.61657,0 -2.05524,-0.292609 -2.05524,-1.926346 0,-1.184372 0.79075,-2.194571 3.12814,-2.194571 a 3.0131814,3.0131814 0 0 1 0.89176,2.076134 c 0,1.097286 -0.71411,2.044783 -1.96466,2.044783 z m 7.7228,10.892738 0,-7.1759 -1.65116,0 0,2.351326 -9.70139,0 0,1.832293 2.41402,4.322957 1.4944,-0.975365 -1.31326,-2.076134 c -0.1463,-0.22294 -0.29261,-0.393629 -0.45285,-0.599153 l 7.55908,0 0,2.316492 z m -8.1443,7.99451 0,-2.055234 -3.20825,0.10102 0,10.944993 3.20825,0.10102 0,-2.055237 -1.5571,-0.104503 0,-2.163221 8.04676,0 0,1.079869 1.65464,0 0,-4.667819 -1.65116,0 0,1.083352 -8.04676,0 0,-2.159737 z m 6.49314,14.856899 0,1.07987 1.65116,0 0,-4.66434 -1.65116,0 0,1.07987 -8.04676,0 0,-1.07987 -1.65463,0 0,4.66434 1.65115,0 0,-1.07987 z m 0,6.91464 0,2.98532 -3.31275,0 0,-3.02015 -1.74869,0 0,3.02015 -2.9888,0 0,-2.93307 1.68947,-0.1045 0,-2.05523 -3.34411,0.1045 0,8.77829 1.65464,0 0,-1.28888 8.04676,0 0,1.08335 1.65464,0 0,-8.62849 -3.56705,-0.13586 0,2.05524 z m -6.59068,13.03854 0,-2.26424 -2.70664,0 c -0.37272,1.0311 -0.59915,2.48718 -0.59915,3.94675 0,3.39636 1.58845,4.734 3.38591,4.734 1.75566,0 2.66136,-0.83951 3.26399,-3.30927 l 0.32396,-1.32371 c 0.39015,-1.61284 0.81165,-1.95422 1.39338,-1.95422 0.86041,0 1.52923,0.65141 1.52923,2.12491 0,0.70714 -0.0488,1.39338 -0.29609,2.02736 l -1.49091,0 0,2.5046 2.99924,0 c 0.50162,-1.61284 0.63399,-2.98531 0.63399,-4.30902 0,-3.41378 -1.57103,-4.95346 -3.73077,-4.95346 -2.35133,0 -2.9052,1.95073 -3.32669,3.72032 l -0.34138,1.44214 c -0.17417,0.79075 -0.41801,1.42473 -1.24707,1.42473 -0.63051,0 -1.44563,-0.53296 -1.44563,-2.19457 0,-0.58522 0.12888,-1.17044 0.27867,-1.61632 z m -265.74169,-91.029425 5.92534,0 0,-12.624011 c 0,-5.85219 3.22567,-9.081345 7.2804,-9.081345 0.83603,0 1.71734,0.153272 2.54989,0.254292 l 0,-5.643184 c -0.52252,-0.05225 -0.8848,-0.156755 -2.23638,-0.156755 -3.6402,0 -7.1759,3.030599 -7.85168,5.85219 l -0.10451,0 0,-5.131117 -5.56306,0 z M 201.4512,21.043501 c 0.15676,-3.953712 2.9679,-7.033079 7.0714,-7.033079 4.00596,0 6.55585,3.337142 6.76485,7.033079 z m 19.76508,3.849209 c 0.98582,-7.956193 -4.21497,-15.501338 -12.6902,-15.501338 -8.01192,0 -13.00022,6.46876 -13.00022,14.013906 0,8.158232 4.73052,13.954687 13.15698,13.954687 5.87657,0 10.86835,-3.229155 12.16768,-9.029094 l -5.61532,0 c -1.04155,2.926096 -3.12117,4.413527 -6.55236,4.413527 -4.94301,0 -7.23164,-3.695937 -7.23164,-7.851688 z m -51.32859,-10.161214 13.82929,0 -14.87084,17.807379 0,4.1035 23.66306,0 0,-4.61905 -16.17365,0 15.39335,-17.807379 0,-4.103501 -21.84121,0 z m -11.4466,-9.185849 5.92882,0 0,-5.545647 -5.92882,0 z m 0,31.096728 5.92882,0 0,-26.52993 -5.92882,0 z M 133.99774,21.043501 c 0.15676,-3.953712 2.96442,-7.033079 7.0714,-7.033079 4.00596,0 6.55585,3.337142 6.76485,7.033079 z m 19.7616,3.849209 c 0.98929,-7.956193 -4.21149,-15.501338 -12.68672,-15.501338 -8.01192,0 -13.0037,6.46876 -13.0037,14.013906 0,8.158232 4.73748,13.954687 13.15697,13.954687 5.88006,0 10.86836,-3.229155 12.17117,-9.029094 l -5.61532,0 c -1.04155,2.926096 -3.12117,4.413527 -6.55585,4.413527 -4.93952,0 -7.22815,-3.695937 -7.22815,-7.851688 z m -58.974756,11.749665 6.245816,0 4.93605,-19.705858 0.1045,0 4.99178,19.705858 6.08558,0 8.42646,-26.52993 -6.03333,0 -5.46205,19.806878 -0.1045,0 -4.82806,-19.806878 -5.98107,0 -5.044034,19.806878 -0.104504,0 -5.253037,-19.806878 -6.294589,0 z m -35.722746,0 5.925343,0 0,-15.651126 c 0,-3.90146 2.549883,-6.980827 6.500111,-6.980827 3.483447,0 5.152018,1.797459 5.253038,5.956694 l 0,16.675259 5.928826,0 0,-18.218426 c 0,-5.95321 -3.692453,-9.032577 -9.516776,-9.032577 -3.535698,0 -6.604615,1.797458 -8.060696,4.208003 l -0.104503,0 0,-13.595892 -5.925343,0 z M 54.226814,18.995234 C 53.655529,12.474222 48.35024,9.394855 42.111387,9.394855 c -8.840988,0 -13.261482,6.263237 -13.261482,14.268198 0,7.80292 4.626017,13.703879 13.052475,13.703879 6.914642,0 11.234115,-3.796957 12.324434,-10.676764 l -5.928826,0 c -0.571285,3.796957 -2.96093,6.057714 -6.395608,6.057714 -5.148534,0 -7.123649,-4.667819 -7.123649,-9.084829 0,-8.057212 4.315991,-9.649147 7.384907,-9.649147 3.27444,0 5.667568,1.745206 6.13435,4.981328 z M 1.7034054,28.121865 c 0.1045034,6.259753 5.1485342,9.2381 11.9064206,9.2381 5.566548,0 12.014408,-2.309525 12.014408,-8.625014 0,-5.232137 -4.368242,-6.77182 -8.684233,-7.747185 -4.368242,-0.975365 -8.7364841,-1.386412 -8.7364841,-4.260255 0,-2.309526 3.1699361,-2.717089 4.8872761,-2.717089 2.602134,0 4.939527,0.766358 5.462044,3.539182 l 6.186601,0 C 24.014881,11.652129 19.019619,9.391372 13.508806,9.391372 c -4.890759,0 -11.2341153,1.797458 -11.2341153,7.593914 0,5.392375 4.2637387,6.932059 8.6319803,7.855172 4.319474,0.975365 8.631981,1.33416 8.788736,4.413527 0.156756,3.030598 -3.744705,3.490413 -5.981077,3.490413 -3.169937,0 -5.7720716,-1.23314 -6.0820984,-4.61905 z" />
</svg>
