<?xml version="1.0" encoding="UTF-8"?><svg id="Ebene_1" xmlns="http://www.w3.org/2000/svg" viewBox="0 0 224.15 128.2"><defs><style>.cls-1{fill:#fff;}.cls-2{fill:#720f88;}.cls-3{fill:#f7931a;}.cls-4{fill:#5a2366;}.cls-5{fill:#d48825;}</style></defs><ellipse class="cls-1" cx="112.07" cy="64.1" rx="112.07" ry="64.1"/><path class="cls-4" d="m168.06,91.74l-27.17-68.92c-.49-1.25-2.18-1.47-2.97-.37l-19.55,27.04,23.83,26.5s.07-.08.11-.12c.56-.52,1.24-.78,2.02-.78s1.47.26,2.03.78.84,1.15.84,1.88-.28,1.36-.84,1.88c-.17.16-.35.28-.54.39l3.63,4.04v-1.96h5.52v3.08h.17c.35-1.03.97-1.83,1.86-2.41s1.93-.88,3.11-.88,2.14.26,2.99.79c.85.52,1.5,1.24,1.97,2.16.47.91.7,1.96.69,3.13v6.13h.72c1.2,0,2.03-1.21,1.59-2.33v-.03Z"/><path class="cls-4" d="m157.62,86.59c-.48,0-.89.1-1.25.31s-.63.5-.82.89c-.19.38-.29.84-.29,1.38v4.9h4.68v-4.9c0-.8-.19-1.43-.61-1.89-.41-.46-.98-.69-1.71-.69Z"/><path class="cls-2" d="m145.81,80.01c-.44.25-.93.39-1.49.39-.79,0-1.46-.26-2.02-.78s-.84-1.14-.84-1.88c0-.68.25-1.26.73-1.76L87.85,15.55c-.91-1.02-2.59-.6-2.92.73l-3.02,12.09c1.42.05,2.86.25,4.3.61,11.22,2.8,18.04,14.16,15.25,25.38-2.8,11.22-14.16,18.04-25.37,15.25-1.44-.36-2.81-.87-4.1-1.49l-2.14,8.58h4.7v8.22h.08c.21-.55.52-1.05.93-1.51s.91-.83,1.52-1.11c.6-.28,1.31-.42,2.11-.42,1.07,0,2.08.28,3.05.85s1.75,1.46,2.36,2.69c.61,1.22.91,2.81.91,4.76,0,1.51-.2,2.81-.58,3.9h2.28v-11.99h5.82v11.99h3.28c0-.15-.02-.3-.02-.46v-7.32h-2.07v-4.22h2.07v-3.88h5.82v3.88h2.78v4.22h-2.78v6.77c0,.23.04.41.12.56.08.15.2.26.36.34.16.07.37.11.62.11h3.32c-.5-1.14-.77-2.42-.77-3.86,0-1.66.33-3.12,1-4.37s1.63-2.23,2.88-2.93,2.75-1.05,4.51-1.05c1.59,0,2.96.29,4.13.86,1.16.57,2.06,1.38,2.7,2.42s.96,2.27.97,3.67h-5.4c-.08-.85-.32-1.5-.73-1.94-.41-.45-.94-.67-1.59-.67-.51,0-.95.15-1.33.44s-.67.73-.89,1.32c-.21.59-.32,1.32-.32,2.21s.1,1.62.32,2.21c.21.59.51,1.03.89,1.32s.82.44,1.33.44c.43,0,.81-.1,1.14-.3.33-.2.6-.5.81-.89.21-.39.33-.87.37-1.43h5.4c0,.93-.17,1.78-.45,2.55h2.29c-.5-1.14-.77-2.42-.77-3.86,0-1.66.33-3.12,1-4.37s1.63-2.23,2.88-2.93,2.75-1.05,4.51-1.05,3.26.35,4.51,1.05c1.25.7,2.21,1.68,2.88,2.93s1,2.71,1,4.37c0,1.44-.27,2.72-.77,3.86h2.39v-11.99h5.82v11.99h2.21v-10.03l-3.63-4.04h-.01Zm-53.66-.39c-.56.52-1.23.78-2.03.78s-1.46-.26-2.02-.78-.84-1.14-.84-1.88.28-1.36.84-1.88,1.24-.78,2.02-.78,1.47.26,2.03.78.84,1.15.84,1.88-.28,1.36-.84,1.88Z"/><path class="cls-2" d="m76.99,94.01c.53,0,.99-.15,1.37-.46.38-.31.66-.74.86-1.32.2-.57.3-1.26.3-2.06s-.1-1.49-.3-2.06c-.2-.57-.49-1.01-.86-1.32-.38-.31-.83-.46-1.37-.46s-.99.15-1.38.46c-.38.31-.68.75-.89,1.32s-.31,1.26-.31,2.06.1,1.47.31,2.04.5,1.02.89,1.33c.38.31.84.47,1.38.47Z"/><path class="cls-2" d="m68.73,81.16l-2.7,10.8c-.27,1.08.55,2.12,1.65,2.12h1.04v-12.92h.01Z"/><path class="cls-2" d="m155.25,90.51v3.43c1.04-.41,1.48-1.79.64-2.72l-.64-.71Z"/><path class="cls-2" d="m131.44,94.26c.49,0,.92-.17,1.28-.5s.64-.8.83-1.41.3-1.34.3-2.18-.1-1.58-.3-2.19c-.2-.61-.47-1.08-.83-1.41s-.78-.5-1.28-.5-.97.16-1.34.5c-.37.33-.66.8-.85,1.41-.2.61-.29,1.34-.29,2.19s.1,1.57.29,2.18.48,1.08.85,1.41c.37.33.82.5,1.34.5Z"/><path class="cls-2" d="m75.34,117.65c-1,0-1.89-.17-2.66-.5s-1.37-.84-1.81-1.51c-.44-.68-.66-1.54-.66-2.58,0-.86.15-1.6.44-2.21s.7-1.11,1.23-1.5c.53-.39,1.14-.69,1.84-.89s1.46-.34,2.27-.4c.88-.07,1.59-.15,2.13-.25.54-.1.92-.24,1.16-.42s.36-.42.36-.72v-.04c0-.41-.16-.72-.47-.94s-.72-.33-1.21-.33c-.54,0-.98.12-1.32.35-.34.24-.54.6-.61,1.08h-5.2c.07-.96.37-1.84.92-2.65.54-.81,1.34-1.46,2.38-1.95s2.35-.73,3.91-.73c1.13,0,2.14.13,3.03.39.89.26,1.66.63,2.28,1.1.63.47,1.11,1.01,1.44,1.64.33.62.5,1.3.5,2.03v10.78h-5.29v-2.21h-.12c-.31.59-.7,1.06-1.14,1.42-.45.36-.96.63-1.53.79-.57.16-1.2.25-1.88.25h0Zm1.84-3.57c.43,0,.84-.09,1.21-.27.38-.18.69-.43.93-.77.24-.33.36-.74.36-1.22v-1.31c-.15.06-.31.12-.48.17s-.34.11-.53.15-.39.09-.59.13-.43.08-.65.11c-.44.07-.79.18-1.07.33-.28.15-.48.34-.61.56s-.2.47-.2.74c0,.44.15.77.46,1s.7.35,1.18.35v.03Z"/><path class="cls-2" d="m92.94,96.42v20.98h-5.66v-20.98h5.66Z"/><path class="cls-2" d="m95.08,123.31v-21.64h5.61v2.75h.12c.2-.53.51-1.02.9-1.47.4-.45.89-.81,1.48-1.08.59-.27,1.27-.4,2.05-.4,1.04,0,2.03.28,2.97.83s1.7,1.42,2.3,2.61c.59,1.19.89,2.73.89,4.63s-.28,3.32-.85,4.52c-.56,1.19-1.32,2.09-2.25,2.67-.94.59-1.97.88-3.09.88-.74,0-1.4-.12-1.97-.36-.58-.24-1.07-.57-1.48-.99s-.72-.9-.94-1.43h-.08v8.48h-5.66Zm5.53-13.77c0,.76.1,1.43.3,1.98.2.56.49.99.86,1.29s.82.46,1.34.46.96-.15,1.33-.45.65-.72.84-1.28.29-1.22.29-2-.1-1.45-.29-2c-.19-.56-.47-.98-.84-1.28-.37-.3-.81-.45-1.33-.45s-.96.15-1.34.45c-.37.3-.66.72-.86,1.28s-.3,1.22-.3,2Z"/><path class="cls-2" d="m127.44,106.79h-5.2c-.03-.32-.14-.6-.34-.83s-.45-.41-.76-.54c-.31-.13-.65-.19-1.03-.19-.48,0-.9.09-1.25.27s-.52.43-.51.76c0,.23.09.45.3.65.21.2.61.35,1.21.46l3.2.57c1.61.29,2.81.79,3.6,1.48s1.19,1.62,1.19,2.78-.34,2.09-1,2.92c-.66.82-1.56,1.46-2.69,1.91-1.14.45-2.43.67-3.89.67-2.4,0-4.28-.49-5.64-1.48-1.36-.98-2.11-2.28-2.27-3.89h5.62c.07.5.32.88.74,1.15.42.27.95.4,1.59.4.52,0,.95-.09,1.29-.27s.51-.43.52-.76c0-.3-.15-.54-.45-.72-.29-.18-.74-.32-1.36-.43l-2.79-.49c-1.61-.28-2.81-.81-3.61-1.6s-1.2-1.8-1.19-3.03c0-1.09.28-2.02.87-2.78.58-.76,1.42-1.34,2.51-1.74s2.38-.6,3.88-.6c2.27,0,4.07.47,5.38,1.41,1.32.94,2.01,2.25,2.08,3.91h0Z"/><path class="cls-3" d="m118.36,49.48l10.98-15.19-18.32-29.24c-.72-1.15-2.44-1.04-3,.2l-9.85,21.79,20.18,22.44h.01Z"/><path class="cls-5" d="m79.32,49.53l-1.26,5.06c1.56.39,6.36,1.93,7.07-.92.74-2.97-4.25-3.74-5.81-4.13h0Z"/><path class="cls-5" d="m81.04,42.63l-1.14,4.59c1.3.32,5.29,1.64,5.94-.95.67-2.71-3.5-3.31-4.8-3.63h0Z"/><path class="cls-3" d="m86.21,28.98c-11.22-2.8-22.58,4.03-25.37,15.24-2.8,11.22,4.03,22.58,15.24,25.37,11.22,2.8,22.58-4.03,25.37-15.25,2.8-11.22-4.03-22.58-15.25-25.38v.02Zm4.17,17.33c-.3,2.04-1.43,3.03-2.93,3.37,2.06,1.07,3.11,2.72,2.11,5.57-1.24,3.54-4.19,3.84-8.1,3.1l-.95,3.81-2.3-.57.94-3.76c-.6-.15-1.2-.3-1.83-.48l-.94,3.78-2.29-.57.95-3.82c-.54-.14-1.08-.28-1.64-.42l-2.99-.75,1.14-2.63s1.69.45,1.67.42c.65.16.94-.26,1.05-.55l1.5-6.02c.08.02.17.04.24.06-.09-.04-.17-.06-.24-.08l1.07-4.3c.03-.49-.14-1.1-1.07-1.34.04-.02-1.67-.41-1.67-.41l.61-2.45,3.17.79h0c.48.13.97.24,1.47.36l.94-3.77,2.3.57-.92,3.7c.62.14,1.24.28,1.84.43l.92-3.67,2.3.57-.94,3.77c2.9,1,5.02,2.5,4.6,5.28h-.01Z"/></svg>