<svg xmlns="http://www.w3.org/2000/svg" viewBox="0 0 500 500"><g id="freepik--Floor--inject-85"><path d="M411.22,250c89.62,51.74,90.09,135.63,1.06,187.37s-233.87,51.75-323.49,0S-1.31,301.78,87.72,250,321.59,198.29,411.22,250Z" style="fill:#f0f0f0"></path></g><g id="freepik--Shadows--inject-85"><path d="M211,361.32c19.73,11.39,19.83,29.87.23,41.26S159.7,414,140,402.58s-19.84-29.87-.24-41.26S191.22,349.93,211,361.32Z" style="fill:#e0e0e0"></path><path d="M128.13,258.08c12.94,7.47,13,19.58.15,27.05s-33.76,7.47-46.7,0-13-19.58-.15-27.05S115.19,250.61,128.13,258.08Z" style="fill:#e0e0e0"></path><path d="M281.43,322.62c19.73,11.39,19.83,29.86.23,41.25s-51.49,11.4-71.22,0S190.6,334,210.2,322.62,261.69,311.22,281.43,322.62Z" style="fill:#e0e0e0"></path><path d="M351.9,283.91c19.73,11.4,19.83,29.87.23,41.26s-51.49,11.39-71.22,0-19.84-29.86-.24-41.26S332.16,272.52,351.9,283.91Z" style="fill:#e0e0e0"></path><path d="M301.53,411.31c19.74,11.39,19.84,29.87.24,41.26s-51.5,11.39-71.23,0-19.84-29.87-.23-41.26S281.8,399.92,301.53,411.31Z" style="fill:#e0e0e0"></path><path d="M370.19,372.23c19.73,11.39,19.84,29.86.23,41.26s-51.49,11.39-71.22,0-19.84-29.87-.24-41.26S350.46,360.84,370.19,372.23Z" style="fill:#e0e0e0"></path><path d="M433.85,337c19.73,11.39,19.83,29.86.23,41.26s-51.49,11.39-71.23,0S343,348.43,362.62,337,414.11,325.65,433.85,337Z" style="fill:#e0e0e0"></path><polygon points="207.62 272.27 164.81 247.11 90.78 289.37 133.6 314.53 207.62 272.27" style="fill:#e0e0e0"></polygon></g><g id="freepik--Wndows--inject-85"><polygon points="288.37 144.2 287.31 144.97 358.71 186.2 360.83 186.06 288.37 144.2" style="fill:#fafafa"></polygon><polygon points="288.37 50.45 358.71 91.07 358.71 184.83 288.37 144.2 288.37 50.45" style="fill:#fff"></polygon><path d="M285.18,146.2l75.65,43.69v-100L285.18,46.17Zm2.13-96.35,71.4,41.22V186.2L287.31,145Z" style="fill:#f0f0f0"></path><polygon points="287.31 49.85 288.37 50.45 288.37 144.2 287.31 144.97 287.31 49.85" style="fill:#e0e0e0"></polygon><polygon points="360.83 89.84 361.9 89.23 286.24 45.56 285.18 46.17 360.83 89.84" style="fill:#fafafa"></polygon><polygon points="361.9 189.27 360.83 189.88 360.83 89.84 361.9 89.23 361.9 189.27" style="fill:#e0e0e0"></polygon><polygon points="358.71 139.06 287.31 97.84 288.38 97.19 358.71 137.85 358.71 139.06" style="fill:#fafafa"></polygon><polygon points="358.71 139.06 358.71 141.44 287.31 100.21 287.31 97.84 358.71 139.06" style="fill:#f0f0f0"></polygon><polygon points="358.71 95.69 287.81 54.72 288.38 52.23 358.71 92.85 358.71 95.69" style="fill:#f0f0f0"></polygon><polygon points="288.38 52.23 288.15 53.22 358.71 93.99 358.71 92.85 288.38 52.23" style="fill:#e0e0e0"></polygon><polygon points="358.71 99.65 287.81 58.69 288.38 56.2 358.71 96.81 358.71 99.65" style="fill:#f0f0f0"></polygon><polygon points="288.38 56.2 288.15 57.18 358.71 97.95 358.71 96.81 288.38 56.2" style="fill:#e0e0e0"></polygon><polygon points="358.71 103.61 287.81 62.65 288.38 60.16 358.71 100.78 358.71 103.61" style="fill:#f0f0f0"></polygon><polygon points="288.38 60.16 288.15 61.15 358.71 101.92 358.71 100.78 288.38 60.16" style="fill:#e0e0e0"></polygon><polygon points="358.71 107.58 287.81 66.61 288.38 64.13 358.71 104.74 358.71 107.58" style="fill:#f0f0f0"></polygon><polygon points="288.38 64.13 288.15 65.12 358.71 105.88 358.71 104.74 288.38 64.13" style="fill:#e0e0e0"></polygon><polygon points="358.71 111.54 287.81 70.58 288.38 68.09 358.71 108.71 358.71 111.54" style="fill:#f0f0f0"></polygon><polygon points="288.38 68.09 288.15 69.08 358.71 109.85 358.71 108.71 288.38 68.09" style="fill:#e0e0e0"></polygon><polygon points="358.71 115.5 287.81 74.55 288.38 72.06 358.71 112.67 358.71 115.5" style="fill:#f0f0f0"></polygon><polygon points="288.38 72.06 288.15 73.04 358.71 113.81 358.71 112.67 288.38 72.06" style="fill:#e0e0e0"></polygon><polygon points="358.71 119.47 287.81 78.51 288.38 76.02 358.71 116.64 358.71 119.47" style="fill:#f0f0f0"></polygon><polygon points="288.38 76.02 288.15 77.01 358.71 117.77 358.71 116.64 288.38 76.02" style="fill:#e0e0e0"></polygon><polygon points="358.71 123.44 287.81 82.47 288.38 79.98 358.71 120.6 358.71 123.44" style="fill:#f0f0f0"></polygon><polygon points="288.38 79.98 288.15 80.97 358.71 121.73 358.71 120.6 288.38 79.98" style="fill:#e0e0e0"></polygon><polygon points="358.71 127.4 287.81 86.43 288.38 83.94 358.71 124.56 358.71 127.4" style="fill:#f0f0f0"></polygon><polygon points="288.38 83.94 288.15 84.94 358.71 125.71 358.71 124.56 288.38 83.94" style="fill:#e0e0e0"></polygon><polygon points="358.71 131.36 287.81 90.4 288.38 87.91 358.71 128.53 358.71 131.36" style="fill:#f0f0f0"></polygon><polygon points="288.38 87.91 288.15 88.9 358.71 129.67 358.71 128.53 288.38 87.91" style="fill:#e0e0e0"></polygon><polygon points="381.56 195.94 380.5 196.71 451.9 237.94 454.03 237.79 381.56 195.94" style="fill:#fafafa"></polygon><polygon points="381.56 102.19 451.9 142.81 451.9 236.57 381.56 195.94 381.56 102.19" style="fill:#fff"></polygon><path d="M378.38,197.94,454,241.62v-100L378.38,97.9Zm2.12-96.35,71.41,41.22v95.13L380.5,196.71Z" style="fill:#f0f0f0"></path><polygon points="380.5 101.59 381.56 102.19 381.56 195.94 380.5 196.71 380.5 101.59" style="fill:#e0e0e0"></polygon><polygon points="454.03 141.58 455.1 140.97 379.44 97.3 378.38 97.9 454.03 141.58" style="fill:#fafafa"></polygon><polygon points="455.1 241 454.03 241.62 454.03 141.58 455.1 140.97 455.1 241" style="fill:#e0e0e0"></polygon><polygon points="451.9 190.79 380.5 149.57 381.57 148.93 451.9 189.58 451.9 190.79" style="fill:#fafafa"></polygon><polygon points="451.9 190.79 451.9 193.17 380.5 151.94 380.5 149.57 451.9 190.79" style="fill:#f0f0f0"></polygon><polygon points="451.9 147.42 381 106.45 381.57 103.97 451.9 144.59 451.9 147.42" style="fill:#f0f0f0"></polygon><polygon points="381.57 103.97 381.34 104.96 451.9 145.73 451.9 144.59 381.57 103.97" style="fill:#e0e0e0"></polygon><polygon points="451.9 151.38 381 110.42 381.57 107.94 451.9 148.55 451.9 151.38" style="fill:#f0f0f0"></polygon><polygon points="381.57 107.94 381.34 108.92 451.9 149.69 451.9 148.55 381.57 107.94" style="fill:#e0e0e0"></polygon><polygon points="451.9 155.34 381 114.39 381.57 111.9 451.9 152.52 451.9 155.34" style="fill:#f0f0f0"></polygon><polygon points="381.57 111.9 381.34 112.89 451.9 153.65 451.9 152.52 381.57 111.9" style="fill:#e0e0e0"></polygon><polygon points="451.9 159.31 381 118.35 381.57 115.86 451.9 156.48 451.9 159.31" style="fill:#f0f0f0"></polygon><polygon points="381.57 115.86 381.34 116.85 451.9 157.61 451.9 156.48 381.57 115.86" style="fill:#e0e0e0"></polygon><polygon points="451.9 163.28 381 122.31 381.57 119.82 451.9 160.44 451.9 163.28" style="fill:#f0f0f0"></polygon><polygon points="381.57 119.82 381.34 120.81 451.9 161.58 451.9 160.44 381.57 119.82" style="fill:#e0e0e0"></polygon><polygon points="451.9 167.24 381 126.28 381.57 123.79 451.9 164.4 451.9 167.24" style="fill:#f0f0f0"></polygon><polygon points="381.57 123.79 381.34 124.78 451.9 165.55 451.9 164.4 381.57 123.79" style="fill:#e0e0e0"></polygon><polygon points="451.9 171.2 381 130.24 381.57 127.75 451.9 168.37 451.9 171.2" style="fill:#f0f0f0"></polygon><polygon points="381.57 127.75 381.34 128.75 451.9 169.51 451.9 168.37 381.57 127.75" style="fill:#e0e0e0"></polygon><polygon points="451.9 175.17 381 134.21 381.57 131.72 451.9 172.34 451.9 175.17" style="fill:#f0f0f0"></polygon><polygon points="381.57 131.72 381.34 132.71 451.9 173.47 451.9 172.34 381.57 131.72" style="fill:#e0e0e0"></polygon><polygon points="451.9 179.13 381 138.17 381.57 135.68 451.9 176.3 451.9 179.13" style="fill:#f0f0f0"></polygon><polygon points="381.57 135.68 381.34 136.67 451.9 177.44 451.9 176.3 381.57 135.68" style="fill:#e0e0e0"></polygon><polygon points="451.9 183.1 381 142.14 381.57 139.65 451.9 180.26 451.9 183.1" style="fill:#f0f0f0"></polygon><polygon points="381.57 139.65 381.34 140.63 451.9 181.4 451.9 180.26 381.57 139.65" style="fill:#e0e0e0"></polygon></g><g id="freepik--Plant--inject-85"><path d="M52.53,351.72c-5.55-5.68-8.82-22.59-3.4-27.1H76.7c5.42,4.51,2.16,21.39-3.39,27.1l-.16.15-.19.19c-.15.15-.32.3-.5.45l-.13.1c-.14.11-.27.22-.42.32s-.48.32-.72.46c-4.57,2.64-12,2.64-16.55,0h0a6.84,6.84,0,0,1-.72-.47,4,4,0,0,1-.39-.29l-.17-.13c-.17-.14-.33-.29-.48-.43l-.22-.22Z" style="fill:#37474f"></path><path d="M74.28,322.83c6.29,3.63,6.29,9.52,0,13.15s-16.49,3.63-22.78,0-6.29-9.52,0-13.15S68,319.2,74.28,322.83Z" style="fill:#455a64"></path><path d="M71.24,324.58c4.62,2.66,4.62,7,0,9.68s-12.11,2.66-16.73,0-4.62-7,0-9.68S66.64,321.91,71.24,324.58Z" style="fill:#2e353a"></path><path d="M54.53,329.16c4.62-2.67,12.11-2.67,16.73,0A7.81,7.81,0,0,1,74,331.69a7.71,7.71,0,0,1-2.79,2.53c-4.62,2.67-12.11,2.67-16.73,0a7.59,7.59,0,0,1-2.77-2.54A7.68,7.68,0,0,1,54.53,329.16Z" style="fill:#ebebeb"></path><path d="M58.19,317.89c.82-1.24,2-2.19,2.78-3.47,1.56-2.7-.31-5.33.47-8.07a4.43,4.43,0,0,1,2.47-2.65,13.75,13.75,0,0,1,3.61-.95,5.46,5.46,0,0,0,1.9-.54c.71-.4.93-1.1,1.38-1.72a11.9,11.9,0,0,1,1.75-1.87,6.82,6.82,0,0,1,4.72-2c3.75.16,3.65,3.39,2.58,5.84s-1.37,3.22,1,5.8,2.35,5.69-.45,7.45-4.61,2-3.51,5.37c1,3,1.6,5.61-1.19,8.84a9.13,9.13,0,0,1-7.37,3.46c-5.59-.24-10.14-4.77-11.07-10.15a7.43,7.43,0,0,1,.84-5.1Z" style="fill:#720F88"></path><path d="M58.19,317.89c.82-1.24,2-2.19,2.78-3.47,1.56-2.7-.31-5.33.47-8.07a4.43,4.43,0,0,1,2.47-2.65,13.75,13.75,0,0,1,3.61-.95,5.46,5.46,0,0,0,1.9-.54c.71-.4.93-1.1,1.38-1.72a11.9,11.9,0,0,1,1.75-1.87,6.82,6.82,0,0,1,4.72-2c3.75.16,3.65,3.39,2.58,5.84s-1.37,3.22,1,5.8,2.35,5.69-.45,7.45-4.61,2-3.51,5.37c1,3,1.6,5.61-1.19,8.84a9.13,9.13,0,0,1-7.37,3.46c-5.59-.24-10.14-4.77-11.07-10.15a7.43,7.43,0,0,1,.84-5.1Z" style="fill:#720F88;opacity:0.30000000000000004;isolation:isolate"></path><path d="M58.19,317.89c.82-1.24,2-2.19,2.78-3.47,1.56-2.7-.31-5.33.47-8.07a4.43,4.43,0,0,1,2.47-2.65,13.75,13.75,0,0,1,3.61-.95,5.46,5.46,0,0,0,1.9-.54c.71-.4.93-1.1,1.38-1.72a11.9,11.9,0,0,1,1.75-1.87,6.82,6.82,0,0,1,4.72-2c3.75.16,3.65,3.39,2.58,5.84s-1.37,3.22,1,5.8,2.35,5.69-.45,7.45-4.61,2-3.51,5.37c1,3,1.6,5.61-1.19,8.84a9.13,9.13,0,0,1-7.37,3.46c-5.59-.24-10.14-4.77-11.07-10.15a7.43,7.43,0,0,1,.84-5.1Z" style="opacity:0.30000000000000004;isolation:isolate"></path><path d="M77.3,311.21A.28.28,0,0,0,77,311a45,45,0,0,0-8.75,3.31,40,40,0,0,1,6.89-11.8.28.28,0,0,0,0-.4.29.29,0,0,0-.39,0,39.09,39.09,0,0,0-6,9.68,22,22,0,0,0-2.83-4.6.28.28,0,0,0-.42.36,21,21,0,0,1,2.94,4.93c-.32.74-.65,1.51-.94,2.32a.37.37,0,0,0-.07.2,48.17,48.17,0,0,0-3,17.22.27.27,0,0,0,.26.28h.1a.29.29,0,0,0,.19-.27,47.71,47.71,0,0,1,3-17.05c3.34-2.06,9.14-3.59,9.2-3.61a.28.28,0,0,0,.19-.34Z" style="fill:#fff"></path><path d="M63.35,333.87c-.15.1-1.44.55-1.62.6-2.07.59-4.75.28-7.19-.08-1.6-.24-3.75-.58-4.94-1.77a2.12,2.12,0,0,1-.57-2.28c.37-.81,1.42-1.29,1.51-2.18-1.74-.58-3.8-.12-5.36-1.09a6.39,6.39,0,0,1-2.43-3.16,3.52,3.52,0,0,1-.12-2.59c.43-.87,1.55-1.07,2.51-1.22a1.91,1.91,0,0,0,.73-.21.66.66,0,0,0,.32-.65c-.07-.31-.4-.46-.7-.56-.65-.21-1.3-.33-1.94-.57a3,3,0,0,1-1.57-1.2,4,4,0,0,1-.3-2.33,34.15,34.15,0,0,1,.57-4,25.45,25.45,0,0,0,.33-3.49,24.43,24.43,0,0,1,10.18.23c1.84.38,4.51,1.24,5.32,3.16a3.63,3.63,0,0,1,.21,1.73,5.32,5.32,0,0,1-.18.79c0,.16-.2.8.19.51a.83.83,0,0,0,.19-.27l1.29-2.58a1.66,1.66,0,0,1,.52-.68c.52-.32,1.94-.07,3.38,1.1a5.62,5.62,0,0,1,1.81,3.19,15.41,15.41,0,0,1-.22,5.93l1.26-1.76c1.48-2,2.38,1.7,2.44,2.51a17.88,17.88,0,0,1-1.16,7.38A12.22,12.22,0,0,1,63.35,333.87Z" style="fill:#720F88"></path><path d="M59.43,324.2a22.58,22.58,0,0,1,2.5-9.48l0-.07a.25.25,0,0,0-.12-.33h0a.26.26,0,0,0-.34.11v.07A23.74,23.74,0,0,0,59,323.4c-4-6.75-9.89-13.18-13-14.84a.27.27,0,0,0-.37.11.26.26,0,0,0,.1.36h0c3,1.66,8.86,8,12.81,14.68A15.55,15.55,0,0,0,48.48,323a.25.25,0,0,0-.16.32h0a.27.27,0,0,0,.2.17.24.24,0,0,0,.12,0,15,15,0,0,1,10.33.94,27.67,27.67,0,0,1,3.56,9.17.29.29,0,0,0,.18.22h.13a.26.26,0,0,0,.23-.28v0A28.2,28.2,0,0,0,59.43,324.2Z" style="fill:#fff"></path></g><g id="freepik--Character--inject-85"><path d="M144.56,156.26l2.66-2a5.26,5.26,0,0,0,1.81-2.43l.63-1.73a6.48,6.48,0,0,1,2.22-3,22.61,22.61,0,0,0,4.08-3.92h0a2.46,2.46,0,0,1,.18,3.1,17.1,17.1,0,0,1-1.63,1.86l1.47.11a5.14,5.14,0,0,0,3-.74l3.72-2.28a.7.7,0,0,1,1.07.59,16.19,16.19,0,0,1-1.07,5.38,6.05,6.05,0,0,1-3.55,3.59c-2,.76-3.89,1.41-5,1.78a6,6,0,0,0-1.74.91l-3.91,2.9Z" style="fill:#8c5656"></path><path d="M147.45,153.69l-3.35,2.17a6.7,6.7,0,0,0,1.24,3.31,6.62,6.62,0,0,0,3.08,2.29l3.07-2.91S148.53,158.09,147.45,153.69Z" style="fill:#e0e0e0"></path><path d="M145.34,159.17a6.7,6.7,0,0,1-1.24-3.31l-10.5,6.77-6.19-17.33a6.53,6.53,0,0,0-5.32-4.29l-3-.39,2.82,20.29,4.82,9.67a6.44,6.44,0,0,0,9.85,2.1l11.86-11.22A6.62,6.62,0,0,1,145.34,159.17Z" style="fill:#f5f5f5"></path><polygon points="133.6 162.63 129.63 165.61 132.5 159.53 133.6 162.63" style="opacity:0.1"></polygon><path d="M126.29,169.74c.67-8.43,1.2-15.28-6.5-23.94l2.1,15.11Z" style="opacity:0.1"></path><path d="M132.47,272.6a6.58,6.58,0,0,1-4.91,1.81,15,15,0,0,1-5.19-1.31c-1.66-.68-3.75-2.6-5.54-2.56a43.67,43.67,0,0,1-5.25-.36,27.29,27.29,0,0,1,.75-7.11l8.38-.22c2.26,3.1,6.66,5.68,10,6.64a2.94,2.94,0,0,1,2.06,2.21v.05A3.51,3.51,0,0,1,132.47,272.6Z" style="fill:#455a64"></path><path d="M116.83,270.54c1.79,0,3.88,1.88,5.54,2.56a15,15,0,0,0,5.19,1.31,6.58,6.58,0,0,0,4.91-1.81,3.51,3.51,0,0,0,.29-.85v-.05a2.6,2.6,0,0,1,0,1.11,3.72,3.72,0,0,1-.29.86,6.53,6.53,0,0,1-4.91,1.8,15,15,0,0,1-5.19-1.31c-1.66-.68-3.75-2.59-5.54-2.56a39.51,39.51,0,0,1-5.17-.29c0-.38-.06-.75-.08-1.13A43.67,43.67,0,0,0,116.83,270.54Z" style="fill:#263238"></path><path d="M93.17,273.39a12,12,0,0,0,.26,2.54,5.9,5.9,0,0,0,2.32,3.71,7.56,7.56,0,0,0,3.69,1,8.2,8.2,0,0,0,3.38-.35,3.89,3.89,0,0,0,2-1.61.06.06,0,0,0,0,0,3.55,3.55,0,0,1-2.28,2.37,8.15,8.15,0,0,1-3.37.35,7.5,7.5,0,0,1-3.7-1,5.85,5.85,0,0,1-2.32-3.7,12.09,12.09,0,0,1-.25-2.54,4.3,4.3,0,0,0-1.36-3.11c-.21-.2-.42-.4-.6-.61a1.55,1.55,0,0,1-.36-1.11c0-.16,0-.31,0-.47.3.36,1,1.22,1.21,1.39A4.32,4.32,0,0,1,93.17,273.39Z" style="fill:#263238"></path><path d="M99.58,264.53a9.25,9.25,0,0,0,.66,5.16,19.58,19.58,0,0,0,2.72,4.48,13.25,13.25,0,0,1,1.43,2.08,3.76,3.76,0,0,1,.41,2.41,3.89,3.89,0,0,1-2,1.61,8.2,8.2,0,0,1-3.38.35,7.56,7.56,0,0,1-3.69-1,5.9,5.9,0,0,1-2.32-3.71,12,12,0,0,1-.26-2.54,4.32,4.32,0,0,0-1.36-3.11c-.18-.17-.91-1-1.21-1.39a9.33,9.33,0,0,1,1.25-3.59Z" style="fill:#455a64"></path><path d="M124.34,181.77l-.7,47.8L121.38,263c-5.71,3.61-9.84.65-9.84.65-2.17-15.84-2.46-25.59-1.28-32.19l-1.08-25.79-3.25,26.78-5.47,32.82c-5.85,3.8-10,0-10,0,0-12.15-1.08-25.73,2.27-34.49a201.1,201.1,0,0,1,1.57-48.54Z" style="fill:#37474f"></path><path d="M110.37,195.84l-1.19,9.85.5,12.08,2.2-19.85c5.1-2,5.76-4.8,5.76-4.8A15.69,15.69,0,0,1,110.37,195.84Z" style="opacity:0.30000000000000004"></path><path d="M113.48,140l5.59.59c4.58,4,6.94,12.51,6,21.86a165.85,165.85,0,0,0-.68,19.29c-12.41,9.06-28.06,2.46-30,.49l.92-11.46A7.79,7.79,0,0,0,94.6,167c-1.17-2.72-3.26-8.07-3.54-12.22a21.7,21.7,0,0,1,2.27-10.68l8.12-3.55Z" style="fill:#f5f5f5"></path><path d="M94.6,167a48.45,48.45,0,0,1-3.36-10.69c1.15.7,2.37,1.38,2.85,2.53a20.29,20.29,0,0,1,1.15,11.7A7.85,7.85,0,0,0,94.6,167Z" style="opacity:0.1"></path><path d="M115,148.18A60.48,60.48,0,0,1,119.64,170L117.33,175l-3.6-4.72a186,186,0,0,0-.43-21.73Z" style="fill:#720F88"></path><path d="M115.23,144.12a16.89,16.89,0,0,1-.2,4.06,3.2,3.2,0,0,1-1.73.32,14.33,14.33,0,0,1-2.8-3.37l2.8-1Z" style="fill:#720F88"></path><path d="M113.3,144.12c-2.41.88-4.55,5.17-4.55,5.17-6.32-5.37-7.3-8.72-7.3-8.72a6.25,6.25,0,0,1,3.39-2.68Z" style="fill:#e0e0e0"></path><path d="M113.3,144.12c1.83,0,3.46,2.61,3.46,2.61.29-4.48-3.46-7.93-3.46-7.93Z" style="fill:#e0e0e0"></path><path d="M104.7,132.88l8.6,3.07v3.18a14,14,0,0,1-5.46-2A8.3,8.3,0,0,1,104.7,132.88Z" style="fill:#703838"></path><path d="M104.7,132.88a8.3,8.3,0,0,0,3.14,4.27,14,14,0,0,0,5.46,2v5s-9.1-4.09-9.1-6V132.7Z" style="fill:#8c5656"></path><path d="M121.26,120.27a5.28,5.28,0,0,0,3.38-1.1,5.15,5.15,0,0,0,1.34-1.56.72.72,0,0,0-.78-1,5.79,5.79,0,0,1-2,0,9.46,9.46,0,0,0,1.86-7,.9.9,0,0,0-1.27-.67,17.47,17.47,0,0,1-8.84,1.79c-1.62-.12-3.22-.46-4.84-.59a9,9,0,0,0-4.77.73,4.54,4.54,0,0,0-2.6,3.84,2.19,2.19,0,0,0-1.61-.93,2.45,2.45,0,0,0-1.88.55l2.79,1.55a2.45,2.45,0,0,0-2.65,1.31,6.43,6.43,0,0,0-.51,3,22.92,22.92,0,0,0,.18,4.06,7.83,7.83,0,0,0,1.54,3.72,5.88,5.88,0,0,0,2.8,1.9,7.62,7.62,0,0,0,4.53-.15,18.22,18.22,0,0,0,4.12-2A65,65,0,0,0,121.26,120.27Z" style="fill:#263238"></path><path d="M121.47,117.56a31.29,31.29,0,0,1-1.79,16.69,6,6,0,0,1-2.27,3.14,6.28,6.28,0,0,1-4,.33,20.69,20.69,0,0,1-6.39-1.79,8.74,8.74,0,0,1-4.42-4.77,3.84,3.84,0,0,1-3.88-1.52,7.3,7.3,0,0,1-1.25-4.23,2.6,2.6,0,0,1,1-2.51,2.42,2.42,0,0,1,2.45.61,7.37,7.37,0,0,1,2.39,3.58c.63-2.33,1.61-4.58,2.25-6.91a3.87,3.87,0,0,1,1.35-2.43c1-.63,2.26-.27,3.38,0A22.21,22.21,0,0,0,121.47,117.56Z" style="fill:#8c5656"></path><polygon points="114.67 124.64 117.4 129.23 114.14 129.84 114.67 124.64" style="fill:#703838"></polygon><path d="M111,131.42l2.47,1.21a1.62,1.62,0,0,1-1.87.53A1.46,1.46,0,0,1,111,131.42Z" style="fill:#703838"></path><path d="M111,131.42l2.47,1.21a1.62,1.62,0,0,1-1.87.53A1.46,1.46,0,0,1,111,131.42Z" style="opacity:0.30000000000000004"></path><path d="M112.47,133.24a1.55,1.55,0,0,1-.86-.08,1.32,1.32,0,0,1-.66-1.3,1.54,1.54,0,0,1,1,.33A1.6,1.6,0,0,1,112.47,133.24Z" style="fill:#703838"></path><path d="M110,124.82a.93.93,0,1,0,1-.83A.93.93,0,0,0,110,124.82Z" style="fill:#263238"></path><path d="M117.79,125.31a.93.93,0,1,0,1-.84A.93.93,0,0,0,117.79,125.31Z" style="fill:#263238"></path><path d="M119.07,121.7l1.92,1.63a1.32,1.32,0,0,0-.26-1.49A1.57,1.57,0,0,0,119.07,121.7Z" style="fill:#263238"></path><path d="M111.12,120.79l-2.2,1.22a1.35,1.35,0,0,1,.55-1.42A1.56,1.56,0,0,1,111.12,120.79Z" style="fill:#263238"></path><path d="M74.33,164.3l-3-1.47a5.23,5.23,0,0,1-2.21-2.06l-.93-1.59a6.51,6.51,0,0,0-2.72-2.53,22.26,22.26,0,0,1-4.71-3.13h0a2.47,2.47,0,0,0,.38,3.08,18.41,18.41,0,0,0,1.94,1.55l-1.43.36a5.14,5.14,0,0,1-3.1-.19l-4.06-1.58a.71.71,0,0,0-1,.78,16.06,16.06,0,0,0,2,5.1,6.06,6.06,0,0,0,4.12,2.9c2.08.39,4.09.69,5.23.85a6.53,6.53,0,0,1,1.88.59l4.36,2.16Z" style="fill:#8c5656"></path><path d="M77.15,168.87a7.42,7.42,0,0,0,.52-3.87l5.57,2.65a114.72,114.72,0,0,0,2.36-12.33c.66-5.61.52-9.38,7.73-11.2l.76,14.74s-.89,18-6,20c-4.28,1.65-7.3-2.42-13.83-6.64A7.44,7.44,0,0,0,77.15,168.87Z" style="fill:#f5f5f5"></path><path d="M87,171.34a7,7,0,0,0-3.74-3.69s.16-.65.41-1.72C84.77,166.48,87.53,168.18,87,171.34Z" style="opacity:0.1"></path><path d="M72.55,163.19,77.67,165a7.25,7.25,0,0,1-3.46,7.23A37.54,37.54,0,0,1,70,168.85S72.18,168.06,72.55,163.19Z" style="fill:#e0e0e0"></path></g><g id="freepik--Lectern--inject-85"><polygon points="200.93 202.9 163 180.61 97.42 218.05 135.35 240.34 200.93 202.9" style="fill:#720F88"></polygon><polygon points="97.42 218.05 97.09 287.34 135.02 309.63 135.35 240.34 97.42 218.05" style="fill:#720F88"></polygon><polygon points="200.93 202.9 135.35 240.34 135.02 309.63 200.6 272.19 200.93 202.9" style="fill:#720F88"></polygon><polygon points="97.42 218.05 97.09 287.34 135.02 309.63 135.35 240.34 97.42 218.05" style="opacity:0.30000000000000004"></polygon><polygon points="200.93 202.9 135.35 240.34 135.02 309.63 200.6 272.19 200.93 202.9" style="opacity:0.2"></polygon><path d="M192.58,217.19l-49,28-.23,50.19,49-28Zm-46.43,73.38.2-43.81L189.8,222l-.2,43.81Z" style="fill:#e6e6e6"></path><polygon points="207.62 195.41 164.81 170.25 90.78 212.51 133.6 237.67 207.62 195.41" style="fill:#720F88"></polygon><polygon points="207.62 195.41 164.81 170.25 90.78 212.51 133.6 237.67 207.62 195.41" style="fill:#fff;opacity:0.30000000000000004"></polygon><polygon points="90.78 212.51 90.78 217.76 133.59 242.92 133.6 237.67 90.78 212.51" style="fill:#720F88"></polygon><polygon points="90.78 212.51 90.78 217.76 133.59 242.92 133.6 237.67 90.78 212.51" style="opacity:0.1"></polygon><polygon points="207.62 195.41 133.6 237.67 133.59 242.92 207.61 200.66 207.62 195.41" style="fill:#720F88"></polygon><path d="M159.67,198.44a3.1,3.1,0,0,1-1.83,2.56A9.74,9.74,0,0,1,149,201a3.13,3.13,0,0,1-1.83-2.57h0v2.3h0a3.13,3.13,0,0,0,1.83,2.57,9.74,9.74,0,0,0,8.84.05,3.12,3.12,0,0,0,1.83-2.56h0v-2.3Z" style="fill:#263238"></path><path d="M149,201a9.74,9.74,0,0,0,8.84.05,2.71,2.71,0,0,0,0-5.12,9.74,9.74,0,0,0-8.84,0,3.16,3.16,0,0,0-1.83,2.42v.13A3.13,3.13,0,0,0,149,201Z" style="fill:#455a64"></path><path d="M144.35,164.44l0,0a3.76,3.76,0,0,0-.25-.31,2.11,2.11,0,1,0-3,3,18.78,18.78,0,0,0,3.1,2.13l1.43-1.15A9.67,9.67,0,0,0,144.35,164.44Z" style="fill:#263238"></path><path d="M154.35,186.3a20.73,20.73,0,0,0-4.58-13.09L145.61,168a1,1,0,0,0-1,.29,1.05,1.05,0,0,0-.41.86l4.16,5.17a18.91,18.91,0,0,1,4.17,11.94l0,12.07v0a.47.47,0,0,0,.27.38,1.45,1.45,0,0,0,1.3,0,.46.46,0,0,0,.28-.38h0Z" style="fill:#37474f"></path><polygon points="165.82 200.77 153.37 207.93 140.91 200.65 153.36 193.5 165.82 200.77" style="fill:#455a64"></polygon><polygon points="165.82 200.77 165.81 202.27 153.36 209.43 153.37 207.93 165.82 200.77" style="fill:#37474f"></polygon><polygon points="153.37 207.93 153.36 209.43 140.9 202.15 140.91 200.65 153.37 207.93" style="fill:#263238"></polygon></g><g id="freepik--Audience--inject-85"><path d="M302,289.52a4,4,0,0,1-3.64,2.45,18,18,0,0,1-4.59-.59c-3.42-.62-5.32,0-8.72-.09a14.84,14.84,0,0,1-3.33-.36,5.47,5.47,0,0,1-2.84-1.68,3.6,3.6,0,0,1-.82-1.78,3.47,3.47,0,0,0,.82,2.78,5.47,5.47,0,0,0,2.84,1.68,14.84,14.84,0,0,0,3.33.36c3.4.08,5.3-.53,8.72.09a18.41,18.41,0,0,0,4.59.59,4,4,0,0,0,3.64-2.45,3.78,3.78,0,0,0,.11-1.57A2.87,2.87,0,0,1,302,289.52Z" style="fill:#263238"></path><path d="M301.87,286.69l-.63-3.1a4.54,4.54,0,0,0-.53-1.58,1.55,1.55,0,0,0-1.38-.79c-1.87-.25-4.5-.93-6.05.14-2.43,1.68-4,2.54-7,2.43a28.7,28.7,0,0,0-4.63-.19,4.14,4.14,0,0,0-3.58,2.52,2.94,2.94,0,0,0-.08,1.35,3.6,3.6,0,0,0,.82,1.78,5.47,5.47,0,0,0,2.84,1.68,14.84,14.84,0,0,0,3.33.36c3.4.08,5.3-.53,8.72.09a18,18,0,0,0,4.59.59,4,4,0,0,0,3.64-2.45,2.87,2.87,0,0,0,.11-.57A7.2,7.2,0,0,0,301.87,286.69Z" style="fill:#455a64"></path><path d="M292.83,278.11l-.14,4.05a1.6,1.6,0,0,0,1.49,1.65,26.26,26.26,0,0,0,4.07,0,2.3,2.3,0,0,0,2.08-2.17l.16-3Z" style="fill:#784141"></path><path d="M292.75,259.53c0,5.63-.6,19.6-.6,19.6,5.14,3.29,8.9.85,8.9.85.49-9,4.94-17.59,4.94-26.38-6.82-4.68-8.9-5.8-11.68-8.53C292.76,249.27,292.75,255.48,292.75,259.53Z" style="fill:#263238"></path><path d="M306,253.6c-2.45-1.69-4.29-2.9-5.77-3.91a41.29,41.29,0,0,0,4,15.14A45,45,0,0,0,306,253.6Z" style="fill:#263238"></path><path d="M288.49,299.76a4.31,4.31,0,0,1-3.9,2.63,19.72,19.72,0,0,1-4.93-.63c-3.66-.67-5.7,0-9.35-.1a15.26,15.26,0,0,1-3.57-.39,5.9,5.9,0,0,1-3.05-1.79,4,4,0,0,1-.88-1.92,3.77,3.77,0,0,0,.88,3,5.83,5.83,0,0,0,3.05,1.79,15.26,15.26,0,0,0,3.57.39c3.65.09,5.69-.57,9.35.1a19.72,19.72,0,0,0,4.93.63,4.32,4.32,0,0,0,3.9-2.62,4.19,4.19,0,0,0,.13-1.69A3.15,3.15,0,0,1,288.49,299.76Z" style="fill:#263238"></path><path d="M288.4,296.73c-.23-1.11-.45-2.22-.68-3.33a5,5,0,0,0-.56-1.7,1.67,1.67,0,0,0-1.48-.84c-2-.27-4.83-1-6.5.15-2.61,1.8-4.31,2.72-7.47,2.6a31.84,31.84,0,0,0-5-.2,4.45,4.45,0,0,0-3.85,2.71,3.19,3.19,0,0,0-.08,1.44,4,4,0,0,0,.88,1.92,5.9,5.9,0,0,0,3.05,1.79,15.26,15.26,0,0,0,3.57.39c3.65.09,5.69-.57,9.35.1a19.72,19.72,0,0,0,4.93.63,4.31,4.31,0,0,0,3.9-2.63,3.15,3.15,0,0,0,.13-.61A7.92,7.92,0,0,0,288.4,296.73Z" style="fill:#455a64"></path><path d="M278.7,287.53l-.15,4.33a1.72,1.72,0,0,0,1.6,1.77,26.51,26.51,0,0,0,4.37,0,2.46,2.46,0,0,0,2.23-2.32l.17-3.2Z" style="fill:#784141"></path><path d="M278.61,267.58c0,6.05-.63,21-.63,21,5.51,3.54,9.54.92,9.54.92.53-9.65,5.3-18.87,5.3-28.31-7.31-5-9.55-6.21-12.53-9.15C278.62,256.57,278.61,263.25,278.61,267.58Z" style="fill:#263238"></path><path d="M292.82,261.22c-2.63-1.81-4.6-3.11-6.19-4.19a44.48,44.48,0,0,0,4.27,16.24A48.29,48.29,0,0,0,292.82,261.22Z" style="opacity:0.30000000000000004"></path><path d="M291.71,307a.62.62,0,0,1-.44-.18.64.64,0,0,1,0-.9l23.17-24.05a.64.64,0,1,1,.91.89l-23.16,24A.65.65,0,0,1,291.71,307Z" style="fill:#263238"></path><path d="M319,324.26v5.14a.85.85,0,0,0,1.7,0v-5.14a2,2,0,0,1-.85.18A2.15,2.15,0,0,1,319,324.26Z" style="fill:#720F88"></path><path d="M319.86,279.14a.85.85,0,0,0-.85.85v44.27a2.15,2.15,0,0,0,.85.18,2,2,0,0,0,.85-.18V280A.85.85,0,0,0,319.86,279.14Z" style="fill:#455a64"></path><path d="M305.23,273.26a.87.87,0,0,0-1.11.47l-13.07,32a2,2,0,0,0,.83.53,2,2,0,0,0,.77.05l13-31.93A.85.85,0,0,0,305.23,273.26Z" style="fill:#455a64"></path><path d="M291.88,306.25a2,2,0,0,1-.83-.53L289,310.84a.85.85,0,0,0,.46,1.11,1,1,0,0,0,.33.06.84.84,0,0,0,.78-.53l2.12-5.18A2,2,0,0,1,291.88,306.25Z" style="fill:#720F88"></path><path d="M348,307a.63.63,0,0,0,.45-1.08L323,279.33a.64.64,0,0,0-.91.89l25.44,26.57A.63.63,0,0,0,348,307Z" style="fill:#263238"></path><path d="M334.49,273.26a.85.85,0,0,1,1.1.47l13.08,32a2,2,0,0,1-.83.53,2,2,0,0,1-.77.05L334,274.37A.86.86,0,0,1,334.49,273.26Z" style="fill:#455a64"></path><path d="M347.84,306.25a2,2,0,0,0,.83-.53l2.09,5.12A.85.85,0,0,1,350,312a.84.84,0,0,1-.78-.53l-2.12-5.18A2,2,0,0,0,347.84,306.25Z" style="fill:#720F88"></path><path d="M297.06,271.72c5.78,4.61,14.18,9,16.28,7.84,6.13-3.22,9.33-15,12-24.08.72-2.47,1.45-4.88,2.31-7.19-2.05-1.2-3.89-2.2-5.16-2.77-5.32-2.37-33,12.43-32.73,17.71C290.06,264.79,291.28,267.11,297.06,271.72Z" style="fill:#720F88"></path><path d="M297.06,271.72c5.78,4.61,14.18,9,16.28,7.84,6.13-3.22,9.33-15,12-24.08.72-2.47,1.45-4.88,2.31-7.19-2.05-1.2-3.89-2.2-5.16-2.77-5.32-2.37-33,12.43-32.73,17.71C290.06,264.79,291.28,267.11,297.06,271.72Z" style="opacity:0.30000000000000004"></path><path d="M343.94,249.05l-18-3.92c-12.65-4.08-23.32-7.77-29-3.82a7.36,7.36,0,0,0-2.65,3.76c2.78,2.73,4.86,3.85,11.68,8.53,15.22,10.57,28.17,15.38,35.38,10S343.94,249.05,343.94,249.05Z" style="fill:#263238"></path><path d="M333.54,256.34l-19.3-4.21c-13.57-4.38-25-8.33-31.1-4.09a7.87,7.87,0,0,0-2.85,4c3,2.94,5.22,4.13,12.53,9.15,16.33,11.35,30.22,16.51,38,10.75S333.54,256.34,333.54,256.34Z" style="fill:#263238"></path><path d="M345.34,232.05l1.75,3.68-4.17,4.59.3,11,13.46-11.69a3.65,3.65,0,0,0,.9-4.33l-4.11-8.54Z" style="fill:#784141"></path><path d="M349.49,239a8.47,8.47,0,0,1-2.4-3.28l-1,1.14A5.33,5.33,0,0,0,349.49,239Z" style="opacity:0.4"></path><path d="M345,232.93c5.35-.47,9-6,9-6-4.78-9.79-9-20.69-17.31-18.09Z" style="fill:#455a64"></path><path d="M312.6,226.31v30.78c18.12,7.59,29.86.73,31.45-2.84-.83-12.52,2.13-27.18,1.9-33.4s-1-13.24-10.64-11.83L325,210l-5.2,1.26Z" style="fill:#455a64"></path><path d="M319,186.07c1.59-9.68,16.43-10.86,22.36-2.6,3.58,5-4,16.92-6,20.63L332.12,207l-6.65-3-5.84-12.78Z" style="fill:#263238"></path><path d="M317.78,193.27l-1.69,2.93,1.67.62A35,35,0,0,1,317.78,193.27Z" style="fill:#784141"></path><path d="M328.94,204.49c-2.52-1.36-3-6-2.68-7.18a1.9,1.9,0,0,0,2,.7,2.67,2.67,0,0,0,1.63-1.3,5.41,5.41,0,0,0,.61-2.05,3.75,3.75,0,0,0-.37-2.54,2.67,2.67,0,0,0-2.86-1,4.14,4.14,0,0,0-2.4,2,6.88,6.88,0,0,0-.42.92.57.57,0,0,1-1.11-.14,7.64,7.64,0,0,1,.72-4,2.8,2.8,0,0,1-2.06-1.26,2.64,2.64,0,0,1-.39-2.31,7.71,7.71,0,0,1-2.64-.29,34.45,34.45,0,0,0-1.17,7.2,35,35,0,0,0,0,3.55,34.28,34.28,0,0,0,.58,5,5.33,5.33,0,0,0,1,2.49,3.87,3.87,0,0,0,2.7,1.24,11.43,11.43,0,0,0,3-.29V210c3.65.86,7.41,1.2,10.27-1V204.1A13,13,0,0,1,328.94,204.49Z" style="fill:#784141"></path><path d="M322.73,225.22l-1.2,11.14a44,44,0,0,1-5.13,16.4h0l-4.56-5.45,5.87-17.58Z" style="opacity:0.30000000000000004"></path><path d="M309.22,232.51,307,247.31s-10.07-1.78-14.86-2.05-9.46,1.6-8.55,2.91,4.43.6,4.43.6c1.66,1.46,4.48,1,4.48,1l17.37,6.72a4.83,4.83,0,0,0,6.52-3.76L319,236.1Z" style="fill:#784141"></path><path d="M307.7,233.81l2.89-12.64a13.44,13.44,0,0,1,9.25-9.89h0c4.4,9.64,3.27,12.22,3.27,12.22L319.86,238A21.08,21.08,0,0,1,307.7,233.81Z" style="fill:#455a64"></path><path d="M327.49,257.93c3.08-10.49,6.22-19.83,19.41-25.63,4.65-2.05,7.13-1.32,8.3.49h0a10,10,0,0,0-3-3.36h0c-1.38-1.08-3.71-1.24-7.48.41-10.08,4.44-14.29,10.94-17.09,18.45-.86,2.31-1.59,4.72-2.31,7.19-2.66,9-5.86,20.86-12,24.08-2.1,1.12-10.5-3.23-16.28-7.84s-7-6.93-7.31-8.49v3.1a5,5,0,0,0,.93,2.92c5.83,8.16,16.43,13,21.65,13.6C320.6,282.64,324.42,268.43,327.49,257.93Z" style="fill:#720F88"></path><path d="M327.49,257.93c3.08-10.49,6.22-19.83,19.41-25.63,4.65-2.05,7.13-1.32,8.3.49h0a10,10,0,0,0-3-3.36h0c-1.38-1.08-3.71-1.24-7.48.41-10.08,4.44-14.29,10.94-17.09,18.45-.86,2.31-1.59,4.72-2.31,7.19-2.66,9-5.86,20.86-12,24.08-2.1,1.12-10.5-3.23-16.28-7.84s-7-6.93-7.31-8.49v3.1a5,5,0,0,0,.93,2.92c5.83,8.16,16.43,13,21.65,13.6C320.6,282.64,324.42,268.43,327.49,257.93Z" style="fill:#fff;opacity:0.2"></path><path d="M356.09,236.37a6.62,6.62,0,0,0-.89-3.58c-1.17-1.81-3.65-2.54-8.3-.49-13.19,5.8-16.33,15.14-19.41,25.63s-6.89,24.71-15.16,24.92c8.21,2.36,25.86-7.06,34.58-13.1a16.68,16.68,0,0,0,6.36-8.57C356.54,251.09,356.09,239.6,356.09,236.37Z" style="fill:#720F88"></path><path d="M211.58,328.09a3.39,3.39,0,0,1,2.4-1.82,11.69,11.69,0,0,1,3.13-.13c-4.49,2.48,1.6,4,6.85,3.77s9.84.67,10-3.68c.59.28,2.17,3.8,1.59,6.82a5.28,5.28,0,0,1-3.62,2.32,11.47,11.47,0,0,1-4.4-.23c-1.45-.3-2.87-.73-4.33-.93-1.85-.27-3.74-.18-5.6-.4a8.38,8.38,0,0,1-5.07-2.13A3.47,3.47,0,0,1,211.58,328.09Z" style="fill:#720F88"></path><path d="M211.58,328.09a3.39,3.39,0,0,1,2.4-1.82,11.69,11.69,0,0,1,3.13-.13c-4.49,2.48,1.6,4,6.85,3.77s9.84.67,10-3.68c.59.28,2.17,3.8,1.59,6.82a5.28,5.28,0,0,1-3.62,2.32,11.47,11.47,0,0,1-4.4-.23c-1.45-.3-2.87-.73-4.33-.93-1.85-.27-3.74-.18-5.6-.4a8.38,8.38,0,0,1-5.07-2.13A3.47,3.47,0,0,1,211.58,328.09Z" style="fill:#fff;opacity:0.4"></path><path d="M224,329.91c-5.25.24-11.34-1.29-6.85-3.77,3,.12,6.22-.58,9.24-.58l.54-5,7.7.6-.59,5.09C233.8,330.58,229.22,329.67,224,329.91Z" style="fill:#f28f8f"></path><path d="M239.34,291.38c1.58,5.93-1.72,21.34-4.41,31,0,0-5.71,1.19-8.55-.95l0-34.85a12.2,12.2,0,0,1,.48-3.34Z" style="fill:#720F88"></path><path d="M239.34,291.38c1.58,5.93-1.72,21.34-4.41,31,0,0-5.71,1.19-8.55-.95l0-34.85a12.2,12.2,0,0,1,.48-3.34Z" style="opacity:0.6000000000000001"></path><path d="M199,334.74a3.33,3.33,0,0,1,2.4-1.83,11.69,11.69,0,0,1,3.13-.12c-4.49,2.48,1.6,4,6.85,3.76s9.84.68,10-3.67c.59.28,2.17,3.79,1.59,6.81a5.3,5.3,0,0,1-3.62,2.32,11.45,11.45,0,0,1-4.4-.22c-1.45-.31-2.87-.73-4.33-.94-1.86-.26-3.74-.18-5.6-.4a8.35,8.35,0,0,1-5.08-2.13A3.43,3.43,0,0,1,199,334.74Z" style="fill:#720F88"></path><path d="M199,334.74a3.33,3.33,0,0,1,2.4-1.83,11.69,11.69,0,0,1,3.13-.12c-4.49,2.48,1.6,4,6.85,3.76s9.84.68,10-3.67c.59.28,2.17,3.79,1.59,6.81a5.3,5.3,0,0,1-3.62,2.32,11.45,11.45,0,0,1-4.4-.22c-1.45-.31-2.87-.73-4.33-.94-1.86-.26-3.74-.18-5.6-.4a8.35,8.35,0,0,1-5.08-2.13A3.43,3.43,0,0,1,199,334.74Z" style="fill:#fff;opacity:0.30000000000000004"></path><path d="M211.35,336.55c-5.25.24-11.34-1.28-6.85-3.76,3,.11,6.22-.58,9.23-.58l.55-5,7.7.59-.59,5.1C221.19,337.23,216.61,336.32,211.35,336.55Z" style="fill:#ffa8a7"></path><path d="M226.72,298c1.58,5.92-1.72,21.33-4.4,31,0,0-5.71,1.18-8.56-.95l0-34.85a11.78,11.78,0,0,1,.49-3.34Z" style="fill:#720F88"></path><path d="M226.72,298c1.58,5.92-1.72,21.33-4.4,31,0,0-5.71,1.18-8.56-.95l0-34.85a11.78,11.78,0,0,1,.49-3.34Z" style="opacity:0.5"></path><path d="M223.34,304.26a20.41,20.41,0,0,1-2.41-10l5.79,3.79c.63,2.37.48,6.26-.1,10.69A19.37,19.37,0,0,1,223.34,304.26Z" style="opacity:0.30000000000000004"></path><path d="M226.82,343.66a.66.66,0,0,1-.44-.17.63.63,0,0,1,0-.9l23.16-24a.64.64,0,0,1,.9,0,.63.63,0,0,1,0,.9l-23.16,24.05A.65.65,0,0,1,226.82,343.66Z" style="fill:#263238"></path><path d="M254.12,360.94v5.14a.85.85,0,0,0,1.69,0v-5.14a2.07,2.07,0,0,1-1.69,0Z" style="fill:#720F88"></path><path d="M255,315.82a.85.85,0,0,0-.85.84v44.28a2.07,2.07,0,0,0,1.69,0V316.66A.85.85,0,0,0,255,315.82Z" style="fill:#455a64"></path><path d="M240.34,309.94a.85.85,0,0,0-1.11.46l-13.07,32a1.81,1.81,0,0,0,1.6.58l13-31.93A.85.85,0,0,0,240.34,309.94Z" style="fill:#455a64"></path><path d="M227,342.92a1.89,1.89,0,0,1-.82-.52l-2.09,5.12a.84.84,0,0,0,.46,1.1.77.77,0,0,0,.32.07.85.85,0,0,0,.79-.53l2.12-5.18A1.87,1.87,0,0,1,227,342.92Z" style="fill:#720F88"></path><path d="M283.11,343.66a.7.7,0,0,0,.45-.17.63.63,0,0,0,0-.9L258.13,316a.64.64,0,0,0-.9,0,.63.63,0,0,0,0,.9l25.44,26.58A.61.61,0,0,0,283.11,343.66Z" style="fill:#263238"></path><path d="M269.6,309.94a.84.84,0,0,1,1.1.46l13.07,32a1.81,1.81,0,0,1-1.59.58l-13.05-31.93A.85.85,0,0,1,269.6,309.94Z" style="fill:#455a64"></path><path d="M283,342.92a1.83,1.83,0,0,0,.82-.52l2.09,5.12a.84.84,0,0,1-.46,1.1.71.71,0,0,1-.32.07.87.87,0,0,1-.79-.53L282.18,343A1.83,1.83,0,0,0,283,342.92Z" style="fill:#720F88"></path><path d="M232.17,308.39c5.78,4.62,14.18,9,16.28,7.85,6.13-3.22,9.33-15,12-24.08.73-2.48,1.46-4.89,2.32-7.2-2.05-1.19-3.89-2.19-5.17-2.76-5.31-2.38-32.95,12.43-32.73,17.71C225.17,301.46,226.39,303.78,232.17,308.39Z" style="fill:#720F88"></path><path d="M232.17,308.39c5.78,4.62,14.18,9,16.28,7.85,6.13-3.22,9.33-15,12-24.08.73-2.48,1.46-4.89,2.32-7.2-2.05-1.19-3.89-2.19-5.17-2.76-5.31-2.38-32.95,12.43-32.73,17.71C225.17,301.46,226.39,303.78,232.17,308.39Z" style="opacity:0.30000000000000004"></path><path d="M240.58,274.77l22.62,4.28,16.36,3.09s9.25,10.51,1.82,19.36-23.08,2.76-42-10.12l-12.51-8.16A12,12,0,0,1,240.58,274.77Z" style="fill:#720F88"></path><path d="M240.58,274.77l22.62,4.28,16.36,3.09s9.25,10.51,1.82,19.36-23.08,2.76-42-10.12l-12.51-8.16A12,12,0,0,1,240.58,274.77Z" style="opacity:0.6000000000000001"></path><path d="M228,281.41l22.63,4.29L267,288.78s9.25,10.51,1.82,19.36-23.08,2.77-42-10.11l-12.5-8.16A12,12,0,0,1,228,281.41Z" style="fill:#720F88"></path><path d="M228,281.41l22.63,4.29L267,288.78s9.25,10.51,1.82,19.36-23.08,2.77-42-10.11l-12.5-8.16A12,12,0,0,1,228,281.41Z" style="opacity:0.5"></path><path d="M277.17,263.5l1.61,3.4-3.86,4.26.28,10.15,12.46-10.82a3.37,3.37,0,0,0,.83-4l-3.8-7.9Z" style="fill:#ffa8a7"></path><path d="M281,269.94a7.77,7.77,0,0,1-2.23-3l-1,1.06A4.93,4.93,0,0,0,281,269.94Z" style="fill:#ff9192"></path><path d="M276.86,264.32c4.95-.44,8.32-5.57,8.32-5.57-4.43-9.07-8.29-19.15-16-16.74Z" style="fill:#720F88"></path><path d="M276.86,264.32c4.95-.44,8.32-5.57,8.32-5.57-4.43-9.07-8.29-19.15-16-16.74Z" style="fill:#fff;opacity:0.5"></path><path d="M256.75,243.5l13.6-1.82c5.69-.55,8.14,5.69,8.06,11.46s-3.87,23.55-3.87,39.35c-10.36,8.86-23.71.72-26-2-1.73-13.24,0-31.26,0-31.26Z" style="fill:#720F88"></path><path d="M256.75,243.5l13.6-1.82c5.69-.55,8.14,5.69,8.06,11.46s-3.87,23.55-3.87,39.35c-10.36,8.86-23.71.72-26-2-1.73-13.24,0-31.26,0-31.26Z" style="fill:#fff;opacity:0.5"></path><polygon points="249.5 227.09 247.38 230.78 249.71 231.64 249.5 227.09" style="fill:#ff9192"></polygon><path d="M249.26,225.44c.35-3.24,1.29-6.3,3.4-7.84a17.55,17.55,0,0,0,2.43,11.59,5.11,5.11,0,0,1,1.58-2.78,2.9,2.9,0,0,1,3-.64,2.94,2.94,0,0,1,1.52,1.65,3.94,3.94,0,0,1-4.92,5.2,7.57,7.57,0,0,0,5.82,5.89,9.64,9.64,0,0,0,5.63-.54l.88,4.37c-3.56,3.79-9.63,1.25-9.63,1.25l-.8-4.3c-7,.41-7.65.29-8.42-3.56A38,38,0,0,1,249.26,225.44Z" style="fill:#ffa8a7"></path><path d="M248.43,217.68a11.26,11.26,0,0,1,6.67-6.1,18.94,18.94,0,0,1,9.19-.7,16.65,16.65,0,0,1,5.48,1.61,9.25,9.25,0,0,1,4.05,4l.36-3A2.17,2.17,0,0,1,275.8,215a2.37,2.37,0,0,1-.55,2.19h.28a9.38,9.38,0,0,1,9.38,9.38v15.93a9.21,9.21,0,0,1-9.21-9.21v-3.66a17.3,17.3,0,0,1-5.31,6.9,11.43,11.43,0,0,1-2.66,1.45,9.64,9.64,0,0,1-5.63.54,7.57,7.57,0,0,1-5.82-5.89,3.94,3.94,0,0,0,4.92-5.2,2.94,2.94,0,0,0-1.52-1.65,2.9,2.9,0,0,0-3,.64,5.11,5.11,0,0,0-1.58,2.78,17.55,17.55,0,0,1-2.43-11.59c-2.11,1.54-3,4.6-3.4,7.84A8.26,8.26,0,0,1,248.43,217.68Z" style="fill:#720F88"></path><path d="M248.43,217.68a11.26,11.26,0,0,1,6.67-6.1,18.94,18.94,0,0,1,9.19-.7,16.65,16.65,0,0,1,5.48,1.61,9.25,9.25,0,0,1,4.05,4l.36-3A2.17,2.17,0,0,1,275.8,215a2.37,2.37,0,0,1-.55,2.19h.28a9.38,9.38,0,0,1,9.38,9.38v15.93a9.21,9.21,0,0,1-9.21-9.21v-3.66a17.3,17.3,0,0,1-5.31,6.9,11.43,11.43,0,0,1-2.66,1.45,9.64,9.64,0,0,1-5.63.54,7.57,7.57,0,0,1-5.82-5.89,3.94,3.94,0,0,0,4.92-5.2,2.94,2.94,0,0,0-1.52-1.65,2.9,2.9,0,0,0-3,.64,5.11,5.11,0,0,0-1.58,2.78,17.55,17.55,0,0,1-2.43-11.59c-2.11,1.54-3,4.6-3.4,7.84A8.26,8.26,0,0,1,248.43,217.68Z" style="opacity:0.4"></path><path d="M256.57,254.86l-8.16,5.91c-.16,1.9-.41,5.45-.55,9.74a57.64,57.64,0,0,0,3.82-4.73A30.08,30.08,0,0,0,256.57,254.86Z" style="opacity:0.1"></path><path d="M236.78,261.63,231.33,268s-14.29-9.67-15.24-11.5c-.83-5-1.72-6.23-3.25-7.63s-1.94.22-1.37.91a3.19,3.19,0,0,1,.77,3.1c-4.74-4.52-8.63-6.12-9.9-5.1-2.55,2.26-2.25,3.56,1.48,6.88,3.35,2.82,7,6.28,7,6.28L227,277.2a5.11,5.11,0,0,0,6.77.43l10.23-8Z" style="fill:#ffa8a7"></path><path d="M256.75,243.5l-1.24.15a15.38,15.38,0,0,0-10.34,5.89l-9.28,12.09a10.08,10.08,0,0,0,7.82,8.89l10.2-10.78C259.24,253.93,256.75,243.5,256.75,243.5Z" style="fill:#720F88"></path><path d="M256.75,243.5l-1.24.15a15.38,15.38,0,0,0-10.34,5.89l-9.28,12.09a10.08,10.08,0,0,0,7.82,8.89l10.2-10.78C259.24,253.93,256.75,243.5,256.75,243.5Z" style="fill:#fff;opacity:0.5"></path><path d="M262.6,294.61c3.08-10.5,6.22-19.83,19.4-25.64,4.66-2.05,7.14-1.31,8.31.49h0a10,10,0,0,0-3-3.37v0c-1.38-1.08-3.72-1.25-7.48.41C269.76,271,265.55,277.46,262.75,285c-.86,2.31-1.59,4.72-2.32,7.2-2.65,9-5.85,20.86-12,24.08-2.1,1.11-10.5-3.23-16.28-7.85s-7-6.93-7.32-8.48V303a5.07,5.07,0,0,0,.93,2.92c5.84,8.17,16.44,13,21.66,13.61C255.71,319.31,259.53,305.11,262.6,294.61Z" style="fill:#720F88"></path><path d="M262.6,294.61c3.08-10.5,6.22-19.83,19.4-25.64,4.66-2.05,7.14-1.31,8.31.49h0a10,10,0,0,0-3-3.37v0c-1.38-1.08-3.72-1.25-7.48.41C269.76,271,265.55,277.46,262.75,285c-.86,2.31-1.59,4.72-2.32,7.2-2.65,9-5.85,20.86-12,24.08-2.1,1.11-10.5-3.23-16.28-7.85s-7-6.93-7.32-8.48V303a5.07,5.07,0,0,0,.93,2.92c5.84,8.17,16.44,13,21.66,13.61C255.71,319.31,259.53,305.11,262.6,294.61Z" style="fill:#fff;opacity:0.30000000000000004"></path><path d="M291.19,273.05a6.63,6.63,0,0,0-.88-3.59c-1.17-1.8-3.65-2.54-8.31-.49-13.18,5.81-16.32,15.14-19.4,25.64s-6.89,24.7-15.16,24.92c8.21,2.35,25.86-7.07,34.58-13.11a16.65,16.65,0,0,0,6.36-8.56C291.65,287.77,291.19,276.28,291.19,273.05Z" style="fill:#720F88"></path><path d="M167,366.2a4,4,0,0,1-3.64,2.44,18,18,0,0,1-4.59-.59c-3.42-.61-5.32,0-8.72-.09a13.76,13.76,0,0,1-3.33-.36,5.46,5.46,0,0,1-2.84-1.67,3.67,3.67,0,0,1-.82-1.79,3.49,3.49,0,0,0,.82,2.79,5.46,5.46,0,0,0,2.84,1.67,13.76,13.76,0,0,0,3.33.36c3.4.08,5.3-.53,8.72.09a18,18,0,0,0,4.59.59A4,4,0,0,0,167,367.2a3.83,3.83,0,0,0,.11-1.58A2.83,2.83,0,0,1,167,366.2Z" style="fill:#263238"></path><path d="M166.94,363.37l-.63-3.11a4.68,4.68,0,0,0-.53-1.58,1.52,1.52,0,0,0-1.38-.78c-1.87-.25-4.5-.93-6.05.14-2.43,1.67-4,2.54-7,2.42a29.89,29.89,0,0,0-4.63-.18,4.12,4.12,0,0,0-3.58,2.52,2.89,2.89,0,0,0-.08,1.34,3.67,3.67,0,0,0,.82,1.79,5.46,5.46,0,0,0,2.84,1.67,13.76,13.76,0,0,0,3.33.36c3.4.08,5.3-.52,8.72.09a18,18,0,0,0,4.59.59A4,4,0,0,0,167,366.2a2.83,2.83,0,0,0,.11-.58A7.16,7.16,0,0,0,166.94,363.37Z" style="fill:#37474f"></path><path d="M157.9,354.79l-.14,4a1.59,1.59,0,0,0,1.49,1.65,24,24,0,0,0,4.07,0,2.28,2.28,0,0,0,2.08-2.16l.16-3Z" style="fill:#ffa8a7"></path><path d="M157.82,336.2c0,5.63-.6,19.6-.6,19.6,5.14,3.3,8.9.86,8.9.86.49-9,4.94-17.59,4.94-26.39-6.82-4.67-8.9-5.79-11.68-8.52C157.83,325.94,157.82,332.16,157.82,336.2Z" style="fill:#720F88"></path><path d="M157.82,336.2c0,5.63-.6,19.6-.6,19.6,5.14,3.3,8.9.86,8.9.86.49-9,4.94-17.59,4.94-26.39-6.82-4.67-8.9-5.79-11.68-8.52C157.83,325.94,157.82,332.16,157.82,336.2Z" style="opacity:0.5"></path><path d="M153.56,376.44a4.32,4.32,0,0,1-3.9,2.62,19.27,19.27,0,0,1-4.93-.63c-3.66-.66-5.7,0-9.35-.09a15.81,15.81,0,0,1-3.57-.39,5.91,5.91,0,0,1-3.05-1.8,3.94,3.94,0,0,1-.88-1.91,3.76,3.76,0,0,0,.88,3,5.85,5.85,0,0,0,3.05,1.8,15.81,15.81,0,0,0,3.57.39c3.65.08,5.69-.57,9.35.09a18.84,18.84,0,0,0,4.93.63,4.31,4.31,0,0,0,3.9-2.62,4.19,4.19,0,0,0,.13-1.69A3.25,3.25,0,0,1,153.56,376.44Z" style="fill:#263238"></path><path d="M153.47,373.4c-.23-1.11-.45-2.22-.68-3.33a5,5,0,0,0-.56-1.69,1.68,1.68,0,0,0-1.48-.85c-2-.26-4.83-1-6.5.16-2.61,1.79-4.31,2.72-7.47,2.6a31.84,31.84,0,0,0-5-.2,4.44,4.44,0,0,0-3.85,2.7,3.23,3.23,0,0,0-.08,1.45,3.94,3.94,0,0,0,.88,1.91,5.91,5.91,0,0,0,3.05,1.8,15.81,15.81,0,0,0,3.57.39c3.65.08,5.69-.57,9.35.09a19.27,19.27,0,0,0,4.93.63,4.32,4.32,0,0,0,3.9-2.62,3.25,3.25,0,0,0,.13-.62A8,8,0,0,0,153.47,373.4Z" style="fill:#37474f"></path><path d="M143.77,364.2l-.15,4.34a1.72,1.72,0,0,0,1.6,1.77,27.65,27.65,0,0,0,4.37,0,2.47,2.47,0,0,0,2.23-2.33l.17-3.2Z" style="fill:#ffa8a7"></path><path d="M143.68,344.26c0,6-.63,21-.63,21,5.51,3.53,9.54.92,9.54.92.53-9.65,5.3-18.88,5.3-28.31-7.31-5-9.55-6.22-12.53-9.15C143.69,333.25,143.68,339.92,143.68,344.26Z" style="fill:#720F88"></path><path d="M143.68,344.26c0,6-.63,21-.63,21,5.51,3.53,9.54.92,9.54.92.53-9.65,5.3-18.88,5.3-28.31-7.31-5-9.55-6.22-12.53-9.15C143.69,333.25,143.68,339.92,143.68,344.26Z" style="opacity:0.4"></path><path d="M157.89,337.9c-2.63-1.81-4.6-3.12-6.19-4.19A44.34,44.34,0,0,0,156,350,48.29,48.29,0,0,0,157.89,337.9Z" style="opacity:0.30000000000000004"></path><path d="M156.78,383.66a.62.62,0,0,1-.44-.18.64.64,0,0,1,0-.9l23.17-24a.64.64,0,0,1,.9,0,.63.63,0,0,1,0,.9l-23.16,24.05A.63.63,0,0,1,156.78,383.66Z" style="fill:#263238"></path><path d="M184.08,400.94v5.14a.85.85,0,0,0,1.7,0v-5.14a2.19,2.19,0,0,1-.85.18A2.15,2.15,0,0,1,184.08,400.94Z" style="fill:#720F88"></path><path d="M184.93,355.82a.84.84,0,0,0-.85.84v44.28a2.15,2.15,0,0,0,.85.18,2.19,2.19,0,0,0,.85-.18V356.66A.84.84,0,0,0,184.93,355.82Z" style="fill:#455a64"></path><path d="M170.3,349.94a.85.85,0,0,0-1.11.46l-13.07,32a1.86,1.86,0,0,0,.83.52,1.67,1.67,0,0,0,.77.05l13-31.92A.85.85,0,0,0,170.3,349.94Z" style="fill:#455a64"></path><path d="M157,382.92a1.86,1.86,0,0,1-.83-.52L154,387.52a.84.84,0,0,0,.46,1.1.78.78,0,0,0,.33.07.84.84,0,0,0,.78-.53l2.12-5.19A1.67,1.67,0,0,1,157,382.92Z" style="fill:#720F88"></path><path d="M213.08,383.66a.63.63,0,0,0,.45-1.08L188.09,356a.64.64,0,0,0-.9,0,.63.63,0,0,0,0,.9l25.44,26.58A.62.62,0,0,0,213.08,383.66Z" style="fill:#263238"></path><path d="M199.56,349.94a.84.84,0,0,1,1.1.46l13.08,32a1.86,1.86,0,0,1-.83.52,1.67,1.67,0,0,1-.77.05l-13-31.92A.85.85,0,0,1,199.56,349.94Z" style="fill:#455a64"></path><path d="M212.91,382.92a1.86,1.86,0,0,0,.83-.52l2.09,5.12a.84.84,0,0,1-.47,1.1.71.71,0,0,1-.32.07.84.84,0,0,1-.78-.53L212.14,383A1.67,1.67,0,0,0,212.91,382.92Z" style="fill:#720F88"></path><path d="M162.13,348.39c5.78,4.62,14.18,9,16.28,7.85,6.13-3.22,9.33-15,12-24.08.72-2.48,1.45-4.89,2.31-7.2-2.05-1.19-3.89-2.2-5.16-2.77-5.32-2.37-33,12.44-32.73,17.72C155.13,341.46,156.35,343.78,162.13,348.39Z" style="fill:#720F88"></path><path d="M162.13,348.39c5.78,4.62,14.18,9,16.28,7.85,6.13-3.22,9.33-15,12-24.08.72-2.48,1.45-4.89,2.31-7.2-2.05-1.19-3.89-2.2-5.16-2.77-5.32-2.37-33,12.44-32.73,17.72C155.13,341.46,156.35,343.78,162.13,348.39Z" style="opacity:0.2"></path><path d="M209,325.73l-18-3.93c-12.65-4.08-23.32-7.77-29-3.82a7.39,7.39,0,0,0-2.65,3.77c2.78,2.73,4.86,3.85,11.68,8.52,15.22,10.58,28.17,15.39,35.38,10S209,325.73,209,325.73Z" style="fill:#720F88"></path><path d="M209,325.73l-18-3.93c-12.65-4.08-23.32-7.77-29-3.82a7.39,7.39,0,0,0-2.65,3.77c2.78,2.73,4.86,3.85,11.68,8.52,15.22,10.58,28.17,15.39,35.38,10S209,325.73,209,325.73Z" style="opacity:0.5"></path><path d="M198.61,333l-19.3-4.21c-13.57-4.38-25-8.34-31.1-4.1a7.9,7.9,0,0,0-2.85,4c3,2.93,5.22,4.13,12.53,9.15,16.33,11.34,30.22,16.5,38,10.74S198.61,333,198.61,333Z" style="fill:#720F88"></path><path d="M198.61,333l-19.3-4.21c-13.57-4.38-25-8.34-31.1-4.1a7.9,7.9,0,0,0-2.85,4c3,2.93,5.22,4.13,12.53,9.15,16.33,11.34,30.22,16.5,38,10.74S198.61,333,198.61,333Z" style="opacity:0.4"></path><path d="M210.41,308.72l1.75,3.68L208,317l.3,11,13.46-11.69a3.65,3.65,0,0,0,.9-4.33l-4.11-8.54Z" style="fill:#ffa8a7"></path><path d="M214.56,315.69a8.54,8.54,0,0,1-2.4-3.29l-1,1.15A5.37,5.37,0,0,0,214.56,315.69Z" style="fill:#f28f8f"></path><path d="M210.08,309.61c5.35-.47,9-6,9-6-4.78-9.8-9-20.69-17.31-18.09Z" style="fill:#455a64"></path><path d="M177.67,303v30.77c18.12,7.59,29.86.74,31.45-2.83-.83-12.53,2.13-27.18,1.9-33.41s-1-13.23-10.64-11.83l-10.27,1-5.2,1.27Z" style="fill:#455a64"></path><path d="M177.67,303v30.77c18.12,7.59,29.86.74,31.45-2.83-.83-12.53,2.13-27.18,1.9-33.41s-1-13.23-10.64-11.83l-10.27,1-5.2,1.27Z" style="fill:#fff;opacity:0.6000000000000001"></path><path d="M166.69,302.28l-3.7,3.85-8.86-11.74a33.82,33.82,0,0,0,2.17-9.74,1,1,0,0,0-1.05-1.1h0a1.05,1.05,0,0,0-.94.6l-1.64,3.45h0a1.6,1.6,0,0,1-1-1l-.32-.91a5.83,5.83,0,0,1-.32-1.9v-2.27a1.83,1.83,0,0,0-2.71-1.59,9,9,0,0,0-2.68,2.22,4.82,4.82,0,0,0-1.09,3.07v3.06a6.83,6.83,0,0,0,.41,2.32l1.6,4.4a7.08,7.08,0,0,0,.54,1.15l11.44,19.16a5.44,5.44,0,0,0,8.29,1.28l7.28-6.46Z" style="fill:#ffa8a7"></path><path d="M160.73,310.85a11,11,0,0,1,2.26-4.72l-1-1.35C161.21,306.2,160.12,309,160.73,310.85Z" style="fill:#f28f8f"></path><path d="M165.78,302.31l10.39-10.23a14.62,14.62,0,0,1,8.55-4.1l.19,0c4.4,9.64-1.42,14.35-1.42,14.35l-9.67,8.88A17.44,17.44,0,0,1,165.78,302.31Z" style="fill:#455a64"></path><path d="M184,262.75c-2.2-.83-4.35-4-2.15-5.39.61-.45,2.4.08,3.85,0-1.27-1.14-1.57-2.5-.94-2.93s2.33,1.19,5.4.88,13.67-3.72,15,4a2,2,0,0,1,3.11-.53l-2.2,1.55c3.26,4.59,2.2,9.91-5.71,20.41a5.81,5.81,0,0,1-7.73,1.11l-3.26-8L186.2,270Z" style="fill:#455a64"></path><polygon points="183.29 269.18 181.16 272.88 183.49 273.74 183.29 269.18" style="fill:#f28f8f"></polygon><path d="M184,262.75a34.43,34.43,0,0,0-.61,15.7,5.34,5.34,0,0,0,1,2.48,3.92,3.92,0,0,0,2.7,1.25,11.44,11.44,0,0,0,3-.3v4.81c3.65.86,7.41,1.2,10.27-1v-4.92a13.12,13.12,0,0,1-6.37.4c-2.52-1.36-3-6-2.68-7.18a1.92,1.92,0,0,0,2,.69,2.67,2.67,0,0,0,1.63-1.3,5.37,5.37,0,0,0,.61-2,3.75,3.75,0,0,0-.37-2.54,2.66,2.66,0,0,0-2.86-1,4.07,4.07,0,0,0-2.4,2,5.1,5.1,0,0,0-.42.92.57.57,0,0,1-1.11-.14,7.66,7.66,0,0,1,.72-4,2.8,2.8,0,0,1-2.06-1.26,2.64,2.64,0,0,1-.39-2.31A7.83,7.83,0,0,1,184,262.75Z" style="fill:#ffa8a7"></path><path d="M192.56,334.61c3.08-10.5,6.22-19.83,19.41-25.64,4.65-2.05,7.13-1.32,8.3.49h0a10,10,0,0,0-3-3.37v0c-1.38-1.08-3.71-1.25-7.48.41C199.72,311,195.51,317.46,192.71,325c-.86,2.31-1.59,4.72-2.31,7.2-2.66,9-5.86,20.86-12,24.08-2.1,1.11-10.5-3.23-16.28-7.85s-7-6.93-7.31-8.48V343a5,5,0,0,0,.93,2.92c5.83,8.17,16.43,13,21.65,13.61C185.67,359.31,189.49,345.11,192.56,334.61Z" style="fill:#720F88"></path><path d="M192.56,334.61c3.08-10.5,6.22-19.83,19.41-25.64,4.65-2.05,7.13-1.32,8.3.49h0a10,10,0,0,0-3-3.37v0c-1.38-1.08-3.71-1.25-7.48.41C199.72,311,195.51,317.46,192.71,325c-.86,2.31-1.59,4.72-2.31,7.2-2.66,9-5.86,20.86-12,24.08-2.1,1.11-10.5-3.23-16.28-7.85s-7-6.93-7.31-8.48V343a5,5,0,0,0,.93,2.92c5.83,8.17,16.43,13,21.65,13.61C185.67,359.31,189.49,345.11,192.56,334.61Z" style="fill:#fff;opacity:0.30000000000000004"></path><path d="M221.16,313.05a6.63,6.63,0,0,0-.89-3.59c-1.17-1.81-3.65-2.54-8.3-.49-13.19,5.81-16.33,15.14-19.41,25.64s-6.89,24.7-15.16,24.92c8.21,2.35,25.86-7.07,34.58-13.11a16.71,16.71,0,0,0,6.37-8.57C221.61,327.76,221.16,316.28,221.16,313.05Z" style="fill:#720F88"></path><path d="M384.22,339.07a4,4,0,0,1-3.64,2.44,18.09,18.09,0,0,1-4.6-.59c-3.41-.62-5.31,0-8.71-.09a13.76,13.76,0,0,1-3.33-.36,5.46,5.46,0,0,1-2.84-1.67,3.67,3.67,0,0,1-.82-1.79,3.49,3.49,0,0,0,.82,2.79,5.46,5.46,0,0,0,2.84,1.67,14.28,14.28,0,0,0,3.33.36c3.4.08,5.3-.53,8.71.09a18.09,18.09,0,0,0,4.6.59,4,4,0,0,0,3.64-2.45,3.77,3.77,0,0,0,.11-1.57A3,3,0,0,1,384.22,339.07Z" style="fill:#263238"></path><path d="M384.13,336.24l-.63-3.11a4.61,4.61,0,0,0-.53-1.58,1.55,1.55,0,0,0-1.38-.79c-1.87-.25-4.5-.92-6,.15-2.43,1.67-4,2.53-7,2.42a28.69,28.69,0,0,0-4.63-.18,4.11,4.11,0,0,0-3.58,2.52,2.89,2.89,0,0,0-.08,1.34,3.67,3.67,0,0,0,.82,1.79,5.46,5.46,0,0,0,2.84,1.67,13.76,13.76,0,0,0,3.33.36c3.4.08,5.3-.53,8.71.09a18.09,18.09,0,0,0,4.6.59,4,4,0,0,0,3.64-2.44,3,3,0,0,0,.11-.58A7.16,7.16,0,0,0,384.13,336.24Z" style="fill:#37474f"></path><path d="M375.09,327.66l-.14,4a1.59,1.59,0,0,0,1.49,1.65,25.07,25.07,0,0,0,4.07,0,2.28,2.28,0,0,0,2.08-2.16l.16-3Z" style="fill:#ffa8a7"></path><path d="M375,309.07c0,5.63-.6,19.6-.6,19.6,5.14,3.3,8.9.86,8.9.86.49-9,4.94-17.59,4.94-26.39-6.82-4.67-8.9-5.79-11.68-8.53C375,298.81,375,305,375,309.07Z" style="fill:#37474f"></path><path d="M388.25,303.14c-2.45-1.68-4.29-2.9-5.77-3.9a41.4,41.4,0,0,0,4,15.14A45,45,0,0,0,388.25,303.14Z" style="fill:#37474f"></path><path d="M370.75,349.31a4.32,4.32,0,0,1-3.9,2.62,19.27,19.27,0,0,1-4.93-.63c-3.66-.66-5.7,0-9.35-.1a15.25,15.25,0,0,1-3.57-.38A5.91,5.91,0,0,1,346,349a3.94,3.94,0,0,1-.88-1.91,3.76,3.76,0,0,0,.88,3,5.91,5.91,0,0,0,3.05,1.8,15.81,15.81,0,0,0,3.57.39c3.65.08,5.69-.57,9.35.09a19.27,19.27,0,0,0,4.93.63,4.32,4.32,0,0,0,3.9-2.62,4.19,4.19,0,0,0,.13-1.69A3.25,3.25,0,0,1,370.75,349.31Z" style="fill:#263238"></path><path d="M370.66,346.27c-.23-1.11-.45-2.22-.68-3.33a5,5,0,0,0-.56-1.69,1.68,1.68,0,0,0-1.48-.85c-2-.27-4.83-1-6.5.16-2.61,1.79-4.31,2.72-7.48,2.6a31.67,31.67,0,0,0-5-.2,4.44,4.44,0,0,0-3.85,2.7,3.23,3.23,0,0,0-.08,1.45A3.94,3.94,0,0,0,346,349a5.91,5.91,0,0,0,3.05,1.8,15.25,15.25,0,0,0,3.57.38c3.65.09,5.69-.56,9.35.1a19.27,19.27,0,0,0,4.93.63,4.32,4.32,0,0,0,3.9-2.62,3.25,3.25,0,0,0,.13-.62A8,8,0,0,0,370.66,346.27Z" style="fill:#37474f"></path><path d="M361,337.07l-.15,4.34a1.72,1.72,0,0,0,1.6,1.77,27.67,27.67,0,0,0,4.37,0,2.48,2.48,0,0,0,2.23-2.33l.17-3.2Z" style="fill:#ffa8a7"></path><path d="M360.87,317.13c0,6-.63,21-.63,21,5.51,3.53,9.54.92,9.54.92.53-9.65,5.3-18.88,5.3-28.32-7.31-5-9.55-6.21-12.53-9.14C360.88,306.12,360.87,312.79,360.87,317.13Z" style="fill:#455a64"></path><path d="M375.08,310.76c-2.63-1.8-4.6-3.11-6.19-4.18a44.34,44.34,0,0,0,4.27,16.24A48.37,48.37,0,0,0,375.08,310.76Z" style="opacity:0.30000000000000004"></path><path d="M374,356.53a.62.62,0,0,1-.44-.18.64.64,0,0,1,0-.9l23.17-24a.64.64,0,0,1,.9,0,.63.63,0,0,1,0,.9l-23.16,24A.63.63,0,0,1,374,356.53Z" style="fill:#37474f"></path><path d="M401.27,373.81v5.13a.85.85,0,0,0,1.7,0v-5.13a2.19,2.19,0,0,1-.85.18A2.15,2.15,0,0,1,401.27,373.81Z" style="fill:#720F88"></path><path d="M402.12,328.68a.85.85,0,0,0-.85.85v44.28a2.15,2.15,0,0,0,.85.18,2.19,2.19,0,0,0,.85-.18V329.53A.85.85,0,0,0,402.12,328.68Z" style="fill:#455a64"></path><path d="M387.49,322.81a.85.85,0,0,0-1.11.46l-13.07,32a1.8,1.8,0,0,0,.83.53,1.67,1.67,0,0,0,.77,0l13-31.92A.85.85,0,0,0,387.49,322.81Z" style="fill:#455a64"></path><path d="M374.14,355.79a1.8,1.8,0,0,1-.83-.53l-2.09,5.13a.84.84,0,0,0,.46,1.1,1,1,0,0,0,.32.06.84.84,0,0,0,.79-.52l2.12-5.19A1.67,1.67,0,0,1,374.14,355.79Z" style="fill:#720F88"></path><path d="M430.27,356.53a.63.63,0,0,0,.45-1.08l-25.44-26.57a.64.64,0,0,0-.9,0,.63.63,0,0,0,0,.9l25.44,26.58A.62.62,0,0,0,430.27,356.53Z" style="fill:#37474f"></path><path d="M416.75,322.81a.84.84,0,0,1,1.1.46l13.08,32a1.8,1.8,0,0,1-.83.53,1.67,1.67,0,0,1-.77,0l-13.05-31.92A.85.85,0,0,1,416.75,322.81Z" style="fill:#455a64"></path><path d="M430.1,355.79a1.8,1.8,0,0,0,.83-.53l2.09,5.13a.85.85,0,0,1-.47,1.1.87.87,0,0,1-.32.06.83.83,0,0,1-.78-.52l-2.12-5.19A1.67,1.67,0,0,0,430.1,355.79Z" style="fill:#720F88"></path><path d="M379.32,321.26c5.78,4.61,14.18,9,16.28,7.84,6.13-3.21,9.33-15,12-24.08.72-2.47,1.45-4.88,2.31-7.19-2-1.19-3.89-2.2-5.16-2.77-5.32-2.37-32.95,12.43-32.74,17.72C372.32,314.33,373.54,316.65,379.32,321.26Z" style="fill:#720F88"></path><path d="M379.32,321.26c5.78,4.61,14.18,9,16.28,7.84,6.13-3.21,9.33-15,12-24.08.72-2.47,1.45-4.88,2.31-7.19-2-1.19-3.89-2.2-5.16-2.77-5.32-2.37-32.95,12.43-32.74,17.72C372.32,314.33,373.54,316.65,379.32,321.26Z" style="opacity:0.2"></path><path d="M426.2,298.59l-18-3.92c-12.65-4.08-23.32-7.77-29-3.82a7.4,7.4,0,0,0-2.65,3.76c2.78,2.74,4.86,3.86,11.68,8.53,15.22,10.58,28.17,15.39,35.38,10S426.2,298.59,426.2,298.59Z" style="fill:#37474f"></path><path d="M415.8,305.89l-19.3-4.21c-13.57-4.38-25-8.34-31.1-4.1a7.85,7.85,0,0,0-2.85,4c3,2.93,5.22,4.13,12.53,9.14,16.33,11.35,30.22,16.51,38,10.75S415.8,305.89,415.8,305.89Z" style="fill:#455a64"></path><path d="M427.6,281.59l1.75,3.68-4.17,4.6.3,11,13.46-11.69a3.66,3.66,0,0,0,.9-4.34l-4.11-8.53Z" style="fill:#ffa8a7"></path><path d="M431.75,288.56a8.54,8.54,0,0,1-2.4-3.29l-1,1.15A5.41,5.41,0,0,0,431.75,288.56Z" style="fill:#f28f8f"></path><path d="M427.27,282.48c5.34-.47,9-6,9-6-4.78-9.8-9-20.69-17.31-18.09Z" style="fill:#e6e6e6"></path><path d="M394.86,275.86v30.77c18.12,7.59,29.86.73,31.45-2.83-.83-12.53,2.13-27.18,1.9-33.41s-1-13.24-10.64-11.83l-10.27,1-5.2,1.27Z" style="fill:#fff"></path><path d="M383.88,275.15l-3.7,3.85-8.86-11.75a33.71,33.71,0,0,0,2.17-9.73,1,1,0,0,0-1.05-1.1h0a1.05,1.05,0,0,0-.94.6l-1.64,3.45h0a1.63,1.63,0,0,1-1-1l-.32-.91a5.83,5.83,0,0,1-.32-1.9v-2.27a1.83,1.83,0,0,0-2.71-1.59A9.08,9.08,0,0,0,362.8,255a4.87,4.87,0,0,0-1.09,3.08v3.06a6.73,6.73,0,0,0,.41,2.31l1.6,4.41a7.08,7.08,0,0,0,.54,1.15l11.44,19.16a5.43,5.43,0,0,0,8.28,1.28l7.29-6.47Z" style="fill:#ffa8a7"></path><path d="M377.92,283.72a11,11,0,0,1,2.26-4.72l-1-1.35C378.4,279.06,377.31,281.83,377.92,283.72Z" style="fill:#f28f8f"></path><path d="M383,275.18,393.36,265a14.62,14.62,0,0,1,8.55-4.1l.19,0c4.4,9.64-1.42,14.35-1.42,14.35L391,284.06A17.49,17.49,0,0,1,383,275.18Z" style="fill:#e6e6e6"></path><path d="M422.37,232.21a2,2,0,0,1,3.11-.54l-2.2,1.56c3.26,4.59,2.2,9.91-5.71,20.41a5.81,5.81,0,0,1-7.73,1.11l-3.26-8-3.19-3.88-2.18-7.22A6.91,6.91,0,0,1,398,232a7.36,7.36,0,0,1-.24-5,7.75,7.75,0,0,0,5.65,2.35,29.57,29.57,0,0,0,6.31-1A17.22,17.22,0,0,1,416,228,11,11,0,0,1,422.37,232.21Z" style="fill:#37474f"></path><polygon points="400.48 242.05 398.35 245.74 400.68 246.6 400.48 242.05" style="fill:#f28f8f"></polygon><path d="M401.21,235.61a34.48,34.48,0,0,0-.61,15.71,5.34,5.34,0,0,0,1,2.48,3.92,3.92,0,0,0,2.7,1.25,11.44,11.44,0,0,0,3-.3v4.81c3.65.86,7.41,1.2,10.27-1v-4.92a13.12,13.12,0,0,1-6.37.4c-2.52-1.36-3-6-2.68-7.18a1.92,1.92,0,0,0,2,.69,2.67,2.67,0,0,0,1.63-1.3,5.36,5.36,0,0,0,.61-2.05,3.73,3.73,0,0,0-.37-2.53,2.64,2.64,0,0,0-2.86-1,4.07,4.07,0,0,0-2.4,2,5.1,5.1,0,0,0-.42.92.57.57,0,0,1-1.11-.14,7.66,7.66,0,0,1,.72-4,2.8,2.8,0,0,1-2.06-1.26,2.64,2.64,0,0,1-.39-2.31A7.71,7.71,0,0,1,401.21,235.61Z" style="fill:#ffa8a7"></path><path d="M409.75,307.48c3.08-10.5,6.22-19.83,19.41-25.64,4.65-2,7.13-1.32,8.3.49h0a10,10,0,0,0-3-3.37v0c-1.38-1.08-3.72-1.25-7.48.41-10.08,4.44-14.29,10.94-17.09,18.44-.86,2.31-1.59,4.72-2.31,7.19-2.66,9.06-5.86,20.87-12,24.08-2.1,1.12-10.5-3.23-16.28-7.84s-7-6.93-7.32-8.48v3.09a5,5,0,0,0,.94,2.92c5.83,8.17,16.43,13,21.65,13.61C402.86,332.18,406.68,318,409.75,307.48Z" style="fill:#720F88"></path><path d="M409.75,307.48c3.08-10.5,6.22-19.83,19.41-25.64,4.65-2,7.13-1.32,8.3.49h0a10,10,0,0,0-3-3.37v0c-1.38-1.08-3.72-1.25-7.48.41-10.08,4.44-14.29,10.94-17.09,18.44-.86,2.31-1.59,4.72-2.31,7.19-2.66,9.06-5.86,20.87-12,24.08-2.1,1.12-10.5-3.23-16.28-7.84s-7-6.93-7.32-8.48v3.09a5,5,0,0,0,.94,2.92c5.83,8.17,16.43,13,21.65,13.61C402.86,332.18,406.68,318,409.75,307.48Z" style="fill:#fff;opacity:0.30000000000000004"></path><path d="M438.35,285.92a6.63,6.63,0,0,0-.89-3.59c-1.17-1.81-3.65-2.54-8.3-.49C416,287.65,412.83,297,409.75,307.48s-6.89,24.7-15.16,24.92c8.21,2.35,25.86-7.07,34.58-13.11a16.64,16.64,0,0,0,6.36-8.57C438.8,300.63,438.35,289.15,438.35,285.92Z" style="fill:#720F88"></path><path d="M296.34,378a3.37,3.37,0,0,1,2.4-1.83,11.69,11.69,0,0,1,3.13-.12c-4.49,2.48,1.6,4,6.85,3.76s9.84.67,10-3.67c.59.28,2.17,3.79,1.59,6.81a5.28,5.28,0,0,1-3.62,2.32,11.47,11.47,0,0,1-4.4-.22c-1.45-.31-2.87-.73-4.33-.94-1.85-.26-3.74-.18-5.6-.4a8.33,8.33,0,0,1-5.07-2.13A3.46,3.46,0,0,1,296.34,378Z" style="fill:#720F88"></path><path d="M296.34,378a3.37,3.37,0,0,1,2.4-1.83,11.69,11.69,0,0,1,3.13-.12c-4.49,2.48,1.6,4,6.85,3.76s9.84.67,10-3.67c.59.28,2.17,3.79,1.59,6.81a5.28,5.28,0,0,1-3.62,2.32,11.47,11.47,0,0,1-4.4-.22c-1.45-.31-2.87-.73-4.33-.94-1.85-.26-3.74-.18-5.6-.4a8.33,8.33,0,0,1-5.07-2.13A3.46,3.46,0,0,1,296.34,378Z" style="fill:#fff;opacity:0.2"></path><path d="M308.72,379.77c-5.25.24-11.34-1.28-6.85-3.76,3,.11,6.22-.58,9.24-.58l.54-5,7.7.59-.59,5.1C318.56,380.44,314,379.54,308.72,379.77Z" style="fill:#f28f8f"></path><path d="M324.1,341.25c1.58,5.92-1.72,21.33-4.41,31,0,0-5.71,1.18-8.55-1l0-34.86a12.13,12.13,0,0,1,.48-3.33Z" style="fill:#720F88"></path><path d="M324.1,341.25c1.58,5.92-1.72,21.33-4.41,31,0,0-5.71,1.18-8.55-1l0-34.86a12.13,12.13,0,0,1,.48-3.33Z" style="opacity:0.30000000000000004"></path><path d="M306.59,379l.49-.09c2.68-9.64,6-25.05,4.4-31L299,339.73a11.83,11.83,0,0,0-.49,3.34l0,34.85.4.25C301.32,379.62,305.23,379.17,306.59,379Z" style="fill:#720F88"></path><path d="M306.59,379l.49-.09c2.68-9.64,6-25.05,4.4-31L299,339.73a11.83,11.83,0,0,0-.49,3.34l0,34.85.4.25C301.32,379.62,305.23,379.17,306.59,379Z" style="opacity:0.30000000000000004"></path><path d="M306.15,382.74c-.2,4.35-4.78,3.44-10,3.68s-11.34-1.29-6.85-3.77a11.69,11.69,0,0,0-3.13.13,3.35,3.35,0,0,0-2.4,1.82,3.45,3.45,0,0,0,1,3.59,8.41,8.41,0,0,0,5.08,2.13c1.86.22,3.74.13,5.6.4,1.46.2,2.88.63,4.33.93a11.45,11.45,0,0,0,4.4.23,5.3,5.3,0,0,0,3.62-2.32C308.32,386.54,306.74,383,306.15,382.74Z" style="fill:#720F88"></path><path d="M306.15,382.74c-.2,4.35-4.78,3.44-10,3.68s-11.34-1.29-6.85-3.77a11.69,11.69,0,0,0-3.13.13,3.35,3.35,0,0,0-2.4,1.82,3.45,3.45,0,0,0,1,3.59,8.41,8.41,0,0,0,5.08,2.13c1.86.22,3.74.13,5.6.4,1.46.2,2.88.63,4.33.93a11.45,11.45,0,0,0,4.4.23,5.3,5.3,0,0,0,3.62-2.32C308.32,386.54,306.74,383,306.15,382.74Z" style="fill:#fff;opacity:0.30000000000000004"></path><path d="M296.11,386.42c5.26-.24,9.84.67,10-3.68l.44-3.78c-1.36.21-5.27.66-7.67-.79l-.43,3.9c-3,0-6.22.7-9.23.58C284.77,385.13,290.86,386.66,296.11,386.42Z" style="fill:#ffa8a7"></path><path d="M308.1,354.13a20.43,20.43,0,0,1-2.41-10l5.79,3.78c.64,2.37.48,6.27-.1,10.69A19.11,19.11,0,0,1,308.1,354.13Z" style="opacity:0.2"></path><path d="M311.58,393.53a.62.62,0,0,1-.44-.18.63.63,0,0,1,0-.9l23.16-24.05a.64.64,0,0,1,.92.89l-23.16,24A.66.66,0,0,1,311.58,393.53Z" style="fill:#263238"></path><path d="M338.88,410.8v5.14a.85.85,0,0,0,.85.85.84.84,0,0,0,.84-.85V410.8a2,2,0,0,1-.84.18A2.12,2.12,0,0,1,338.88,410.8Z" style="fill:#720F88"></path><path d="M339.73,365.68a.85.85,0,0,0-.85.85V410.8a2.12,2.12,0,0,0,.85.18,2,2,0,0,0,.84-.18V366.53A.84.84,0,0,0,339.73,365.68Z" style="fill:#455a64"></path><path d="M325.1,359.81a.85.85,0,0,0-1.11.46l-13.07,32a2,2,0,0,0,.82.53,2,2,0,0,0,.78,0l13-31.93A.84.84,0,0,0,325.1,359.81Z" style="fill:#455a64"></path><path d="M311.74,392.79a2,2,0,0,1-.82-.53l-2.09,5.12a.85.85,0,0,0,.46,1.11,1,1,0,0,0,.32.06.85.85,0,0,0,.79-.53l2.12-5.18A2,2,0,0,1,311.74,392.79Z" style="fill:#720F88"></path><path d="M367.87,393.53a.66.66,0,0,0,.45-.18.63.63,0,0,0,0-.9l-25.44-26.58a.64.64,0,0,0-.91.89l25.44,26.57A.62.62,0,0,0,367.87,393.53Z" style="fill:#263238"></path><path d="M354.36,359.81a.84.84,0,0,1,1.1.46l13.07,32a1.88,1.88,0,0,1-.82.53,2,2,0,0,1-.77,0l-13.05-31.93A.84.84,0,0,1,354.36,359.81Z" style="fill:#455a64"></path><path d="M367.71,392.79a1.88,1.88,0,0,0,.82-.53l2.1,5.12a.85.85,0,0,1-1.58.64l-2.11-5.18A2,2,0,0,0,367.71,392.79Z" style="fill:#720F88"></path><path d="M316.93,358.26c5.78,4.61,14.18,9,16.28,7.84,6.13-3.22,9.33-15,12-24.08.73-2.47,1.46-4.88,2.32-7.19-2.05-1.2-3.89-2.2-5.17-2.77-5.31-2.37-32.95,12.43-32.73,17.71C309.93,351.33,311.15,353.65,316.93,358.26Z" style="fill:#720F88"></path><path d="M316.93,358.26c5.78,4.61,14.18,9,16.28,7.84,6.13-3.22,9.33-15,12-24.08.73-2.47,1.46-4.88,2.32-7.19-2.05-1.2-3.89-2.2-5.17-2.77-5.31-2.37-32.95,12.43-32.73,17.71C309.93,351.33,311.15,353.65,316.93,358.26Z" style="opacity:0.2"></path><path d="M325.34,324.63,348,328.92,364.32,332s9.25,10.51,1.82,19.36-23.08,2.77-42-10.11l-12.51-8.16A12,12,0,0,1,325.34,324.63Z" style="fill:#720F88"></path><path d="M325.34,324.63,348,328.92,364.32,332s9.25,10.51,1.82,19.36-23.08,2.77-42-10.11l-12.51-8.16A12,12,0,0,1,325.34,324.63Z" style="opacity:0.5"></path><path d="M312.72,331.27l22.63,4.29,16.36,3.09S361,349.16,353.53,358s-23.08,2.76-42-10.12L299,339.73A12,12,0,0,1,312.72,331.27Z" style="fill:#720F88"></path><path d="M312.72,331.27l22.63,4.29,16.36,3.09S361,349.16,353.53,358s-23.08,2.76-42-10.12L299,339.73A12,12,0,0,1,312.72,331.27Z" style="opacity:0.30000000000000004"></path><path d="M373.25,316.34l-3.42-7.11h0l-.38-.79h0c-4.27-8.88-8-18.91-15.54-16.57l8,21.49,1.61,3.41L359.68,321l.28,10.16,12.46-10.83A3.37,3.37,0,0,0,373.25,316.34Z" style="fill:#ffa8a7"></path><path d="M365.77,319.81a7.86,7.86,0,0,1-2.23-3l-1,1.06A5,5,0,0,0,365.77,319.81Z" style="opacity:0.1"></path><path d="M335.8,296.23l19.31-4.69c5.69-.55,8.14,5.69,8.06,11.46s-3.87,23.55-3.87,39.36c-10.36,8.85-23.71.71-26-2-1.74-13.23,0-31.25,0-31.25Z" style="fill:#720F88"></path><path d="M335.8,296.23l19.31-4.69c5.69-.55,8.14,5.69,8.06,11.46s-3.87,23.55-3.87,39.36c-10.36,8.85-23.71.71-26-2-1.74-13.23,0-31.25,0-31.25Z" style="fill:#fff;opacity:0.4"></path><polygon points="334.49 277.81 332.36 281.5 334.69 282.36 334.49 277.81" style="fill:#f28f8f"></polygon><path d="M334.25,276.16c.34-3.24,1.29-6.3,3.4-7.84a17.49,17.49,0,0,0,2.43,11.59,5.15,5.15,0,0,1,1.57-2.78,2.93,2.93,0,0,1,3-.64,3,3,0,0,1,1.52,1.65,3.94,3.94,0,0,1-4.92,5.2,7.57,7.57,0,0,0,5.81,5.89,9.66,9.66,0,0,0,5.64-.54l.87,4.37c-3.55,3.79-9.63,1.25-9.63,1.25l-.8-4.3c-7,.41-7.64.3-8.41-3.56A37.24,37.24,0,0,1,334.25,276.16Z" style="fill:#ffa8a7"></path><path d="M360.24,290.83c.81-4.66-.26-11.12-.86-15.81a23.34,23.34,0,0,0-1.43-6,11.87,11.87,0,0,0-3.58-4.95,12.26,12.26,0,0,0-5.83-2.29,28.5,28.5,0,0,0-6.33,0,17.61,17.61,0,0,0-4.51.83,6.79,6.79,0,0,0-3.57,2.76c-2.24,3.77.4,7.59,3.48,9.8a31.15,31.15,0,0,1,.94,16.14,4.64,4.64,0,0,1-1.44,2.92C340.71,296,355.21,297.56,360.24,290.83Z" style="fill:#455a64"></path><path d="M341.33,304.73l-8.16,5.9c-.16,1.91-.41,5.46-.55,9.75a57.64,57.64,0,0,0,3.82-4.73A30.16,30.16,0,0,0,341.33,304.73Z" style="opacity:0.1"></path><path d="M331.7,298.44l-15.61,19.4s-14.29-9.66-15.24-11.5c-.83-5-1.72-6.23-3.25-7.63s-1.94.23-1.37.91a3.21,3.21,0,0,1,.77,3.11c-4.74-4.53-8.63-6.13-9.9-5.1-2.55,2.25-2.25,3.56,1.48,6.87,3.35,2.82,7,6.29,7,6.29l16,16.19a7.25,7.25,0,0,0,10.54-.26l18.55-20.63a5.93,5.93,0,0,0-.85-8.68h0A5.92,5.92,0,0,0,331.7,298.44Z" style="fill:#ffa8a7"></path><path d="M347.36,344.47c3.08-10.49,6.22-19.83,19.4-25.63,4.66-2,7.14-1.32,8.31.49h0a10,10,0,0,0-3-3.36h0c-1.38-1.08-3.72-1.24-7.48.41-10.08,4.44-14.29,10.94-17.09,18.45-.86,2.31-1.59,4.72-2.32,7.19-2.65,9.05-5.85,20.86-12,24.08-2.1,1.12-10.5-3.23-16.28-7.84s-7-6.93-7.32-8.49v3.1a5.12,5.12,0,0,0,.93,2.92c5.84,8.16,16.44,13,21.66,13.6C340.47,369.18,344.29,355,347.36,344.47Z" style="fill:#720F88"></path><path d="M347.36,344.47c3.08-10.49,6.22-19.83,19.4-25.63,4.66-2,7.14-1.32,8.31.49h0a10,10,0,0,0-3-3.36h0c-1.38-1.08-3.72-1.24-7.48.41-10.08,4.44-14.29,10.94-17.09,18.45-.86,2.31-1.59,4.72-2.32,7.19-2.65,9.05-5.85,20.86-12,24.08-2.1,1.12-10.5-3.23-16.28-7.84s-7-6.93-7.32-8.49v3.1a5.12,5.12,0,0,0,.93,2.92c5.84,8.16,16.44,13,21.66,13.6C340.47,369.18,344.29,355,347.36,344.47Z" style="fill:#fff;opacity:0.30000000000000004"></path><path d="M376,322.91a6.61,6.61,0,0,0-.88-3.58c-1.17-1.81-3.65-2.54-8.31-.49-13.18,5.8-16.32,15.14-19.4,25.63s-6.89,24.71-15.16,24.92c8.21,2.36,25.86-7.06,34.58-13.1a16.68,16.68,0,0,0,6.36-8.57C376.41,337.63,376,326.14,376,322.91Z" style="fill:#720F88"></path><path d="M251.29,415.74a4,4,0,0,1-3.63,2.45,18.49,18.49,0,0,1-4.6-.59c-3.41-.62-5.31,0-8.72-.09a14.81,14.81,0,0,1-3.32-.36,5.54,5.54,0,0,1-2.85-1.68,3.78,3.78,0,0,1-.82-1.78,3.54,3.54,0,0,0,.82,2.78,5.54,5.54,0,0,0,2.85,1.68,14.81,14.81,0,0,0,3.32.36c3.41.08,5.31-.53,8.72.09a18,18,0,0,0,4.6.58,4,4,0,0,0,3.63-2.44,3.62,3.62,0,0,0,.12-1.57A2.9,2.9,0,0,1,251.29,415.74Z" style="fill:#263238"></path><path d="M251.21,412.91l-.63-3.1a4.54,4.54,0,0,0-.53-1.58,1.56,1.56,0,0,0-1.38-.79c-1.87-.25-4.5-.93-6,.14-2.44,1.68-4,2.54-7,2.43a28.75,28.75,0,0,0-4.63-.19,4.15,4.15,0,0,0-3.59,2.52,3.08,3.08,0,0,0-.08,1.35,3.78,3.78,0,0,0,.82,1.78,5.54,5.54,0,0,0,2.85,1.68,14.81,14.81,0,0,0,3.32.36c3.41.08,5.31-.53,8.72.09a18.49,18.49,0,0,0,4.6.59,4,4,0,0,0,3.63-2.45,2.9,2.9,0,0,0,.12-.57A7.2,7.2,0,0,0,251.21,412.91Z" style="fill:#37474f"></path><path d="M242.16,404.33l-.13,4.05a1.61,1.61,0,0,0,1.49,1.65,26.27,26.27,0,0,0,4.07,0,2.31,2.31,0,0,0,2.08-2.17l.16-3Z" style="fill:#d99280"></path><path d="M242.09,385.75c0,5.63-.6,19.6-.6,19.6,5.14,3.29,8.9.85,8.9.85.49-9,4.94-17.59,4.94-26.38-6.82-4.68-8.9-5.8-11.68-8.53C242.09,375.48,242.09,381.7,242.09,385.75Z" style="fill:#263238"></path><path d="M255.33,379.82c-2.46-1.69-4.29-2.91-5.77-3.91a41.29,41.29,0,0,0,4,15.14A45,45,0,0,0,255.33,379.82Z" style="fill:#263238"></path><path d="M237.83,426a4.31,4.31,0,0,1-3.9,2.63A19.66,19.66,0,0,1,229,428c-3.67-.67-5.7,0-9.36-.1a15.26,15.26,0,0,1-3.57-.39,5.85,5.85,0,0,1-3-1.8,4.09,4.09,0,0,1-.88-1.91,3.81,3.81,0,0,0,.88,3,5.9,5.9,0,0,0,3,1.79,15.26,15.26,0,0,0,3.57.39c3.66.09,5.69-.57,9.36.1a19.66,19.66,0,0,0,4.93.63,3.77,3.77,0,0,0,4-4.31A4.42,4.42,0,0,1,237.83,426Z" style="fill:#263238"></path><path d="M237.73,423c-.22-1.11-.44-2.22-.67-3.33a5,5,0,0,0-.56-1.7,1.68,1.68,0,0,0-1.49-.84c-2-.27-4.82-1-6.49.15-2.61,1.8-4.31,2.72-7.48,2.6a31.67,31.67,0,0,0-5-.2,4.43,4.43,0,0,0-3.85,2.71,3.34,3.34,0,0,0-.09,1.44,4.09,4.09,0,0,0,.88,1.91,5.85,5.85,0,0,0,3,1.8,15.26,15.26,0,0,0,3.57.39c3.66.09,5.69-.57,9.36.1a19.66,19.66,0,0,0,4.93.63,4.31,4.31,0,0,0,3.9-2.63,4.42,4.42,0,0,0,.13-.61A7.63,7.63,0,0,0,237.73,423Z" style="fill:#37474f"></path><path d="M228,413.74l-.14,4.34a1.71,1.71,0,0,0,1.59,1.77,26.51,26.51,0,0,0,4.37,0,2.47,2.47,0,0,0,2.24-2.32l.17-3.2Z" style="fill:#d99280"></path><path d="M228,393.8c0,6.05-.64,21-.64,21,5.52,3.54,9.55.92,9.55.92.53-9.65,5.3-18.87,5.3-28.31-7.32-5-9.55-6.22-12.53-9.15C228,382.79,228,389.46,228,393.8Z" style="fill:#263238"></path><path d="M242.16,387.44c-2.64-1.81-4.6-3.11-6.19-4.19a44.09,44.09,0,0,0,4.27,16.24A48.29,48.29,0,0,0,242.16,387.44Z" style="opacity:0.30000000000000004"></path><path d="M241.05,433.21a.62.62,0,0,1-.44-.18.63.63,0,0,1,0-.9l23.16-24.05a.64.64,0,0,1,.92.89l-23.16,24A.66.66,0,0,1,241.05,433.21Z" style="fill:#263238"></path><path d="M268.35,450.48v5.14a.85.85,0,0,0,.85.85.84.84,0,0,0,.84-.85v-5.14a2.07,2.07,0,0,1-1.69,0Z" style="fill:#720F88"></path><path d="M269.2,405.36a.85.85,0,0,0-.85.85v44.27a2.07,2.07,0,0,0,1.69,0V406.21A.84.84,0,0,0,269.2,405.36Z" style="fill:#455a64"></path><path d="M254.57,399.48a.86.86,0,0,0-1.11.47l-13.07,32a2,2,0,0,0,.82.53,2,2,0,0,0,.78,0l13-31.93A.85.85,0,0,0,254.57,399.48Z" style="fill:#455a64"></path><path d="M241.21,432.47a2,2,0,0,1-.82-.53l-2.09,5.12a.85.85,0,0,0,.46,1.11,1,1,0,0,0,.32.06.85.85,0,0,0,.79-.53l2.12-5.18A2,2,0,0,1,241.21,432.47Z" style="fill:#720F88"></path><path d="M297.34,433.21a.66.66,0,0,0,.45-.18.63.63,0,0,0,0-.9l-25.44-26.58a.64.64,0,0,0-.91.89L296.89,433A.62.62,0,0,0,297.34,433.21Z" style="fill:#263238"></path><path d="M283.83,399.48a.85.85,0,0,1,1.1.47l13.07,32a1.88,1.88,0,0,1-.82.53,2,2,0,0,1-.77,0l-13.05-31.93A.85.85,0,0,1,283.83,399.48Z" style="fill:#455a64"></path><path d="M297.18,432.47a1.88,1.88,0,0,0,.82-.53l2.1,5.12a.85.85,0,0,1-1.58.64l-2.11-5.18A2,2,0,0,0,297.18,432.47Z" style="fill:#720F88"></path><path d="M246.4,397.94c5.78,4.61,14.18,9,16.28,7.84,6.13-3.22,9.33-15,12-24.08.73-2.47,1.46-4.88,2.32-7.2-2.05-1.19-3.89-2.19-5.17-2.76-5.31-2.37-32.95,12.43-32.73,17.71C239.4,391,240.62,393.32,246.4,397.94Z" style="fill:#720F88"></path><path d="M246.4,397.94c5.78,4.61,14.18,9,16.28,7.84,6.13-3.22,9.33-15,12-24.08.73-2.47,1.46-4.88,2.32-7.2-2.05-1.19-3.89-2.19-5.17-2.76-5.31-2.37-32.95,12.43-32.73,17.71C239.4,391,240.62,393.32,246.4,397.94Z" style="opacity:0.2"></path><path d="M293.28,375.27l-18-3.93c-12.65-4.08-23.32-7.77-29-3.81a7.36,7.36,0,0,0-2.65,3.76c2.78,2.73,4.86,3.85,11.68,8.53,15.22,10.57,28.16,15.38,35.38,10S293.28,375.27,293.28,375.27Z" style="fill:#263238"></path><path d="M282.87,382.56l-19.29-4.21c-13.58-4.38-25-8.34-31.11-4.09a7.87,7.87,0,0,0-2.84,4c3,2.93,5.21,4.13,12.53,9.15,16.33,11.34,30.22,16.51,38,10.75S282.87,382.56,282.87,382.56Z" style="fill:#263238"></path><path d="M294.68,358.27l1.75,3.68-4.18,4.59.31,11L306,365.82a3.63,3.63,0,0,0,.89-4.33l-4.1-8.54Z" style="fill:#d99280"></path><path d="M294.35,359.15c5.34-.47,9-6,9-6-4.79-9.79-9-20.69-17.31-18.09Z" style="fill:#455a64"></path><path d="M261.94,352.53v30.78c18.12,7.59,29.86.73,31.45-2.84-.83-12.53,2.13-27.18,1.9-33.4s-1-13.24-10.64-11.83l-10.27,1-5.21,1.26Z" style="fill:#455a64"></path><path d="M289.44,308.88a2,2,0,0,1,3.12-.53l-2.21,1.56c3.27,4.59,2.21,9.9-5.7,20.4a5.81,5.81,0,0,1-7.73,1.12l-3.27-8.05-3.19-3.87-2.17-7.22a6.67,6.67,0,0,1-3.33-4.92,4.62,4.62,0,0,1,3-4.71,6.63,6.63,0,0,1,4.95,1,20,20,0,0,0,4.62,2.32,13.5,13.5,0,0,0,4.21.13,12.57,12.57,0,0,1,4.2.2C287.33,306.68,289,307.53,289.44,308.88Z" style="fill:#263238"></path><polygon points="267.55 318.73 265.43 322.42 267.76 323.28 267.55 318.73" style="fill:#b06553"></polygon><path d="M268.29,312.29a34.3,34.3,0,0,0-.61,15.7,5.32,5.32,0,0,0,1,2.49,3.91,3.91,0,0,0,2.7,1.24,11.89,11.89,0,0,0,3-.29v4.81c3.65.86,7.41,1.2,10.27-1v-4.93a12.93,12.93,0,0,1-6.38.4c-2.52-1.36-3-6-2.67-7.18a1.9,1.9,0,0,0,2,.7,2.66,2.66,0,0,0,1.64-1.3,5.41,5.41,0,0,0,.61-2.05,3.75,3.75,0,0,0-.37-2.54,2.68,2.68,0,0,0-2.86-1,4.08,4.08,0,0,0-2.4,2,6.4,6.4,0,0,0-.43.92.57.57,0,0,1-1.1-.14,7.54,7.54,0,0,1,.72-4,2.81,2.81,0,0,1-2.06-1.27,2.62,2.62,0,0,1-.4-2.3A8,8,0,0,1,268.29,312.29Z" style="fill:#d99280"></path><path d="M272.07,351.44l-1.2,11.14a44.13,44.13,0,0,1-5.13,16.4h0l-4.56-5.45L267.05,356Z" style="opacity:0.2"></path><path d="M258.56,358.73l-2.22,14.8s-10.07-1.78-14.85-2-9.46,1.6-8.55,2.9,4.43.61,4.43.61c1.66,1.46,4.48,1,4.48,1l17.37,6.72a4.84,4.84,0,0,0,6.52-3.76l2.61-16.66Z" style="fill:#d99280"></path><path d="M257,360l2.89-12.64a13.42,13.42,0,0,1,9.24-9.89h0c4.41,9.64,3.28,12.22,3.28,12.22l-3.25,14.5A21.08,21.08,0,0,1,257,360Z" style="fill:#455a64"></path><path d="M276.83,384.15c3.08-10.5,6.22-19.83,19.4-25.63,4.66-2,7.14-1.32,8.31.48h0a10,10,0,0,0-3-3.36h0c-1.38-1.08-3.72-1.24-7.48.41C284,360.5,279.78,367,277,374.5c-.86,2.32-1.59,4.73-2.32,7.2-2.65,9.05-5.85,20.86-12,24.08-2.1,1.12-10.5-3.23-16.28-7.84s-7-6.93-7.32-8.49v3.1a5.06,5.06,0,0,0,.93,2.91c5.84,8.17,16.44,13,21.66,13.61C269.94,408.86,273.76,394.65,276.83,384.15Z" style="fill:#720F88"></path><path d="M276.83,384.15c3.08-10.5,6.22-19.83,19.4-25.63,4.66-2,7.14-1.32,8.31.48h0a10,10,0,0,0-3-3.36h0c-1.38-1.08-3.72-1.24-7.48.41C284,360.5,279.78,367,277,374.5c-.86,2.32-1.59,4.73-2.32,7.2-2.65,9.05-5.85,20.86-12,24.08-2.1,1.12-10.5-3.23-16.28-7.84s-7-6.93-7.32-8.49v3.1a5.06,5.06,0,0,0,.93,2.91c5.84,8.17,16.44,13,21.66,13.61C269.94,408.86,273.76,394.65,276.83,384.15Z" style="fill:#fff;opacity:0.30000000000000004"></path><path d="M305.42,362.59a6.67,6.67,0,0,0-.88-3.59c-1.17-1.8-3.65-2.53-8.31-.48-13.18,5.8-16.32,15.13-19.4,25.63s-6.89,24.71-15.16,24.92c8.21,2.36,25.86-7.07,34.58-13.11a16.61,16.61,0,0,0,6.36-8.56C305.88,377.31,305.42,365.82,305.42,362.59Z" style="fill:#720F88"></path></g><g id="freepik--speech-bubbles--inject-85"><path d="M151.16,101.47,177.5,86.36c2.3-1.32,7.76.47,7.76,4.18a1.71,1.71,0,0,0-2.56-1.49l-26.34,15.11a5,5,0,0,0-2,2.16l-5.12-2.91A5.18,5.18,0,0,1,151.16,101.47Z" style="fill:#720F88"></path><path d="M154.36,106.32a5,5,0,0,0-.58,2.3v15.13a1.71,1.71,0,0,0,2.56,1.49,5.07,5.07,0,0,1-7.76-4.18V105.93a5.2,5.2,0,0,1,.66-2.52Z" style="fill:#720F88"></path><path d="M151.16,101.47,177.5,86.36c2.3-1.32,7.76.47,7.76,4.18a1.71,1.71,0,0,0-2.56-1.49l-26.34,15.11a5,5,0,0,0-2,2.16l-5.12-2.91A5.18,5.18,0,0,1,151.16,101.47Z" style="fill:#fff;opacity:0.4"></path><path d="M154.36,106.32a5,5,0,0,0-.58,2.3v15.13a1.71,1.71,0,0,0,2.56,1.49,5.07,5.07,0,0,1-7.76-4.18V105.93a5.2,5.2,0,0,1,.66-2.52Z" style="fill:#fff;opacity:0.2"></path><path d="M182.7,89.05l-26.34,15.11a5.14,5.14,0,0,0-2.58,4.46v15.13a1.71,1.71,0,0,0,2.56,1.49l26.33-15a5.11,5.11,0,0,0,2.59-4.46V90.54A1.71,1.71,0,0,0,182.7,89.05Z" style="fill:#720F88"></path><path d="M147.44,118.6l6.33,1.18v-8.11l-6.55,6.19A.43.43,0,0,0,147.44,118.6Z" style="fill:#720F88"></path><path d="M178.17,100a5.31,5.31,0,0,0-2.42,4.18c0,1.54,1.09,2.14,2.43,1.37a5.32,5.32,0,0,0,2.41-4.17C180.58,99.83,179.49,99.22,178.17,100Z" style="fill:#fff"></path><path d="M169.6,104.93a5.3,5.3,0,0,0-2.42,4.17c0,1.54,1.1,2.15,2.44,1.37a5.28,5.28,0,0,0,2.4-4.16C172,104.77,170.93,104.16,169.6,104.93Z" style="fill:#fff"></path><path d="M161,109.87a5.31,5.31,0,0,0-2.41,4.17c0,1.54,1.09,2.15,2.42,1.38a5.29,5.29,0,0,0,2.41-4.17C163.46,109.72,162.38,109.1,161,109.87Z" style="fill:#fff"></path><path d="M153.77,111.67l-5.19-3L142,115a.43.43,0,0,0,.09.69l5.17,2.91Z" style="fill:#720F88"></path><path d="M153.77,111.67l-5.19-3L142,115a.43.43,0,0,0,.09.69l5.17,2.91Z" style="fill:#fff;opacity:0.2"></path><path d="M242.3,181.18Z" style="fill:none"></path><path d="M264.73,176.58a5.29,5.29,0,0,0-2.41,4.17c0,1.54,1.09,2.14,2.43,1.37a5.27,5.27,0,0,0,2.4-4.17C267.15,176.42,266.06,175.81,264.73,176.58Z" style="fill:#fff"></path><path d="M256.17,181.52a5.3,5.3,0,0,0-2.42,4.17c0,1.54,1.1,2.15,2.44,1.38a5.34,5.34,0,0,0,2.4-4.17C258.59,181.36,257.5,180.75,256.17,181.52Z" style="fill:#fff"></path><path d="M247.62,192a5.29,5.29,0,0,0,2.41-4.17c0-1.53-1.09-2.15-2.42-1.38a5.31,5.31,0,0,0-2.41,4.17C245.2,192.17,246.28,192.78,247.62,192Z" style="fill:#fff"></path><path d="M264.06,163l-26.33,15.11a5.19,5.19,0,0,0-2.59,4.46v15.13a5.08,5.08,0,0,0,7.77,4.18l4.58-2.61.41.67a.2.2,0,0,0,.07.06h0l0,0h0c.75.5,2.07,1.21,2.37,1.36v0a.29.29,0,0,0,.35-.17l1.68-4.78-3.51,2h0l20.32-11.61a5.15,5.15,0,0,0,2.59-4.47V167.13C271.83,163.42,266.37,161.63,264.06,163ZM247.62,192c-1.34.77-2.42.16-2.42-1.38a5.31,5.31,0,0,1,2.41-4.17c1.33-.77,2.41-.15,2.42,1.38A5.29,5.29,0,0,1,247.62,192Zm8.57-4.94c-1.34.77-2.43.16-2.44-1.38a5.3,5.3,0,0,1,2.42-4.17c1.33-.77,2.42-.16,2.42,1.38A5.34,5.34,0,0,1,256.19,187.07Zm8.56-4.95c-1.34.77-2.43.17-2.43-1.37a5.29,5.29,0,0,1,2.41-4.17c1.33-.77,2.42-.16,2.42,1.37A5.27,5.27,0,0,1,264.75,182.12Z" style="fill:#720F88"></path><path d="M247.9,199.89a.2.2,0,0,0,.07.06h0l0,0h0c.75.5,2.07,1.21,2.37,1.36v0a.26.26,0,0,1-.17-.12l-1.63-2.64.32-.18h0l-1.43.82Z" style="fill:#fff;opacity:0.2"></path><path d="M240.92,182.91a5.39,5.39,0,0,1,1.38-1.73h0a5.39,5.39,0,0,1,.63-.43l26.33-15.11a1.72,1.72,0,0,1,2.57,1.49c0-3.71-5.46-5.5-7.77-4.18l-26.33,15.11a5.18,5.18,0,0,0-1.92,1.94Z" style="fill:#fff;opacity:0.4"></path><path d="M240.35,200.34V185.21a4.17,4.17,0,0,1,0-.61,5.29,5.29,0,0,1,.53-1.69L235.81,180a5.21,5.21,0,0,0-.67,2.52v15.13a5.08,5.08,0,0,0,7.77,4.18A1.71,1.71,0,0,1,240.35,200.34Z" style="fill:#fff;opacity:0.2"></path></g></svg>