<svg xmlns="http://www.w3.org/2000/svg" viewBox="0 0 500 500"><g id="freepik--Floor--inject-253"><ellipse id="freepik--floor--inject-253" cx="250" cy="336.73" rx="240.91" ry="130.23" style="fill:#f5f5f5"></ellipse></g><g id="freepik--Shadows--inject-253"><path id="freepik--Shadow--inject-253" d="M171.91,354.9,89.8,307.49a4.53,4.53,0,0,0-4.09,0l-69.34,40a1.25,1.25,0,0,0,0,2.36L98.48,397.3a4.53,4.53,0,0,0,4.09,0l5.65-3.26,37.7-21.77,26-15A1.25,1.25,0,0,0,171.91,354.9Z" style="fill:#e0e0e0"></path><ellipse id="freepik--shadow--inject-253" cx="159.82" cy="406.7" rx="46.27" ry="26.72" style="fill:#e0e0e0"></ellipse><path id="freepik--shadow--inject-253" d="M324.63,365.64l82.12-47.42a4.53,4.53,0,0,1,4.09,0l69.34,40a1.25,1.25,0,0,1,0,2.36L398.07,408a4.53,4.53,0,0,1-4.09,0l-5.65-3.26L350.63,383l-26-15A1.24,1.24,0,0,1,324.63,365.64Z" style="fill:#e0e0e0"></path><ellipse id="freepik--shadow--inject-253" cx="340.03" cy="410.74" rx="46.27" ry="26.72" style="fill:#e0e0e0"></ellipse><ellipse id="freepik--shadow--inject-253" cx="250.8" cy="349.73" rx="70.23" ry="40.55" style="fill:#e0e0e0"></ellipse><ellipse id="freepik--shadow--inject-253" cx="313.27" cy="277.6" rx="62.88" ry="36.3" style="fill:#e0e0e0"></ellipse><ellipse id="freepik--shadow--inject-253" cx="188.53" cy="274.02" rx="62.88" ry="36.3" style="fill:#e0e0e0"></ellipse></g><g id="freepik--speech-bubbles--inject-253"><path d="M81.27,174.44s-7.47-1.79-8.57-9.23A26.4,26.4,0,1,0,67,171.1,14.35,14.35,0,0,0,81.27,174.44Z" style="fill:#720F88"></path><path d="M441.21,136.59a26.4,26.4,0,0,0-21.59,41.61c-1.34,7-8.49,8.75-8.49,8.75a14.32,14.32,0,0,0,14-3,26.41,26.41,0,1,0,16.11-47.33Z" style="fill:#720F88"></path><path d="M124.79,92s-7.47-1.79-8.57-9.24a26.33,26.33,0,1,0-5.75,5.9A14.37,14.37,0,0,0,124.79,92Z" style="fill:#720F88"></path><path d="M398.3,38.48a26.41,26.41,0,0,0-21.54,41.7c-1.1,7.44-8.57,9.23-8.57,9.23a14.35,14.35,0,0,0,14.32-3.34A26.41,26.41,0,1,0,398.3,38.48Z" style="fill:#720F88"></path></g><g id="freepik--character-4--inject-253"><g id="freepik--Character--inject-253"><g id="freepik--Boy--inject-253"><path d="M318.36,290.8a1.12,1.12,0,0,0,1.12-1.12V217.29a1.13,1.13,0,0,0-2.25,0v72.39A1.12,1.12,0,0,0,318.36,290.8Z" style="fill:#455a64"></path><path d="M273.57,264.45a1.12,1.12,0,0,0,1.05-.71l22.19-56.18a1.12,1.12,0,1,0-2.09-.82l-22.19,56.18a1.12,1.12,0,0,0,.63,1.46A1.14,1.14,0,0,0,273.57,264.45Z" style="fill:#455a64"></path><path d="M276.24,257.71a1.11,1.11,0,0,0,.82-.36l41.3-43.7,41.22,43.52a1.13,1.13,0,0,0,1.64-1.55l-42.05-44.38a1.08,1.08,0,0,0-.81-.35h0a1.1,1.1,0,0,0-.82.35l-42.12,44.57a1.13,1.13,0,0,0,.82,1.9Z" style="fill:#455a64"></path><path d="M363.14,264.45a1.11,1.11,0,0,0,1.05-1.53L342,206.74a1.12,1.12,0,1,0-2.09.82l22.19,56.18A1.12,1.12,0,0,0,363.14,264.45Z" style="fill:#455a64"></path><path d="M275.1,256l-2.93,7.75a.63.63,0,0,0,0,.19v.14a.92.92,0,0,0,.44.49,2,2,0,0,0,1.79,0,.8.8,0,0,0,.35-.36v0l0-.1,2.72-7.26Z" style="fill:#720F88"></path><path d="M361.61,256l2.93,7.75a.63.63,0,0,1,0,.19v.14a.92.92,0,0,1-.44.49,2,2,0,0,1-1.79,0,.8.8,0,0,1-.35-.36v0l0-.1-2.72-7.26Z" style="fill:#720F88"></path><path d="M317.06,284.07v6.41a.64.64,0,0,0,.38.53,2,2,0,0,0,1.83,0,.64.64,0,0,0,.38-.53v-6.41A2.76,2.76,0,0,0,317.06,284.07Z" style="fill:#720F88"></path><path d="M272.2,206.74c0-1.85,1.62-3.82,5.05-6,6.32-4.11,20.46-12.35,29.31-17.25a.11.11,0,0,1,.08-.08c6.81-4.13,13.16-23.82,17.88-38.78,1.61-5.1,3.58-8,5.91-9.34.55-.33,2.59-1.45,3.05-1.72,4.63-2.78,10.7.55,18.26,4.69,7,3.82,12.41,8.7,13.51,21.65.67,7.89,0,23-1.57,34.39h0c-2.32,19.08-5.16,19.11-9.3,22.31-7.11,5.49-23.13,13.22-29.88,15.87-12.25,4.82-22.26-2.61-29.72-6.29A175.13,175.13,0,0,1,275,214.43c-1.87-1.36-2.84-2.73-2.82-4.17C272.21,209.68,272.2,207.33,272.2,206.74Z" style="fill:#263238"></path><path d="M294.78,222.59A175.13,175.13,0,0,1,275,210.88c-4.25-3.08-3.86-6.24,2.23-10.18,4.53-2.94,4.29-3.2,38.46-22,0,0,43.55,25.7,41.67,30.44S333,225.54,324.5,228.88C312.25,233.7,302.24,226.27,294.78,222.59Z" style="fill:#37474f"></path><path d="M330.7,135.09c4.58-2.41,10.54.87,17.91,4.9,4.72,2.59,8.74,5.66,11.19,11.39l3.11-1.8c-2.45-5.71-6.46-8.78-11.17-11.36-7.56-4.14-13.63-7.46-18.26-4.69Z" style="fill:#455a64"></path><path d="M348.61,140c-11.32-6.19-19.3-10.59-24.09,4.6-4.72,15-11.07,34.65-17.88,38.78,0,0,2.2-1.86,19.15,10.94,5.39,4.07,11.93,7.41,16.23,10,8.42,5,13.53,7,14.33,6.36,4.45-3.69,6.86-36,5.77-49S355.58,143.81,348.61,140Z" style="fill:#37474f"></path><g style="opacity:0.5"><path d="M348.61,140c-11.32-6.19-19.3-10.59-24.09,4.6-4.72,15-11.07,34.65-17.88,38.78,0,0,11.68,0,28.61,9.14,17.61,9.5,20.3,18.8,21.1,18.13,4.45-3.69,6.86-36,5.77-49S355.58,143.81,348.61,140Z" style="fill:#455a64"></path></g><g id="freepik--character--inject-253"><path d="M321.81,125.88c-10.19-.7-13,2.4-19.74,7.51-4.77,3.63-12.59,9.18-12.59,9.18s-5.22-17-5.1-19.25c.14-2.72,1.34-3.58,2-6.41s.69-4.79,1.48-5.93-1.58-1.63-2.67-.21-1.37,3.51-2,3.08-.75-5,.08-8.21-.93-4.21-1.68-3.22a9.08,9.08,0,0,0-1.07,1.68,4.21,4.21,0,0,0-4.34.64c-1.83,1.73-3.57,4.38-3.95,9.21s1.77,8.68,2.26,10.83c.73,3.22,1.49,20.83,5.33,30.27,1.76,4.32,5.52,4.27,8.91,2.37l21.73-12.15C317,142.11,325.24,130.62,321.81,125.88Z" style="fill:#b16668"></path><path d="M320.24,125.8a13.47,13.47,0,0,0-10.43,1.65c-5.3,3.28-20,14.42-20,14.42s-2.77-7.5-3.17-9c0,0-5.57,3.44-10.95,2.22,0,0,1,12.79,3,18.52s4.06,5.9,8.05,5S313,145.43,313,145.43Z" style="fill:#720F88"></path><path d="M320.24,125.8a13.47,13.47,0,0,0-10.43,1.65c-5.3,3.28-20,14.42-20,14.42s-2.77-7.5-3.17-9c0,0-5.57,3.44-10.95,2.22,0,0,1,12.79,3,18.52s4.06,5.9,8.05,5S313,145.43,313,145.43Z" style="opacity:0.1"></path><path d="M293.47,261.74s-.94,10.8-2.56,14.32a52.91,52.91,0,0,1-6.58,11.26c-.64.82-2.12,2.37-2.65,3a1.24,1.24,0,0,0,.23,1.9c1.47,1.27,7.41,1.27,10.6-1.39s5.74-6.89,7.61-9c.94-1.05,1.82-2.06,2.47-2.8a2.69,2.69,0,0,0,.53-2.59l-.28-.91c-.93-3.16.62-12.32.62-12.32C300.4,259.45,297,260.91,293.47,261.74Z" style="fill:#b16668"></path><path d="M303.53,279.73a3.2,3.2,0,0,1-.07,1.63c-.28.75-2.29,2.18-3.33,2.76a6.69,6.69,0,0,0-2.68,3.08,14,14,0,0,1-5.38,6,17.56,17.56,0,0,1-10.31,1.6c-4.37-.56-4.85-3.1-4.85-3.1s-.35-2.39.71-2.83S303.53,279.73,303.53,279.73Z" style="fill:#263238"></path><path d="M304,276.74a6.73,6.73,0,0,1-.44,3c-1.18,1.84-4.17,2.57-5.79,5.08s-3.5,6.33-9.12,7.74-10-.17-11.15-1.73-.25-3.14,3.29-5.28c3.76-2.28,8.06-8.08,8.06-8.08a14.71,14.71,0,0,0,2-4.73,25.44,25.44,0,0,0,.94-5.41.85.85,0,0,1,.26-.68c.3-.2.67,0,.95.26a7.6,7.6,0,0,0,5.77,1.5,1,1,0,0,1,1,.2,1.21,1.21,0,0,1,.14.71,9.34,9.34,0,0,0,.15,1.67c0,.2.12.45.32.48s.38-.19.48-.39l.74-1.46a5.58,5.58,0,0,1,1.12-1.66.52.52,0,0,1,.5-.16c.23.11.2.44.15.69a13.77,13.77,0,0,0,.21,5.38A24.36,24.36,0,0,1,304,276.74Z" style="fill:#37474f"></path><path d="M267.9,253.06s-1.18,11.17-2.64,14.76a53.6,53.6,0,0,1-6.07,11.54c-.61.85-2,2.47-2.51,3.16a1.24,1.24,0,0,0,.31,1.89c1.52,1.19,7.46.94,10.52-1.87s5.43-7.14,7.21-9.33c.89-1.1,1.72-2.14,2.33-2.91a2.68,2.68,0,0,0,.42-2.61l-.32-.89c-1.07-3.12,1.73-11.76,1.73-11.76C275.65,251.38,271.41,252.07,267.9,253.06Z" style="fill:#b16668"></path><path d="M278,270.92a3.3,3.3,0,0,1,0,1.63c-.25.76-2.19,2.28-3.2,2.9a6.75,6.75,0,0,0-2.55,3.2,13.91,13.91,0,0,1-5.11,6.2A17.58,17.58,0,0,1,257,286.91c-4.39-.37-5-2.88-5-2.88s-.45-2.38.59-2.86S278,270.92,278,270.92Z" style="fill:#263238"></path><path d="M277.92,263.56c-.05.37-.07.75-.09,1.12a16.07,16.07,0,0,0,.33,3.25,6.84,6.84,0,0,1-.13,3c-1.1,1.89-4,2.76-5.56,5.33s-3.22,6.48-8.77,8.14-10,.28-11.21-1.23-.39-3.12,3-5.42a29.18,29.18,0,0,0,6.65-7,20.29,20.29,0,0,0,2.52-5.14,28.6,28.6,0,0,0,1.52-6.39c0-.22.08-.47.27-.57a.66.66,0,0,1,.59.09,13.65,13.65,0,0,0,5.54,1.31c.58,0,1.13,0,1.45.61a2.94,2.94,0,0,1,.26,1.28c0,.6.07,1.21.11,1.81,0,.18.08.42.26.4a.35.35,0,0,0,.19-.12c1-1.09,1.29-2.71,2.38-3.7.26-.25.67-.45,1-.24s.22.69.12,1.05A16.36,16.36,0,0,0,277.92,263.56Z" style="fill:#37474f"></path><path d="M348.52,184.64c1,5.81-26.25,17.53-26.25,17.53a122.65,122.65,0,0,1-11.36,5.12c-11.18,4.55-26.51,10.2-26.51,10.2a28.52,28.52,0,0,1-.14,9.14c-.62,3.79-1.36,5-4.25,14.8-1.93,6.53-.34,11.47-1.63,16.16-2.46.42-9,.23-11-1.38.38-5.52-.65-43.88,1.56-48.77,3.82-8.44,39.66-26.62,39.66-26.62Z" style="fill:#720F88"></path><path d="M350.57,181.37l-17.41,1.8-24.54-2.35S272.78,199,269,207.44c-2.21,4.89-1.18,43.25-1.56,48.77,2,1.61,8.52,1.8,11,1.38,1.29-4.69,2.46-8.24,3.8-14.92,2.19-10.93,2.32-12.23,2.49-16.07a49.2,49.2,0,0,0-.27-9.11s9.68-3.57,19.26-7.32c-3.64,3.1-6.7,6.05-7.45,7.76-2.18,4.9-3.36,42-3.36,46.85,1.61,2.08,9,2.55,11,1.23,2.27-8,4-11.82,5.78-18.38,2.91-10.45,2-14.69,1.54-18.51,0,0,11.89-7.28,21.08-11.87,9.84-4.93,12-7.21,15.24-11.23C352.41,199.87,350.57,186.14,350.57,181.37Z" style="fill:#720F88"></path><path d="M350.57,181.37l-17.41,1.8-24.54-2.35S272.78,199,269,207.44c-2.21,4.89-1.18,43.25-1.56,48.77,2,1.61,8.52,1.8,11,1.38,1.29-4.69,2.46-8.24,3.8-14.92,2.19-10.93,2.32-12.23,2.49-16.07a49.2,49.2,0,0,0-.27-9.11s9.68-3.57,19.26-7.32c-3.64,3.1-6.7,6.05-7.45,7.76-2.18,4.9-3.36,42-3.36,46.85,1.61,2.08,9,2.55,11,1.23,2.27-8,4-11.82,5.78-18.38,2.91-10.45,2-14.69,1.54-18.51,0,0,11.89-7.28,21.08-11.87,9.84-4.93,12-7.21,15.24-11.23C352.41,199.87,350.57,186.14,350.57,181.37Z" style="fill:#fff;opacity:0.7000000000000001"></path><path d="M302.88,210.84,319,198.27s-8.84-4.33-10.36-12.13a16,16,0,0,0,5.83,12.28Z" style="opacity:0.15"></path><path d="M335.59,125.66c8.51,1.58,14.19,3.41,15.8,5,3.62,7.41-1.76,37.28-1.76,37.28l1.15,6.63,2,11.61c-9.2,7.77-39.18,5.57-44.2-5.33,0,0,.05-34.34.68-40.59.72-7.22,4.65-14.78,14.29-15.34Z" style="fill:#f5f5f5"></path><path d="M341.79,183.05c2.46-3.78,2.9-13.42,2.9-13.42s-.27-25.07.72-31.06l7,9.4a193.61,193.61,0,0,1-2.77,19.94l1.15,6.63,1.36,7.74.68,3.87a10.16,10.16,0,0,1-.86.65l-.3.19-.65.41-.39.21c-.22.12-.44.24-.68.35l-.42.2-.75.32-.41.16c-.31.12-.63.23-1,.34l-.28.1-1.3.38-.37.09c-.33.08-.67.17-1,.24l-.52.11-.91.18-.57.09-.94.14-.56.08-1.05.12-.49.05c-.51.05-1,.09-1.55.12h-.24l-1.35.06H334l-1,0-.66,0-1-.05-.62,0-1.22-.1-.4,0c-.53,0-1.06-.12-1.58-.19l-.55-.08c-.35,0-.7-.1-1-.15l-.65-.11-.92-.18-.66-.13-.9-.2-.64-.15-.93-.25c-.19,0-.37-.09-.55-.15-.47-.13-.94-.27-1.39-.42l-.41-.14-1-.35-.54-.21-.78-.32-.55-.25-.71-.34-.52-.26c-.24-.12-.47-.25-.7-.38l-.45-.26-.81-.52-.25-.17h0C326.13,189.74,339.33,186.84,341.79,183.05Z" style="fill:#e6e6e6"></path><path d="M336.91,100.46a12.55,12.55,0,0,1-12.28,12.8c-6.78,0-10.8-5.89-12.28-12.8-2.72-12.63,5.5-12.79,12.28-12.79A12.55,12.55,0,0,1,336.91,100.46Z" style="fill:#263238"></path><path d="M343.18,105.64s-1.88,9.22-2.64,10.73a4,4,0,0,1-2.32,1.95l.14-6.49Z" style="fill:#263238"></path><path d="M340.82,92.43s1.35-.34,2.78,1.91c1.23,1.92,1.51,6.24-.42,11.3l-3.55.42Z" style="fill:#263238"></path><path d="M342.12,94.3l4.35.08a2,2,0,0,0-2-2.3A2.42,2.42,0,0,0,342.12,94.3Z" style="fill:#263238"></path><path d="M342.65,93.27l3.23-3.1a2.07,2.07,0,0,0-3.05-.12A2.38,2.38,0,0,0,342.65,93.27Z" style="fill:#263238"></path><path d="M338.57,106.07c.71.44,1.72-1,2.6-1.94s3.63-1.86,5.06,1.27-1,6.24-3.05,7.26c-3.66,1.82-4.82-.83-4.82-.83l-.3,14.6c-1.83,5-15.64,6-12.64-.38V121.6a23.38,23.38,0,0,1-5.24.28c-2.86-.46-4.66-2.81-5.53-6-1.39-5.17-1.92-9.35-.74-19.53,1.3-11.16,13.76-11.27,20.49-6.86S338.57,106.07,338.57,106.07Z" style="fill:#b16668"></path><path d="M323,94.58c3-.3,5.92-.91,8.9-1.13a6,6,0,0,1,1.93.1c2.28.61,2,3.27,2.35,5.13.63,3.19,1.14,8.61,2.35,8.63.36,0,1.72-2.34,2.6-3.18a4.66,4.66,0,0,0,.8-2.44c.22-1.33.35-2.67.45-4,.08-1.13.2-2.29.19-3.42a15.73,15.73,0,0,0-.29-3.82,6.62,6.62,0,0,0-1.6-2.86l-.22-.26a15.12,15.12,0,0,0-5.33-3.59,32.17,32.17,0,0,0-9-2c-3.07-.32-6.16-.49-9.18-1.11a1,1,0,0,0-.53,0,.83.83,0,0,0-.43.68,3.77,3.77,0,0,0,1.54,3.74c-2.06.17-4.42-.91-6.4-1.44a1.31,1.31,0,0,0-1,0,1,1,0,0,0-.4.58,3.78,3.78,0,0,0-.06,1.64,9.49,9.49,0,0,0,1.78,4.52,11.11,11.11,0,0,0,6.13,4A18.08,18.08,0,0,0,323,94.58Z" style="fill:#263238"></path><path d="M325.43,121.6s6.38-1.34,8.61-2.57a7.53,7.53,0,0,0,3.08-3.18,10.77,10.77,0,0,1-1.75,3.75c-1.63,2.17-9.94,3.77-9.94,3.77Z" style="fill:#9a4a4d"></path><path d="M327,104.4a1.32,1.32,0,0,0,1.28,1.38A1.38,1.38,0,1,0,327,104.4Z" style="fill:#263238"></path><path d="M329,98.89l2.74,1.57a1.73,1.73,0,0,0-.64-2.26A1.49,1.49,0,0,0,329,98.89Z" style="fill:#263238"></path><path d="M326,113.6l-2.92,1.14a1.52,1.52,0,0,0,2,1A1.72,1.72,0,0,0,326,113.6Z" style="fill:#9a4a4d"></path><path d="M315.23,100.06l2.49-2a1.46,1.46,0,0,0-2.16-.34A1.76,1.76,0,0,0,315.23,100.06Z" style="fill:#263238"></path><path d="M316.33,104a1.32,1.32,0,0,0,1.27,1.38,1.38,1.38,0,1,0-1.27-1.38Z" style="fill:#263238"></path><polygon points="323.17 102.96 323.02 111.03 318.44 109.98 323.17 102.96" style="fill:#9a4a4d"></polygon><path d="M347.5,128.63c7.8,1.35,11.16,3.51,13.14,12.13,1.12,4.88,5.86,23.74,6.32,29.8.33,4.39-8.8,26.36-14.5,34.61-5,7.29-7.38,9.11-11.2,9.93s-10-2.57-8.06-5.2,7-6.31,7.13-6.55-3.06,1.21-5,1.42-2.9-.42-3-1.42.81-.83,2.68-1.51,4.67-3.47,6.62-4.32a10.09,10.09,0,0,0,5.34-4.62c1.36-2.57,6.34-23.27,6.34-23.27l-5.56-19.43S342.61,136.35,347.5,128.63Z" style="fill:#b16668"></path><path d="M346.67,128.34s8.82-.24,12,5,9.54,35.78,9.14,38-7.7,19.39-7.7,19.39a20.64,20.64,0,0,0-11-4.63l3.74-16.51-7.23-24.75S343,134.79,346.67,128.34Z" style="fill:#720F88"></path><path d="M346.67,128.34s8.82-.24,12,5,9.54,35.78,9.14,38-7.7,19.39-7.7,19.39a20.64,20.64,0,0,0-11-4.63l3.74-16.51-7.23-24.75S343,134.79,346.67,128.34Z" style="opacity:0.1"></path></g></g></g></g><g id="freepik--character-3--inject-253"><g id="freepik--character--inject-253"><g id="freepik--boy--inject-253"><path d="M180.05,288.51a1.06,1.06,0,0,1-1.05-1.08V217.55a1,1,0,1,1,2.09,0v69.88A1.06,1.06,0,0,1,180.05,288.51Z" style="fill:#455a64"></path><path d="M221.53,263.08a1,1,0,0,1-1-.69L200,208.16a1.1,1.1,0,0,1,.59-1.41,1,1,0,0,1,1.35.61l20.56,54.23a1.1,1.1,0,0,1-.59,1.41A.84.84,0,0,1,221.53,263.08Z" style="fill:#455a64"></path><path d="M219.06,256.57a1,1,0,0,1-.76-.35L180.05,214l-38.19,42a1,1,0,0,1-1.47,0,1.12,1.12,0,0,1,0-1.54l38.94-42.85a1.05,1.05,0,0,1,.76-.34h0a1,1,0,0,1,.75.35l39,43a1.14,1.14,0,0,1,0,1.54A1,1,0,0,1,219.06,256.57Z" style="fill:#455a64"></path><path d="M138.57,263.08a.91.91,0,0,1-.39-.08,1.1,1.1,0,0,1-.58-1.41l20.56-54.23a1,1,0,0,1,1.35-.61,1.1,1.1,0,0,1,.58,1.41l-20.55,54.23A1.06,1.06,0,0,1,138.57,263.08Z" style="fill:#455a64"></path><path d="M220.11,254.89l2.72,7.48a.58.58,0,0,1,0,.19.29.29,0,0,1,0,.13.84.84,0,0,1-.4.47,1.75,1.75,0,0,1-1.66,0,.7.7,0,0,1-.32-.35h0l0-.1-2.52-7Z" style="fill:#720F88"></path><path d="M140,254.89l-2.71,7.48a.58.58,0,0,0,0,.19v.13a.86.86,0,0,0,.41.47,1.73,1.73,0,0,0,1.65,0,.73.73,0,0,0,.33-.35h0l0-.1,2.52-7Z" style="fill:#720F88"></path><path d="M181.25,282v6.18a.62.62,0,0,1-.35.51,1.83,1.83,0,0,1-1.7,0,.6.6,0,0,1-.35-.51V282A2.44,2.44,0,0,1,181.25,282Z" style="fill:#720F88"></path><path d="M226.67,207.42c0-1.94-1.64-4-5.09-6.36-6.4-4.32-25.69-14.56-34.64-19.72a.09.09,0,0,0-.07-.08c-6.88-4.35-8.29-23.52-13.05-39.27-1.62-5.37-3.61-8.41-6-9.84-.56-.33-2.62-1.52-3.08-1.81-4.67-2.92-10.81.59-18.45,4.95-7,4-12.54,9.15-13.64,22.79-.68,8.31,0,24.18,1.58,36.2h0c2.34,20.09,5.22,20.13,9.39,23.49,7.19,5.79,23.37,13.92,30.19,16.72,12.37,5.07,22.48-2.75,30-6.63a174.59,174.59,0,0,0,20-12.33c1.88-1.43,2.86-2.87,2.84-4.39C226.66,210.52,226.67,208.05,226.67,207.42Z" style="fill:#720F88"></path><path d="M226.67,207.42c0-1.94-1.64-4-5.09-6.36-6.4-4.32-25.69-14.56-34.64-19.72a.09.09,0,0,0-.07-.08c-6.88-4.35-8.29-23.52-13.05-39.27-1.62-5.37-3.61-8.41-6-9.84-.56-.33-2.62-1.52-3.08-1.81-4.67-2.92-10.81.59-18.45,4.95-7,4-12.54,9.15-13.64,22.79-.68,8.31,0,24.18,1.58,36.2h0c2.34,20.09,5.22,20.13,9.39,23.49,7.19,5.79,23.37,13.92,30.19,16.72,12.37,5.07,22.48-2.75,30-6.63a174.59,174.59,0,0,0,20-12.33c1.88-1.43,2.86-2.87,2.84-4.39C226.66,210.52,226.67,208.05,226.67,207.42Z" style="opacity:0.2"></path><path d="M203.86,224.11a174.59,174.59,0,0,0,20-12.33c4.28-3.24,3.89-6.56-2.25-10.72C213,195.29,182,178.51,182,178.51S138.73,205,140.62,210s24.64,17.24,33.22,20.76C186.21,235.81,196.32,228,203.86,224.11Z" style="fill:#720F88"></path><g style="opacity:0.05"><path d="M203.86,224.11a174.59,174.59,0,0,0,20-12.33c4.28-3.24,3.89-6.56-2.25-10.72C213,195.29,182,178.51,182,178.51S138.73,205,140.62,210s24.64,17.24,33.22,20.76C186.21,235.81,196.32,228,203.86,224.11Z"></path></g><path d="M167.58,132c-4.63-2.53-10.65.91-18.09,5.16-4.77,2.73-8.84,5.95-11.3,12L135,147.25c2.47-6,6.53-9.24,11.28-12,7.64-4.36,13.78-7.86,18.45-4.95Z" style="fill:#720F88"></path><path d="M167.58,132c-4.63-2.53-10.65.91-18.09,5.16-4.77,2.73-8.84,5.95-11.3,12L135,147.25c2.47-6,6.53-9.24,11.28-12,7.64-4.36,13.78-7.86,18.45-4.95Z" style="fill:#fff;opacity:0.6000000000000001"></path><path d="M149.48,137.15C160.92,130.63,169,126,173.82,142c4.76,15.75,6.17,34.92,13.05,39.27,0,0,2.79-.4-14.33,13.08-5.45,4.29-12,7.8-16.4,10.5-8.5,5.28-13.66,7.4-14.48,6.69-4.49-3.88-6.93-37.94-5.82-51.58S142.44,141.17,149.48,137.15Z" style="fill:#720F88"></path><path d="M179.37,188.68a51.92,51.92,0,0,1-4.43,7.57l1.29,1.07S179.37,193,179.37,188.68Z" style="fill:#263238"></path><path d="M205.37,261.87s.93,10.79,2.55,14.32a53.45,53.45,0,0,0,6.58,11.25c.65.83,2.13,2.38,2.65,3.05a1.24,1.24,0,0,1-.23,1.9c-1.46,1.26-7.4,1.27-10.59-1.39s-5.74-6.9-7.61-9l-2.47-2.81a2.68,2.68,0,0,1-.53-2.59q.12-.37.27-.9c.94-3.16-.62-12.33-.62-12.33C198.44,259.57,201.81,261,205.37,261.87Z" style="fill:#ffa8a7"></path><path d="M195.3,279.86a3.22,3.22,0,0,0,.08,1.62c.28.75,2.29,2.18,3.33,2.76a6.72,6.72,0,0,1,2.68,3.09,14.07,14.07,0,0,0,5.38,6,17.61,17.61,0,0,0,10.31,1.59c4.37-.56,4.85-3.1,4.85-3.1s.35-2.39-.71-2.82S195.3,279.86,195.3,279.86Z" style="fill:#263238"></path><path d="M195.66,272.44a5.4,5.4,0,0,1-.13,1.15c-.19,1.19-.34,1.93-.49,3.29a7,7,0,0,0,.26,3c1.19,1.83,4.18,2.57,5.8,5.07s3.5,6.33,9.12,7.75,10-.18,11.14-1.74.25-3.13-3.28-5.28c-3.76-2.28-8.07-8.08-8.07-8.08-.43-.58-.8-1.23-1.18-1.85a7.86,7.86,0,0,1-1.12-2.22,9.77,9.77,0,0,1-.28-2.58.38.38,0,0,0,0-.21.37.37,0,0,0-.2-.09,9.93,9.93,0,0,0-6.15,1,1.43,1.43,0,0,0-.52.38,1.83,1.83,0,0,0-.23.49l-.47,1.34c-.12.35-.29.75-.64.87s-.86-.17-1.2-.47-.54-1-.91-1.3A2,2,0,0,0,195.66,272.44Z" style="fill:#720F88"></path><path d="M195.66,272.44a5.4,5.4,0,0,1-.13,1.15c-.19,1.19-.34,1.93-.49,3.29a7,7,0,0,0,.26,3c1.19,1.83,4.18,2.57,5.8,5.07s3.5,6.33,9.12,7.75,10-.18,11.14-1.74.25-3.13-3.28-5.28c-3.76-2.28-8.07-8.08-8.07-8.08-.43-.58-.8-1.23-1.18-1.85a7.86,7.86,0,0,1-1.12-2.22,9.77,9.77,0,0,1-.28-2.58.38.38,0,0,0,0-.21.37.37,0,0,0-.2-.09,9.93,9.93,0,0,0-6.15,1,1.43,1.43,0,0,0-.52.38,1.83,1.83,0,0,0-.23.49l-.47,1.34c-.12.35-.29.75-.64.87s-.86-.17-1.2-.47-.54-1-.91-1.3A2,2,0,0,0,195.66,272.44Z" style="opacity:0.5"></path><path d="M144.33,181.34c-1,4.77-3.1,18.5,1.83,24.65,3.22,4,5.39,6.3,15.24,11.23,9.18,4.59,26.28,12,26.28,12-.43,3.82-1.38,8.06,1.54,18.5,1.83,6.56,3.51,10.41,5.78,18.39,1.93,1.31,9.38.85,11-1.23,0-4.88-1.18-42-3.35-46.86s-28-19.81-28-19.81-2.23-7.92-.84-13.72Z" style="fill:#455a64"></path><path d="M230.71,251s1.17,11.16,2.63,14.76a53.54,53.54,0,0,0,6.07,11.53c.61.86,2,2.47,2.52,3.17a1.24,1.24,0,0,1-.32,1.88c-1.52,1.2-7.45.94-10.52-1.86s-5.43-7.15-7.2-9.33c-.9-1.1-1.73-2.14-2.34-2.91a2.69,2.69,0,0,1-.42-2.62c.09-.25.2-.54.32-.89,1.07-3.11-1.73-11.76-1.73-11.76C223,249.33,227.19,250,230.71,251Z" style="fill:#ffa8a7"></path><path d="M220.57,268.88a3.25,3.25,0,0,0,0,1.62c.25.76,2.19,2.28,3.21,2.91a6.75,6.75,0,0,1,2.54,3.2,13.91,13.91,0,0,0,5.11,6.2,17.51,17.51,0,0,0,10.22,2.05c4.4-.36,5-2.88,5-2.88s.46-2.37-.58-2.85S220.57,268.88,220.57,268.88Z" style="fill:#263238"></path><path d="M221.26,261.48a5.67,5.67,0,0,1-.18,1.15c-.25,1.17-.43,1.91-.63,3.26a6.86,6.86,0,0,0,.12,3c1.11,1.88,4.06,2.75,5.56,5.32s3.22,6.49,8.77,8.15,10,.28,11.21-1.23.39-3.12-3.05-5.43c-3.65-2.44-7.69-8.43-7.69-8.43-.41-.6-.75-1.26-1.1-1.9a8,8,0,0,1-1-2.27,9.37,9.37,0,0,1-.16-2.59.31.31,0,0,0,0-.21.26.26,0,0,0-.19-.09,9.84,9.84,0,0,0-6.19.71,1.42,1.42,0,0,0-.54.36,1.76,1.76,0,0,0-.25.47c-.17.44-.35.88-.53,1.32s-.31.73-.67.84-.86-.21-1.18-.53-.5-1-.85-1.33A2.06,2.06,0,0,0,221.26,261.48Z" style="fill:#720F88"></path><path d="M221.26,261.48a5.67,5.67,0,0,1-.18,1.15c-.25,1.17-.43,1.91-.63,3.26a6.86,6.86,0,0,0,.12,3c1.11,1.88,4.06,2.75,5.56,5.32s3.22,6.49,8.77,8.15,10,.28,11.21-1.23.39-3.12-3.05-5.43c-3.65-2.44-7.69-8.43-7.69-8.43-.41-.6-.75-1.26-1.1-1.9a8,8,0,0,1-1-2.27,9.37,9.37,0,0,1-.16-2.59.31.31,0,0,0,0-.21.26.26,0,0,0-.19-.09,9.84,9.84,0,0,0-6.19.71,1.42,1.42,0,0,0-.54.36,1.76,1.76,0,0,0-.25.47c-.17.44-.35.88-.53,1.32s-.31.73-.67.84-.86-.21-1.18-.53-.5-1-.85-1.33A2.06,2.06,0,0,0,221.26,261.48Z" style="opacity:0.5"></path><path d="M145.11,184.61c-1,5.81,26.26,17.52,26.26,17.52a120.72,120.72,0,0,0,11.35,5.13c11.19,4.54,31.72,10.36,31.72,10.36a25.86,25.86,0,0,0-.34,9.91c.61,3.79.87,4.87,2.83,13.61,1.49,6.64,2,9.71,3.3,14.4,2.46.43,9,.23,11-1.37-.38-5.52.89-41.71-1.32-46.6-3.82-8.45-44.74-27.55-44.74-27.55Z" style="fill:#455a64"></path><path d="M196,211.9l-21.35-13.66s8.84-4.33,10.37-12.13a16,16,0,0,1-5.84,12.28Z" style="fill:#37474f"></path><path d="M233.86,124.05a7.53,7.53,0,0,0-5.55-5.24,1.55,1.55,0,0,0-1.14.12,1.75,1.75,0,0,0-.56,1c-.58,2.11-1.24,4.19-2,6.24a30.45,30.45,0,0,1-1.2,3c-.13.24-1,1.3-1.06,1.41a13.61,13.61,0,0,0-.1-3.29,1.89,1.89,0,0,0-2.06-1.66c-.43.08-.18,1.12-.67,2.81-.62,2.17-1.34,3.58-1.41,6a3.84,3.84,0,0,1-1,2.46c-2.94,3.22-11.06,9.71-16.74,13.53-3.26-3-7-8.53-11.55-14.12-5.56-6.9-9-9.23-16.82-9.06l2,13.42c5.13,6.32,9.7,10.54,19.72,20.84,2.32,2.39,4.07,3.34,5.64,3.48,2.11.19,4.1-1.51,6-3.15,4.35-3.67,8.66-7.48,12.72-11.46,5.55-5.43,12.77-12.14,15.2-18.56A12.13,12.13,0,0,0,233.86,124.05Z" style="fill:#ffa8a7"></path><path d="M170.69,127.3a22.5,22.5,0,0,1,8.49.67c2.66.89,4.88,2.31,9.5,7.84s9.8,12.2,9.8,12.2-.62,6.09-9,10.43l-17.87-17.07Z" style="fill:#720F88"></path><path d="M170.69,127.3a22.5,22.5,0,0,1,8.49.67c2.66.89,4.88,2.31,9.5,7.84s9.8,12.2,9.8,12.2-.62,6.09-9,10.43l-17.87-17.07Z" style="opacity:0.30000000000000004"></path><path d="M158.16,127.82s-9.45,1.28-12,2.67L141.66,153l3.11,17.41L142.85,190c5.93,6.44,39.64,4.2,43.28-9.49,0,0-1.74-31.35-2.12-37.92-.42-7.06-5.43-14.6-12.54-15.34Z" style="fill:#f0f0f0"></path><circle cx="176.77" cy="96.46" r="7.61" transform="translate(-13.04 163.73) rotate(-48.13)" style="fill:#263238"></circle><path d="M148.11,95.3A4.41,4.41,0,0,1,150.45,94l-3.06-1.62a2.45,2.45,0,0,1,3.37-1.14,2.67,2.67,0,0,1,1.16,3.37l1.14,11.85,1-.11.46,6.9.16,6.63c-2.77,0-4.86-3.65-6.49-12.91C146.87,100,146.51,97,148.11,95.3Z" style="fill:#263238"></path><path d="M154.27,107.53c-.74.45-1.8-1-2.72-1.91s-3.89-2.23-5.36.9,1,7.16,3.14,8.39c2.77,1.59,4.72.39,4.72.39v14.75s2.78,4.77,10.37,5.21c7.21.42,6-4.12,3.61-7l0-4.43a21.49,21.49,0,0,0,3.78.57c3.12.11,5.78-.54,7.54-6.37A46.3,46.3,0,0,0,181,103.42a59,59,0,0,0-.72-9.36c-1.38-8.38-14.84-7.54-21.8-3.1S154.27,107.53,154.27,107.53Z" style="fill:#ffa8a7"></path><path d="M151.55,105.62c-1.28-1.15.3-11.66.3-11.66s-1.31-4,1.19-6.63,7.39-2.23,11-2.38a32.17,32.17,0,0,0,12.74-2.64c5.05-2.23,5.43-2.49,6.07-.27a10.26,10.26,0,0,1,.4,4,26,26,0,0,1-.43,3.6,10,10,0,0,1-14.83,6.1A4.45,4.45,0,0,1,163.62,98a13.09,13.09,0,0,1-4.93-1.59c0,4.15-1.6,8.11-3.2,11.94C154.63,110.44,152.19,106.19,151.55,105.62Z" style="fill:#263238"></path><path d="M168,123.83s-6.63-1.29-8.95-2.51a7.54,7.54,0,0,1-3.22-3.15,10.31,10.31,0,0,0,1.84,3.73c1.7,2.15,10.34,3.69,10.34,3.69Z" style="fill:#f28f8f"></path><path d="M167.13,107a1.43,1.43,0,0,1-1.39,1.47,1.45,1.45,0,0,1-1.42-1.46,1.41,1.41,0,1,1,2.81,0Z" style="fill:#263238"></path><path d="M165.43,101.49l-3,1.67a1.8,1.8,0,0,1,.68-2.39A1.67,1.67,0,0,1,165.43,101.49Z" style="fill:#263238"></path><path d="M165.89,115.74l3.56,1.31a1.86,1.86,0,0,1-2.4,1.19A2,2,0,0,1,165.89,115.74Z" style="fill:#f28f8f"></path><path d="M178.82,103.18l-2.75-2.09a1.66,1.66,0,0,1,2.38-.38A1.81,1.81,0,0,1,178.82,103.18Z" style="fill:#263238"></path><path d="M178,106.63a1.42,1.42,0,0,1-1.39,1.47,1.45,1.45,0,0,1-1.42-1.46,1.41,1.41,0,1,1,2.81,0Z" style="fill:#263238"></path><polygon points="170.85 105.03 171.36 113.47 175.76 111.94 170.85 105.03" style="fill:#f28f8f"></polygon><path d="M125,170.94c1.47-8.11,7-22.49,9.28-29,3.32-9.35,7.44-11.27,13.16-11.9,2.34,2.25,3.12,11.58-1.61,21.66-2.25,5.53-7.06,22.54-7.06,22.54.35,1.4,8.61,18.28,11.54,22.87a4.09,4.09,0,0,0,2.36,1.67c2.66.76,4.83,2.58,7,3.82,1.71,1,2.95,1,2.88,1.46s-.83,1.66-2.62,1.59a17,17,0,0,1-3.71-.83,19.8,19.8,0,0,0,4.74,4.41c4.19,2.82,4.25,5.51-2.27,7.1-4.08,1-8-.51-13.21-7.93a93.22,93.22,0,0,1-5.09-8.15c-3.76-6.81-7.54-11.45-10-16C125.62,175.75,124.39,174.06,125,170.94Z" style="fill:#ffa8a7"></path><path d="M147.86,129.76s-4.77-.39-8.14,1.84-4.74,6.48-7.07,12.68-5.86,15.88-5.86,15.88,4.2,7.24,14.71,6c0,0,6.06-17.68,7.16-20.24S150.89,135,147.86,129.76Z" style="fill:#720F88"></path><path d="M147.86,129.76s-4.77-.39-8.14,1.84-4.74,6.48-7.07,12.68-5.86,15.88-5.86,15.88,4.2,7.24,14.71,6c0,0,6.06-17.68,7.16-20.24S150.89,135,147.86,129.76Z" style="opacity:0.30000000000000004"></path></g></g></g><g id="freepik--Table--inject-253"><g id="freepik--table--inject-253"><g id="freepik--table--inject-253"><path d="M190.56,330.22a2.35,2.35,0,0,1,1.39-1.94,7.41,7.41,0,0,1,6.71,0,2.34,2.34,0,0,1,1.39,1.94l-1.39,27.43h0a1.7,1.7,0,0,1-1,1.33,5.23,5.23,0,0,1-4.75,0,1.66,1.66,0,0,1-1-1.33h0Z" style="fill:#455a64"></path><path d="M198.66,328.28a7.41,7.41,0,0,0-6.71,0,2.35,2.35,0,0,0-1.39,1.94l.6,11.71a47.44,47.44,0,0,0,8,6.63l.93-18.34A2.34,2.34,0,0,0,198.66,328.28Z" style="fill:#263238"></path><path d="M310.38,330.22a2.35,2.35,0,0,0-1.39-1.94,7.41,7.41,0,0,0-6.71,0,2.34,2.34,0,0,0-1.39,1.94l1.39,27.43h0a1.66,1.66,0,0,0,1,1.33,5.23,5.23,0,0,0,4.75,0,1.7,1.7,0,0,0,1-1.33h0Z" style="fill:#455a64"></path><path d="M309,328.28a7.41,7.41,0,0,0-6.71,0,2.34,2.34,0,0,0-1.39,1.94l.95,18.76a49,49,0,0,0,7.91-6.34l.63-12.42A2.35,2.35,0,0,0,309,328.28Z" style="fill:#263238"></path><path d="M255.54,351.22a2.35,2.35,0,0,0-1.39-1.94,7.41,7.41,0,0,0-6.71,0,2.34,2.34,0,0,0-1.39,1.94l1.39,27.42h0a1.66,1.66,0,0,0,1,1.34,5.23,5.23,0,0,0,4.75,0,1.69,1.69,0,0,0,1-1.34h0Z" style="fill:#455a64"></path><path d="M255,362.22l.56-11a2.35,2.35,0,0,0-1.39-1.94,7.41,7.41,0,0,0-6.71,0,2.36,2.36,0,0,0-1.39,1.94l.56,11C249.4,362.32,252.2,362.32,255,362.22Z" style="fill:#263238"></path><path d="M318.84,313.06h-.06c0-10.05-6.58-20.1-19.87-27.78-26.57-15.34-69.66-15.34-96.23,0C189.39,293,182.8,303,182.82,313.06h-.07v5.4h0c.16,9.92,6.82,19.82,19.93,27.39,26.58,15.34,69.66,15.34,96.23,0,13.12-7.57,19.77-17.47,19.93-27.39h0Z" style="fill:#720F88"></path><path d="M202.68,285.28c-26.57,15.35-26.57,40.22,0,55.56s69.66,15.34,96.23,0,26.58-40.21,0-55.56S229.25,269.94,202.68,285.28Z" style="fill:#720F88"></path><g style="opacity:0.6000000000000001"><path d="M202.68,285.28c-26.57,15.35-26.57,40.22,0,55.56s69.66,15.34,96.23,0,26.58-40.21,0-55.56S229.25,269.94,202.68,285.28Z" style="fill:#fff"></path></g></g><g id="freepik--Pot--inject-253"><g style="opacity:0.07"><path d="M261.38,326.2c6,3.44,6,9,0,12.46s-15.63,3.44-21.58,0-6-9,0-12.46S255.42,322.76,261.38,326.2Z"></path></g><path d="M241.1,333.2c-5.2-5.29-8.24-18.52-3.18-22.72h25.76c5.06,4.2,2,17.42-3.18,22.72l-.14.14-.18.18a4.76,4.76,0,0,1-.47.41l-.12.1-.39.3c-.22.15-.45.3-.67.43a17.12,17.12,0,0,1-15.46,0h0a7.15,7.15,0,0,1-.68-.44l-.36-.27-.16-.12c-.16-.13-.31-.27-.45-.4l-.21-.21Z" style="fill:#e6e6e6"></path><path d="M261.44,308.79c5.88,3.39,5.88,8.89,0,12.29s-15.41,3.39-21.28,0-5.88-8.9,0-12.29S255.56,305.4,261.44,308.79Z" style="fill:#f5f5f5"></path><path d="M257.27,311.2c3.58,2.06,3.58,5.41,0,7.47a14.28,14.28,0,0,1-12.95,0c-3.57-2.06-3.57-5.41,0-7.47A14.28,14.28,0,0,1,257.27,311.2Z" style="fill:#e6e6e6"></path><path d="M244.32,314.74a14.34,14.34,0,0,1,12.95,0,6,6,0,0,1,2.14,2,6,6,0,0,1-2.14,2,14.28,14.28,0,0,1-12.95,0,6,6,0,0,1-2.14-2A6,6,0,0,1,244.32,314.74Z" style="fill:#e0e0e0"></path><path d="M256.48,316.71a29.45,29.45,0,0,0,4.69-6.23c2.16-3.82,2.56-9,1.44-9.58s-5.67,4.48-5.67,4.48a27.73,27.73,0,0,0,.48-6.53c-.19-3.4-1-6.5-2-7.12s-3.15,3.67-4.09,6.78-1.5,5.68-1.5,5.68a47.65,47.65,0,0,0-1.67-7.17c-1.14-3.23-2.17-4-3-3.64s-1.32,1.82-1.56,6.13a42.56,42.56,0,0,0,.2,6.16s-1.61-1.76-3.39-3.47c-2-1.88-2.79-2.14-3.35-1.78s-.72,3.28,2.31,8.76a30.69,30.69,0,0,0,5.72,7.53S249.32,319.41,256.48,316.71Z" style="fill:#720F88"></path><g style="opacity:0.30000000000000004"><path d="M256.48,316.71a29.45,29.45,0,0,0,4.69-6.23c2.16-3.82,2.56-9,1.44-9.58s-5.67,4.48-5.67,4.48a27.73,27.73,0,0,0,.48-6.53c-.19-3.4-1-6.5-2-7.12s-3.15,3.67-4.09,6.78-1.5,5.68-1.5,5.68a47.65,47.65,0,0,0-1.67-7.17c-1.14-3.23-2.17-4-3-3.64s-1.32,1.82-1.56,6.13a42.56,42.56,0,0,0,.2,6.16s-1.61-1.76-3.39-3.47c-2-1.88-2.79-2.14-3.35-1.78s-.72,3.28,2.31,8.76a30.69,30.69,0,0,0,5.72,7.53S249.32,319.41,256.48,316.71Z"></path></g></g><ellipse id="freepik--shadow--inject-253" cx="288.67" cy="320.67" rx="12.61" ry="7.28" style="opacity:0.07"></ellipse><path id="freepik--shadow--inject-253" d="M220.65,312.41c3.48,2,3.48,5.26,0,7.27a13.94,13.94,0,0,1-12.61,0c-3.48-2-3.48-5.26,0-7.27A13.94,13.94,0,0,1,220.65,312.41Z" style="opacity:0.07"></path><g id="freepik--Wine--inject-253"><path d="M291.84,269.5V256.88l-3.2.13-3.19-.13V269.5c-.08,2.6-7.05,2.73-7.21,12.83V320c0,2.31,4.75,4.76,10.4,4.76s10.41-2.45,10.41-4.76V282.33C298.89,272.23,291.92,272.1,291.84,269.5Z" style="fill:#720F88"></path><path d="M291.84,269.5V256.88l-3.2.13-3.19-.13V269.5c-.08,2.6-7.05,2.73-7.21,12.83V320c0,2.31,4.75,4.76,10.4,4.76s10.41-2.45,10.41-4.76V282.33C298.89,272.23,291.92,272.1,291.84,269.5Z" style="opacity:0.4"></path><path d="M291.85,254.33c0-2.21-6.41-2-6.41-.25v5.07c0,.91,1.43,1.64,3.2,1.64s3.2-.73,3.2-1.64C291.84,259.05,291.85,254.33,291.85,254.33Z" style="fill:#37474f"></path><path d="M291.84,254.09c0,.9-1.43,1.64-3.2,1.64s-3.2-.74-3.2-1.64,1.43-1.63,3.2-1.63S291.84,253.19,291.84,254.09Z" style="fill:#455a64"></path><path d="M288.64,292.38a24.44,24.44,0,0,1-6.14-.73v20.58a24.47,24.47,0,0,0,6.14.72c5.65,0,10.41-1.62,10.41-3.93V288.45C299.05,290.76,294.29,292.38,288.64,292.38Z" style="fill:#f5f5f5"></path></g><g id="freepik--glass-of-wine--inject-253"><path d="M214.25,294.23a.8.8,0,0,0-.78.8l.07,17.72a1.65,1.65,0,0,1-1.42,1.63c-1.74.26-3,.84-2.94,1.67,0,1.15,2.32,2.06,5.16,2.05s5.15-1,5.14-2.12c0-.83-1.2-1.39-2.93-1.63a1.64,1.64,0,0,1-1.43-1.62L215.05,295A.79.79,0,0,0,214.25,294.23Z" style="fill:#720F88"></path><path d="M214.25,294.23a.8.8,0,0,0-.78.8l.07,17.72a1.65,1.65,0,0,1-1.42,1.63c-1.74.26-3,.84-2.94,1.67,0,1.15,2.32,2.06,5.16,2.05s5.15-1,5.14-2.12c0-.83-1.2-1.39-2.93-1.63a1.64,1.64,0,0,1-1.43-1.62L215.05,295A.79.79,0,0,0,214.25,294.23Z" style="opacity:0.2"></path><path d="M220.6,276.43c-.46-1.37-2.94-2.43-6.25-2.43s-5.78,1-6.24,2.47-2.3,9.73-2.27,13.62a8.54,8.54,0,0,0,17,0C222.9,286.23,221.1,277.82,220.6,276.43Z" style="fill:#720F88"></path><path d="M220.6,276.43c-.46-1.37-2.94-2.43-6.25-2.43s-5.78,1-6.24,2.47-2.3,9.73-2.27,13.62a8.54,8.54,0,0,0,17,0C222.9,286.23,221.1,277.82,220.6,276.43Z" style="opacity:0.1"></path><path d="M221.31,283.85a1.72,1.72,0,0,0-.07-.21C221,282.16,218,281,214.35,281s-6.7,1.18-6.9,2.67a.88.88,0,0,0,0,.15c-.18,1.06-.29,5.29-.29,6.26,0,1.12,1.32,6.72,7.22,6.72s7.24-5.56,7.25-6.68S221.48,284.92,221.31,283.85Z" style="fill:#37474f"></path><path d="M221.26,283.83c0,1.56-3.09,2.82-6.91,2.82s-6.92-1.26-6.92-2.82,3.1-2.83,6.92-2.83S221.26,282.26,221.26,283.83Z" style="fill:#455a64"></path><path d="M220,276.81c0,1.27-2.52,2.3-5.64,2.3s-5.65-1-5.65-2.3,2.53-2.31,5.65-2.31S220,275.53,220,276.81Z" style="opacity:0.15"></path></g></g></g><g id="freepik--character-2--inject-253"><g id="freepik--character--inject-253"><path d="M343.71,331.45h0a9.11,9.11,0,0,0,4.43,9.4l51.86,27,.15,3,2.36,1.37-3,1.75L342.14,340.8Z" style="fill:#37474f"></path><path d="M397.85,387.17h0c.33-4-1.08-8-4.54-10l-46.74-27a4.39,4.39,0,0,0-6.52,3.08h0l3.11-18.6h0a9,9,0,0,0,4.34,9.21l48.39,28a2.32,2.32,0,0,0,3.63-1.9l.24-2.56Z" style="fill:#455a64"></path><path d="M396.84,259.51l13.25,7.65L353.57,302.9a15,15,0,0,0-6.79,10.23l-8.23,53.29a.92.92,0,0,1-1.37.65h0c-.31-.18-.49-.52-.38-1.82l4.7-56.63a14.66,14.66,0,0,1,5.56-9.59Z" style="fill:#455a64"></path><path d="M458.19,329.83l.33.75a5.77,5.77,0,0,1-2.41,7.29L404,368l1.31-7.79-2,11.69L461.75,338Z" style="fill:#263238"></path><path d="M458.19,329.83l.21.47a4.43,4.43,0,0,1-6.28,5.6l-2.22-1.28-3,1.71,12.15,7,3.84-2.57Z" style="fill:#263238"></path><path d="M402.7,368.7l50-28.87a7,7,0,0,0,3.15-5.47v-2.94a7,7,0,0,0-3.15-5.47l-50-28.84a7,7,0,0,0-6.31,0l-50,28.84a7,7,0,0,0-3.16,5.47v3a7,7,0,0,0,3.16,5.47l50,28.83A7,7,0,0,0,402.7,368.7Z" style="fill:#720F88"></path><path d="M401.78,369.1a4.58,4.58,0,0,0,.93-.4l50-28.87a7,7,0,0,0,3.15-5.47v-2.94a7.07,7.07,0,0,0-2.56-5.05c1.12,1,.92,2.35-.59,3.23l-49.73,28.71Z" style="opacity:0.30000000000000004"></path><path d="M343.27,331.42v3a7,7,0,0,0,3.16,5.47l50,28.84a7.05,7.05,0,0,0,5.39.39l1.16-10.79-.23.13a7,7,0,0,1-6.32,0l-50-28.84c-1.52-.88-1.72-2.23-.59-3.23A7.06,7.06,0,0,0,343.27,331.42Z" style="opacity:0.15"></path><path d="M384.93,307.36l50,28.85a6.55,6.55,0,0,0,3.7.73,5.14,5.14,0,0,0,.55-.06l.12,0,.33-.06h0a3.89,3.89,0,0,0,.49-.12,5,5,0,0,0,1.08-.46l2.57-1.48a8.87,8.87,0,0,0,3.8-5.41l7.6-42.42a5,5,0,0,0,.07-.78c0-.11,0-.21,0-.32a5.59,5.59,0,0,0-.34-1.55,5.66,5.66,0,0,0-1.67-2.38l-.22-.17-.33-.21-50-28.85a7,7,0,0,0-6.32,0l-2.57,1.49a7.08,7.08,0,0,0-1.52,1.23l-.25.28a9.35,9.35,0,0,0-.92,1.25,2.68,2.68,0,0,0-.18.28l-.14.25-.19.38c-.06.12-.12.24-.17.37l-.13.31a.88.88,0,0,0-.05.15c0,.1-.06.19-.09.28s-.07.24-.1.37a1.1,1.1,0,0,0-.06.26L382.42,302A5.54,5.54,0,0,0,384.93,307.36Z" style="fill:#720F88"></path><path d="M446.3,292l-7.6,42.42a2.39,2.39,0,0,1-3.8,1.76l-50-28.84a5.56,5.56,0,0,1-2.51-5.41l7.6-42.42a2.4,2.4,0,0,1,3.8-1.77l50,28.85A5.58,5.58,0,0,1,446.3,292Z" style="fill:#720F88"></path><path d="M446.3,292l-7.6,42.42a2.39,2.39,0,0,1-3.8,1.76l-50-28.84a5.56,5.56,0,0,1-2.51-5.41l7.6-42.42a2.4,2.4,0,0,1,3.8-1.77l50,28.85A5.58,5.58,0,0,1,446.3,292Z" style="opacity:0.15"></path><path d="M436.18,336.72a7.23,7.23,0,0,0,2.42.22,5.14,5.14,0,0,0,.55-.06,3.54,3.54,0,0,0,.45-.08h0a3.89,3.89,0,0,0,.49-.12,5,5,0,0,0,1.08-.46l2.57-1.48a8.87,8.87,0,0,0,3.8-5.41l7.6-42.42a5,5,0,0,0,.07-.78c0-.11,0-.21,0-.32a5.59,5.59,0,0,0-.34-1.55L446,289.32a5.1,5.1,0,0,1,.31,2.71l-7.59,42.42a2.38,2.38,0,0,1-2.5,2.2A.25.25,0,0,1,436.18,336.72Z" style="opacity:0.30000000000000004"></path><g id="freepik--character--inject-253"><path d="M339.23,388.18a.67.67,0,0,1,.82.56,37.74,37.74,0,0,1,.95,4.67,7.82,7.82,0,0,1-.37,3.42c-1.41,2.08-4.87,2.85-6.79,5.69s-4.19,7.2-10.7,8.68-11.52-.45-12.78-2.28-.21-3.61,3.92-6c5-2.9,7.46-6.75,11.11-11.1,1-1.19,2.22-2.9,2.62-3.39a1.79,1.79,0,0,1,.28-.27,4.85,4.85,0,0,1,1.45-.65,9.79,9.79,0,0,1,1.94-.38,7.88,7.88,0,0,1,1.88.08c.83.13,1.64.39,2.47.5a5.75,5.75,0,0,0,1.85,0C338.44,387.57,338.65,388.15,339.23,388.18Z" style="fill:#37474f"></path><path d="M331.6,373.62c-.29,1.77-2.56,11.51-3.65,13.8-2.37,5-5.38,7.6-9.53,12.46-.3.35-1,1.61-.52,2.24a4.14,4.14,0,0,0,2.67,1c3.42.4,5.19-1.1,8.09-2.94,2.56-1.62,3.63-3,7.28-5.69a16.44,16.44,0,0,0,3-3.13c1-1.76.36-2.55.67-4.16a46.11,46.11,0,0,1,3.26-10.05C339.43,372.72,331.61,373.54,331.6,373.62Z" style="fill:#ffa8a7"></path><path d="M398.74,313.28c-2.23,6.41-3,13.66-11.4,19.57-7.64,5.37-24.68,9.43-26.83,10.49s-3.58,1.43-4.5,4.92c-1.26,4.77-1.41,8.37-5.87,16.73-3.14,5.88-5.55,10.08-8,14.42-2.27.26-10-1.86-11.15-3.67.57-3.65,7-38.34,11-45.91,3.31-6.4,46.31-27.05,46.31-27.05S401,306.88,398.74,313.28Z" style="fill:#720F88"></path><path d="M398.74,313.28c-2.23,6.41-3,13.66-11.4,19.57-7.64,5.37-24.68,9.43-26.83,10.49s-3.58,1.43-4.5,4.92c-1.26,4.77-1.41,8.37-5.87,16.73-3.14,5.88-5.55,10.08-8,14.42-2.27.26-10-1.86-11.15-3.67.57-3.65,7-38.34,11-45.91,3.31-6.4,46.31-27.05,46.31-27.05S401,306.88,398.74,313.28Z" style="opacity:0.35000000000000003"></path><path d="M342.12,379.41a16.22,16.22,0,0,1-4.83-.73,10.47,10.47,0,0,1,.76-1.39,113.9,113.9,0,0,0,7.07-13.09c2.44-4.94,3.56-10.31,4.37-15.73.62-4.16.51-9.14,4.69-11.36a20.69,20.69,0,0,1,5.31-1.69c9.1-2,18.2-4.48,26.46-8.81a5.48,5.48,0,0,0,2-1.46c-1.84-5.33-2-7.24-1.93-9.67a20.35,20.35,0,0,0,7.66,9.43c.69.55-.08,1.64-.55,2.29l-11.28,8.7c-6.7,3.08-15.28,5.47-19.3,6.73l-1,.32-.1,0-.28.09-.11,0-.22.09-.08,0a1.56,1.56,0,0,0-.22.1l-1.17.56a5.28,5.28,0,0,0-2.33,1.89,8.22,8.22,0,0,0-1,2.47c-.08.3-.16.59-.23.88-.21.87-.4,1.72-.59,2.57-.07.28-.13.57-.2.86-.21.86-.43,1.75-.72,2.71-.09.31-.19.64-.3,1-.21.67-.46,1.37-.75,2.11a57.92,57.92,0,0,1-3.08,6.63l-.58,1.08c-1.15,2.13-2.2,4-3.19,5.83-.17.29-.33.59-.49.88-.65,1.16-1.29,2.28-1.91,3.37-.46.82-.93,1.63-1.39,2.44C342.43,378.87,342.27,379.14,342.12,379.41Z" style="opacity:0.1"></path><path d="M372.23,403.66c.45,0,.72.12.82.55a36.33,36.33,0,0,1,.95,4.67,7.84,7.84,0,0,1-.37,3.43c-1.41,2.08-4.87,2.85-6.79,5.69s-4.19,7.19-10.69,8.68-11.53-.45-12.79-2.28-.2-3.61,3.92-6c5-2.91,7.46-6.76,11.12-11.11,1-1.19,2.21-2.89,2.61-3.39a1.45,1.45,0,0,1,.29-.26,4.71,4.71,0,0,1,1.44-.66,9.92,9.92,0,0,1,1.94-.37,7.47,7.47,0,0,1,1.89.07c.83.13,1.63.39,2.46.51a5.47,5.47,0,0,0,1.85-.05C371.44,403.05,371.65,403.62,372.23,403.66Z" style="fill:#37474f"></path><path d="M364.6,389.1c-.28,1.77-2.56,11.51-3.65,13.8-2.37,5-5.38,7.6-9.53,12.46-.3.35-1,1.61-.51,2.23a4.08,4.08,0,0,0,2.66,1c3.42.4,5.19-1.1,8.1-2.94,2.55-1.63,3.62-3,7.27-5.69a16.86,16.86,0,0,0,3-3.13c1-1.76.35-2.56.66-4.16a46.48,46.48,0,0,1,3.26-10.05C372.43,388.2,364.61,389,364.6,389.1Z" style="fill:#ffa8a7"></path><path d="M428.54,308.87c1.13,6.35,2.63,16.24-1.21,21.83-3.54,5.15-8.28,8.65-16.93,14.17-9.54,6.09-14.3,9.06-16.55,10.66a11.64,11.64,0,0,0-5.12,7.38c-.79,4.13-1.53,8.21-5.56,16.76-3.17,6.72-6.7,12.88-8.48,16.29-2.68.46-9.38-.83-11.13-3.1,1-5.09,6.52-41.19,8.9-46.54s21.18-21.41,21.18-21.41,1.49-9.71,0-16Z" style="fill:#720F88"></path><path d="M428.54,308.87c1.13,6.35,2.63,16.24-1.21,21.83-3.54,5.15-8.28,8.65-16.93,14.17-9.54,6.09-14.3,9.06-16.55,10.66a11.64,11.64,0,0,0-5.12,7.38c-.79,4.13-1.53,8.21-5.56,16.76-3.17,6.72-6.7,12.88-8.48,16.29-2.68.46-9.38-.83-11.13-3.1,1-5.09,6.52-41.19,8.9-46.54s21.18-21.41,21.18-21.41,1.49-9.71,0-16Z" style="opacity:0.35000000000000003"></path><path d="M369.78,395.65a11.23,11.23,0,0,1,1-2.3,143.24,143.24,0,0,0,10.14-23.84c1.27-4.3,1.13-8.78,2-13.14s4.63-6.77,8-9.33a123.69,123.69,0,0,0,10.23-8.76,106.5,106.5,0,0,0,7.69-8.82c4.58-5.49,2-9.47-1.28-11.31-1.23-.69-7.69-2.75-9.4-3.72-6.65-3.94-9.19-6.31-9.91-11.65l40.3,6.09c.25,1.39.52,2.95.74,4.59l.18,1.43c.14,1.21.24,2.45.3,3.69,0,.5,0,1,0,1.49,0,.74,0,1.48-.05,2.21,0,.49-.07,1-.12,1.45a19.54,19.54,0,0,1-.67,3.42,12.38,12.38,0,0,1-1.63,3.55c-.22.32-.45.64-.68.95a28.15,28.15,0,0,1-2.24,2.66,35.37,35.37,0,0,1-2.64,2.51c-.64.55-1.32,1.1-2,1.66s-1.48,1.12-2.29,1.7c-2,1.44-4.34,3-7,4.69-1.19.77-2.31,1.48-3.36,2.14l-7.65,4.88-.95.61c-2.14,1.37-3.61,2.33-4.59,3a14.69,14.69,0,0,0-2.8,2.52,10.51,10.51,0,0,0-2.32,4.86c-.79,4.13-1.53,8.21-5.56,16.76-1.59,3.36-3.26,6.58-4.76,9.39l-1.6,3c-.84,1.53-1.57,2.86-2.12,3.93A15.36,15.36,0,0,1,369.78,395.65Z" style="opacity:0.1"></path><path d="M336.41,247.29a7.44,7.44,0,0,1,5.48-5.19,1.52,1.52,0,0,1,1.13.13,1.72,1.72,0,0,1,.56,1c.57,2.09,1.22,4.14,2,6.17a29.94,29.94,0,0,0,1.2,3c.12.24,1,1.29,1,1.4a13.77,13.77,0,0,1,.11-3.26,1.87,1.87,0,0,1,2-1.64c.42.08.18,1.1.66,2.78.61,2.15,1.32,3.53,1.4,5.92a3.79,3.79,0,0,0,1,2.44c2.91,3.18,10.94,9.6,16.56,13.38,3.22-2.95,7-8.44,11.42-14,5.5-6.82,8.59-8.84,15.63-8.59l-.93,12.9c-5.07,6.25-9.6,10.43-19.51,20.62-2.29,2.36-4,3.3-5.57,3.44-2.09.19-4.06-1.5-6-3.12-4.3-3.63-8.56-7.39-12.58-11.33-5.48-5.37-12.63-12-15-18.36A12,12,0,0,1,336.41,247.29Z" style="fill:#ffa8a7"></path><g id="freepik--glass-of-wine--inject-253"><path d="M344.41,251.87a.79.79,0,0,0-.78.8l.07,17.72a1.66,1.66,0,0,1-1.42,1.63c-1.74.26-2.95.83-2.94,1.66,0,1.16,2.32,2.07,5.16,2.06s5.15-1,5.14-2.12c0-.83-1.2-1.39-2.93-1.63a1.65,1.65,0,0,1-1.43-1.62l-.08-17.71A.79.79,0,0,0,344.41,251.87Z" style="fill:#720F88"></path><path d="M344.41,251.87a.79.79,0,0,0-.78.8l.07,17.72a1.66,1.66,0,0,1-1.42,1.63c-1.74.26-2.95.83-2.94,1.66,0,1.16,2.32,2.07,5.16,2.06s5.15-1,5.14-2.12c0-.83-1.2-1.39-2.93-1.63a1.65,1.65,0,0,1-1.43-1.62l-.08-17.71A.79.79,0,0,0,344.41,251.87Z" style="opacity:0.2"></path><path d="M350.75,234.07c-.46-1.37-2.93-2.43-6.25-2.43s-5.77,1-6.23,2.46-2.3,9.74-2.28,13.62a8,8,0,0,0,8.49,7.9c6.31,0,8.5-4.92,8.53-7.85C353.06,243.87,351.26,235.46,350.75,234.07Z" style="fill:#720F88"></path><path d="M350.75,234.07c-.46-1.37-2.93-2.43-6.25-2.43s-5.77,1-6.23,2.46-2.3,9.74-2.28,13.62a8,8,0,0,0,8.49,7.9c6.31,0,8.5-4.92,8.53-7.85C353.06,243.87,351.26,235.46,350.75,234.07Z" style="opacity:0.1"></path><path d="M351.46,241.49a.83.83,0,0,0-.06-.21c-.24-1.48-3.23-2.64-6.9-2.64s-6.7,1.18-6.9,2.67c0,.05,0,.1,0,.15-.18,1.06-.3,5.29-.29,6.26,0,1.12,1.32,6.72,7.21,6.72s7.24-5.56,7.26-6.68C351.75,246.79,351.64,242.56,351.46,241.49Z" style="fill:#37474f"></path><ellipse cx="344.5" cy="241.46" rx="6.92" ry="2.83" style="fill:#455a64"></ellipse><ellipse cx="344.5" cy="234.44" rx="5.65" ry="2.31" style="opacity:0.15"></ellipse></g><path d="M388,280.47c-.57,5.29.25,22.31.25,22.31,2.43,4.66,11.83,9.22,19.55,9.3,9.24.11,18.4-.63,20.92-4.66-1.28-6.32-6-17.66-6-17.66l2.45-14.85a19.77,19.77,0,0,1,.88-20.27,54.3,54.3,0,0,0-12.82-2.75c-7.92-.84-12.46-1-12.46-1h-4.18c-4.19,3.07-9.49,10.74-10.84,14.18S382.41,273.51,388,280.47Z" style="fill:#f5f5f5"></path><path d="M413.47,249c1.52-3.76,4.28-5.61,6.93-9.06,5.22-6.83,7.6-16.65,2.71-20.53a9.21,9.21,0,0,0-1.27-7.27c-2.27-3.27-4.86-3.45-7.25-4.79a28.25,28.25,0,0,1-4.74-3.67,26.49,26.49,0,0,0-3.76-3,6.24,6.24,0,0,0-6.38-.14c-3.64,1.89-3,4.74-3,4.74s-2.22-2.48-7.4-1.56-7.82,7.46-3.91,11.07a7.5,7.5,0,0,0-2.34,7.82c1.46,4.79,8.34,5.38,11.45,2.54Z" style="fill:#37474f"></path><path d="M393.77,215.94c-2.17,1.2-5,6.51-5,17.79,0,9.57,3,12,4.53,12.74s4.55.39,7.48,0l0,4.8a7.8,7.8,0,0,0-1.55,4.82c.18,2.64,5.77,3.92,9.71,1.61s4.5-4.67,4.5-4.67l.28-13.25s1.67,1.71,4.65-.75c2.46-2,3.37-5.56,1.55-7.51a4.19,4.19,0,0,0-6.7,1.15s-1.12-4.22-8.37-6.72C399.42,224.07,395.69,220.71,393.77,215.94Z" style="fill:#ffa8a7"></path><path d="M393.32,214.66a1.43,1.43,0,0,0-.31.3,6.65,6.65,0,0,0-.7.95,6.51,6.51,0,0,0-.82,2.2,5.88,5.88,0,0,0,.78,4,4.54,4.54,0,0,0,3,2.26,2.4,2.4,0,0,0,1.86-.26,1.13,1.13,0,0,0,.44-.83.65.65,0,0,0-.31-.6.5.5,0,0,1-.14.55.87.87,0,0,1-.56.2,1.62,1.62,0,0,1-1.17-.61c-1.76-2-.34-5.28,1.61-6.62.05,0,0-.42,0-.47a1.85,1.85,0,0,0-.46-.9,2.81,2.81,0,0,0-2.72-.38A1.34,1.34,0,0,0,393.32,214.66Z" style="fill:#37474f"></path><path d="M400.06,231.21a1.2,1.2,0,1,0,1.3-1.15A1.23,1.23,0,0,0,400.06,231.21Z" style="fill:#263238"></path><path d="M400.7,239.38l-3.12.9a1.6,1.6,0,0,0,2,1.16A1.7,1.7,0,0,0,400.7,239.38Z" style="fill:#f28f8f"></path><path d="M390,227.43l2.91-.53a1.41,1.41,0,0,0-1.66-1.21A1.55,1.55,0,0,0,390,227.43Z" style="fill:#263238"></path><path d="M400.67,227.49l2.68,1.25a1.43,1.43,0,0,0-.66-2A1.56,1.56,0,0,0,400.67,227.49Z" style="fill:#263238"></path><path d="M390.48,230.71a1.2,1.2,0,1,0,2.4.18,1.2,1.2,0,1,0-2.4-.18Z" style="fill:#263238"></path><polygon points="396.45 230.3 396.31 238.14 392.53 236.85 396.45 230.3" style="fill:#f28f8f"></polygon><path d="M400.77,246.45c3.09-.32,9.46-2,10.51-4.44a6.48,6.48,0,0,1-2.3,3.13c-1.93,1.57-8.23,3.23-8.23,3.23Z" style="fill:#f28f8f"></path></g><path d="M472,357.11l-16.21-46.44H449.9l20,47.26a1.13,1.13,0,0,0,.48.53h0A1.13,1.13,0,0,0,472,357.11Z" style="fill:#37474f"></path><path d="M453.23,297.77,407.61,334A15,15,0,0,0,402,344.52l-5.41,56.05a.93.93,0,0,0,.46.88h0a.92.92,0,0,0,1.37-.65l8.93-52.71a15.06,15.06,0,0,1,6.8-10.23L453,313.25a12.59,12.59,0,0,0,1.1-20.5Z" style="fill:#455a64"></path><path d="M444.19,305a12.58,12.58,0,0,1,1.59,6.32,4.38,4.38,0,0,1-.38,1.93,4.71,4.71,0,0,1-1.57,1.6,38.5,38.5,0,0,1-8.48,4.07c-4.73,1.82-10,3.3-14.47,4.59Z" style="opacity:0.2"></path><path d="M459.38,332.56h0a6.69,6.69,0,0,1-2.8,8.46L410,367.91a3.65,3.65,0,0,1-5.41-3.75h0L401,385.26h0a12.85,12.85,0,0,1,6.15-8.87L459,346.49a5.32,5.32,0,0,1,7.54,2.49h0Z" style="fill:#37474f"></path><path d="M393.67,328.59a115.71,115.71,0,0,1,10-10.58c2.19-1.49,4.91-1.2,7.92-2.56,2.74-1.24,4.11-2.68,10.27-6.62,5.84-3.73,9.49-6.2,9.49-6.2l-7.68-24.18c-5-9.89-1.36-20.88,2.35-23.81,4.59,1,7.74,2.24,10.62,12.55,1.77,6.34,7.7,25.85,8.9,32.43,1.44,7.86,1.7,9.84-5.24,13.29-7.13,3.54-20.84,8.88-23.14,9.88s-3,2.29-4.61,3.21a19.2,19.2,0,0,1-3.76,1.7,14.66,14.66,0,0,0-4.21,2.35c-.33.27-.67.53-1,.77-2.12,1.45-4.25,2.57-6.87,1.75C393.84,331.66,392.83,330,393.67,328.59Z" style="fill:#ffa8a7"></path></g></g><g id="freepik--character-1--inject-253"><g id="freepik--character--inject-253"><path d="M154.79,322.88h0a9.12,9.12,0,0,1-4.44,9.4l-51.86,27-.15,3L96,363.67l3,1.75,57.33-33.19Z" style="fill:#37474f"></path><path d="M100.64,378.61h0c-.33-4,1.08-8,4.54-10l46.74-27a4.39,4.39,0,0,1,6.52,3.08h0l-3.11-18.6h0a9,9,0,0,1-4.34,9.21l-48.39,28a2.31,2.31,0,0,1-3.62-1.9l-.25-2.56Z" style="fill:#455a64"></path><path d="M101.65,251,88.4,258.6l56.52,35.73a15,15,0,0,1,6.79,10.23L160,357.85a.92.92,0,0,0,1.37.65h0c.3-.18.48-.52.37-1.81L157,300.05a14.69,14.69,0,0,0-5.56-9.59Z" style="fill:#455a64"></path><path d="M40.3,321.26,40,322a5.79,5.79,0,0,0,2.42,7.3L94.5,359.39l-1.31-7.79,2,11.69L36.74,329.47Z" style="fill:#263238"></path><path d="M40.3,321.26l-.21.47a4.43,4.43,0,0,0,6.28,5.6l2.22-1.28,3,1.71-12.14,7-3.85-2.57Z" style="fill:#263238"></path><path d="M95.79,360.14l-50-28.87a7,7,0,0,1-3.15-5.47v-2.95a7,7,0,0,1,3.15-5.47l50-28.84a7,7,0,0,1,6.31,0l50,28.84a7,7,0,0,1,3.16,5.47v3a6.94,6.94,0,0,1-3.16,5.46l-50,28.84A7,7,0,0,1,95.79,360.14Z" style="fill:#720F88"></path><path d="M96.71,360.53a4.49,4.49,0,0,1-.92-.4l-50-28.87a7,7,0,0,1-3.15-5.46v-2.95a7.12,7.12,0,0,1,2.56-5.05c-1.12,1-.92,2.35.59,3.23l49.73,28.71Z" style="opacity:0.30000000000000004"></path><path d="M155.22,322.85v3a6.94,6.94,0,0,1-3.16,5.46l-50,28.84a7.05,7.05,0,0,1-5.39.39l-1.16-10.79.24.13a6.89,6.89,0,0,0,6.31,0l50-28.84c1.52-.88,1.72-2.23.6-3.23A7.08,7.08,0,0,1,155.22,322.85Z" style="opacity:0.15"></path><path d="M113.56,298.8l-50,28.84a6.55,6.55,0,0,1-3.7.73,5.14,5.14,0,0,1-.55-.06h-.12l-.33-.06h0l-.49-.13a5,5,0,0,1-1.08-.46l-2.57-1.48a8.91,8.91,0,0,1-3.8-5.41l-7.6-42.42a4.93,4.93,0,0,1-.06-.78c0-.11,0-.21,0-.31a5.89,5.89,0,0,1,.34-1.55,5.63,5.63,0,0,1,1.67-2.39l.22-.16.33-.22,50-28.84a7,7,0,0,1,6.31,0l2.57,1.48a6.85,6.85,0,0,1,1.52,1.24,2.26,2.26,0,0,1,.25.28,8.66,8.66,0,0,1,.92,1.24,2.68,2.68,0,0,1,.18.28c0,.09.1.17.14.26s.13.24.19.37.12.25.17.37.09.21.13.32l.06.14c0,.1.06.19.08.28a2.93,2.93,0,0,1,.1.37,1.22,1.22,0,0,1,.06.26l7.6,42.42A5.56,5.56,0,0,1,113.56,298.8Z" style="fill:#720F88"></path><path d="M52.2,283.46l7.6,42.42a2.4,2.4,0,0,0,3.8,1.77l50-28.85a5.56,5.56,0,0,0,2.51-5.41L108.47,251a2.39,2.39,0,0,0-3.8-1.76l-50,28.84A5.56,5.56,0,0,0,52.2,283.46Z" style="fill:#720F88"></path><path d="M52.2,283.46l7.6,42.42a2.4,2.4,0,0,0,3.8,1.77l50-28.85a5.56,5.56,0,0,0,2.51-5.41L108.47,251a2.39,2.39,0,0,0-3.8-1.76l-50,28.84A5.56,5.56,0,0,0,52.2,283.46Z" style="opacity:0.15"></path><path d="M62.31,328.15a7.23,7.23,0,0,1-2.42.22,5.14,5.14,0,0,1-.55-.06l-.45-.07h0l-.49-.13a5,5,0,0,1-1.08-.46l-2.57-1.48a8.91,8.91,0,0,1-3.8-5.41l-7.6-42.42a4.93,4.93,0,0,1-.06-.78c0-.11,0-.21,0-.31a5.89,5.89,0,0,1,.34-1.55l8.92,5.06a5,5,0,0,0-.32,2.72l7.6,42.41a2.36,2.36,0,0,0,2.5,2.2A.17.17,0,0,0,62.31,328.15Z" style="opacity:0.30000000000000004"></path><path d="M133.41,364.19c-.77.78-1.65,1.68-1.57,2.68a10,10,0,0,0,2.6,5.72c2.05,2.3,3.35,6.65,3.68,9.59s.47,10.42,4.14,13.43,12.66,4.64,12.76-.81-10.3-26.62-10.3-26.62Z" style="fill:#263238"></path><path d="M138.35,367.78a81.93,81.93,0,0,1,3.43,11.79c.84,4.39,2.08,7.49,4.29,8.71s5.55,1.07,4.35-1.93-5.7-18.17-5.7-18.17Z" style="fill:#f0997a"></path><path d="M112.05,293.09S128.42,301.19,137,306s16.66,9.46,18.31,13.22c1.74,4,1.12,13.37,0,22.39s-3.37,25.22-3.37,25.22l-24.59-38.3-25.08-17.21Z" style="fill:#37474f"></path><path d="M110.83,310.67l1.34-1.55s12.89,7.75,17.93,11,10.4,7.2,12.79,13,9.72,28.92,9.72,28.92l-17.24-32.2Z" style="fill:#263238"></path><path d="M153.57,395.18c-.74.47-.67,2.28-.62,3.6s-.94,3.05.94,5.12,5.13,2.32,7.7,5.15,6.51,8.05,13.71,8.55,12.21-2.57,13.22-4.83-.43-4.08-5.27-6c-5.13-2-6.59-2.66-6.59-2.66Z" style="fill:#263238"></path><path d="M159.07,379.74s4.7,8.87,7.36,12.87A49.35,49.35,0,0,0,177,403.5c.9.72,2.88,2,3.62,2.57a1.36,1.36,0,0,1,.25,2.08c-1.24,1.73-7.58,3.28-11.67,1.27s-8.58-6.46-11.13-8.23c-1.28-.88-2.48-1.72-3.36-2.35a2.93,2.93,0,0,1-1.24-2.62c0-.3,0-.64.06-1,.1-2.16-4.23-10.13-4.23-10.13Z" style="fill:#ffbda7"></path><path d="M71.41,302.08c-.06,7.21.23,11.24,3.9,17.89s12.81,11,23.64,14.82c9,3.19,22.13,7.74,24.75,8.35s3.14,2,3.66,6.7,3.54,11.9,10.43,20.37c7.27,8.94,11.55,14.84,11.55,14.84a10.87,10.87,0,0,0,10.3-4.66s-17.26-43.92-20.44-49.55S109.72,310,109.72,310a169.29,169.29,0,0,0,2.33-16.92Z" style="fill:#37474f"></path><path d="M114.59,301.91s-.33,5.64-3.76,8.76l2.16,1.27A12.24,12.24,0,0,0,114.59,301.91Z" style="fill:#263238"></path><g id="freepik--glass-of-wine--inject-253"><path d="M160.15,277.28a.79.79,0,0,1,.79.79l-.07,17.73a1.64,1.64,0,0,0,1.41,1.62c1.75.27,3,.84,2.95,1.67,0,1.15-2.32,2.07-5.16,2.05s-5.15-1-5.14-2.11c0-.83,1.19-1.39,2.93-1.63a1.65,1.65,0,0,0,1.43-1.62l.07-17.71A.79.79,0,0,1,160.15,277.28Z" style="fill:#720F88"></path><path d="M160.15,277.28a.79.79,0,0,1,.79.79l-.07,17.73a1.64,1.64,0,0,0,1.41,1.62c1.75.27,3,.84,2.95,1.67,0,1.15-2.32,2.07-5.16,2.05s-5.15-1-5.14-2.11c0-.83,1.19-1.39,2.93-1.63a1.65,1.65,0,0,0,1.43-1.62l.07-17.71A.79.79,0,0,1,160.15,277.28Z" style="opacity:0.2"></path><path d="M153.81,259.47c.46-1.37,2.94-2.43,6.25-2.43s5.77,1,6.24,2.47,2.3,9.74,2.27,13.62a8.54,8.54,0,0,1-17,.05C151.51,269.27,153.31,260.87,153.81,259.47Z" style="fill:#720F88"></path><path d="M153.81,259.47c.46-1.37,2.94-2.43,6.25-2.43s5.77,1,6.24,2.47,2.3,9.74,2.27,13.62a8.54,8.54,0,0,1-17,.05C151.51,269.27,153.31,260.87,153.81,259.47Z" style="opacity:0.1"></path><path d="M153.1,266.9a.81.81,0,0,1,.07-.22c.24-1.47,3.23-2.63,6.89-2.63s6.7,1.18,6.9,2.67a.58.58,0,0,1,0,.14c.18,1.06.29,5.3.29,6.26,0,1.12-1.32,6.73-7.22,6.73s-7.24-5.56-7.25-6.68S152.93,268,153.1,266.9Z" style="fill:#37474f"></path><ellipse cx="160.06" cy="266.87" rx="6.92" ry="2.83" style="fill:#455a64"></ellipse><path d="M154.41,259.85c0,1.28,2.53,2.31,5.65,2.31s5.65-1,5.65-2.31-2.53-2.31-5.65-2.31S154.41,258.58,154.41,259.85Z" style="opacity:0.15"></path></g><path d="M166.27,286.75c-.07-2.14-.48-4.93-1.24-6.07-.25-.39-.56-.59-.9-.49-1.34.39-2.63,2.79-2.63,2.79l-.27.19c-1.47.9-4.87,1.05-5.44,2.27a15,15,0,0,0-.26,6.75,3.53,3.53,0,0,0,.26.76c.78,1.46,5.56,2.44,7.78,1.2S166.36,289.63,166.27,286.75Z" style="fill:#f0997a"></path><path d="M166.27,278.22a3.67,3.67,0,0,1-1.24,2.46c-.17.16-.35.32-.53.46-.93.71-2,1.2-3,1.84l-.27.19c-1.47.9-4.87,1.05-5.44,2.27a15,15,0,0,0-.26,6.75c-1.61-.28-3.32-.56-5.55-1-2.55-.53-17.93-1.38-29.4-2.75a7.52,7.52,0,0,1-6.16-3.65c-1.87-2.83-13-22.12-13-22.12l-7.52-19.51c6.23-1.37,11.85-2.55,17.06,7.77,4.07,8.08,14,25,14,25,6,1.57,11.94,3,18,4.3a39,39,0,0,0,5.31,1.05,14.16,14.16,0,0,0,3.87-.62c1.4-.3,2.79-.67,4.18-1l9-2.23a1,1,0,0,1,.56,0C166.18,277.47,166.28,277.88,166.27,278.22Z" style="fill:#ffbda7"></path><path d="M74.27,246.32l-6.71,1.5s4.81,5.66,3.8,16.57c-.71,7.72-2.43,8.41-6.3,10.66-.68,9.75,5.81,29.15,5.81,29.15s4,6.23,25.11,2.74c15.08-2.49,18.28-12.75,18.28-12.75l-9.08-8.48-2.08-7.9s6.79-6,4.47-14.83-13.66-19.84-13.66-19.84l-5.79.32Z" style="fill:#720F88"></path><path d="M74.27,246.32l-6.71,1.5s4.81,5.66,3.8,16.57c-.71,7.72-2.43,8.41-6.3,10.66-.68,9.75,5.81,29.15,5.81,29.15s4,6.23,25.11,2.74c15.08-2.49,18.28-12.75,18.28-12.75l-9.08-8.48-2.08-7.9s6.79-6,4.47-14.83-13.66-19.84-13.66-19.84l-5.79.32Z" style="fill:#fff;opacity:0.7000000000000001"></path><path d="M87,236.37l-7.13.32a18,18,0,0,1-18.77-17.14h0a21.53,21.53,0,0,1,20.54-22.5h0a21.45,21.45,0,0,1,14.94,5.11c8,0,9.45,6.72,8.51,11.89a9.28,9.28,0,0,1-5.09,6.87C100.4,230.84,96.87,235.92,87,236.37Z" style="fill:#263238"></path><path d="M75.8,192.22c3.26,4.4.13,7.62-4.27,10.88s-8.4,5.33-11.66.93-1.78-9.52,2.62-12.78S72.54,187.82,75.8,192.22Z" style="fill:#263238"></path><path d="M65.3,206.68l-4.41,3.55a2.75,2.75,0,0,1,.32-4A3,3,0,0,1,65.3,206.68Z" style="fill:#263238"></path><path d="M95.29,206.08c2.34,1.24,5.41,6.83,5.67,18.83.23,10.17-2.95,12.83-4.57,13.63s-4.83.51-8,.13l.22,5s5.61,5.27,5.47,8.08-7.07,4.39-11.21,1.84a35,35,0,0,1-7.71-7.15l-.61-14.59s-1.74,1.85-5-.71c-2.66-2.12-3.69-5.85-1.79-8A4.45,4.45,0,0,1,75,224.23s5,0,11.38-4A18.56,18.56,0,0,0,95.29,206.08Z" style="fill:#ffbda7"></path><path d="M89.5,222.88a1.29,1.29,0,0,1-1.14,1.44,1.31,1.31,0,0,1-1.4-1.21,1.3,1.3,0,0,1,1.14-1.44A1.31,1.31,0,0,1,89.5,222.88Z" style="fill:#263238"></path><path d="M90.24,231.47l3,.82a1.53,1.53,0,0,1-1.88,1.15A1.64,1.64,0,0,1,90.24,231.47Z" style="fill:#f0997a"></path><path d="M99.85,218.39l-3.32-1.28a1.7,1.7,0,0,1,2.24-1.05A1.86,1.86,0,0,1,99.85,218.39Z" style="fill:#263238"></path><path d="M99.94,222.13a1.28,1.28,0,1,1-1.4-1.2A1.29,1.29,0,0,1,99.94,222.13Z" style="fill:#263238"></path><path d="M88.44,238.67c-3.29-.28-10.1-1.9-11.27-4.51a6.92,6.92,0,0,0,2.52,3.28c2.08,1.63,8.84,3.26,8.84,3.26Z" style="fill:#f0997a"></path><path d="M82.85,219.27l-10.08,2.91a4.65,4.65,0,0,1,2,1.64l8.2-2.49Z" style="fill:#720F88"></path><path d="M82.85,219.27l-10.08,2.91a4.65,4.65,0,0,1,2,1.64l8.2-2.49Z" style="opacity:0.6000000000000001"></path><path d="M104.32,217.59l-.61,0a17.53,17.53,0,0,0-6.08.67c-1.92.75-2.58,1.48-3.66,1.57s-1.9-.53-4-1a20.11,20.11,0,0,0-6.52.31l-.65.13a1.1,1.1,0,0,0-.68,1.16,2.44,2.44,0,0,0,.68,1.23,1.68,1.68,0,0,1,.23.5,22.55,22.55,0,0,0,.94,3.48,4.29,4.29,0,0,0,.89,1.21,3.68,3.68,0,0,0,.44.34l.25.15a3.67,3.67,0,0,0,.75.3l.12,0,.2,0,.2,0a4.4,4.4,0,0,0,.65.05h.63a4.63,4.63,0,0,0,4.34-3c.61-1.39.36-3.28,1.6-3.37h.22c.92.14.88,1.89,1.51,3.1a4.85,4.85,0,0,0,.93,1.3l.21.2.12.09.12.08.11.08.12.07.09,0,.07,0a3.7,3.7,0,0,0,1.08.35l.1,0a6.2,6.2,0,0,0,1.31,0,3.93,3.93,0,0,0,3.67-2.75,22.83,22.83,0,0,0,.62-3.6,1.17,1.17,0,0,1,.21-.49,2.58,2.58,0,0,0,.51-1.35C105.05,218.1,104.66,217.61,104.32,217.59Zm-12.62,6a4.18,4.18,0,0,1-.85,1.94h0A3.81,3.81,0,0,1,88,226.83a3.13,3.13,0,0,1-2.86-1.14,1.13,1.13,0,0,1-.1-.13.57.57,0,0,1-.08-.13l-.08-.12-.06-.1a.36.36,0,0,1,0-.09l-.05-.08-.06-.13h0a3.73,3.73,0,0,1-.15-.38h0c0-.08,0-.16-.08-.23s-.07-.26-.1-.37a.25.25,0,0,1,0-.07l0-.07c-.25-.92-.57-2.75-.12-3.2a5.25,5.25,0,0,1,3.64-.93H88a9,9,0,0,1,.91.09l.36.06a7.38,7.38,0,0,1,.9.23l.27.09.3.12.06,0,.11,0a1.68,1.68,0,0,1,.62.45A4.3,4.3,0,0,1,91.7,223.6Zm11.59-1.3a4.22,4.22,0,0,1-1.76,3.15,3.35,3.35,0,0,1-1.46.44,3.11,3.11,0,0,1-3-1.17h0a.47.47,0,0,1-.06-.09l-.07-.09,0-.05-.08-.14-.09-.17,0-.08s0,0,0-.05l0-.07s0,0,0-.05a5.27,5.27,0,0,1-.22-.68,4.59,4.59,0,0,1-.05-2.84,5.61,5.61,0,0,1,3.2-1.64,6.52,6.52,0,0,1,.91-.14h.22l.32,0h.52l.46,0,.11,0h0l.07,0,.11,0,.14,0,.22.07h0a1.89,1.89,0,0,1,.5.28C103.61,219.48,103.45,221.35,103.29,222.3Z" style="fill:#720F88"></path><path d="M104.32,217.59l-.61,0a17.53,17.53,0,0,0-6.08.67c-1.92.75-2.58,1.48-3.66,1.57s-1.9-.53-4-1a20.11,20.11,0,0,0-6.52.31l-.65.13a1.1,1.1,0,0,0-.68,1.16,2.44,2.44,0,0,0,.68,1.23,1.68,1.68,0,0,1,.23.5,22.55,22.55,0,0,0,.94,3.48,4.29,4.29,0,0,0,.89,1.21,3.68,3.68,0,0,0,.44.34l.25.15a3.67,3.67,0,0,0,.75.3l.12,0,.2,0,.2,0a4.4,4.4,0,0,0,.65.05h.63a4.63,4.63,0,0,0,4.34-3c.61-1.39.36-3.28,1.6-3.37h.22c.92.14.88,1.89,1.51,3.1a4.85,4.85,0,0,0,.93,1.3l.21.2.12.09.12.08.11.08.12.07.09,0,.07,0a3.7,3.7,0,0,0,1.08.35l.1,0a6.2,6.2,0,0,0,1.31,0,3.93,3.93,0,0,0,3.67-2.75,22.83,22.83,0,0,0,.62-3.6,1.17,1.17,0,0,1,.21-.49,2.58,2.58,0,0,0,.51-1.35C105.05,218.1,104.66,217.61,104.32,217.59Zm-12.62,6a4.18,4.18,0,0,1-.85,1.94h0A3.81,3.81,0,0,1,88,226.83a3.13,3.13,0,0,1-2.86-1.14,1.13,1.13,0,0,1-.1-.13.57.57,0,0,1-.08-.13l-.08-.12-.06-.1a.36.36,0,0,1,0-.09l-.05-.08-.06-.13h0a3.73,3.73,0,0,1-.15-.38h0c0-.08,0-.16-.08-.23s-.07-.26-.1-.37a.25.25,0,0,1,0-.07l0-.07c-.25-.92-.57-2.75-.12-3.2a5.25,5.25,0,0,1,3.64-.93H88a9,9,0,0,1,.91.09l.36.06a7.38,7.38,0,0,1,.9.23l.27.09.3.12.06,0,.11,0a1.68,1.68,0,0,1,.62.45A4.3,4.3,0,0,1,91.7,223.6Zm11.59-1.3a4.22,4.22,0,0,1-1.76,3.15,3.35,3.35,0,0,1-1.46.44,3.11,3.11,0,0,1-3-1.17h0a.47.47,0,0,1-.06-.09l-.07-.09,0-.05-.08-.14-.09-.17,0-.08s0,0,0-.05l0-.07s0,0,0-.05a5.27,5.27,0,0,1-.22-.68,4.59,4.59,0,0,1-.05-2.84,5.61,5.61,0,0,1,3.2-1.64,6.52,6.52,0,0,1,.91-.14h.22l.32,0h.52l.46,0,.11,0h0l.07,0,.11,0,.14,0,.22.07h0a1.89,1.89,0,0,1,.5.28C103.61,219.48,103.45,221.35,103.29,222.3Z" style="opacity:0.4"></path><path d="M93.58,221.6l.58,7,3.66-1.32-3.64-5.85A.94.94,0,0,0,93.58,221.6Z" style="fill:#f0997a"></path><path d="M26.46,348.54l16.21-46.43h5.92l-20,47.25a1.14,1.14,0,0,1-.48.54h0A1.14,1.14,0,0,1,26.46,348.54Z" style="fill:#37474f"></path><path d="M45.26,289.2l45.62,36.22A15,15,0,0,1,96.52,336L101.93,392a.92.92,0,0,1-.46.87h0a.92.92,0,0,1-1.37-.64l-8.93-52.72a15.06,15.06,0,0,0-6.8-10.23L45.45,304.68a12.59,12.59,0,0,1-1.09-20.5Z" style="fill:#455a64"></path><path d="M59.9,302.22a12.82,12.82,0,0,0-1.59,6.32,4.38,4.38,0,0,0,.38,1.93,4.71,4.71,0,0,0,1.57,1.6,72.19,72.19,0,0,0,9.09,5.18c5.87,2.81,12.61,6.09,17.09,7.38Z" style="opacity:0.2"></path><path d="M39.11,324h0a6.69,6.69,0,0,0,2.8,8.45l46.58,26.89a3.64,3.64,0,0,0,5.4-3.75h0l3.58,21.11h0a12.84,12.84,0,0,0-6.15-8.88l-51.78-29.9A5.32,5.32,0,0,0,32,340.41h0Z" style="fill:#37474f"></path><path d="M107.46,329.3a41.55,41.55,0,0,1-4.67-3,1.49,1.49,0,0,1-.63-.73c-.2-.78.73-.7,1.19-.58a26.28,26.28,0,0,0,2.87.74,4.21,4.21,0,0,0,2.88-.45,1.52,1.52,0,0,0,.62-.66.79.79,0,0,0-.11-.86,1.28,1.28,0,0,0-.38-.24c-2.55-1.2-5-2.47-7.63-3.52-4-1.58-8.09-2.55-11.76-4.72a69.36,69.36,0,0,1-8.23-5.91c-3.54-2.86-7-5.87-10.27-9l-1.65-25.66s3.69-5.14,3.31-13.82c-.44-9.84-5.44-13.05-5.44-13.05-10.45,1.94-13,5.43-13.2,17.93-.12,7.92,2,38.57,4,41.56a9.08,9.08,0,0,0,2.51,2c1.61,1.06,3.27,2.05,4.93,3,3.63,2.14,18.87,11.24,20.14,12.29,1,.86,1.8,1.76,3,3,2.24,2.26,3.87,4.61,6.62,6.2s6.52,2.88,9.67,2.44c1.68-.24,4-.79,5.35-1.88,1-.81,2-1.7.84-2.87a5.55,5.55,0,0,0-1.6-1C109,330.13,108.23,329.73,107.46,329.3Z" style="fill:#ffbda7"></path></g></g></svg>