<svg xmlns="http://www.w3.org/2000/svg" viewBox="0 0 500 500"><g id="freepik--Floor--inject-236"><ellipse id="freepik--floor--inject-236" cx="253.91" cy="360.55" rx="226.52" ry="130.78" style="fill:#fafafa"></ellipse></g><g id="freepik--Shadow--inject-236"><ellipse id="freepik--shadow--inject-236" cx="253.91" cy="415.83" rx="75.1" ry="43.36" style="fill:#e0e0e0"></ellipse></g><g id="freepik--Character--inject-236"><g id="freepik--character--inject-236"><g id="freepik--Bottom--inject-236"><g id="freepik--bottom--inject-236"><polygon points="277.73 405.66 281.63 403.26 277.47 402.52 277.73 405.66" style="fill:#263238"></polygon><path d="M319.13,409.28s-50.51-17.12-50.8-13.81a4.88,4.88,0,0,0,.22,1.95l-.15-.16,1.49,6a14.5,14.5,0,0,0,7.84,2.42c0-.29-.17-2.1-.26-3.14a25.37,25.37,0,0,1,4.49,1.85c3.3,1.75,5.65,5.14,9.35,9,2.69,2.8,7.11,3.8,13.53,4.09,6.91.31,12.79-1.57,14.31-3.56C320.36,412.29,319.42,409.68,319.13,409.28Z" style="fill:#263238"></path><path d="M317.68,408.28c-.51-.44-2.42-2.17-5-4-2.22-1.61-4.82-3.66-7.56-5.26a27.31,27.31,0,0,1-3.75-2.52c-.93-.82-1.83-1.68-2.68-2.59a52.23,52.23,0,0,1-6.8-9.32c-.93-1.57-2.18-3.88-2.14-10.69.07-9.86,1.55-20.46,2.43-30.09l-26.92,5.36c1,3.61,3.76,16.65,4.52,20.79,1.16,6.29,2,10.17,1.33,13.13-.45,2-3.31,7.48-3.21,9.48.17,3.27,3,5.82,6,7.14,2.5,1.09,5.28,1.39,7.72,2.57a24,24,0,0,1,6.6,5.32c1.83,1.92,3.38,4.25,5.8,5.49,2.69,1.38,5.16,1.65,8.15,2a42.32,42.32,0,0,0,10.64-.49C317.86,413.68,321.42,411.5,317.68,408.28Z" style="fill:#ffa8a7"></path><path d="M314.56,405c-2.25-1.55-5.45-3.77-9.3-6.25a9.13,9.13,0,0,0-7.43,1.41c-6.82,4.46-7.53,9.91-7.53,9.91a10.42,10.42,0,0,0,6.37,4.56c8.66,2.82,23.41.24,23.18-3.59C319.71,408.61,317.3,406.89,314.56,405ZM271,382.09s-1.77,4.51-2.8,7.09-1,5,.79,7.35a11.17,11.17,0,0,0,7.77,4.23C278.39,393.3,274.08,383.38,271,382.09Z" style="fill:#37474f"></path><path d="M219.68,393c1.27,2.26-.9,10.43-.87,16.32,0,5.36,1,14.74-.88,19.93-2.26,6.17-7.41,11.89-14.9,6.12-3.71-2.85-6.29-8.11-6.28-15.82,0-5.36,2.68-12.3,4.84-18.77,2.52-7.56,3.53-11.61,3.53-11.61Z" style="fill:#263238"></path><path d="M206.33,352.88c-1.12,12.43-.07,21.25-.37,29.23a55.83,55.83,0,0,1-1.66,10.73c-1.29,5-3.42,12-4.33,15.3-1.27,4.56-2.21,7.43-.84,12.67a5.46,5.46,0,0,0,.47,1.19c2,4.37,7.59,7.85,9.44,7.42a3.15,3.15,0,0,0,3.16,1.27l.62-.12a5.79,5.79,0,0,0,.62-.22,6.2,6.2,0,0,0,3.22-3.77,10.54,10.54,0,0,0,.35-1.12c1.63-6.35.86-10.55.86-13.06,0-2.91.34-6.59.82-11.25s2.3-19.29,4.27-26.23c1.45-4.84,3.25-10.91,5.16-17.39Z" style="fill:#ffa8a7"></path><path d="M198.57,414.09c4.6-1.76,17.66-1.43,19.44,5-.23,5.93-.79,11.89-4.41,14.93-6.51,5.47-11.54-.95-13.83-5.68S197.81,417.25,198.57,414.09Z" style="fill:#37474f"></path><path d="M227.79,194.7c-6.89,11-10.24,18.06-13.31,47.83-3.47,33.59-2.75,44.88-3.11,48.94s-3.35,11.39-6.54,31.3-3.14,68.54-3.14,68.54,1.44,3.34,9.12,4.44c7.09,1,11.39-1.26,11.39-1.26s14.34-63.18,17.71-75.1c2.21-7.84,7.31-27.49,10.53-40,2-8.28,3.47-13,3.47-13l5.9,36.07s-1.38,8.88,1.69,27.71c2.86,17.49,9.08,47.49,9.08,47.49s2.19,2.64,8.29,2.56c8.28-.11,12-2.73,12-2.73s3-64.36,2.73-84.29-1.55-69.52-8.29-98.94Z" style="fill:#37474f"></path><path d="M261.11,231.92l-7.2,34.48,5.9,36.07-2.17-36.72,5.56-27.41c4.83-1.22,15.78-7.13,18.7-15.4C274.54,230.78,261.11,231.92,261.11,231.92Zm-36.52,99.7q-3.68,15.4-6.94,30.89,4.48-15.19,8.56-30.48c2.75-10.19,5.38-20.37,8-30.63s4.34-20.71,5.94-31.14,3-20.89,4.18-31.37c-2,10.36-3.92,20.73-5.82,31.1s-3.88,20.71-6.39,30.91S227,321.36,224.59,331.62ZM285,282.33c.35,4.56.76,9.15.82,13.67s-.09,9.14-.19,13.73l-.28,13.76q-.29,13.77-.26,27.56,1.21-13.74,1.93-27.5c.48-9.18.91-18.33.95-27.58-.32-9.29-1.39-18.39-2.5-27.53s-2.52-18.21-4.22-27.25l2.57,27.43C284.2,273.19,284.64,277.76,285,282.33Z" style="fill:#263238"></path></g></g><g id="freepik--Top--inject-236"><path d="M234,81.44c-6.08,3.82-6,9.25-6.07,22.41s.52,49.1.52,49.1h47.14V98.22s4.35-6.1,3.82-12.38S275.15,71.39,263.84,69C254.42,67,236.39,69,234,81.44Z" style="fill:#263238"></path><path d="M271.68,130c10.38.55,34.89,12.31,40.72,15.55,6.34,3.52,18.8,20.1,18.8,20.1s-1.13,5.38-13.64,3.37c-10.5-1.69-30.56-7-30.56-7Z" style="fill:#ffa8a7"></path><path d="M313.46,166.3c-4.47-1.13-10.66-5.8-21.52-27Z" style="fill:#f28f8f"></path><path id="freepik--Chest--inject-236" d="M222.48,205.67c-1.8-3.14,6-14.15,4.69-20.28-1.32-6-4.4-19.55-4.4-19.55s9.07-9.13,6.22-32.6l13.18-3,11-.64,10.3-.85,8.22,1.22c2.95,2.65,9.58,8.75,13.87,15.09,6.2,9.15,7,20.54.35,27.82-.1,1.44-1.21,14.71.35,20.18.62,2.17,3.19,12.22,1.72,15.09C281.47,218.37,243.28,228.59,222.48,205.67Z" style="fill:#e0e0e0"></path><g id="freepik--Head--inject-236"><g id="freepik--head--inject-236"><g id="freepik--head--inject-236"><path d="M239.55,113.72a7,7,0,0,1-6.33-2.45c-3.32-3.69-3.62-7.43-2.05-9.92,1.29-2,4.45-3.33,6.66-1.94s2.42,2.71,3.31,4.39,3.18.38,2.45-6.35c4.6-2.14,3.9-9.84,6.4-13,3.91-4.89,10.3-3.59,12.37-2.42a8.36,8.36,0,0,1,8.72-.51c3.08,1.67,5.11,5.15,6.14,17.11,1,12.19-1.1,20.29-3.93,22.86-1.94,1.77-5.54,3-9.83,2.68v5.08s10.55,14.22-5.22,13c-11.82-.94-16.07-12-16.07-12V111.82S241.9,113.29,239.55,113.72Z" style="fill:#ffa8a7"></path><path d="M265.88,112.35a3.52,3.52,0,1,1-6.63-2.37A19.5,19.5,0,0,1,265.88,112.35Z" style="fill:#b16668"></path><path d="M259.06,111.12a3.51,3.51,0,0,0,2.32,3.36,3.56,3.56,0,0,0,1.23.2A3.56,3.56,0,0,0,259.06,111.12Z" style="fill:#f28f8f"></path><path d="M258.47,99.63a2,2,0,0,1-2.54,1.38,2.09,2.09,0,1,1,2.54-1.38Z" style="fill:#263238"></path><path d="M274.71,92.44l-4.23-2.3a2.3,2.3,0,0,1,3.19-1A2.53,2.53,0,0,1,274.71,92.44Z" style="fill:#263238"></path><path d="M269.79,99.16a2,2,0,0,0,2.59,1.28,2.09,2.09,0,1,0-2.59-1.28Z" style="fill:#263238"></path><path d="M255.54,90.68l-4.29,2.83a2.46,2.46,0,0,1,.64-3.53A2.7,2.7,0,0,1,255.54,90.68Z" style="fill:#263238"></path><path d="M279.94,93.07,279,93c-2.91-.19-6.7-.13-8.94.63-2.81,1-3.76,1.94-5.34,2s-2.82-.84-5.92-1.57c-2.48-.57-6.51-.33-9.59.1l-1,.14a1.44,1.44,0,0,0-1,1.58,3.58,3.58,0,0,0,1,1.76,2.43,2.43,0,0,1,.36.71c.4,1.23.75,3.61,1.47,4.91a6.42,6.42,0,0,0,1.33,1.73,4.58,4.58,0,0,0,.66.5,3.44,3.44,0,0,0,.38.22,5.87,5.87,0,0,0,1.1.46l.18,0,.29.07.31.06a8.76,8.76,0,0,0,1,.11h.91c3.94-.14,5.47-2,6.33-3.94s.45-4.56,2.26-4.62h.18l.16,0c1.36.25,1.34,2.69,2.29,4.41a7.51,7.51,0,0,0,1.4,1.86c.11.1.21.2.33.29a1.09,1.09,0,0,0,.17.13l.18.13.16.11.18.1.14.08.09,0a6.09,6.09,0,0,0,1.61.55l.14,0a9,9,0,0,0,1.93.11c3.68-.16,4.82-2.3,5.34-3.65a30.44,30.44,0,0,0,.82-5,1.54,1.54,0,0,1,.3-.67,3.25,3.25,0,0,0,.72-1.86A1.56,1.56,0,0,0,279.94,93.07Zm-18.44,7.74a5.37,5.37,0,0,1-1.2,2.67h0a5.51,5.51,0,0,1-4.2,1.66,5,5,0,0,1-4.23-1.75c-.06-.06-.1-.12-.15-.18l-.13-.18a1,1,0,0,1-.11-.17l-.09-.15-.07-.13a.24.24,0,0,1-.06-.11,1.62,1.62,0,0,1-.1-.18h0c-.09-.19-.17-.37-.24-.55h0l-.12-.32c-.06-.19-.12-.37-.16-.53l0-.1,0-.1c-.39-1.3-.9-3.86-.26-4.47s2.39-1.28,5.33-1.11H256c.45,0,.9.09,1.35.17l.52.11a11.66,11.66,0,0,1,1.33.36l.41.14.44.19.09,0,.17.08a2.67,2.67,0,0,1,.91.65C261.82,97.63,261.75,99.34,261.5,100.81Zm17-1.22c-.16,1-.51,3.26-2.51,4.31a5.12,5.12,0,0,1-2.14.55,5,5,0,0,1-4.5-1.8,0,0,0,0,1,0,0l-.09-.11-.1-.14-.05-.07-.12-.21a1.71,1.71,0,0,1-.13-.23.67.67,0,0,1-.06-.12l0-.06a.93.93,0,0,1-.05-.1l0-.08a5.61,5.61,0,0,1-.34-1c-.39-1.45-.66-3.15-.15-4s2.6-1.8,4.67-2.13c.47-.08.92-.12,1.34-.15h1l.23,0,.36,0a6.81,6.81,0,0,1,.69.09l.16,0h0l.11,0,.16,0,.2,0,.33.11a.11.11,0,0,0,.06,0,2.9,2.9,0,0,1,.74.42C279,95.67,278.75,98.27,278.54,99.59Z" style="fill:#37474f"></path><path d="M270.48,104.84,264,107.3l-.76-6.88c.26-1.28.48-2.39,1.58-2.49Z" style="fill:#f28f8f"></path><path d="M248.16,94.54l-10.33,4.87a12.18,12.18,0,0,1,1.58,1.29l9-4Z" style="fill:#37474f"></path></g></g><path d="M263.46,124.21c-6.17-.26-14.43-2.5-16.63-6.5,1.21,4.3,5.55,6.55,9,7.54a35.81,35.81,0,0,0,7.56,1.35Z" style="fill:#f28f8f"></path></g><path d="M288.34,113.86s-.58-.21-.86-1.37-.27-2-.56-3.26-1.08-3.41-2.31-3.51-1.54,2.72-1.34,5a10.06,10.06,0,0,1-.91,6.23c-1.22,2.68-2.12,6-.3,8.71Z" style="fill:#f28f8f"></path><path d="M295.89,108.59c-.89-2.11-1.11-4.86-1.52-6.57a19,19,0,0,0-2-4.78c-.9-1.65-1.69-3.85-2.33-4s-1.62.65-1.42,2c0,0-.92-.92-1.73-1.89s-1.42-2.22-2.42-2.34-1.3,1.48-.83,2.52.8,1.64.8,1.64-.91.54.15,2.39a10.06,10.06,0,0,0,1.58,2,9.39,9.39,0,0,0,1.5,3.33,18.45,18.45,0,0,0,1.7,3.63,10.47,10.47,0,0,0-.7,4.16c.21,1.78.54,2.16-1.27,4.53-1.22,1.59-3.39,3.5-4.47,5.63s-1.72,4.32.25,6.7,3.48,4.09,5.36,6.62c1.42,1.91,2.91,4.48,9,13.6,4.7,7.08,5.12,8,7.3,10.5,3,3.51,6.6,8.11,13.57,10s14.5.09,12.85-5.35c-2-6.52-4.55-11.51-8-14.73a70.73,70.73,0,0,0-9-7.17c-3.61-2.64-6.5-5.48-11-9.31s-7.69-7.63-7.85-9.08c-.27-2.46.43-6.15.76-8C296.68,111.75,297.13,111.8,295.89,108.59Z" style="fill:#ffa8a7"></path><path d="M282.06,125.62a13,13,0,0,0,2.37,3.31c.86,1.07,1.72,2.14,2.54,3.23s1.67,2.18,2.47,3.3,1.72,2.75,2.5,3.88c-.88-1.05-1.86-2.65-2.71-3.73s-1.68-2.16-2.53-3.24l-2.51-3.25-1.26-1.63A4.92,4.92,0,0,1,282.06,125.62Z" style="fill:#f28f8f"></path><path d="M288.6,95.25a10.9,10.9,0,0,0,.71,1.72c.28.55.59,1.09.9,1.6l.05.08v.12a5.54,5.54,0,0,0,0,1,6.5,6.5,0,0,0,.18,1,6.31,6.31,0,0,0,.8,1.82l.09.14-.05.13a5,5,0,0,0-.19.74,6.37,6.37,0,0,0-.11.78c0,.26,0,.53,0,.79a7.4,7.4,0,0,0,.08.81,4.38,4.38,0,0,1-.44-1.6,4.81,4.81,0,0,1,0-.85,5.26,5.26,0,0,1,.12-.85l.05.26a5.55,5.55,0,0,1-1-2,5.79,5.79,0,0,1-.19-1.09,4.75,4.75,0,0,1,0-1.13l.05.2a9.79,9.79,0,0,1-.75-1.77A6.39,6.39,0,0,1,288.6,95.25Z" style="fill:#f28f8f"></path><path d="M284.42,95.18a5.9,5.9,0,0,0,.75.75,7.63,7.63,0,0,0,.86.58l.05,0,0,.1a9,9,0,0,0,1.07,1.94,6,6,0,0,0,1.57,1.48l.19.12,0,.23a6.14,6.14,0,0,0,0,1.21,10.47,10.47,0,0,0,.19,1.25c.1.41.21.83.35,1.23s.32.81.48,1.22a8.47,8.47,0,0,1-.76-1.09,7.39,7.39,0,0,1-.56-1.21,6.71,6.71,0,0,1-.33-1.32,4.9,4.9,0,0,1-.07-1.39l.17.34a5.1,5.1,0,0,1-1-.75,6.32,6.32,0,0,1-.77-.94,6.74,6.74,0,0,1-1-2.2l.1.13a4.56,4.56,0,0,1-.8-.78A4.08,4.08,0,0,1,284.42,95.18Z" style="fill:#f28f8f"></path><path d="M290.14,108.89a5.28,5.28,0,0,1-.34,2.36,7.32,7.32,0,0,1-1.2,2.06c.13-.38.29-.74.44-1.1l.43-1.08A20,20,0,0,0,290.14,108.89Z" style="fill:#f28f8f"></path><path d="M284.36,118.6a9.86,9.86,0,0,0,0,4.22,7.79,7.79,0,0,0,.75,1.94,15.22,15.22,0,0,0,1.18,1.82,6,6,0,0,1-1.65-1.52,5.67,5.67,0,0,1-1-2.08A5.77,5.77,0,0,1,284.36,118.6Z" style="fill:#f28f8f"></path><g id="freepik--Arm--inject-236"><path d="M211.61,232.19c-1.25-1.65-2.91-3.15-3.29-5.27a3.51,3.51,0,0,1,.79-3.09,1.43,1.43,0,0,0,.42-.53,1.22,1.22,0,0,0,0-.57,3.76,3.76,0,0,1,.37-2.32,2.44,2.44,0,0,1,1.61-1.13,5.64,5.64,0,0,1,.36-3.53c.59-1.3,2.07-2.24,2.84-.65a13,13,0,0,1,.83,2.44,28,28,0,0,1,.75,6.39c0,2.24,0,8.57-3.5,8.55C212.55,232.47,211.79,232.42,211.61,232.19Z" style="fill:#f28f8f"></path><path d="M230.33,132.94c-11,2.35-14.22,4.4-20.72,14-7.47,11-17.67,24.12-20.63,29.17-3.65,6.26-4.53,8.71,1.82,16.33,3.27,3.92,7.9,8.67,12.57,14,3.68,4.19,8.17,8.68,11.71,13a3.61,3.61,0,0,1,.89,3.73,24.36,24.36,0,0,0-.95,2.59,22,22,0,0,0,0,3.54,3.09,3.09,0,0,1-1.67,2.89,3.37,3.37,0,0,1-1.7.05,12.15,12.15,0,0,0,3.07,2.06,5,5,0,0,0,3.61.22c1.13-.42,2-1.37,3.21-1.61.64-.12,1.3,0,1.94-.14a3.08,3.08,0,0,0,1.73-.91c.73-.76,1.12-1.92,2.09-2.34a12,12,0,0,1,1.47-.33,3.21,3.21,0,0,0,2-2.2,8.79,8.79,0,0,0,.22-3.07,78.71,78.71,0,0,0-.91-8.26A8.12,8.12,0,0,0,229,213c-.54-1-1-1.93-1.63-2.84-4-6.22-16.62-26.89-16.62-26.89l19-21.38S239.17,143.51,230.33,132.94Z" style="fill:#ffa8a7"></path><path d="M210.7,183.26c-4.39,3.57-10.66,3.3-12.95,2.94,5.24,4.06,14.09-1.08,14.09-1.08Z" style="fill:#f28f8f"></path></g></g></g></g><g id="freepik--dark-speech-bubbles--inject-236"><g id="freepik--speech-bubble--inject-236"><g id="freepik--Bubble--inject-236"><path d="M339.43,285.46c5.39-3.06,12.81-2.59,21,2.14,16.47,9.51,29.83,32.65,29.83,51.67,0,9.51-3.33,16.18-8.73,19.3-2.24,1.3-7.94,4.57-10.19,5.86-5.4,3.11-12.84,2.66-21.07-2.09-16.48-9.51-29.83-32.65-29.83-51.67,0-9.49,3.32-16.16,8.69-19.28C331.38,290.08,337.15,286.76,339.43,285.46Z" style="fill:#37474f"></path><path d="M389.16,329.38a48,48,0,0,1,1.1,9.89c0,9.51-3.33,16.18-8.73,19.3-2.24,1.3-7.94,4.57-10.19,5.86-5.4,3.11-12.84,2.66-21.07-2.09a48,48,0,0,1-8-5.88Z" style="fill:#263238"></path><path d="M329.16,340.05c-5.39-9.35-8.72-19.88-8.72-29.38,0-19,13.35-26.74,29.83-17.23s29.83,32.65,29.83,51.67-13.35,26.74-29.83,17.23a51.72,51.72,0,0,1-11.65-9.45l-12.17,2.22a2,2,0,0,1-2.23-2.71Z" style="fill:#455a64"></path></g><path d="M349.84,342.09c-2.49-1.44-4,.43-4,3a9.44,9.44,0,0,0,4,7.63c2.49,1.44,4-.43,4-3A9.44,9.44,0,0,0,349.84,342.09Zm.51-37.34c-4.37-2.53-8.25-1.53-10.32,3.07a2.46,2.46,0,0,0,.22,2.4l3.92,5.73c.74,1.08,1.56,1,1.86.44.88-1.72,2.17-2.56,4.07-1.46a6.28,6.28,0,0,1,3.18,5.68c0,5.83-6.88,4.83-6.88,12.58v1.6a2.38,2.38,0,0,0,1.18,2l4.39,2.53a.87.87,0,0,0,1.31-.75v-1.46c0-4.56,6.88-3.64,6.88-13.5C360.16,315.05,355.26,307.58,350.35,304.75Z" style="fill:#fafafa"></path></g><g id="freepik--speech-bubble--inject-236"><path d="M187.4,273l-5.22,4.87L179.36,272a27.15,27.15,0,0,0,4.29-16.68,27.53,27.53,0,1,0-12.26,24.74l10,6.5,5.22-6.39,8,7.54Z" style="fill:#fff"></path><path d="M165.7,244.08l-9.53,18.33a1.62,1.62,0,0,1-1.43.87h-2.5a1.6,1.6,0,0,1-1.56-2l4.7-18.8a2.28,2.28,0,0,1,2.22-1.72h6.07A2.27,2.27,0,0,1,165.7,244.08Zm-10,25.62a4.24,4.24,0,1,1-4.23-4.21A4.23,4.23,0,0,1,155.74,269.7Z" style="fill:#455a64"></path><path d="M197.1,291.09l-10.45-9.81-5.14,6.28L171.39,281a28.5,28.5,0,0,1-13.28,4.37,28.19,28.19,0,0,1-20.54-6.83,27.85,27.85,0,0,1-9.66-19.28A28.36,28.36,0,0,1,174.75,236a28.05,28.05,0,0,1,5.47,36.07l2.19,4.59,5.22-4.86Zm-25.71-11.91,9.82,6.39,5.3-6.48,5.62,5.27-5-10.09-5.23,4.87L178.51,272l.22-.35a26.52,26.52,0,0,0-5-34.48,26.85,26.85,0,0,0-44.36,22,26.38,26.38,0,0,0,9.14,18.25A26.74,26.74,0,0,0,158,283.85a27.09,27.09,0,0,0,13-4.4Z" style="fill:#455a64"></path></g><g id="freepik--speech-bubble--inject-236"><g id="freepik--speech-bubble--inject-236"><polygon points="178.47 125.27 174.22 120.57 176.87 112.91 176.87 108.23 168.75 112.91 168.75 117.6 171.54 121.27 178.47 125.27" style="fill:#263238"></polygon><path d="M194.84,51a5.39,5.39,0,0,0-2.43-4.22l-2-1.14a5.36,5.36,0,0,0-4.87,0l-30.4,17.58a5.37,5.37,0,0,0-2.44,4.22V122a5.43,5.43,0,0,0,2.44,4.22l2,1.14a5.42,5.42,0,0,0,4.87,0l11.84-6.83a13.63,13.63,0,0,0,8,6.23A1.19,1.19,0,0,0,183.2,125a11.92,11.92,0,0,1-1.24-9.13l10.45-6.06a5.4,5.4,0,0,0,2.43-4.22Z" style="fill:#37474f"></path><path d="M152.72,122a5.39,5.39,0,0,0,2.44,4.22l2,1.14a5.46,5.46,0,0,0,4.45.2c-1.14.43-2-.22-2-1.61V71.4a5,5,0,0,1,.72-2.4l-6.86-4a5,5,0,0,0-.71,2.4Z" style="fill:#263238"></path><path d="M194.76,50.32c-.28-1-1.22-1.37-2.35-.72L162,67.19A4.73,4.73,0,0,0,160.29,69l-6.85-4a4.85,4.85,0,0,1,1.72-1.81l30.39-17.59a5.42,5.42,0,0,1,4.87,0l2,1.15A5.33,5.33,0,0,1,194.76,50.32Z" style="fill:#455a64"></path></g><path d="M172.64,89a1.4,1.4,0,0,1-.12.62.94.94,0,0,1-.34.46l-2.44,1.6a.3.3,0,0,1-.37,0,.53.53,0,0,1-.18-.43l-.37-5.89-5-8.94a.71.71,0,0,1-.1-.31,1,1,0,0,1,.1-.51.69.69,0,0,1,.28-.37l2.55-1.68q.38-.24.57-.09a.66.66,0,0,1,.25.27L170.21,79l1.95-8.37a3,3,0,0,1,.19-.56,1.51,1.51,0,0,1,.55-.65l2.55-1.67a.23.23,0,0,1,.3,0,.46.46,0,0,1,.15.35,1.83,1.83,0,0,1-.06.41l-3.57,14.59Z" style="fill:#fafafa"></path><path d="M185.57,76.18a.24.24,0,0,1,.33.08.72.72,0,0,1,.1.51l-.3,3.2a1.7,1.7,0,0,1-.2.64.92.92,0,0,1-.38.4l-8.79,3.92a.25.25,0,0,1-.33-.08.72.72,0,0,1-.1-.51l1.82-19.5a1.6,1.6,0,0,1,.2-.64.87.87,0,0,1,.38-.4l8.64-3.86a.25.25,0,0,1,.33.08.72.72,0,0,1,.1.51l-.3,3.2a1.65,1.65,0,0,1-.2.64.87.87,0,0,1-.38.4l-5.71,2.55-.31,3.26,5.31-2.37a.24.24,0,0,1,.33.09.75.75,0,0,1,.1.51l-.3,3.2a1.6,1.6,0,0,1-.2.63.87.87,0,0,1-.38.4L180,75.41l-.31,3.38Z" style="fill:#fafafa"></path><path d="M176,91.87a.25.25,0,0,1,.33.08.72.72,0,0,1,.1.51l-1.66,19.43a1.54,1.54,0,0,1-.2.64.86.86,0,0,1-.37.4L171.81,114a.25.25,0,0,1-.34-.08.8.8,0,0,1-.1-.5l.63-7.37L167.88,108l-.63,7.37a1.54,1.54,0,0,1-.2.64.86.86,0,0,1-.37.4l-2.43,1.11a.27.27,0,0,1-.34-.06.72.72,0,0,1-.09-.52l1.66-19.43a1.48,1.48,0,0,1,.19-.64.87.87,0,0,1,.38-.4l2.43-1.12a.25.25,0,0,1,.33.08.71.71,0,0,1,.1.51l-.62,7.24,4.13-1.88L173,94a1.7,1.7,0,0,1,.2-.64.82.82,0,0,1,.38-.4Z" style="fill:#fafafa"></path><path d="M183.43,84.87c.25-.19.45-.23.61-.14a1,1,0,0,1,.35.38l6.44,13.45a1.51,1.51,0,0,1,.13.34,1.12,1.12,0,0,1-.06.5.85.85,0,0,1-.26.38l-2.33,1.76c-.24.19-.43.25-.56.18a.54.54,0,0,1-.25-.29l-.84-1.78-4.91,3.72-.19,2.56a1.92,1.92,0,0,1-.14.58,1.34,1.34,0,0,1-.49.62l-2.32,1.76a.28.28,0,0,1-.31,0,.4.4,0,0,1-.18-.32,1.74,1.74,0,0,1,0-.45l1.61-19.54a3.31,3.31,0,0,1,.18-.78,1.56,1.56,0,0,1,.52-.72Zm-1.31,13.71,3-2.26-2.42-5.16Z" style="fill:#fafafa"></path></g><g id="freepik--speech-bubble--inject-236"><g id="freepik--speech-bubble--inject-236"><path d="M460.65,199.7c-1.34,10.93-6.57,17.16-13.23,20.34l-6.37-3.68a16.2,16.2,0,0,0,3.13-7.16,21.64,21.64,0,0,0,.16-7.43l9.94-5.75C453.87,199.48,460.65,199.7,460.65,199.7Z" style="fill:#263238"></path><path d="M475.78,137.76v49.68a6.59,6.59,0,0,1-3,5.18l-12.15,7.08c-1.34,10.93-6.57,17.16-13.23,20.34,3.66-4.56,3.84-11.26,3.29-14.59l-6.53,3.75-8.68,5a6.61,6.61,0,0,1-6,0l-2.44-1.41a6.62,6.62,0,0,1-3-5.18V157.93a6.6,6.6,0,0,1,3-5.17l37.29-21.57a6.61,6.61,0,0,1,6,0l2.44,1.4A6.61,6.61,0,0,1,475.78,137.76Z" style="fill:#37474f"></path><path d="M424.11,207.61a6.59,6.59,0,0,0,3,5.18l2.43,1.4a6.68,6.68,0,0,0,5.47.24c-1.41.54-2.48-.26-2.48-2V162.79a6.13,6.13,0,0,1,.88-2.95L425,155a6.11,6.11,0,0,0-.87,2.94Z" style="fill:#263238"></path><path d="M475.69,136.92c-.35-1.27-1.51-1.68-2.89-.88l-37.3,21.58a5.91,5.91,0,0,0-2.11,2.23L425,155a6,6,0,0,1,2.1-2.23l37.3-21.58a6.61,6.61,0,0,1,6,0l2.44,1.41A6.59,6.59,0,0,1,475.69,136.92Z" style="fill:#455a64"></path></g><g id="freepik--Check--inject-236"><path d="M452,193.51a1.72,1.72,0,0,1-2.25-.2l-7-7.45c-1.17-1.24-1.49-3.21-.25-5.72s3.06-3.28,4.23-2l4.53,4.84,11.26-28.45c1.05-2.66,3-4.13,4.33-3.28s1.56,3.7.51,6.37l-13,32.74a6.5,6.5,0,0,1-2.29,3.12A.57.57,0,0,1,452,193.51Z" style="fill:#fafafa"></path></g></g><g id="freepik--speech-bubble--inject-236"><path d="M396.34,214.31a7.45,7.45,0,0,0-11-6.52,17,17,0,0,0-24-9.81,7.44,7.44,0,0,0-14.63-1.93,13.89,13.89,0,0,0-7.59-2.24,14,14,0,0,0-13.89,12.06,7.33,7.33,0,0,0-1.41-.14,7.45,7.45,0,0,0-7.45,7.45,13.29,13.29,0,0,0,1.15,4.09,9.51,9.51,0,0,0,5.93,16.93,9.18,9.18,0,0,0,1.67-.16,10.29,10.29,0,0,1,.76,3.08,7.45,7.45,0,0,0,13.53,4.3,17,17,0,0,0,30.17-2,7.45,7.45,0,0,0,14-3.58c0-.16,0-.31,0-.47a10.81,10.81,0,0,0,10-10.76,10.93,10.93,0,0,0-.73-3.89A7.45,7.45,0,0,0,396.34,214.31Z" style="fill:#fff"></path><path d="M388.89,205.27a9.11,9.11,0,0,0-2.7.41,18.56,18.56,0,0,0-23.58-10,9,9,0,0,0-16.72-1.9,15.59,15.59,0,0,0-21.78,9.73c-.06.17-.12.38-.19.64h-.12a9.06,9.06,0,0,0-9.05,9,11.38,11.38,0,0,0,.87,3.63,11.1,11.1,0,0,0,7.81,19c.2,0,.39,0,.58,0a5.61,5.61,0,0,1,.26,1.36A9,9,0,0,0,339.2,244a18.3,18.3,0,0,0,6.49,5.36,18.62,18.62,0,0,0,24.14-7A9,9,0,0,0,385,237.14a8.58,8.58,0,0,0,.1-1.35c0-.24,0-.47,0-.71a9.4,9.4,0,0,1-1.59.25,2.32,2.32,0,0,1,0,.46,7.91,7.91,0,0,1-.16,1.55,7.44,7.44,0,0,1-13,3.21,16.21,16.21,0,0,0,.48-6.35,15.56,15.56,0,0,1-1.31,5.17h0a17,17,0,0,1-30.17,2s-.32-.7-.68-1.7a20.39,20.39,0,0,1-1-3.51,12.09,12.09,0,0,0,.76,6.22,7.43,7.43,0,0,1-12.65-5.31,10.36,10.36,0,0,0-.76-3.08,9.18,9.18,0,0,1-1.67.16,9.51,9.51,0,0,1-5.93-16.93,13,13,0,0,1-1.16-4.09,7.44,7.44,0,0,1,7.42-7.44,11.31,11.31,0,0,0,1.65,5.14,13,13,0,0,1-.2-5h0A14,14,0,0,1,346.69,196h0a18.86,18.86,0,0,1,3.7,3.37c0-.24-.46-2.2-3.23-4.63a7.44,7.44,0,0,1,14,1.81,9.85,9.85,0,0,0-3.08,4.08,12,12,0,0,1,3.22-2.7,17,17,0,0,1,24,9.81,7.45,7.45,0,0,1,9.09,11.55,7,7,0,0,1-1.62,1.33,10.43,10.43,0,0,1,.48,1.56A8.88,8.88,0,0,0,395,221a9,9,0,0,0-6.09-15.72Z" style="fill:#455a64"></path><path d="M350.77,249.85c1.31,2.07-.42,7.76-6.11,7.48,7.63,2.07,13.35-3.33,13.67-7.93C358.33,249.4,356.5,250.31,350.77,249.85Z" style="fill:#455a64"></path><path d="M395,221a11.58,11.58,0,0,0-.6-1.65,7,7,0,0,1-1.62,1.33,10.43,10.43,0,0,1,.48,1.56,11.16,11.16,0,0,1,.25,2.33,10.8,10.8,0,0,1-8.38,10.52,9.4,9.4,0,0,1-1.59.25,2.32,2.32,0,0,1,0,.46,7.91,7.91,0,0,1-.16,1.55,11.27,11.27,0,0,0,1.65-.2A12.79,12.79,0,0,0,395,221Z" style="fill:#455a64"></path><path d="M347.66,213.55l-2.82,16.69-6.84.15-1.47-8.65-1.47,8-6.85.24-2.84-16.45,6-.53,1.2,10,1.61-10h4.7l1.88,10.12,1-10.12Z" style="fill:#455a64"></path><path d="M362.76,221.76a9.25,9.25,0,0,1-.25,2.12,8.78,8.78,0,0,1-.73,1.91,8.47,8.47,0,0,1-1.16,1.63,7.3,7.3,0,0,1-3.38,2.09,7.69,7.69,0,0,1-7.57-2,7.59,7.59,0,0,1-1.18-1.57,8.29,8.29,0,0,1-.76-1.84,7.81,7.81,0,0,1-.27-2.06,8.37,8.37,0,0,1,.26-2.06,8.15,8.15,0,0,1,1.87-3.53,7.48,7.48,0,0,1,1.52-1.29,7.12,7.12,0,0,1,1.81-.84,6.67,6.67,0,0,1,2.06-.31,8.77,8.77,0,0,1,3.18.55,6.7,6.7,0,0,1,4,4A8.7,8.7,0,0,1,362.76,221.76Zm-5.35.32a3.43,3.43,0,0,0-.15-1,3,3,0,0,0-.44-.87,2.25,2.25,0,0,0-.72-.61,2,2,0,0,0-1-.24,2.34,2.34,0,0,0-1,.21,2.24,2.24,0,0,0-.76.56,2.31,2.31,0,0,0-.49.83,3.06,3.06,0,0,0-.17,1,4,4,0,0,0,.14,1,3,3,0,0,0,.44.91,2.2,2.2,0,0,0,.72.67,2,2,0,0,0,1,.25,2.42,2.42,0,0,0,1-.22,2.25,2.25,0,0,0,.76-.61,2.63,2.63,0,0,0,.48-.87A3,3,0,0,0,357.41,222.08Z" style="fill:#455a64"></path><path d="M384.91,213.55l-2.82,16.69-6.84.15-1.47-8.65-1.47,8-6.84.24-2.84-16.45,6-.53,1.21,10,1.61-10h4.7L378,223.14,379,213Z" style="fill:#455a64"></path></g></g><g id="freepik--color-speech-bubbles--inject-236"><g id="freepik--speech-bubble--inject-236"><g id="freepik--speech-bubble--inject-236"><path d="M69.67,319.66l-3.37-6.32L69,305.52v-4.78l-8.28,4.78v4.78l3.56,6.17a.46.46,0,0,0,.24.22h0Z" style="fill:#720F88"></path><path d="M69.67,319.66l-3.37-6.32L69,305.52v-4.78l-8.28,4.78v4.78l3.56,6.17a.46.46,0,0,0,.24.22h0Z" style="opacity:0.2"></path><path d="M89.46,262.71A5.48,5.48,0,0,0,87,258.4l-2-1.17a5.51,5.51,0,0,0-5,0L49,275.18a5.47,5.47,0,0,0-2.48,4.3v34.13a5.47,5.47,0,0,0,2.48,4.3l2,1.17a5.51,5.51,0,0,0,5,0l10-5.76,3.55,6.16a.53.53,0,0,0,1-.1l3.76-10.84L87,301.14a5.47,5.47,0,0,0,2.49-4.3Z" style="fill:#720F88"></path><path d="M46.48,313.61a5.47,5.47,0,0,0,2.48,4.3l2,1.17a5.54,5.54,0,0,0,4.55.2c-1.17.44-2.06-.22-2.06-1.63V283.52a5.16,5.16,0,0,1,.72-2.45l-7-4a5.08,5.08,0,0,0-.72,2.45Z" style="opacity:0.2"></path><path d="M89.38,262c-.29-1.06-1.26-1.39-2.4-.73l-31,18a4.89,4.89,0,0,0-1.75,1.85l-7-4A5.08,5.08,0,0,1,49,275.18l31-17.94a5.51,5.51,0,0,1,5,0l2,1.17A5.5,5.5,0,0,1,89.38,262Z" style="fill:#fff;opacity:0.30000000000000004"></path></g><path id="freepik--Heart--inject-236" d="M71,303c-10.66-2.57-11.5-11.41-8.38-17.75,2.79-5.68,7.88-5.9,8.43-.38.58-6.17,5.68-11.78,8.45-9.28C82.64,278.41,81.75,288.23,71,303Z" style="fill:#fff"></path></g><g id="freepik--speech-bubble--inject-236"><g id="freepik--bubble--inject-236"><path d="M88.37,63.21C82.68,60,74.84,60.47,66.19,65.46,48.78,75.51,34.66,100,34.66,120.06c0,10,3.53,17.1,9.23,20.39l10.77,6.2c5.7,3.28,13.57,2.8,22.26-2.22,17.41-10.05,31.52-34.49,31.52-54.59,0-10-3.51-17.07-9.18-20.37C96.88,68.08,90.78,64.57,88.37,63.21Z" style="fill:#720F88"></path><path d="M35.82,109.61a50.75,50.75,0,0,0-1.16,10.45c0,10,3.53,17.1,9.23,20.39l10.77,6.2c5.7,3.28,13.57,2.8,22.26-2.22a50.31,50.31,0,0,0,8.45-6.21Z" style="opacity:0.15"></path><path d="M99.22,120.88c5.7-9.87,9.22-21,9.22-31,0-20.11-14.11-28.25-31.52-18.2S45.4,106.13,45.4,126.23s14.11,28.25,31.52,18.2a54.46,54.46,0,0,0,12.31-10l12.86,2.35a2.12,2.12,0,0,0,2.35-2.87Z" style="fill:#720F88"></path><path d="M99.22,120.88c5.7-9.87,9.22-21,9.22-31,0-20.11-14.11-28.25-31.52-18.2S45.4,106.13,45.4,126.23s14.11,28.25,31.52,18.2a54.46,54.46,0,0,0,12.31-10l12.86,2.35a2.12,2.12,0,0,0,2.35-2.87Z" style="fill:#fff;opacity:0.35000000000000003"></path></g><g id="freepik--Alert--inject-236"><path d="M79.44,117.64,75.31,120a.89.89,0,0,1-1.45-.78L72.19,88.31A2.78,2.78,0,0,1,73.46,86l7.83-4.52c.75-.44,1.32-.09,1.27.78l-1.68,33.07A3.19,3.19,0,0,1,79.44,117.64Z" style="fill:#fafafa"></path><path d="M77.37,134.29c-2.63,1.52-4.21-.45-4.21-3.19A10,10,0,0,1,77.37,123c2.64-1.52,4.22.45,4.22,3.19A10,10,0,0,1,77.37,134.29Z" style="fill:#fafafa"></path></g></g><g id="freepik--speech-bubble--inject-236"><g id="freepik--speech-bubble--inject-236"><path d="M436.61,324.88l3.79-7.14-3-8.82v-5.4l9.35,5.4v5.4l-4,7a.61.61,0,0,1-.28.25h0Z" style="fill:#720F88"></path><path d="M436.61,324.88l3.79-7.14-3-8.82v-5.4l9.35,5.4v5.4l-4,7a.61.61,0,0,1-.28.25h0Z" style="opacity:0.2"></path><path d="M414.28,260.61a6.2,6.2,0,0,1,2.8-4.86l2.28-1.31a6.17,6.17,0,0,1,5.61,0l35,20.24a6.21,6.21,0,0,1,2.81,4.86v38.51a6.21,6.21,0,0,1-2.81,4.86l-2.28,1.32a6.23,6.23,0,0,1-5.61,0l-11.25-6.51-4,6.95a.6.6,0,0,1-1.08-.1l-4.24-12.24L417.08,304a6.19,6.19,0,0,1-2.8-4.86Z" style="fill:#720F88"></path><path d="M462.78,318.05a6.21,6.21,0,0,1-2.81,4.86l-2.28,1.32a6.31,6.31,0,0,1-5.13.22c1.32.5,2.33-.24,2.33-1.84V284.09a5.82,5.82,0,0,0-.82-2.76l7.89-4.55a5.75,5.75,0,0,1,.82,2.76Z" style="opacity:0.2"></path><path d="M414.37,259.81c.33-1.19,1.41-1.57,2.71-.82l35,20.25a5.53,5.53,0,0,1,2,2.09l7.89-4.55a5.63,5.63,0,0,0-2-2.09l-35-20.25a6.23,6.23,0,0,0-5.61,0l-2.28,1.32A6.15,6.15,0,0,0,414.37,259.81Z" style="fill:#fff;opacity:0.30000000000000004"></path></g><g id="freepik--Like--inject-236"><path d="M447.07,304.18a1.42,1.42,0,0,1-2.05,1.29,8.31,8.31,0,0,1,.3,2.12c0,1.33-1.1,2-2.7,1.09l-12.16-7v-15.9a47.85,47.85,0,0,0,3.65-4.5c.31-.73,0-5,0-5.7,0-.59,2,.27,3.26,2.35a6.78,6.78,0,0,1,.72,1.61,20.92,20.92,0,0,1,.73,3.38,11.08,11.08,0,0,1-.25,4.23l7.35,4.25a3.87,3.87,0,0,1,1.42,1.45,5.14,5.14,0,0,1,.77,2.47c0,1.43-.78,1.76-1.18,1.8a4.55,4.55,0,0,1,1.46,3.21c0,1.12-.68,1.92-1.79,1.54A5.47,5.47,0,0,1,447.07,304.18Z" style="fill:#fafafa"></path><path d="M423.4,282l0,17.14a1.3,1.3,0,0,0,.59,1l4.1,2.37c.33.19.6,0,.6-.34V285a1.32,1.32,0,0,0-.6-1l-4.12-2.4C423.66,281.42,423.4,281.57,423.4,282Z" style="fill:#fafafa"></path></g></g><g id="freepik--speech-bubble--inject-236"><g id="freepik--speech-bubble--inject-236"><path d="M391.83,103.91,332,69.27a7.48,7.48,0,0,0-6.77,0l-.74.45a7.48,7.48,0,0,0-3.39,5.86v31.93c0,2.16,0,3.9,3.07,5.64L384.32,148a7.48,7.48,0,0,0,6.77,0l.74-.45a7.47,7.47,0,0,0,3.38-5.86V109.77A7.47,7.47,0,0,0,391.83,103.91Z" style="fill:#fafafa"></path><path d="M324.69,123.86c3.06-1.46,6.46-5.24,6.46-9.16l9.39,5.51a16.52,16.52,0,0,1-15.65,5.27A.86.86,0,0,1,324.69,123.86Z" style="fill:#fafafa"></path><path d="M321.19,74.62c.4-1.44,1.71-1.9,3.27-1l59.86,34.65a6.7,6.7,0,0,1,2.38,2.53l7.51-4.35a6.85,6.85,0,0,0-2.38-2.53L332,69.27a7.54,7.54,0,0,0-6.77,0l-.75.45A7.53,7.53,0,0,0,321.19,74.62Z" style="fill:#720F88"></path><path d="M321.19,74.62c.4-1.44,1.71-1.9,3.27-1l59.86,34.65a6.7,6.7,0,0,1,2.38,2.53l7.51-4.35a6.85,6.85,0,0,0-2.38-2.53L332,69.27a7.54,7.54,0,0,0-6.77,0l-.75.45A7.53,7.53,0,0,0,321.19,74.62Z" style="fill:#fff;opacity:0.45"></path><path d="M395.21,141.71a7.47,7.47,0,0,1-3.38,5.86l-.74.45a7.58,7.58,0,0,1-6.19.28c1.59.6,2.8-.31,2.8-2.24V114.13a7,7,0,0,0-1-3.34l7.51-4.35a6.92,6.92,0,0,1,1,3.33Z" style="fill:#720F88"></path><path d="M395.21,141.71a7.47,7.47,0,0,1-3.38,5.86l-.74.45a7.58,7.58,0,0,1-6.19.28c1.59.6,2.8-.31,2.8-2.24V114.13a7,7,0,0,0-1-3.34l7.51-4.35a6.92,6.92,0,0,1,1,3.33Z" style="fill:#fff;opacity:0.25"></path><path d="M323,74.23a2,2,0,0,1,1,.32l59.86,34.64a5.71,5.71,0,0,1,2,2.13,5.83,5.83,0,0,1,.86,2.8v31.95c0,.5-.1,1.34-.8,1.34a1.49,1.49,0,0,1-.4-.06l-.07,0h0l0,0a4.71,4.71,0,0,1-.45-.22l-26.38-15.28-11.27-6.54-7.65-4.44-.67-.39-.58.51a15.91,15.91,0,0,1-12.59,3.59,13.41,13.41,0,0,0,6.09-7.23l.26-.82-.74-.43-6.63-3.85c-2.54-1.44-2.54-2.66-2.54-4.7V75.58a4.18,4.18,0,0,1,.06-.68h0c.18-.68.57-.68.72-.68m0-1.07h0a1.79,1.79,0,0,0-1.76,1.46c0-.24.11-.48.17-.72a5.53,5.53,0,0,0-.28,1.68v31.93c0,2.16,0,3.91,3.07,5.63l6.63,3.85a12.35,12.35,0,0,1-6.09,6.87.86.86,0,0,0,.2,1.62A16.78,16.78,0,0,0,339,121.76l7.65,4.43,11.28,6.55L384.32,148c.18.1.37.19.57.28a1,1,0,0,0,.25.08,2.45,2.45,0,0,0,.69.1c1.11,0,1.87-.88,1.87-2.41V114.12a7,7,0,0,0-1-3.33,6.69,6.69,0,0,0-2.39-2.52L324.46,73.63a3,3,0,0,0-1.51-.47Z" style="fill:#720F88"></path></g><path d="M338.21,94.3a.66.66,0,0,1,.27.33,1.19,1.19,0,0,1,.11.47V109a.46.46,0,0,1-.11.34.21.21,0,0,1-.27,0l-1.83-1.06a.67.67,0,0,1-.26-.32,1.07,1.07,0,0,1-.12-.48v-5.27l-3.1-1.79v5.27a.49.49,0,0,1-.11.35.21.21,0,0,1-.27,0L330.69,105a.72.72,0,0,1-.26-.32,1,1,0,0,1-.12-.48V90.32a.44.44,0,0,1,.12-.34.2.2,0,0,1,.26,0L332.52,91a.73.73,0,0,1,.27.32,1.2,1.2,0,0,1,.11.48V97l3.1,1.8V93.61a.43.43,0,0,1,.12-.34.19.19,0,0,1,.26,0Z" style="fill:#720F88"></path><path d="M347.55,111.32a.73.73,0,0,1,.27.32,1.2,1.2,0,0,1,.11.48v2.28a.46.46,0,0,1-.11.34.2.2,0,0,1-.27,0l-6.62-3.82a.71.71,0,0,1-.27-.33,1.15,1.15,0,0,1-.11-.47V96.23a.48.48,0,0,1,.11-.34.21.21,0,0,1,.27,0l6.51,3.76a.77.77,0,0,1,.27.33,1.12,1.12,0,0,1,.11.47v2.28a.51.51,0,0,1-.11.35.22.22,0,0,1-.27,0l-4.31-2.49v2.32l4,2.31a.71.71,0,0,1,.27.33,1.15,1.15,0,0,1,.11.47v2.28a.49.49,0,0,1-.11.35.21.21,0,0,1-.27,0l-4-2.31v2.41Z" style="fill:#720F88"></path><path d="M356.39,116.42a.7.7,0,0,1,.26.33,1,1,0,0,1,.12.47v2.28a.46.46,0,0,1-.12.35.2.2,0,0,1-.26,0l-6.47-3.73a.66.66,0,0,1-.27-.33,1,1,0,0,1-.11-.47V101.42a.44.44,0,0,1,.11-.34.21.21,0,0,1,.27,0l1.83,1.06a.67.67,0,0,1,.26.32,1.05,1.05,0,0,1,.11.48v11Z" style="fill:#720F88"></path><path d="M364.82,121.29a.72.72,0,0,1,.26.32,1.07,1.07,0,0,1,.12.48v2.28a.43.43,0,0,1-.12.34.2.2,0,0,1-.26,0L358.35,121a.59.59,0,0,1-.27-.32,1.2,1.2,0,0,1-.11-.48v-13.9a.46.46,0,0,1,.11-.34c.07-.08.16-.08.27,0l1.83,1a.7.7,0,0,1,.26.33,1,1,0,0,1,.11.47v11Z" style="fill:#720F88"></path><path d="M365.94,115.93a7.48,7.48,0,0,1,.34-2.08,2.94,2.94,0,0,1,.85-1.35,2.09,2.09,0,0,1,1.34-.48,3.74,3.74,0,0,1,1.83.59,7.12,7.12,0,0,1,1.82,1.52,9.89,9.89,0,0,1,1.35,2,11.53,11.53,0,0,1,.85,2.35,12.34,12.34,0,0,1,.34,2.46c0,.63,0,1.28,0,2s0,1.3,0,1.88a7.46,7.46,0,0,1-.34,2.07,3.15,3.15,0,0,1-.85,1.37,2,2,0,0,1-1.35.47,3.92,3.92,0,0,1-1.82-.6,7.16,7.16,0,0,1-1.83-1.51,9.46,9.46,0,0,1-1.34-2,11.16,11.16,0,0,1-.85-2.35,12.43,12.43,0,0,1-.34-2.47c0-.6,0-1.24,0-1.91S365.92,116.53,365.94,115.93Zm6.13,7.26q0-.37,0-.84c0-.31,0-.63,0-1s0-.65,0-1,0-.59,0-.84a5.5,5.5,0,0,0-.14-1.08,4.74,4.74,0,0,0-.34-1,3.48,3.48,0,0,0-.54-.83,2.52,2.52,0,0,0-.75-.63,1.42,1.42,0,0,0-.76-.24.72.72,0,0,0-.53.21,1.35,1.35,0,0,0-.34.59,3.84,3.84,0,0,0-.15.91c0,.23,0,.5,0,.81s0,.62,0,1,0,.66,0,1,0,.62,0,.89a5.71,5.71,0,0,0,.49,2.06,3.07,3.07,0,0,0,1.29,1.46q.87.49,1.29,0A2.5,2.5,0,0,0,372.07,123.19Z" style="fill:#720F88"></path><path d="M378.69,127.53a.46.46,0,0,1-.11.34.2.2,0,0,1-.27,0l-1.76-1a.77.77,0,0,1-.27-.33,1.19,1.19,0,0,1-.11-.47V116.8a.46.46,0,0,1,.11-.34.2.2,0,0,1,.27,0l1.76,1a.77.77,0,0,1,.27.33,1.15,1.15,0,0,1,.11.47Zm0,4.63a.46.46,0,0,1-.11.34.21.21,0,0,1-.27,0l-1.76-1a.74.74,0,0,1-.27-.32,1.2,1.2,0,0,1-.11-.48v-2.17a.46.46,0,0,1,.11-.34.2.2,0,0,1,.27,0l1.76,1a.77.77,0,0,1,.27.33,1.19,1.19,0,0,1,.11.47Z" style="fill:#720F88"></path></g><g id="freepik--speech-bubble--inject-236"><g id="freepik--speech-bubble--inject-236"><path d="M145.68,202.86l-5.47-3.15a.53.53,0,0,1-.26-.23l-1-1.77,2.76-1.6.4,0Z" style="fill:#720F88"></path><path d="M145.68,202.86l-5.47-3.15a.53.53,0,0,1-.26-.23l-1-1.77,2.76-1.6.4,0Z" style="fill:#fff;opacity:0.25"></path><path d="M115.22,173.6,162,146.53a5.87,5.87,0,0,1,5.29,0l.58.35a5.83,5.83,0,0,1,2.64,4.58v24.95c0,1.69,0,3.05-2.4,4.4L150.51,191l-4,11.56a.56.56,0,0,1-.54.38.56.56,0,0,1-.49-.28l-3.78-6.56h0l-20.62,11.95a5.87,5.87,0,0,1-5.29,0l-.57-.35a5.84,5.84,0,0,1-2.65-4.58V178.18A5.84,5.84,0,0,1,115.22,173.6Z" style="fill:#fafafa"></path><path d="M170.41,150.71c-.31-1.13-1.34-1.48-2.56-.78L121.08,177a5.24,5.24,0,0,0-1.86,2l-5.87-3.4a5.42,5.42,0,0,1,1.87-2L162,146.53a5.89,5.89,0,0,1,5.3,0l.58.35A5.84,5.84,0,0,1,170.41,150.71Z" style="fill:#720F88"></path><path d="M170.41,150.71c-.31-1.13-1.34-1.48-2.56-.78L121.08,177a5.24,5.24,0,0,0-1.86,2l-5.87-3.4a5.42,5.42,0,0,1,1.87-2L162,146.53a5.89,5.89,0,0,1,5.3,0l.58.35A5.84,5.84,0,0,1,170.41,150.71Z" style="fill:#fff;opacity:0.45"></path><path d="M112.57,203.13a5.84,5.84,0,0,0,2.65,4.58l.57.35a5.91,5.91,0,0,0,4.84.22c-1.24.47-2.19-.24-2.19-1.75V181.58a5.41,5.41,0,0,1,.77-2.61l-5.86-3.4a5.39,5.39,0,0,0-.78,2.61Z" style="fill:#720F88"></path><path d="M112.57,203.13a5.84,5.84,0,0,0,2.65,4.58l.57.35a5.91,5.91,0,0,0,4.84.22c-1.24.47-2.19-.24-2.19-1.75V181.58a5.41,5.41,0,0,1,.77-2.61l-5.86-3.4a5.39,5.39,0,0,0-.78,2.61Z" style="fill:#fff;opacity:0.25"></path><path d="M169,150.57c.11,0,.3,0,.41.41h0a4.4,4.4,0,0,1,0,.49v24.95c0,1.58,0,2.45-1.9,3.53L150,190.14l-.32.19-.12.35-3.7,10.67-3.31-5.73-.5-.86-.86.5L120.58,207.2l-.32.16h0l-.07,0a.92.92,0,0,1-.26,0c-.41,0-.47-.55-.47-.88v-25a4.44,4.44,0,0,1,.64-2.11,4.34,4.34,0,0,1,1.5-1.61l46.77-27.06a1.47,1.47,0,0,1,.68-.23m0-1a2.48,2.48,0,0,0-1.19.36L121.08,177a5.28,5.28,0,0,0-1.86,2,5.43,5.43,0,0,0-.78,2.61v25c0,1.19.59,1.88,1.47,1.88a2,2,0,0,0,.53-.08,1.06,1.06,0,0,0,.19-.06,4.71,4.71,0,0,0,.45-.22l20.62-11.94,3.78,6.55a.56.56,0,0,0,.49.28.55.55,0,0,0,.53-.38l4-11.56,17.58-10.2c2.38-1.35,2.41-2.71,2.41-4.4V151.46a4.4,4.4,0,0,0-.22-1.32c.05.19.1.38.13.57a1.4,1.4,0,0,0-1.37-1.14Z" style="fill:#720F88"></path></g><path d="M127.13,188.58a7.28,7.28,0,0,1,.26-1.88,8.93,8.93,0,0,1,.71-1.82,7.92,7.92,0,0,1,1.06-1.56,5.24,5.24,0,0,1,1.3-1.09,2.72,2.72,0,0,1,1.3-.41,1.72,1.72,0,0,1,1.06.34,2.24,2.24,0,0,1,.71,1,4.37,4.37,0,0,1,.25,1.58,7.2,7.2,0,0,1-.25,1.88,8.71,8.71,0,0,1-.71,1.82,8.38,8.38,0,0,1-1.06,1.56,5,5,0,0,1-1.3,1.09,2.62,2.62,0,0,1-1.3.41,1.69,1.69,0,0,1-1.06-.33,2.3,2.3,0,0,1-.71-1A4.41,4.41,0,0,1,127.13,188.58Z" style="fill:#720F88"></path><path d="M140.13,181.08a7.22,7.22,0,0,1,.26-1.88,9,9,0,0,1,.71-1.83,7.72,7.72,0,0,1,1.06-1.55,5.11,5.11,0,0,1,1.3-1.1,2.67,2.67,0,0,1,1.3-.4,1.61,1.61,0,0,1,1.05.33,2.25,2.25,0,0,1,.72,1,4.42,4.42,0,0,1,.25,1.59,7.26,7.26,0,0,1-.25,1.88,9,9,0,0,1-.72,1.82,7.89,7.89,0,0,1-1.05,1.56,5.42,5.42,0,0,1-1.3,1.09,2.76,2.76,0,0,1-1.3.41,1.68,1.68,0,0,1-1.06-.34,2.24,2.24,0,0,1-.71-1A4.35,4.35,0,0,1,140.13,181.08Z" style="fill:#720F88"></path><path d="M153.13,173.57a6.92,6.92,0,0,1,.26-1.88,8.59,8.59,0,0,1,.71-1.82,7.89,7.89,0,0,1,1.05-1.56,5.42,5.42,0,0,1,1.3-1.09,2.76,2.76,0,0,1,1.3-.41,1.68,1.68,0,0,1,1.06.34,2.24,2.24,0,0,1,.71,1,4.39,4.39,0,0,1,.26,1.58,7.35,7.35,0,0,1-.26,1.89,9.16,9.16,0,0,1-.71,1.82,7.72,7.72,0,0,1-1.06,1.55,4.92,4.92,0,0,1-1.3,1.1,2.8,2.8,0,0,1-1.3.41,1.67,1.67,0,0,1-1.05-.34,2.16,2.16,0,0,1-.71-1A4.21,4.21,0,0,1,153.13,173.57Z" style="fill:#720F88"></path></g><g id="freepik--speech-bubble--inject-236"><g id="freepik--bubble--inject-236"><path d="M96.46,346.15c-3.92-2.23-9.3-1.89-15.25,1.55-12,6.91-21.67,23.71-21.67,37.53,0,6.91,2.42,11.76,6.33,14l7.41,4.26c3.92,2.26,9.33,1.93,15.31-1.52,12-6.91,21.67-23.71,21.67-37.54,0-6.89-2.42-11.73-6.32-14C102.31,349.5,98.12,347.09,96.46,346.15Z" style="fill:#720F88"></path><path d="M96.46,346.15c-3.92-2.23-9.3-1.89-15.25,1.55-12,6.91-21.67,23.71-21.67,37.53,0,6.91,2.42,11.76,6.33,14l7.41,4.26c3.92,2.26,9.33,1.93,15.31-1.52,12-6.91,21.67-23.71,21.67-37.54,0-6.89-2.42-11.73-6.32-14C102.31,349.5,98.12,347.09,96.46,346.15Z" style="fill:#fff;opacity:0.45"></path><path d="M76.54,403.81a16.15,16.15,0,0,1-5.42,5.37A15,15,0,0,1,63,411.23a.79.79,0,0,1-.38-.09l-7.37-4.25a.74.74,0,0,1,0-1.28A13.11,13.11,0,0,0,62,395.43Z" style="fill:#720F88"></path><path d="M76.54,403.81a16.15,16.15,0,0,1-5.42,5.37A15,15,0,0,1,63,411.23a.79.79,0,0,1-.38-.09l-7.37-4.25a.74.74,0,0,1,0-1.28A13.11,13.11,0,0,0,62,395.43Z" style="fill:#fff;opacity:0.25"></path><path d="M88.59,351.94c-12,6.91-21.68,23.72-21.68,37.54a19.31,19.31,0,0,0,2.48,10.19,13.1,13.1,0,0,1-6.76,10.19.73.73,0,0,0,.36,1.37,15.13,15.13,0,0,0,8.14-2.05,16.64,16.64,0,0,0,4.9-4.57c3.54.86,7.87.08,12.56-2.62,12-6.91,21.67-23.71,21.67-37.54S100.55,345,88.59,351.94Z" style="fill:#fafafa"></path><path d="M98.26,350c6.79,0,11,5.55,11,14.47,0,13.48-9.5,29.93-21.17,36.67a18.49,18.49,0,0,1-9.17,2.82,10.93,10.93,0,0,1-2.65-.31l-.67-.16-.4.57a15.7,15.7,0,0,1-4.61,4.3,13.6,13.6,0,0,1-6.66,1.88,13.91,13.91,0,0,0,6.46-10.45l0-.34-.18-.29a18.51,18.51,0,0,1-2.33-9.66c0-13.48,9.5-29.93,21.18-36.67A18.51,18.51,0,0,1,98.26,350m0-1a19.59,19.59,0,0,0-9.67,3c-12,6.91-21.68,23.72-21.68,37.54a19.31,19.31,0,0,0,2.48,10.19,13.1,13.1,0,0,1-6.76,10.19.73.73,0,0,0,.36,1.37h.16a15.06,15.06,0,0,0,8-2.06,16.64,16.64,0,0,0,4.9-4.57,12.3,12.3,0,0,0,2.89.33A19.6,19.6,0,0,0,88.59,402c12-6.91,21.67-23.71,21.67-37.54,0-9.8-4.89-15.47-12-15.47Z" style="fill:#720F88"></path></g><path d="M76.46,385.13a6.07,6.07,0,0,1,.2-1.5,7.53,7.53,0,0,1,.57-1.45,6.43,6.43,0,0,1,.84-1.24,4,4,0,0,1,1-.87,2.11,2.11,0,0,1,1-.32A1.34,1.34,0,0,1,81,380a1.86,1.86,0,0,1,.56.8,3.39,3.39,0,0,1,.21,1.26,5.6,5.6,0,0,1-.21,1.5A7.26,7.26,0,0,1,81,385a7,7,0,0,1-.85,1.24,4,4,0,0,1-1,.87,2.28,2.28,0,0,1-1,.33,1.36,1.36,0,0,1-.84-.27,1.81,1.81,0,0,1-.57-.8A3.62,3.62,0,0,1,76.46,385.13Z" style="fill:#720F88"></path><path d="M86.81,379.15a5.93,5.93,0,0,1,.2-1.49,7.29,7.29,0,0,1,.57-1.45,6.13,6.13,0,0,1,.84-1.24,4,4,0,0,1,1-.87,2,2,0,0,1,1-.33,1.41,1.41,0,0,1,.85.27,1.8,1.8,0,0,1,.56.8,3.39,3.39,0,0,1,.21,1.26,5.65,5.65,0,0,1-.21,1.5,7.5,7.5,0,0,1-.56,1.45,7.33,7.33,0,0,1-.85,1.24,4.37,4.37,0,0,1-1,.87,2.14,2.14,0,0,1-1,.32,1.36,1.36,0,0,1-.84-.27,1.78,1.78,0,0,1-.57-.79A3.64,3.64,0,0,1,86.81,379.15Z" style="fill:#720F88"></path><path d="M97.16,373.18a6.07,6.07,0,0,1,.2-1.5,7.29,7.29,0,0,1,.57-1.45,6.43,6.43,0,0,1,.84-1.24,4,4,0,0,1,1-.87,2.11,2.11,0,0,1,1-.32,1.29,1.29,0,0,1,.84.26,1.87,1.87,0,0,1,.57.8,3.4,3.4,0,0,1,.2,1.26,5.63,5.63,0,0,1-.2,1.5,7.29,7.29,0,0,1-.57,1.45,6.43,6.43,0,0,1-.84,1.24,4,4,0,0,1-1,.87,2.28,2.28,0,0,1-1,.33,1.36,1.36,0,0,1-.84-.27,1.81,1.81,0,0,1-.57-.8A3.62,3.62,0,0,1,97.16,373.18Z" style="fill:#720F88"></path></g><g id="freepik--speech-bubble--inject-236"><g id="freepik--bubble--inject-236"><path d="M142.75,327.36a18.79,18.79,0,0,1,6.28-6.22,17.37,17.37,0,0,1,9.42-2.38.93.93,0,0,1,.44.11c.5.3,8.41,4.85,8.54,4.92a.85.85,0,0,1,0,1.48,15.22,15.22,0,0,0-7.84,11.8Z" style="fill:#720F88"></path><path d="M142.75,327.36a18.79,18.79,0,0,1,6.28-6.22,17.37,17.37,0,0,1,9.42-2.38.93.93,0,0,1,.44.11c.5.3,8.41,4.85,8.54,4.92a.85.85,0,0,1,0,1.48,15.22,15.22,0,0,0-7.84,11.8Z" style="fill:#fff;opacity:0.25"></path><path d="M159.66,340.85a15.19,15.19,0,0,1,7.76-15.55.86.86,0,0,0-.42-1.6,17.61,17.61,0,0,0-9.43,2.37c-6.67,4.24-7.5,9.24-7.5,9.24Z" style="fill:#720F88"></path><path d="M144.16,325c-4.54-2.58-10.78-2.18-17.67,1.8-13.86,8-25.1,27.46-25.1,43.47,0,8,2.81,13.61,7.35,16.24l8.57,4.93c4.54,2.61,10.81,2.24,17.73-1.76,13.86-8,25.1-27.47,25.1-43.48,0-8-2.8-13.59-7.32-16.22C150.93,328.92,146.08,326.13,144.16,325Z" style="fill:#720F88"></path><path d="M144.16,325c-4.54-2.58-10.78-2.18-17.67,1.8-13.86,8-25.1,27.46-25.1,43.47,0,8,2.81,13.61,7.35,16.24l8.57,4.93c4.54,2.61,10.81,2.24,17.73-1.76,13.86-8,25.1-27.47,25.1-43.48,0-8-2.8-13.59-7.32-16.22C150.93,328.92,146.08,326.13,144.16,325Z" style="opacity:0.15"></path><ellipse cx="135.04" cy="360.74" rx="35.5" ry="20.49" transform="translate(-244.89 297.31) rotate(-60)" style="fill:#720F88"></ellipse></g><path d="M134.05,349.34a.35.35,0,0,1,.45,0,.78.78,0,0,1,.18.57V373a1.86,1.86,0,0,1-.18.79,1.25,1.25,0,0,1-.45.54l-3,1.75a.33.33,0,0,1-.44,0,.76.76,0,0,1-.18-.57v-8.75l-5.16,3v8.76a1.85,1.85,0,0,1-.18.78,1.13,1.13,0,0,1-.44.54l-3,1.76a.36.36,0,0,1-.45,0,.79.79,0,0,1-.18-.59V357.88a1.89,1.89,0,0,1,.18-.79,1.19,1.19,0,0,1,.45-.54l3-1.76a.35.35,0,0,1,.44,0,.78.78,0,0,1,.18.57V364l5.16-3v-8.62a1.85,1.85,0,0,1,.18-.78,1.13,1.13,0,0,1,.44-.54Z" style="fill:#fff"></path><path d="M138.56,371.76a.33.33,0,0,1-.44,0,.74.74,0,0,1-.19-.57V348.07a1.76,1.76,0,0,1,.19-.79,1.17,1.17,0,0,1,.44-.54l3-1.76a.34.34,0,0,1,.44,0,.78.78,0,0,1,.19.57v23.09a1.86,1.86,0,0,1-.19.78,1.08,1.08,0,0,1-.44.54Z" style="fill:#fff"></path><path d="M149.44,356.82a1.86,1.86,0,0,1-.18.79,1.17,1.17,0,0,1-.44.54l-2.93,1.69a.33.33,0,0,1-.44,0,.78.78,0,0,1-.18-.57V343.83a1.85,1.85,0,0,1,.18-.78,1.21,1.21,0,0,1,.44-.55l2.93-1.68a.33.33,0,0,1,.44,0,.78.78,0,0,1,.18.57Zm0,7.69a1.85,1.85,0,0,1-.18.78,1.15,1.15,0,0,1-.44.55l-2.93,1.68a.33.33,0,0,1-.44,0,.78.78,0,0,1-.18-.57v-3.61a1.93,1.93,0,0,1,.18-.79,1.24,1.24,0,0,1,.44-.54l2.93-1.68a.33.33,0,0,1,.44,0,.78.78,0,0,1,.18.57Z" style="fill:#fff"></path></g></g><g id="freepik--gray-speech-bubbles--inject-236"><path id="freepik--speech-bubble--inject-236" d="M449.74,96.89l-.26-9.69s16.17.49,13.42-19.62c-1.34-9.79-8.88-19.84-38-16-35.16,4.58-31,22.29-27.34,28.48,3.79,6.47,19.23,9.88,44.58,8.47Z" style="fill:#e0e0e0"></path><path id="freepik--speech-bubble--inject-236" d="M82.3,187l-8.69,8.17a84.31,84.31,0,0,0-19.52-.86c-17.42,1-27.24,8.62-24.65,19,3.06,12.19,14.2,16,35,15.16,26-1,35.32-17.5,17.2-30.74Z" style="fill:#e0e0e0"></path><path id="freepik--speech-bubble--inject-236" d="M403.94,362.19l.59,10.59s-9.94,1-15.76,5.39c-9.27,7-8,25.07,2.67,32.11,12.45,8.25,44.33,7.5,54.05-.62,9.38-7.85,8.79-25.23,1.57-31.65-9.21-8.2-30.75-6.14-30.75-6.14Z" style="fill:#e0e0e0"></path></g></svg>