<?xml version="1.0" encoding="utf-8"?>
<!DOCTYPE svg PUBLIC "-//W3C//DTD SVG 1.1//EN" "http://www.w3.org/Graphics/SVG/1.1/DTD/svg11.dtd">
<svg version="1.1" id="Ebene_1" xmlns="http://www.w3.org/2000/svg" xmlns:xlink="http://www.w3.org/1999/xlink" x="0px" y="0px"
	 width="126px" height="48px" viewBox="0 0 126 48" enable-background="new 0 0 126 48" xml:space="preserve">
<g>
	<g>
		<linearGradient id="SVGID_1_" gradientUnits="userSpaceOnUse" x1="62.9995" y1="0.5" x2="62.9995" y2="47.5005">
			<stop  offset="0" style="stop-color:#FFFFFF"/>
			<stop  offset="1" style="stop-color:#D9D9D9"/>
		</linearGradient>
		<path fill="url(#SVGID_1_)" d="M10.781,47.5C5.112,47.5,0.5,42.889,0.5,37.22V10.781C0.5,5.112,5.112,0.5,10.781,0.5H115.22
			c5.669,0,10.28,4.612,10.28,10.281V37.22c0,5.669-4.611,10.28-10.28,10.28H10.781z"/>
		<path fill="#B3B3B3" d="M115.22,1c5.393,0,9.78,4.388,9.78,9.781V37.22c0,5.393-4.388,9.78-9.78,9.78H10.781
			C5.388,47,1,42.612,1,37.22V10.781C1,5.388,5.388,1,10.781,1H115.22 M115.22,0H10.781C4.852,0,0,4.852,0,10.781V37.22
			C0,43.148,4.852,48,10.781,48H115.22c5.929,0,10.78-4.852,10.78-10.78V10.781C126,4.852,121.148,0,115.22,0L115.22,0z"/>
	</g>
	<g>
		<g>
			<circle fill="#FFFFFF" cx="19.5" cy="19.784" r="11.476"/>
			<path fill="#FFFFFF" d="M24.559,18.148c0.229-1.527-0.935-2.35-2.524-2.896l0.517-2.07l-1.259-0.314l-0.504,2.016
				c-0.331-0.082-0.671-0.16-1.009-0.238l0.505-2.027l-1.258-0.314l-0.518,2.07c-0.272-0.063-0.542-0.125-0.803-0.189v-0.006
				l-1.736-0.434l-0.335,1.344c0,0,0.935,0.215,0.914,0.229c0.511,0.127,0.603,0.465,0.589,0.732l-0.59,2.357
				c0.035,0.008,0.082,0.021,0.132,0.041c-0.042-0.01-0.087-0.021-0.134-0.033l-0.822,3.303c-0.063,0.156-0.222,0.387-0.578,0.299
				c0.013,0.018-0.915-0.229-0.915-0.229l-0.626,1.441l1.64,0.41c0.304,0.076,0.604,0.156,0.897,0.23l-0.521,2.094l1.258,0.314
				l0.517-2.07c0.343,0.092,0.676,0.18,1.003,0.26l-0.515,2.061l1.26,0.314l0.521-2.09c2.148,0.408,3.763,0.244,4.442-1.699
				c0.548-1.564-0.026-2.467-1.157-3.055C23.773,19.807,24.394,19.266,24.559,18.148z M21.682,22.184
				c-0.389,1.564-3.021,0.719-3.877,0.506l0.692-2.771C19.35,20.131,22.089,20.553,21.682,22.184z M22.071,18.125
				c-0.355,1.424-2.547,0.701-3.258,0.523l0.627-2.516C20.151,16.311,22.441,16.643,22.071,18.125z"/>
			<path fill="#FFFFFF" d="M41.661,15.25c0.932,0,1.734,0.168,2.411,0.494c0.679,0.332,1.239,0.777,1.689,1.338
				c0.443,0.563,0.774,1.223,0.986,1.977c0.211,0.756,0.318,1.57,0.318,2.441c0,1.336-0.245,2.6-0.74,3.791
				c-0.494,1.193-1.166,2.227-2.02,3.109c-0.853,0.883-1.86,1.576-3.022,2.09c-1.16,0.514-2.42,0.771-3.774,0.771
				c-0.176,0-0.483-0.006-0.917-0.014c-0.437-0.01-0.936-0.055-1.496-0.129c-0.563-0.08-1.158-0.195-1.787-0.352
				c-0.628-0.152-1.225-0.367-1.787-0.639L36.55,9.006l4.502-0.697l-1.801,7.496c0.387-0.176,0.773-0.309,1.162-0.406
				C40.801,15.301,41.216,15.25,41.661,15.25z M37.886,27.688c0.677,0,1.315-0.166,1.916-0.494c0.603-0.326,1.122-0.77,1.557-1.32
				c0.436-0.553,0.78-1.178,1.031-1.875c0.25-0.695,0.377-1.424,0.377-2.182c0-0.928-0.154-1.654-0.464-2.178
				c-0.31-0.521-0.883-0.783-1.715-0.783c-0.273,0-0.624,0.051-1.06,0.145c-0.437,0.098-0.828,0.303-1.179,0.611l-1.916,7.959
				c0.116,0.021,0.218,0.041,0.305,0.059c0.085,0.02,0.18,0.033,0.273,0.043c0.1,0.012,0.213,0.016,0.351,0.016
				C37.499,27.688,37.671,27.688,37.886,27.688z"/>
			<path fill="#FFFFFF" d="M51.735,30.854h-4.3l3.631-15.281h4.331L51.735,30.854z M53.829,13.711c-0.601,0-1.145-0.18-1.628-0.535
				c-0.486-0.357-0.728-0.904-0.728-1.643c0-0.406,0.083-0.787,0.246-1.148c0.166-0.357,0.383-0.668,0.655-0.93
				c0.271-0.26,0.586-0.469,0.942-0.625c0.36-0.154,0.742-0.232,1.149-0.232c0.601,0,1.143,0.18,1.627,0.537
				c0.483,0.359,0.726,0.908,0.726,1.643c0,0.408-0.082,0.791-0.248,1.148c-0.163,0.359-0.381,0.668-0.652,0.932
				c-0.27,0.26-0.587,0.467-0.943,0.623C54.616,13.637,54.235,13.711,53.829,13.711z"/>
			<path fill="#FFFFFF" d="M59.165,11.766l4.505-0.697l-1.106,4.504h4.824l-0.871,3.545h-4.795l-1.276,5.346
				c-0.118,0.445-0.185,0.861-0.204,1.248c-0.021,0.389,0.028,0.723,0.145,1.004s0.323,0.498,0.624,0.652s0.73,0.232,1.293,0.232
				c0.464,0,0.916-0.043,1.354-0.131c0.435-0.086,0.874-0.205,1.319-0.363l0.32,3.314c-0.58,0.213-1.21,0.396-1.888,0.551
				c-0.68,0.156-1.482,0.232-2.412,0.232c-1.337,0-2.373-0.199-3.11-0.594c-0.736-0.398-1.258-0.941-1.57-1.629
				c-0.307-0.686-0.444-1.477-0.405-2.367c0.039-0.893,0.174-1.832,0.405-2.818L59.165,11.766z"/>
			<path fill="#FFFFFF" d="M67.197,24.754c0-1.316,0.213-2.557,0.639-3.719c0.426-1.164,1.038-2.18,1.833-3.053
				c0.792-0.869,1.756-1.557,2.892-2.063c1.131-0.502,2.396-0.756,3.79-0.756c0.872,0,1.652,0.082,2.338,0.248
				c0.689,0.166,1.313,0.381,1.875,0.652l-1.483,3.373c-0.387-0.158-0.788-0.295-1.204-0.422c-0.417-0.127-0.925-0.189-1.525-0.189
				c-1.436,0-2.57,0.494-3.414,1.48c-0.842,0.988-1.266,2.316-1.266,3.982c0,0.988,0.213,1.785,0.641,2.396
				c0.426,0.611,1.211,0.914,2.354,0.914c0.563,0,1.105-0.059,1.627-0.172c0.524-0.117,0.987-0.264,1.395-0.438l0.321,3.457
				c-0.543,0.213-1.144,0.402-1.802,0.57c-0.66,0.16-1.444,0.244-2.354,0.244c-1.202,0-2.218-0.176-3.051-0.521
				c-0.832-0.352-1.521-0.818-2.062-1.41c-0.544-0.594-0.936-1.285-1.178-2.08C67.319,26.457,67.197,25.623,67.197,24.754z"/>
			<path fill="#FFFFFF" d="M86.301,31.262c-1.027,0-1.919-0.156-2.675-0.467c-0.754-0.309-1.378-0.742-1.873-1.307
				c-0.494-0.561-0.864-1.225-1.117-1.99c-0.254-0.764-0.376-1.611-0.376-2.539c0-1.164,0.187-2.328,0.564-3.49
				c0.376-1.162,0.933-2.207,1.672-3.135c0.732-0.932,1.637-1.691,2.7-2.285c1.063-0.59,2.285-0.885,3.659-0.885
				c1.008,0,1.894,0.156,2.661,0.465c0.764,0.311,1.392,0.748,1.889,1.309c0.491,0.564,0.865,1.225,1.115,1.99
				c0.254,0.764,0.379,1.613,0.379,2.541c0,1.162-0.186,2.326-0.551,3.49c-0.366,1.158-0.909,2.205-1.627,3.137
				c-0.716,0.928-1.611,1.689-2.688,2.279C88.961,30.965,87.715,31.262,86.301,31.262z M88.448,18.826
				c-0.637,0-1.201,0.186-1.683,0.551c-0.485,0.369-0.892,0.834-1.219,1.396c-0.332,0.561-0.578,1.176-0.744,1.844
				c-0.164,0.67-0.245,1.301-0.245,1.904c0,0.967,0.156,1.723,0.464,2.268c0.313,0.539,0.871,0.811,1.686,0.811
				c0.64,0,1.201-0.182,1.687-0.553c0.481-0.367,0.888-0.832,1.219-1.393c0.328-0.561,0.577-1.178,0.744-1.846
				c0.163-0.668,0.245-1.303,0.245-1.904c0-0.967-0.155-1.723-0.467-2.266C89.825,19.098,89.263,18.826,88.448,18.826z"/>
			<path fill="#FFFFFF" d="M99.586,30.854h-4.305l3.633-15.281h4.332L99.586,30.854z M101.675,13.711c-0.6,0-1.144-0.18-1.625-0.535
				c-0.484-0.357-0.728-0.904-0.728-1.643c0-0.406,0.083-0.787,0.247-1.148c0.164-0.357,0.383-0.668,0.654-0.93
				c0.27-0.26,0.588-0.469,0.943-0.625c0.358-0.154,0.74-0.232,1.146-0.232c0.602,0,1.146,0.18,1.629,0.537
				c0.484,0.359,0.729,0.908,0.729,1.643c0,0.408-0.087,0.791-0.25,1.148c-0.162,0.359-0.381,0.668-0.652,0.932
				c-0.271,0.26-0.586,0.467-0.943,0.623C102.465,13.637,102.084,13.711,101.675,13.711z"/>
			<path fill="#FFFFFF" d="M106.343,16.27c0.326-0.096,0.691-0.211,1.088-0.336c0.398-0.123,0.842-0.24,1.339-0.346
				c0.491-0.107,1.046-0.195,1.655-0.264c0.61-0.068,1.304-0.102,2.075-0.102c2.269,0,3.831,0.66,4.695,1.977
				c0.863,1.316,1.012,3.119,0.452,5.404l-1.979,8.25h-4.329l1.917-8.076c0.117-0.504,0.209-0.992,0.277-1.469
				c0.068-0.471,0.063-0.889-0.016-1.248c-0.076-0.355-0.257-0.646-0.537-0.873c-0.283-0.223-0.711-0.332-1.293-0.332
				c-0.561,0-1.132,0.061-1.713,0.176l-2.819,11.822h-4.331L106.343,16.27z"/>
			<path fill="#FFFFFF" d="M56.44,39.572c-0.069,0.275-0.146,0.538-0.232,0.788c-0.087,0.249-0.209,0.468-0.366,0.654
				c-0.158,0.187-0.365,0.334-0.62,0.443c-0.256,0.108-0.584,0.163-0.985,0.163c-0.201,0-0.384-0.019-0.547-0.056
				c-0.164-0.037-0.309-0.085-0.436-0.143c-0.126-0.057-0.233-0.116-0.322-0.176c-0.089-0.061-0.156-0.116-0.202-0.168l0.413-0.629
				c0.092,0.092,0.229,0.189,0.413,0.293s0.416,0.155,0.697,0.155c0.207,0,0.382-0.026,0.525-0.078s0.267-0.133,0.37-0.245
				s0.19-0.257,0.263-0.435c0.071-0.178,0.139-0.394,0.202-0.646l0.956-3.97h0.835L56.44,39.572z"/>
			<path fill="#FFFFFF" d="M57.31,41.492l1.43-5.967h3.521l-0.164,0.697h-2.694l-0.431,1.8h2.394l-0.164,0.68h-2.385l-0.508,2.093
				h2.893l-0.163,0.697H57.31z"/>
			<path fill="#FFFFFF" d="M67.366,35.525l-0.164,0.697h-1.799l-1.266,5.27h-0.836l1.266-5.27h-1.799l0.163-0.697H67.366z"/>
			<path fill="#FFFFFF" d="M71.845,36.188c-0.161,0.144-0.351,0.321-0.568,0.534c-0.218,0.212-0.453,0.446-0.706,0.701
				c-0.253,0.256-0.513,0.525-0.779,0.81s-0.532,0.574-0.796,0.869c-0.265,0.296-0.517,0.587-0.758,0.874s-0.46,0.56-0.654,0.818
				h3.22l-0.163,0.697h-4.228l0.129-0.56c0.166-0.224,0.358-0.47,0.577-0.736c0.218-0.267,0.45-0.545,0.697-0.835
				c0.246-0.29,0.502-0.581,0.766-0.874c0.265-0.293,0.525-0.577,0.784-0.853c0.258-0.275,0.508-0.533,0.749-0.774
				s0.462-0.454,0.663-0.638h-2.953l0.163-0.697H72L71.845,36.188z"/>
			<path fill="#FFFFFF" d="M76.997,35.525l-0.164,0.697h-1.799l-1.266,5.27h-0.836l1.266-5.27h-1.799l0.163-0.697H76.997z"/>
			<path fill="#FFFFFF" d="M79.434,40.898c0.178,0,0.354-0.019,0.529-0.057c0.175-0.037,0.332-0.099,0.47-0.185
				s0.249-0.199,0.335-0.34c0.087-0.141,0.13-0.314,0.13-0.521c0-0.144-0.027-0.269-0.082-0.374
				c-0.055-0.106-0.129-0.201-0.224-0.284s-0.207-0.161-0.336-0.232c-0.129-0.072-0.271-0.148-0.427-0.229
				c-0.132-0.069-0.265-0.144-0.4-0.224c-0.135-0.081-0.255-0.18-0.361-0.297c-0.106-0.118-0.192-0.257-0.258-0.418
				c-0.066-0.161-0.1-0.354-0.1-0.577c0-0.258,0.051-0.496,0.151-0.715c0.1-0.218,0.248-0.405,0.443-0.563
				c0.194-0.158,0.435-0.28,0.719-0.366s0.609-0.129,0.978-0.129c0.172,0,0.335,0.013,0.49,0.039
				c0.155,0.025,0.297,0.059,0.426,0.099c0.13,0.04,0.243,0.082,0.341,0.125s0.169,0.082,0.215,0.116l-0.388,0.654
				c-0.098-0.08-0.254-0.153-0.469-0.22c-0.215-0.065-0.47-0.099-0.762-0.099c-0.185,0-0.354,0.019-0.513,0.056
				s-0.294,0.097-0.409,0.177c-0.114,0.08-0.206,0.182-0.275,0.306c-0.068,0.123-0.104,0.271-0.104,0.443
				c0,0.149,0.023,0.274,0.069,0.374c0.046,0.101,0.108,0.189,0.189,0.268c0.08,0.077,0.179,0.147,0.297,0.211
				c0.117,0.063,0.245,0.129,0.383,0.198c0.173,0.086,0.335,0.173,0.486,0.262c0.152,0.09,0.286,0.194,0.4,0.314
				c0.115,0.121,0.206,0.262,0.271,0.422c0.066,0.161,0.1,0.356,0.1,0.586c0,0.315-0.063,0.593-0.186,0.831
				s-0.293,0.436-0.508,0.594c-0.216,0.158-0.471,0.277-0.767,0.357s-0.615,0.12-0.96,0.12c-0.229,0-0.438-0.016-0.624-0.047
				c-0.187-0.032-0.351-0.07-0.491-0.116s-0.26-0.094-0.357-0.143s-0.172-0.093-0.224-0.133l0.388-0.681
				c0.109,0.075,0.281,0.159,0.517,0.254S79.072,40.898,79.434,40.898z"/>
			<path fill="#FFFFFF" d="M85.268,35.465c0.695,0,1.219,0.133,1.571,0.396c0.354,0.264,0.53,0.648,0.53,1.153
				c0,0.391-0.073,0.728-0.22,1.012s-0.354,0.519-0.624,0.702c-0.271,0.184-0.595,0.32-0.974,0.409s-0.801,0.133-1.266,0.133h-0.594
				l-0.534,2.222h-0.835l1.412-5.89c0.241-0.057,0.496-0.095,0.767-0.111C84.771,35.474,85.027,35.465,85.268,35.465z
				 M85.165,36.171c-0.408,0-0.654,0.012-0.741,0.035l-0.567,2.367h0.542c0.241,0,0.487-0.021,0.74-0.064s0.479-0.119,0.681-0.229
				c0.2-0.108,0.365-0.259,0.495-0.451c0.129-0.192,0.193-0.441,0.193-0.745c0-0.327-0.12-0.562-0.361-0.702
				S85.578,36.171,85.165,36.171z"/>
			<path fill="#FFFFFF" d="M87.277,41.492l1.43-5.967h3.521l-0.164,0.697H89.37l-0.431,1.8h2.394l-0.164,0.68h-2.385l-0.508,2.093
				h2.893l-0.163,0.697H87.277z"/>
			<path fill="#FFFFFF" d="M95.706,41.492c-0.104-0.333-0.227-0.712-0.37-1.137s-0.3-0.855-0.469-1.291
				c-0.17-0.437-0.344-0.859-0.521-1.271c-0.178-0.41-0.353-0.768-0.525-1.071l-1.145,4.77h-0.818l1.43-5.967h0.714
				c0.185,0.31,0.372,0.662,0.564,1.055c0.192,0.394,0.376,0.797,0.551,1.21s0.337,0.817,0.486,1.214s0.272,0.752,0.371,1.067
				l1.067-4.546h0.817l-1.42,5.967H95.706z"/>
			<path fill="#FFFFFF" d="M100.751,35.465c0.885,0,1.545,0.208,1.98,0.625c0.437,0.416,0.654,0.977,0.654,1.683
				c0,0.494-0.077,0.969-0.232,1.425c-0.154,0.457-0.396,0.86-0.723,1.21c-0.327,0.351-0.745,0.629-1.253,0.835
				c-0.508,0.207-1.115,0.311-1.821,0.311c-0.241,0-0.502-0.012-0.783-0.035c-0.281-0.022-0.528-0.063-0.74-0.12l1.386-5.795
				c0.241-0.057,0.496-0.095,0.767-0.111C100.255,35.474,100.511,35.465,100.751,35.465z M100.683,36.171
				c-0.431,0-0.688,0.012-0.775,0.035l-1.102,4.598c0.046,0.012,0.123,0.021,0.232,0.03c0.109,0.008,0.287,0.013,0.534,0.013
				c0.453,0,0.862-0.076,1.227-0.229s0.673-0.364,0.926-0.637c0.252-0.272,0.447-0.598,0.585-0.974s0.207-0.787,0.207-1.235
				c0-0.505-0.146-0.898-0.439-1.18S101.319,36.171,100.683,36.171z"/>
			<path fill="#FFFFFF" d="M103.662,41.492l1.43-5.967h3.521l-0.164,0.697h-2.694l-0.431,1.8h2.394l-0.164,0.68h-2.385l-0.508,2.093
				h2.893l-0.163,0.697H103.662z"/>
			<path fill="#FFFFFF" d="M112.091,41.492c-0.104-0.333-0.227-0.712-0.37-1.137s-0.3-0.855-0.469-1.291
				c-0.17-0.437-0.344-0.859-0.521-1.271c-0.178-0.41-0.353-0.768-0.525-1.071l-1.145,4.77h-0.818l1.43-5.967h0.714
				c0.185,0.31,0.372,0.662,0.564,1.055c0.192,0.394,0.376,0.797,0.551,1.21s0.337,0.817,0.486,1.214s0.272,0.752,0.371,1.067
				l1.067-4.546h0.817l-1.42,5.967H112.091z"/>
		</g>
		<g>
			<g>
				<g>
					<g>
						<g>
							<circle fill="#F7931A" cx="19.5" cy="18.784" r="11.476"/>
							<g>
								<g>
									<path fill="#FFFFFF" d="M24.559,17.148c0.229-1.527-0.935-2.35-2.524-2.896l0.517-2.07l-1.259-0.314l-0.504,2.016
										c-0.331-0.082-0.671-0.16-1.009-0.238l0.505-2.027l-1.258-0.314l-0.518,2.07c-0.272-0.063-0.542-0.125-0.803-0.189v-0.006
										l-1.736-0.434l-0.335,1.344c0,0,0.935,0.215,0.914,0.229c0.511,0.127,0.603,0.465,0.589,0.732l-0.59,2.357
										c0.035,0.008,0.082,0.021,0.132,0.041c-0.042-0.01-0.087-0.021-0.134-0.033l-0.822,3.303
										c-0.063,0.156-0.222,0.387-0.578,0.299c0.013,0.018-0.915-0.229-0.915-0.229l-0.626,1.441l1.64,0.41
										c0.304,0.076,0.604,0.156,0.897,0.23l-0.521,2.094l1.258,0.314l0.517-2.07c0.343,0.092,0.676,0.18,1.003,0.26l-0.515,2.061
										l1.26,0.314l0.521-2.09c2.148,0.408,3.763,0.244,4.442-1.699c0.548-1.564-0.026-2.467-1.157-3.055
										C23.773,18.807,24.394,18.266,24.559,17.148z M21.682,21.184c-0.389,1.564-3.021,0.719-3.877,0.506l0.692-2.771
										C19.35,19.131,22.089,19.553,21.682,21.184z M22.071,17.125c-0.355,1.424-2.547,0.701-3.258,0.523l0.627-2.516
										C20.151,15.311,22.441,15.643,22.071,17.125z"/>
								</g>
							</g>
						</g>
					</g>
					<g>
						<path fill="#4D4D4D" d="M41.661,14.25c0.932,0,1.734,0.168,2.411,0.494c0.679,0.332,1.239,0.777,1.689,1.338
							c0.443,0.563,0.774,1.223,0.986,1.977c0.211,0.756,0.318,1.57,0.318,2.441c0,1.336-0.245,2.6-0.74,3.791
							c-0.494,1.193-1.166,2.227-2.02,3.109c-0.853,0.883-1.86,1.576-3.022,2.09c-1.16,0.514-2.42,0.771-3.774,0.771
							c-0.176,0-0.483-0.006-0.917-0.014c-0.437-0.01-0.936-0.055-1.496-0.129c-0.563-0.08-1.158-0.195-1.787-0.352
							c-0.628-0.152-1.225-0.367-1.787-0.639L36.55,8.006l4.502-0.697l-1.801,7.496c0.387-0.176,0.773-0.309,1.162-0.406
							C40.801,14.301,41.216,14.25,41.661,14.25z M37.886,26.688c0.677,0,1.315-0.166,1.916-0.494
							c0.603-0.326,1.122-0.77,1.557-1.32c0.436-0.553,0.78-1.178,1.031-1.875c0.25-0.695,0.377-1.424,0.377-2.182
							c0-0.928-0.154-1.654-0.464-2.178c-0.31-0.521-0.883-0.783-1.715-0.783c-0.273,0-0.624,0.051-1.06,0.145
							c-0.437,0.098-0.828,0.303-1.179,0.611l-1.916,7.959c0.116,0.021,0.218,0.041,0.305,0.059c0.085,0.02,0.18,0.033,0.273,0.043
							c0.1,0.012,0.213,0.016,0.351,0.016C37.499,26.688,37.671,26.688,37.886,26.688z"/>
						<path fill="#4D4D4D" d="M51.735,29.854h-4.3l3.631-15.281h4.331L51.735,29.854z M53.829,12.711
							c-0.601,0-1.145-0.18-1.628-0.535c-0.486-0.357-0.728-0.904-0.728-1.643c0-0.406,0.083-0.787,0.246-1.148
							c0.166-0.357,0.383-0.668,0.655-0.93c0.271-0.26,0.586-0.469,0.942-0.625c0.36-0.154,0.742-0.232,1.149-0.232
							c0.601,0,1.143,0.18,1.627,0.537c0.483,0.359,0.726,0.908,0.726,1.643c0,0.408-0.082,0.791-0.248,1.148
							c-0.163,0.359-0.381,0.668-0.652,0.932c-0.27,0.26-0.587,0.467-0.943,0.623C54.616,12.637,54.235,12.711,53.829,12.711z"/>
						<path fill="#4D4D4D" d="M59.165,10.766l4.505-0.697l-1.106,4.504h4.824l-0.871,3.545h-4.795l-1.276,5.346
							c-0.118,0.445-0.185,0.861-0.204,1.248c-0.021,0.389,0.028,0.723,0.145,1.004s0.323,0.498,0.624,0.652s0.73,0.232,1.293,0.232
							c0.464,0,0.916-0.043,1.354-0.131c0.435-0.086,0.874-0.205,1.319-0.363l0.32,3.314c-0.58,0.213-1.21,0.396-1.888,0.551
							c-0.68,0.156-1.482,0.232-2.412,0.232c-1.337,0-2.373-0.199-3.11-0.594c-0.736-0.398-1.258-0.941-1.57-1.629
							c-0.307-0.686-0.444-1.477-0.405-2.367c0.039-0.893,0.174-1.832,0.405-2.818L59.165,10.766z"/>
						<path fill="#4D4D4D" d="M67.197,23.754c0-1.316,0.213-2.557,0.639-3.719c0.426-1.164,1.038-2.18,1.833-3.053
							c0.792-0.869,1.756-1.557,2.892-2.063c1.131-0.502,2.396-0.756,3.79-0.756c0.872,0,1.652,0.082,2.338,0.248
							c0.689,0.166,1.313,0.381,1.875,0.652l-1.483,3.373c-0.387-0.158-0.788-0.295-1.204-0.422
							c-0.417-0.127-0.925-0.189-1.525-0.189c-1.436,0-2.57,0.494-3.414,1.48c-0.842,0.988-1.266,2.316-1.266,3.982
							c0,0.988,0.213,1.785,0.641,2.396c0.426,0.611,1.211,0.914,2.354,0.914c0.563,0,1.105-0.059,1.627-0.172
							c0.524-0.117,0.987-0.264,1.395-0.438l0.321,3.457c-0.543,0.213-1.144,0.402-1.802,0.57c-0.66,0.16-1.444,0.244-2.354,0.244
							c-1.202,0-2.218-0.176-3.051-0.521c-0.832-0.352-1.521-0.818-2.062-1.41c-0.544-0.594-0.936-1.285-1.178-2.08
							C67.319,25.457,67.197,24.623,67.197,23.754z"/>
						<path fill="#4D4D4D" d="M86.301,30.262c-1.027,0-1.919-0.156-2.675-0.467c-0.754-0.309-1.378-0.742-1.873-1.307
							c-0.494-0.561-0.864-1.225-1.117-1.99c-0.254-0.764-0.376-1.611-0.376-2.539c0-1.164,0.187-2.328,0.564-3.49
							c0.376-1.162,0.933-2.207,1.672-3.135c0.732-0.932,1.637-1.691,2.7-2.285c1.063-0.59,2.285-0.885,3.659-0.885
							c1.008,0,1.894,0.156,2.661,0.465c0.764,0.311,1.392,0.748,1.889,1.309c0.491,0.564,0.865,1.225,1.115,1.99
							c0.254,0.764,0.379,1.613,0.379,2.541c0,1.162-0.186,2.326-0.551,3.49c-0.366,1.158-0.909,2.205-1.627,3.137
							c-0.716,0.928-1.611,1.689-2.688,2.279C88.961,29.965,87.715,30.262,86.301,30.262z M88.448,17.826
							c-0.637,0-1.201,0.186-1.683,0.551c-0.485,0.369-0.892,0.834-1.219,1.396c-0.332,0.561-0.578,1.176-0.744,1.844
							c-0.164,0.67-0.245,1.301-0.245,1.904c0,0.967,0.156,1.723,0.464,2.268c0.313,0.539,0.871,0.811,1.686,0.811
							c0.64,0,1.201-0.182,1.687-0.553c0.481-0.367,0.888-0.832,1.219-1.393c0.328-0.561,0.577-1.178,0.744-1.846
							c0.163-0.668,0.245-1.303,0.245-1.904c0-0.967-0.155-1.723-0.467-2.266C89.825,18.098,89.263,17.826,88.448,17.826z"/>
						<path fill="#4D4D4D" d="M99.586,29.854h-4.305l3.633-15.281h4.332L99.586,29.854z M101.675,12.711
							c-0.6,0-1.144-0.18-1.625-0.535c-0.484-0.357-0.728-0.904-0.728-1.643c0-0.406,0.083-0.787,0.247-1.148
							c0.164-0.357,0.383-0.668,0.654-0.93c0.27-0.26,0.588-0.469,0.943-0.625c0.358-0.154,0.74-0.232,1.146-0.232
							c0.602,0,1.146,0.18,1.629,0.537c0.484,0.359,0.729,0.908,0.729,1.643c0,0.408-0.087,0.791-0.25,1.148
							c-0.162,0.359-0.381,0.668-0.652,0.932c-0.271,0.26-0.586,0.467-0.943,0.623C102.465,12.637,102.084,12.711,101.675,12.711z"
							/>
						<path fill="#4D4D4D" d="M106.343,15.27c0.326-0.096,0.691-0.211,1.088-0.336c0.398-0.123,0.842-0.24,1.339-0.346
							c0.491-0.107,1.046-0.195,1.655-0.264c0.61-0.068,1.304-0.102,2.075-0.102c2.269,0,3.831,0.66,4.695,1.977
							c0.863,1.316,1.012,3.119,0.452,5.404l-1.979,8.25h-4.329l1.917-8.076c0.117-0.504,0.209-0.992,0.277-1.469
							c0.068-0.471,0.063-0.889-0.016-1.248c-0.076-0.355-0.257-0.646-0.537-0.873c-0.283-0.223-0.711-0.332-1.293-0.332
							c-0.561,0-1.132,0.061-1.713,0.176l-2.819,11.822h-4.331L106.343,15.27z"/>
					</g>
				</g>
				<g>
					<path fill="#4D4D4D" d="M56.44,38.572c-0.069,0.275-0.146,0.538-0.232,0.788c-0.087,0.249-0.209,0.468-0.366,0.654
						c-0.158,0.187-0.365,0.334-0.62,0.443c-0.256,0.108-0.584,0.163-0.985,0.163c-0.201,0-0.384-0.019-0.547-0.056
						c-0.164-0.037-0.309-0.085-0.436-0.143c-0.126-0.057-0.233-0.116-0.322-0.176c-0.089-0.061-0.156-0.116-0.202-0.168
						l0.413-0.629c0.092,0.092,0.229,0.189,0.413,0.293s0.416,0.155,0.697,0.155c0.207,0,0.382-0.026,0.525-0.078
						s0.267-0.133,0.37-0.245s0.19-0.257,0.263-0.435c0.071-0.178,0.139-0.394,0.202-0.646l0.956-3.97h0.835L56.44,38.572z"/>
					<path fill="#4D4D4D" d="M57.31,40.492l1.43-5.967h3.521l-0.164,0.697h-2.694l-0.431,1.8h2.394l-0.164,0.68h-2.385l-0.508,2.093
						h2.893l-0.163,0.697H57.31z"/>
					<path fill="#4D4D4D" d="M67.366,34.525l-0.164,0.697h-1.799l-1.266,5.27h-0.836l1.266-5.27h-1.799l0.163-0.697H67.366z"/>
					<path fill="#4D4D4D" d="M71.845,35.188c-0.161,0.144-0.351,0.321-0.568,0.534c-0.218,0.212-0.453,0.446-0.706,0.701
						c-0.253,0.256-0.513,0.525-0.779,0.81s-0.532,0.574-0.796,0.869c-0.265,0.296-0.517,0.587-0.758,0.874s-0.46,0.56-0.654,0.818
						h3.22l-0.163,0.697h-4.228l0.129-0.56c0.166-0.224,0.358-0.47,0.577-0.736c0.218-0.267,0.45-0.545,0.697-0.835
						c0.246-0.29,0.502-0.581,0.766-0.874c0.265-0.293,0.525-0.577,0.784-0.853c0.258-0.275,0.508-0.533,0.749-0.774
						s0.462-0.454,0.663-0.638h-2.953l0.163-0.697H72L71.845,35.188z"/>
					<path fill="#4D4D4D" d="M76.997,34.525l-0.164,0.697h-1.799l-1.266,5.27h-0.836l1.266-5.27h-1.799l0.163-0.697H76.997z"/>
					<path fill="#4D4D4D" d="M79.434,39.898c0.178,0,0.354-0.019,0.529-0.057c0.175-0.037,0.332-0.099,0.47-0.185
						s0.249-0.199,0.335-0.34c0.087-0.141,0.13-0.314,0.13-0.521c0-0.144-0.027-0.269-0.082-0.374
						c-0.055-0.106-0.129-0.201-0.224-0.284s-0.207-0.161-0.336-0.232c-0.129-0.072-0.271-0.148-0.427-0.229
						c-0.132-0.069-0.265-0.144-0.4-0.224c-0.135-0.081-0.255-0.18-0.361-0.297c-0.106-0.118-0.192-0.257-0.258-0.418
						c-0.066-0.161-0.1-0.354-0.1-0.577c0-0.258,0.051-0.496,0.151-0.715c0.1-0.218,0.248-0.405,0.443-0.563
						c0.194-0.158,0.435-0.28,0.719-0.366s0.609-0.129,0.978-0.129c0.172,0,0.335,0.013,0.49,0.039
						c0.155,0.025,0.297,0.059,0.426,0.099c0.13,0.04,0.243,0.082,0.341,0.125s0.169,0.082,0.215,0.116l-0.388,0.654
						c-0.098-0.08-0.254-0.153-0.469-0.22c-0.215-0.065-0.47-0.099-0.762-0.099c-0.185,0-0.354,0.019-0.513,0.056
						s-0.294,0.097-0.409,0.177c-0.114,0.08-0.206,0.182-0.275,0.306c-0.068,0.123-0.104,0.271-0.104,0.443
						c0,0.149,0.023,0.274,0.069,0.374c0.046,0.101,0.108,0.189,0.189,0.268c0.08,0.077,0.179,0.147,0.297,0.211
						c0.117,0.063,0.245,0.129,0.383,0.198c0.173,0.086,0.335,0.173,0.486,0.262c0.152,0.09,0.286,0.194,0.4,0.314
						c0.115,0.121,0.206,0.262,0.271,0.422c0.066,0.161,0.1,0.356,0.1,0.586c0,0.315-0.063,0.593-0.186,0.831
						s-0.293,0.436-0.508,0.594c-0.216,0.158-0.471,0.277-0.767,0.357s-0.615,0.12-0.96,0.12c-0.229,0-0.438-0.016-0.624-0.047
						c-0.187-0.032-0.351-0.07-0.491-0.116s-0.26-0.094-0.357-0.143s-0.172-0.093-0.224-0.133l0.388-0.681
						c0.109,0.075,0.281,0.159,0.517,0.254S79.072,39.898,79.434,39.898z"/>
					<path fill="#4D4D4D" d="M85.268,34.465c0.695,0,1.219,0.133,1.571,0.396c0.354,0.264,0.53,0.648,0.53,1.153
						c0,0.391-0.073,0.728-0.22,1.012s-0.354,0.519-0.624,0.702c-0.271,0.184-0.595,0.32-0.974,0.409s-0.801,0.133-1.266,0.133
						h-0.594l-0.534,2.222h-0.835l1.412-5.89c0.241-0.057,0.496-0.095,0.767-0.111C84.771,34.474,85.027,34.465,85.268,34.465z
						 M85.165,35.171c-0.408,0-0.654,0.012-0.741,0.035l-0.567,2.367h0.542c0.241,0,0.487-0.021,0.74-0.064s0.479-0.119,0.681-0.229
						c0.2-0.108,0.365-0.259,0.495-0.451c0.129-0.192,0.193-0.441,0.193-0.745c0-0.327-0.12-0.562-0.361-0.702
						S85.578,35.171,85.165,35.171z"/>
					<path fill="#4D4D4D" d="M87.277,40.492l1.43-5.967h3.521l-0.164,0.697H89.37l-0.431,1.8h2.394l-0.164,0.68h-2.385l-0.508,2.093
						h2.893l-0.163,0.697H87.277z"/>
					<path fill="#4D4D4D" d="M95.706,40.492c-0.104-0.333-0.227-0.712-0.37-1.137s-0.3-0.855-0.469-1.291
						c-0.17-0.437-0.344-0.859-0.521-1.271c-0.178-0.41-0.353-0.768-0.525-1.071l-1.145,4.77h-0.818l1.43-5.967h0.714
						c0.185,0.31,0.372,0.662,0.564,1.055c0.192,0.394,0.376,0.797,0.551,1.21s0.337,0.817,0.486,1.214s0.272,0.752,0.371,1.067
						l1.067-4.546h0.817l-1.42,5.967H95.706z"/>
					<path fill="#4D4D4D" d="M100.751,34.465c0.885,0,1.545,0.208,1.98,0.625c0.437,0.416,0.654,0.977,0.654,1.683
						c0,0.494-0.077,0.969-0.232,1.425c-0.154,0.457-0.396,0.86-0.723,1.21c-0.327,0.351-0.745,0.629-1.253,0.835
						c-0.508,0.207-1.115,0.311-1.821,0.311c-0.241,0-0.502-0.012-0.783-0.035c-0.281-0.022-0.528-0.063-0.74-0.12l1.386-5.795
						c0.241-0.057,0.496-0.095,0.767-0.111C100.255,34.474,100.511,34.465,100.751,34.465z M100.683,35.171
						c-0.431,0-0.688,0.012-0.775,0.035l-1.102,4.598c0.046,0.012,0.123,0.021,0.232,0.03c0.109,0.008,0.287,0.013,0.534,0.013
						c0.453,0,0.862-0.076,1.227-0.229s0.673-0.364,0.926-0.637c0.252-0.272,0.447-0.598,0.585-0.974s0.207-0.787,0.207-1.235
						c0-0.505-0.146-0.898-0.439-1.18S101.319,35.171,100.683,35.171z"/>
					<path fill="#4D4D4D" d="M103.662,40.492l1.43-5.967h3.521l-0.164,0.697h-2.694l-0.431,1.8h2.394l-0.164,0.68h-2.385
						l-0.508,2.093h2.893l-0.163,0.697H103.662z"/>
					<path fill="#4D4D4D" d="M112.091,40.492c-0.104-0.333-0.227-0.712-0.37-1.137s-0.3-0.855-0.469-1.291
						c-0.17-0.437-0.344-0.859-0.521-1.271c-0.178-0.41-0.353-0.768-0.525-1.071l-1.145,4.77h-0.818l1.43-5.967h0.714
						c0.185,0.31,0.372,0.662,0.564,1.055c0.192,0.394,0.376,0.797,0.551,1.21s0.337,0.817,0.486,1.214s0.272,0.752,0.371,1.067
						l1.067-4.546h0.817l-1.42,5.967H112.091z"/>
				</g>
			</g>
		</g>
	</g>
</g>
</svg>
